G04 #@! TF.FileFunction,Copper,L1,Top,Signal*
%FSLAX46Y46*%
G04 Gerber Fmt 4.6, Leading zero omitted, Abs format (unit mm)*
G04 Created by KiCad (PCBNEW 4.0.7) date 04/17/18 20:06:53*
%MOMM*%
%LPD*%
G01*
G04 APERTURE LIST*
%ADD10C,0.100000*%
%ADD11C,0.150000*%
%ADD12C,0.300000*%
%ADD13C,0.400000*%
%ADD14C,0.010000*%
%ADD15R,0.550000X1.600000*%
%ADD16R,1.600000X0.550000*%
%ADD17R,3.750000X2.700000*%
%ADD18R,1.250000X1.500000*%
%ADD19R,1.727200X1.727200*%
%ADD20O,1.727200X1.727200*%
%ADD21R,1.500000X1.300000*%
%ADD22R,1.300000X1.500000*%
%ADD23R,1.300000X1.550000*%
%ADD24C,1.500000*%
%ADD25C,0.254000*%
G04 APERTURE END LIST*
D10*
D11*
X177002200Y-166007200D02*
X177002200Y-198007200D01*
X285002200Y-198007200D01*
X285002200Y-166007200D01*
X177002200Y-166007200D01*
D10*
D11*
X10000000Y-10000000D02*
X10000000Y-200007200D01*
X287002200Y-200007200D01*
X287002200Y-10000000D01*
X10000000Y-10000000D01*
D10*
D11*
X12000000Y-12000000D02*
X12000000Y-198007200D01*
X285002200Y-198007200D01*
X285002200Y-12000000D01*
X12000000Y-12000000D01*
D10*
D11*
X60000000Y-12000000D02*
X60000000Y-10000000D01*
D10*
D11*
X110000000Y-12000000D02*
X110000000Y-10000000D01*
D10*
D11*
X160000000Y-12000000D02*
X160000000Y-10000000D01*
D10*
D11*
X210000000Y-12000000D02*
X210000000Y-10000000D01*
D10*
D11*
X260000000Y-12000000D02*
X260000000Y-10000000D01*
D10*
D11*
X35990476Y-11588095D02*
X35247619Y-11588095D01*
X35619048Y-11588095D02*
X35619048Y-10288095D01*
X35495238Y-10473810D01*
X35371429Y-10597619D01*
X35247619Y-10659524D01*
D10*
D11*
X85247619Y-10411905D02*
X85309524Y-10350000D01*
X85433333Y-10288095D01*
X85742857Y-10288095D01*
X85866667Y-10350000D01*
X85928571Y-10411905D01*
X85990476Y-10535714D01*
X85990476Y-10659524D01*
X85928571Y-10845238D01*
X85185714Y-11588095D01*
X85990476Y-11588095D01*
D10*
D11*
X135185714Y-10288095D02*
X135990476Y-10288095D01*
X135557143Y-10783333D01*
X135742857Y-10783333D01*
X135866667Y-10845238D01*
X135928571Y-10907143D01*
X135990476Y-11030952D01*
X135990476Y-11340476D01*
X135928571Y-11464286D01*
X135866667Y-11526190D01*
X135742857Y-11588095D01*
X135371429Y-11588095D01*
X135247619Y-11526190D01*
X135185714Y-11464286D01*
D10*
D11*
X185866667Y-10721429D02*
X185866667Y-11588095D01*
X185557143Y-10226190D02*
X185247619Y-11154762D01*
X186052381Y-11154762D01*
D10*
D11*
X235928571Y-10288095D02*
X235309524Y-10288095D01*
X235247619Y-10907143D01*
X235309524Y-10845238D01*
X235433333Y-10783333D01*
X235742857Y-10783333D01*
X235866667Y-10845238D01*
X235928571Y-10907143D01*
X235990476Y-11030952D01*
X235990476Y-11340476D01*
X235928571Y-11464286D01*
X235866667Y-11526190D01*
X235742857Y-11588095D01*
X235433333Y-11588095D01*
X235309524Y-11526190D01*
X235247619Y-11464286D01*
D10*
D11*
X285866667Y-10288095D02*
X285619048Y-10288095D01*
X285495238Y-10350000D01*
X285433333Y-10411905D01*
X285309524Y-10597619D01*
X285247619Y-10845238D01*
X285247619Y-11340476D01*
X285309524Y-11464286D01*
X285371429Y-11526190D01*
X285495238Y-11588095D01*
X285742857Y-11588095D01*
X285866667Y-11526190D01*
X285928571Y-11464286D01*
X285990476Y-11340476D01*
X285990476Y-11030952D01*
X285928571Y-10907143D01*
X285866667Y-10845238D01*
X285742857Y-10783333D01*
X285495238Y-10783333D01*
X285371429Y-10845238D01*
X285309524Y-10907143D01*
X285247619Y-11030952D01*
D10*
D11*
X60000000Y-198007200D02*
X60000000Y-200007200D01*
D10*
D11*
X110000000Y-198007200D02*
X110000000Y-200007200D01*
D10*
D11*
X160000000Y-198007200D02*
X160000000Y-200007200D01*
D10*
D11*
X210000000Y-198007200D02*
X210000000Y-200007200D01*
D10*
D11*
X260000000Y-198007200D02*
X260000000Y-200007200D01*
D10*
D11*
X35990476Y-199595295D02*
X35247619Y-199595295D01*
X35619048Y-199595295D02*
X35619048Y-198295295D01*
X35495238Y-198481010D01*
X35371429Y-198604819D01*
X35247619Y-198666724D01*
D10*
D11*
X85247619Y-198419105D02*
X85309524Y-198357200D01*
X85433333Y-198295295D01*
X85742857Y-198295295D01*
X85866667Y-198357200D01*
X85928571Y-198419105D01*
X85990476Y-198542914D01*
X85990476Y-198666724D01*
X85928571Y-198852438D01*
X85185714Y-199595295D01*
X85990476Y-199595295D01*
D10*
D11*
X135185714Y-198295295D02*
X135990476Y-198295295D01*
X135557143Y-198790533D01*
X135742857Y-198790533D01*
X135866667Y-198852438D01*
X135928571Y-198914343D01*
X135990476Y-199038152D01*
X135990476Y-199347676D01*
X135928571Y-199471486D01*
X135866667Y-199533390D01*
X135742857Y-199595295D01*
X135371429Y-199595295D01*
X135247619Y-199533390D01*
X135185714Y-199471486D01*
D10*
D11*
X185866667Y-198728629D02*
X185866667Y-199595295D01*
X185557143Y-198233390D02*
X185247619Y-199161962D01*
X186052381Y-199161962D01*
D10*
D11*
X235928571Y-198295295D02*
X235309524Y-198295295D01*
X235247619Y-198914343D01*
X235309524Y-198852438D01*
X235433333Y-198790533D01*
X235742857Y-198790533D01*
X235866667Y-198852438D01*
X235928571Y-198914343D01*
X235990476Y-199038152D01*
X235990476Y-199347676D01*
X235928571Y-199471486D01*
X235866667Y-199533390D01*
X235742857Y-199595295D01*
X235433333Y-199595295D01*
X235309524Y-199533390D01*
X235247619Y-199471486D01*
D10*
D11*
X285866667Y-198295295D02*
X285619048Y-198295295D01*
X285495238Y-198357200D01*
X285433333Y-198419105D01*
X285309524Y-198604819D01*
X285247619Y-198852438D01*
X285247619Y-199347676D01*
X285309524Y-199471486D01*
X285371429Y-199533390D01*
X285495238Y-199595295D01*
X285742857Y-199595295D01*
X285866667Y-199533390D01*
X285928571Y-199471486D01*
X285990476Y-199347676D01*
X285990476Y-199038152D01*
X285928571Y-198914343D01*
X285866667Y-198852438D01*
X285742857Y-198790533D01*
X285495238Y-198790533D01*
X285371429Y-198852438D01*
X285309524Y-198914343D01*
X285247619Y-199038152D01*
D10*
D11*
X10000000Y-60000000D02*
X12000000Y-60000000D01*
D10*
D11*
X10000000Y-110000000D02*
X12000000Y-110000000D01*
D10*
D11*
X10000000Y-160000000D02*
X12000000Y-160000000D01*
D10*
D11*
X10690476Y-35216667D02*
X11309524Y-35216667D01*
X10566667Y-35588095D02*
X11000000Y-34288095D01*
X11433333Y-35588095D01*
D10*
D11*
X11092857Y-84907143D02*
X11278571Y-84969048D01*
X11340476Y-85030952D01*
X11402381Y-85154762D01*
X11402381Y-85340476D01*
X11340476Y-85464286D01*
X11278571Y-85526190D01*
X11154762Y-85588095D01*
X10659524Y-85588095D01*
X10659524Y-84288095D01*
X11092857Y-84288095D01*
X11216667Y-84350000D01*
X11278571Y-84411905D01*
X11340476Y-84535714D01*
X11340476Y-84659524D01*
X11278571Y-84783333D01*
X11216667Y-84845238D01*
X11092857Y-84907143D01*
X10659524Y-84907143D01*
D10*
D11*
X11402381Y-135464286D02*
X11340476Y-135526190D01*
X11154762Y-135588095D01*
X11030952Y-135588095D01*
X10845238Y-135526190D01*
X10721429Y-135402381D01*
X10659524Y-135278571D01*
X10597619Y-135030952D01*
X10597619Y-134845238D01*
X10659524Y-134597619D01*
X10721429Y-134473810D01*
X10845238Y-134350000D01*
X11030952Y-134288095D01*
X11154762Y-134288095D01*
X11340476Y-134350000D01*
X11402381Y-134411905D01*
D10*
D11*
X10659524Y-185588095D02*
X10659524Y-184288095D01*
X10969048Y-184288095D01*
X11154762Y-184350000D01*
X11278571Y-184473810D01*
X11340476Y-184597619D01*
X11402381Y-184845238D01*
X11402381Y-185030952D01*
X11340476Y-185278571D01*
X11278571Y-185402381D01*
X11154762Y-185526190D01*
X10969048Y-185588095D01*
X10659524Y-185588095D01*
D10*
D11*
X287002200Y-60000000D02*
X285002200Y-60000000D01*
D10*
D11*
X287002200Y-110000000D02*
X285002200Y-110000000D01*
D10*
D11*
X287002200Y-160000000D02*
X285002200Y-160000000D01*
D10*
D11*
X285692676Y-35216667D02*
X286311724Y-35216667D01*
X285568867Y-35588095D02*
X286002200Y-34288095D01*
X286435533Y-35588095D01*
D10*
D11*
X286095057Y-84907143D02*
X286280771Y-84969048D01*
X286342676Y-85030952D01*
X286404581Y-85154762D01*
X286404581Y-85340476D01*
X286342676Y-85464286D01*
X286280771Y-85526190D01*
X286156962Y-85588095D01*
X285661724Y-85588095D01*
X285661724Y-84288095D01*
X286095057Y-84288095D01*
X286218867Y-84350000D01*
X286280771Y-84411905D01*
X286342676Y-84535714D01*
X286342676Y-84659524D01*
X286280771Y-84783333D01*
X286218867Y-84845238D01*
X286095057Y-84907143D01*
X285661724Y-84907143D01*
D10*
D11*
X286404581Y-135464286D02*
X286342676Y-135526190D01*
X286156962Y-135588095D01*
X286033152Y-135588095D01*
X285847438Y-135526190D01*
X285723629Y-135402381D01*
X285661724Y-135278571D01*
X285599819Y-135030952D01*
X285599819Y-134845238D01*
X285661724Y-134597619D01*
X285723629Y-134473810D01*
X285847438Y-134350000D01*
X286033152Y-134288095D01*
X286156962Y-134288095D01*
X286342676Y-134350000D01*
X286404581Y-134411905D01*
D10*
D11*
X285661724Y-185588095D02*
X285661724Y-184288095D01*
X285971248Y-184288095D01*
X286156962Y-184350000D01*
X286280771Y-184473810D01*
X286342676Y-184597619D01*
X286404581Y-184845238D01*
X286404581Y-185030952D01*
X286342676Y-185278571D01*
X286280771Y-185402381D01*
X286156962Y-185526190D01*
X285971248Y-185588095D01*
X285661724Y-185588095D01*
D10*
D11*
X200359343Y-193785771D02*
X200359343Y-192285771D01*
X200716486Y-192285771D01*
X200930771Y-192357200D01*
X201073629Y-192500057D01*
X201145057Y-192642914D01*
X201216486Y-192928629D01*
X201216486Y-193142914D01*
X201145057Y-193428629D01*
X201073629Y-193571486D01*
X200930771Y-193714343D01*
X200716486Y-193785771D01*
X200359343Y-193785771D01*
X202502200Y-193785771D02*
X202502200Y-193000057D01*
X202430771Y-192857200D01*
X202287914Y-192785771D01*
X202002200Y-192785771D01*
X201859343Y-192857200D01*
X202502200Y-193714343D02*
X202359343Y-193785771D01*
X202002200Y-193785771D01*
X201859343Y-193714343D01*
X201787914Y-193571486D01*
X201787914Y-193428629D01*
X201859343Y-193285771D01*
X202002200Y-193214343D01*
X202359343Y-193214343D01*
X202502200Y-193142914D01*
X203002200Y-192785771D02*
X203573629Y-192785771D01*
X203216486Y-192285771D02*
X203216486Y-193571486D01*
X203287914Y-193714343D01*
X203430772Y-193785771D01*
X203573629Y-193785771D01*
X204645057Y-193714343D02*
X204502200Y-193785771D01*
X204216486Y-193785771D01*
X204073629Y-193714343D01*
X204002200Y-193571486D01*
X204002200Y-193000057D01*
X204073629Y-192857200D01*
X204216486Y-192785771D01*
X204502200Y-192785771D01*
X204645057Y-192857200D01*
X204716486Y-193000057D01*
X204716486Y-193142914D01*
X204002200Y-193285771D01*
X205359343Y-193642914D02*
X205430771Y-193714343D01*
X205359343Y-193785771D01*
X205287914Y-193714343D01*
X205359343Y-193642914D01*
X205359343Y-193785771D01*
X205359343Y-192857200D02*
X205430771Y-192928629D01*
X205359343Y-193000057D01*
X205287914Y-192928629D01*
X205359343Y-192857200D01*
X205359343Y-193000057D01*
D10*
D11*
X177002200Y-194507200D02*
X285002200Y-194507200D01*
D10*
D11*
X178359343Y-196585771D02*
X178359343Y-195085771D01*
X179216486Y-196585771D02*
X178573629Y-195728629D01*
X179216486Y-195085771D02*
X178359343Y-195942914D01*
X179859343Y-196585771D02*
X179859343Y-195585771D01*
X179859343Y-195085771D02*
X179787914Y-195157200D01*
X179859343Y-195228629D01*
X179930771Y-195157200D01*
X179859343Y-195085771D01*
X179859343Y-195228629D01*
X181430772Y-196442914D02*
X181359343Y-196514343D01*
X181145057Y-196585771D01*
X181002200Y-196585771D01*
X180787915Y-196514343D01*
X180645057Y-196371486D01*
X180573629Y-196228629D01*
X180502200Y-195942914D01*
X180502200Y-195728629D01*
X180573629Y-195442914D01*
X180645057Y-195300057D01*
X180787915Y-195157200D01*
X181002200Y-195085771D01*
X181145057Y-195085771D01*
X181359343Y-195157200D01*
X181430772Y-195228629D01*
X182716486Y-196585771D02*
X182716486Y-195800057D01*
X182645057Y-195657200D01*
X182502200Y-195585771D01*
X182216486Y-195585771D01*
X182073629Y-195657200D01*
X182716486Y-196514343D02*
X182573629Y-196585771D01*
X182216486Y-196585771D01*
X182073629Y-196514343D01*
X182002200Y-196371486D01*
X182002200Y-196228629D01*
X182073629Y-196085771D01*
X182216486Y-196014343D01*
X182573629Y-196014343D01*
X182716486Y-195942914D01*
X184073629Y-196585771D02*
X184073629Y-195085771D01*
X184073629Y-196514343D02*
X183930772Y-196585771D01*
X183645058Y-196585771D01*
X183502200Y-196514343D01*
X183430772Y-196442914D01*
X183359343Y-196300057D01*
X183359343Y-195871486D01*
X183430772Y-195728629D01*
X183502200Y-195657200D01*
X183645058Y-195585771D01*
X183930772Y-195585771D01*
X184073629Y-195657200D01*
X185930772Y-195800057D02*
X186430772Y-195800057D01*
X186645058Y-196585771D02*
X185930772Y-196585771D01*
X185930772Y-195085771D01*
X186645058Y-195085771D01*
X187287915Y-196442914D02*
X187359343Y-196514343D01*
X187287915Y-196585771D01*
X187216486Y-196514343D01*
X187287915Y-196442914D01*
X187287915Y-196585771D01*
X188002201Y-196585771D02*
X188002201Y-195085771D01*
X188359344Y-195085771D01*
X188573629Y-195157200D01*
X188716487Y-195300057D01*
X188787915Y-195442914D01*
X188859344Y-195728629D01*
X188859344Y-195942914D01*
X188787915Y-196228629D01*
X188716487Y-196371486D01*
X188573629Y-196514343D01*
X188359344Y-196585771D01*
X188002201Y-196585771D01*
X189502201Y-196442914D02*
X189573629Y-196514343D01*
X189502201Y-196585771D01*
X189430772Y-196514343D01*
X189502201Y-196442914D01*
X189502201Y-196585771D01*
X190145058Y-196157200D02*
X190859344Y-196157200D01*
X190002201Y-196585771D02*
X190502201Y-195085771D01*
X191002201Y-196585771D01*
X191502201Y-196442914D02*
X191573629Y-196514343D01*
X191502201Y-196585771D01*
X191430772Y-196514343D01*
X191502201Y-196442914D01*
X191502201Y-196585771D01*
X194502201Y-196585771D02*
X194502201Y-195085771D01*
X194645058Y-196014343D02*
X195073629Y-196585771D01*
X195073629Y-195585771D02*
X194502201Y-196157200D01*
X195716487Y-196585771D02*
X195716487Y-195585771D01*
X195716487Y-195085771D02*
X195645058Y-195157200D01*
X195716487Y-195228629D01*
X195787915Y-195157200D01*
X195716487Y-195085771D01*
X195716487Y-195228629D01*
X197073630Y-196514343D02*
X196930773Y-196585771D01*
X196645059Y-196585771D01*
X196502201Y-196514343D01*
X196430773Y-196442914D01*
X196359344Y-196300057D01*
X196359344Y-195871486D01*
X196430773Y-195728629D01*
X196502201Y-195657200D01*
X196645059Y-195585771D01*
X196930773Y-195585771D01*
X197073630Y-195657200D01*
X198359344Y-196585771D02*
X198359344Y-195800057D01*
X198287915Y-195657200D01*
X198145058Y-195585771D01*
X197859344Y-195585771D01*
X197716487Y-195657200D01*
X198359344Y-196514343D02*
X198216487Y-196585771D01*
X197859344Y-196585771D01*
X197716487Y-196514343D01*
X197645058Y-196371486D01*
X197645058Y-196228629D01*
X197716487Y-196085771D01*
X197859344Y-196014343D01*
X198216487Y-196014343D01*
X198359344Y-195942914D01*
X199716487Y-196585771D02*
X199716487Y-195085771D01*
X199716487Y-196514343D02*
X199573630Y-196585771D01*
X199287916Y-196585771D01*
X199145058Y-196514343D01*
X199073630Y-196442914D01*
X199002201Y-196300057D01*
X199002201Y-195871486D01*
X199073630Y-195728629D01*
X199145058Y-195657200D01*
X199287916Y-195585771D01*
X199573630Y-195585771D01*
X199716487Y-195657200D01*
X202216487Y-195585771D02*
X202216487Y-196585771D01*
X201859344Y-195014343D02*
X201502201Y-196085771D01*
X202430773Y-196085771D01*
X203002201Y-196442914D02*
X203073629Y-196514343D01*
X203002201Y-196585771D01*
X202930772Y-196514343D01*
X203002201Y-196442914D01*
X203002201Y-196585771D01*
X204002201Y-195085771D02*
X204145058Y-195085771D01*
X204287915Y-195157200D01*
X204359344Y-195228629D01*
X204430773Y-195371486D01*
X204502201Y-195657200D01*
X204502201Y-196014343D01*
X204430773Y-196300057D01*
X204359344Y-196442914D01*
X204287915Y-196514343D01*
X204145058Y-196585771D01*
X204002201Y-196585771D01*
X203859344Y-196514343D01*
X203787915Y-196442914D01*
X203716487Y-196300057D01*
X203645058Y-196014343D01*
X203645058Y-195657200D01*
X203716487Y-195371486D01*
X203787915Y-195228629D01*
X203859344Y-195157200D01*
X204002201Y-195085771D01*
X205145058Y-196442914D02*
X205216486Y-196514343D01*
X205145058Y-196585771D01*
X205073629Y-196514343D01*
X205145058Y-196442914D01*
X205145058Y-196585771D01*
X205716487Y-195085771D02*
X206716487Y-195085771D01*
X206073630Y-196585771D01*
D10*
D11*
X177002200Y-191507200D02*
X285002200Y-191507200D01*
D10*
D12*
X264216486Y-193785771D02*
X263716486Y-193071486D01*
X263359343Y-193785771D02*
X263359343Y-192285771D01*
X263930771Y-192285771D01*
X264073629Y-192357200D01*
X264145057Y-192428629D01*
X264216486Y-192571486D01*
X264216486Y-192785771D01*
X264145057Y-192928629D01*
X264073629Y-193000057D01*
X263930771Y-193071486D01*
X263359343Y-193071486D01*
X265430771Y-193714343D02*
X265287914Y-193785771D01*
X265002200Y-193785771D01*
X264859343Y-193714343D01*
X264787914Y-193571486D01*
X264787914Y-193000057D01*
X264859343Y-192857200D01*
X265002200Y-192785771D01*
X265287914Y-192785771D01*
X265430771Y-192857200D01*
X265502200Y-193000057D01*
X265502200Y-193142914D01*
X264787914Y-193285771D01*
X266002200Y-192785771D02*
X266359343Y-193785771D01*
X266716485Y-192785771D01*
X267287914Y-193642914D02*
X267359342Y-193714343D01*
X267287914Y-193785771D01*
X267216485Y-193714343D01*
X267287914Y-193642914D01*
X267287914Y-193785771D01*
X267287914Y-192857200D02*
X267359342Y-192928629D01*
X267287914Y-193000057D01*
X267216485Y-192928629D01*
X267287914Y-192857200D01*
X267287914Y-193000057D01*
D10*
D11*
X178287914Y-193714343D02*
X178502200Y-193785771D01*
X178859343Y-193785771D01*
X179002200Y-193714343D01*
X179073629Y-193642914D01*
X179145057Y-193500057D01*
X179145057Y-193357200D01*
X179073629Y-193214343D01*
X179002200Y-193142914D01*
X178859343Y-193071486D01*
X178573629Y-193000057D01*
X178430771Y-192928629D01*
X178359343Y-192857200D01*
X178287914Y-192714343D01*
X178287914Y-192571486D01*
X178359343Y-192428629D01*
X178430771Y-192357200D01*
X178573629Y-192285771D01*
X178930771Y-192285771D01*
X179145057Y-192357200D01*
X179787914Y-193785771D02*
X179787914Y-192785771D01*
X179787914Y-192285771D02*
X179716485Y-192357200D01*
X179787914Y-192428629D01*
X179859342Y-192357200D01*
X179787914Y-192285771D01*
X179787914Y-192428629D01*
X180359343Y-192785771D02*
X181145057Y-192785771D01*
X180359343Y-193785771D01*
X181145057Y-193785771D01*
X182287914Y-193714343D02*
X182145057Y-193785771D01*
X181859343Y-193785771D01*
X181716486Y-193714343D01*
X181645057Y-193571486D01*
X181645057Y-193000057D01*
X181716486Y-192857200D01*
X181859343Y-192785771D01*
X182145057Y-192785771D01*
X182287914Y-192857200D01*
X182359343Y-193000057D01*
X182359343Y-193142914D01*
X181645057Y-193285771D01*
X183002200Y-193642914D02*
X183073628Y-193714343D01*
X183002200Y-193785771D01*
X182930771Y-193714343D01*
X183002200Y-193642914D01*
X183002200Y-193785771D01*
X183002200Y-192857200D02*
X183073628Y-192928629D01*
X183002200Y-193000057D01*
X182930771Y-192928629D01*
X183002200Y-192857200D01*
X183002200Y-193000057D01*
X184787914Y-193357200D02*
X185502200Y-193357200D01*
X184645057Y-193785771D02*
X185145057Y-192285771D01*
X185645057Y-193785771D01*
X186787914Y-192785771D02*
X186787914Y-193785771D01*
X186430771Y-192214343D02*
X186073628Y-193285771D01*
X187002200Y-193285771D01*
D10*
D11*
X263359343Y-196585771D02*
X263359343Y-195085771D01*
X264716486Y-196585771D02*
X264716486Y-195085771D01*
X264716486Y-196514343D02*
X264573629Y-196585771D01*
X264287915Y-196585771D01*
X264145057Y-196514343D01*
X264073629Y-196442914D01*
X264002200Y-196300057D01*
X264002200Y-195871486D01*
X264073629Y-195728629D01*
X264145057Y-195657200D01*
X264287915Y-195585771D01*
X264573629Y-195585771D01*
X264716486Y-195657200D01*
X265430772Y-196442914D02*
X265502200Y-196514343D01*
X265430772Y-196585771D01*
X265359343Y-196514343D01*
X265430772Y-196442914D01*
X265430772Y-196585771D01*
X265430772Y-195657200D02*
X265502200Y-195728629D01*
X265430772Y-195800057D01*
X265359343Y-195728629D01*
X265430772Y-195657200D01*
X265430772Y-195800057D01*
X268073629Y-196585771D02*
X267216486Y-196585771D01*
X267645058Y-196585771D02*
X267645058Y-195085771D01*
X267502201Y-195300057D01*
X267359343Y-195442914D01*
X267216486Y-195514343D01*
X269787914Y-195014343D02*
X268502200Y-196942914D01*
X271073629Y-196585771D02*
X270216486Y-196585771D01*
X270645058Y-196585771D02*
X270645058Y-195085771D01*
X270502201Y-195300057D01*
X270359343Y-195442914D01*
X270216486Y-195514343D01*
D10*
D11*
X177002200Y-187507200D02*
X285002200Y-187507200D01*
D10*
D13*
X178454581Y-188211962D02*
X179597438Y-188211962D01*
X178776010Y-190211962D02*
X179026010Y-188211962D01*
X180014105Y-190211962D02*
X180180771Y-188878629D01*
X180264105Y-188211962D02*
X180156962Y-188307200D01*
X180240295Y-188402438D01*
X180347439Y-188307200D01*
X180264105Y-188211962D01*
X180240295Y-188402438D01*
X180847438Y-188878629D02*
X181609343Y-188878629D01*
X181216486Y-188211962D02*
X181002200Y-189926248D01*
X181073630Y-190116724D01*
X181252201Y-190211962D01*
X181442677Y-190211962D01*
X182395058Y-190211962D02*
X182216487Y-190116724D01*
X182145057Y-189926248D01*
X182359343Y-188211962D01*
X183930772Y-190116724D02*
X183728391Y-190211962D01*
X183347439Y-190211962D01*
X183168867Y-190116724D01*
X183097438Y-189926248D01*
X183192676Y-189164343D01*
X183311724Y-188973867D01*
X183514105Y-188878629D01*
X183895057Y-188878629D01*
X184073629Y-188973867D01*
X184145057Y-189164343D01*
X184121248Y-189354819D01*
X183145057Y-189545295D01*
X184895057Y-190021486D02*
X184978392Y-190116724D01*
X184871248Y-190211962D01*
X184787915Y-190116724D01*
X184895057Y-190021486D01*
X184871248Y-190211962D01*
X185026010Y-188973867D02*
X185109344Y-189069105D01*
X185002200Y-189164343D01*
X184918867Y-189069105D01*
X185026010Y-188973867D01*
X185002200Y-189164343D01*
D10*
D11*
X178859343Y-185600057D02*
X178359343Y-185600057D01*
X178359343Y-186385771D02*
X178359343Y-184885771D01*
X179073629Y-184885771D01*
X179645057Y-186385771D02*
X179645057Y-185385771D01*
X179645057Y-184885771D02*
X179573628Y-184957200D01*
X179645057Y-185028629D01*
X179716485Y-184957200D01*
X179645057Y-184885771D01*
X179645057Y-185028629D01*
X180573629Y-186385771D02*
X180430771Y-186314343D01*
X180359343Y-186171486D01*
X180359343Y-184885771D01*
X181716485Y-186314343D02*
X181573628Y-186385771D01*
X181287914Y-186385771D01*
X181145057Y-186314343D01*
X181073628Y-186171486D01*
X181073628Y-185600057D01*
X181145057Y-185457200D01*
X181287914Y-185385771D01*
X181573628Y-185385771D01*
X181716485Y-185457200D01*
X181787914Y-185600057D01*
X181787914Y-185742914D01*
X181073628Y-185885771D01*
X182430771Y-186242914D02*
X182502199Y-186314343D01*
X182430771Y-186385771D01*
X182359342Y-186314343D01*
X182430771Y-186242914D01*
X182430771Y-186385771D01*
X182430771Y-185457200D02*
X182502199Y-185528629D01*
X182430771Y-185600057D01*
X182359342Y-185528629D01*
X182430771Y-185457200D01*
X182430771Y-185600057D01*
X184073628Y-185385771D02*
X184645057Y-185385771D01*
X184287914Y-184885771D02*
X184287914Y-186171486D01*
X184359342Y-186314343D01*
X184502200Y-186385771D01*
X184645057Y-186385771D01*
X185716485Y-186314343D02*
X185573628Y-186385771D01*
X185287914Y-186385771D01*
X185145057Y-186314343D01*
X185073628Y-186171486D01*
X185073628Y-185600057D01*
X185145057Y-185457200D01*
X185287914Y-185385771D01*
X185573628Y-185385771D01*
X185716485Y-185457200D01*
X185787914Y-185600057D01*
X185787914Y-185742914D01*
X185073628Y-185885771D01*
X186359342Y-186314343D02*
X186502199Y-186385771D01*
X186787914Y-186385771D01*
X186930771Y-186314343D01*
X187002199Y-186171486D01*
X187002199Y-186100057D01*
X186930771Y-185957200D01*
X186787914Y-185885771D01*
X186573628Y-185885771D01*
X186430771Y-185814343D01*
X186359342Y-185671486D01*
X186359342Y-185600057D01*
X186430771Y-185457200D01*
X186573628Y-185385771D01*
X186787914Y-185385771D01*
X186930771Y-185457200D01*
X187430771Y-185385771D02*
X188002200Y-185385771D01*
X187645057Y-184885771D02*
X187645057Y-186171486D01*
X187716485Y-186314343D01*
X187859343Y-186385771D01*
X188002200Y-186385771D01*
X188430771Y-186314343D02*
X188573628Y-186385771D01*
X188859343Y-186385771D01*
X189002200Y-186314343D01*
X189073628Y-186171486D01*
X189073628Y-186100057D01*
X189002200Y-185957200D01*
X188859343Y-185885771D01*
X188645057Y-185885771D01*
X188502200Y-185814343D01*
X188430771Y-185671486D01*
X188430771Y-185600057D01*
X188502200Y-185457200D01*
X188645057Y-185385771D01*
X188859343Y-185385771D01*
X189002200Y-185457200D01*
X189716486Y-186385771D02*
X189716486Y-184885771D01*
X190359343Y-186385771D02*
X190359343Y-185600057D01*
X190287914Y-185457200D01*
X190145057Y-185385771D01*
X189930772Y-185385771D01*
X189787914Y-185457200D01*
X189716486Y-185528629D01*
X191073629Y-186385771D02*
X191073629Y-185385771D01*
X191073629Y-184885771D02*
X191002200Y-184957200D01*
X191073629Y-185028629D01*
X191145057Y-184957200D01*
X191073629Y-184885771D01*
X191073629Y-185028629D01*
X192359343Y-186314343D02*
X192216486Y-186385771D01*
X191930772Y-186385771D01*
X191787915Y-186314343D01*
X191716486Y-186171486D01*
X191716486Y-185600057D01*
X191787915Y-185457200D01*
X191930772Y-185385771D01*
X192216486Y-185385771D01*
X192359343Y-185457200D01*
X192430772Y-185600057D01*
X192430772Y-185742914D01*
X191716486Y-185885771D01*
X193287915Y-186385771D02*
X193145057Y-186314343D01*
X193073629Y-186171486D01*
X193073629Y-184885771D01*
X194502200Y-186385771D02*
X194502200Y-184885771D01*
X194502200Y-186314343D02*
X194359343Y-186385771D01*
X194073629Y-186385771D01*
X193930771Y-186314343D01*
X193859343Y-186242914D01*
X193787914Y-186100057D01*
X193787914Y-185671486D01*
X193859343Y-185528629D01*
X193930771Y-185457200D01*
X194073629Y-185385771D01*
X194359343Y-185385771D01*
X194502200Y-185457200D01*
X195216486Y-186242914D02*
X195287914Y-186314343D01*
X195216486Y-186385771D01*
X195145057Y-186314343D01*
X195216486Y-186242914D01*
X195216486Y-186385771D01*
X195930772Y-186385771D02*
X195930772Y-184885771D01*
X196073629Y-185814343D02*
X196502200Y-186385771D01*
X196502200Y-185385771D02*
X195930772Y-185957200D01*
X197145058Y-186385771D02*
X197145058Y-185385771D01*
X197145058Y-184885771D02*
X197073629Y-184957200D01*
X197145058Y-185028629D01*
X197216486Y-184957200D01*
X197145058Y-184885771D01*
X197145058Y-185028629D01*
X198502201Y-186314343D02*
X198359344Y-186385771D01*
X198073630Y-186385771D01*
X197930772Y-186314343D01*
X197859344Y-186242914D01*
X197787915Y-186100057D01*
X197787915Y-185671486D01*
X197859344Y-185528629D01*
X197930772Y-185457200D01*
X198073630Y-185385771D01*
X198359344Y-185385771D01*
X198502201Y-185457200D01*
X199787915Y-186385771D02*
X199787915Y-185600057D01*
X199716486Y-185457200D01*
X199573629Y-185385771D01*
X199287915Y-185385771D01*
X199145058Y-185457200D01*
X199787915Y-186314343D02*
X199645058Y-186385771D01*
X199287915Y-186385771D01*
X199145058Y-186314343D01*
X199073629Y-186171486D01*
X199073629Y-186028629D01*
X199145058Y-185885771D01*
X199287915Y-185814343D01*
X199645058Y-185814343D01*
X199787915Y-185742914D01*
X201145058Y-186385771D02*
X201145058Y-184885771D01*
X201145058Y-186314343D02*
X201002201Y-186385771D01*
X200716487Y-186385771D01*
X200573629Y-186314343D01*
X200502201Y-186242914D01*
X200430772Y-186100057D01*
X200430772Y-185671486D01*
X200502201Y-185528629D01*
X200573629Y-185457200D01*
X200716487Y-185385771D01*
X201002201Y-185385771D01*
X201145058Y-185457200D01*
X201502201Y-186528629D02*
X202645058Y-186528629D01*
X203002201Y-185385771D02*
X203002201Y-186885771D01*
X203002201Y-185457200D02*
X203145058Y-185385771D01*
X203430772Y-185385771D01*
X203573629Y-185457200D01*
X203645058Y-185528629D01*
X203716487Y-185671486D01*
X203716487Y-186100057D01*
X203645058Y-186242914D01*
X203573629Y-186314343D01*
X203430772Y-186385771D01*
X203145058Y-186385771D01*
X203002201Y-186314343D01*
X205002201Y-186314343D02*
X204859344Y-186385771D01*
X204573630Y-186385771D01*
X204430772Y-186314343D01*
X204359344Y-186242914D01*
X204287915Y-186100057D01*
X204287915Y-185671486D01*
X204359344Y-185528629D01*
X204430772Y-185457200D01*
X204573630Y-185385771D01*
X204859344Y-185385771D01*
X205002201Y-185457200D01*
X205645058Y-186385771D02*
X205645058Y-184885771D01*
X205645058Y-185457200D02*
X205787915Y-185385771D01*
X206073629Y-185385771D01*
X206216486Y-185457200D01*
X206287915Y-185528629D01*
X206359344Y-185671486D01*
X206359344Y-186100057D01*
X206287915Y-186242914D01*
X206216486Y-186314343D01*
X206073629Y-186385771D01*
X205787915Y-186385771D01*
X205645058Y-186314343D01*
D10*
D11*
X177002200Y-181507200D02*
X285002200Y-181507200D01*
D10*
D11*
X178287914Y-183614343D02*
X178502200Y-183685771D01*
X178859343Y-183685771D01*
X179002200Y-183614343D01*
X179073629Y-183542914D01*
X179145057Y-183400057D01*
X179145057Y-183257200D01*
X179073629Y-183114343D01*
X179002200Y-183042914D01*
X178859343Y-182971486D01*
X178573629Y-182900057D01*
X178430771Y-182828629D01*
X178359343Y-182757200D01*
X178287914Y-182614343D01*
X178287914Y-182471486D01*
X178359343Y-182328629D01*
X178430771Y-182257200D01*
X178573629Y-182185771D01*
X178930771Y-182185771D01*
X179145057Y-182257200D01*
X179787914Y-183685771D02*
X179787914Y-182185771D01*
X180430771Y-183685771D02*
X180430771Y-182900057D01*
X180359342Y-182757200D01*
X180216485Y-182685771D01*
X180002200Y-182685771D01*
X179859342Y-182757200D01*
X179787914Y-182828629D01*
X181716485Y-183614343D02*
X181573628Y-183685771D01*
X181287914Y-183685771D01*
X181145057Y-183614343D01*
X181073628Y-183471486D01*
X181073628Y-182900057D01*
X181145057Y-182757200D01*
X181287914Y-182685771D01*
X181573628Y-182685771D01*
X181716485Y-182757200D01*
X181787914Y-182900057D01*
X181787914Y-183042914D01*
X181073628Y-183185771D01*
X183002199Y-183614343D02*
X182859342Y-183685771D01*
X182573628Y-183685771D01*
X182430771Y-183614343D01*
X182359342Y-183471486D01*
X182359342Y-182900057D01*
X182430771Y-182757200D01*
X182573628Y-182685771D01*
X182859342Y-182685771D01*
X183002199Y-182757200D01*
X183073628Y-182900057D01*
X183073628Y-183042914D01*
X182359342Y-183185771D01*
X183502199Y-182685771D02*
X184073628Y-182685771D01*
X183716485Y-182185771D02*
X183716485Y-183471486D01*
X183787913Y-183614343D01*
X183930771Y-183685771D01*
X184073628Y-183685771D01*
X184573628Y-183542914D02*
X184645056Y-183614343D01*
X184573628Y-183685771D01*
X184502199Y-183614343D01*
X184573628Y-183542914D01*
X184573628Y-183685771D01*
X184573628Y-182757200D02*
X184645056Y-182828629D01*
X184573628Y-182900057D01*
X184502199Y-182828629D01*
X184573628Y-182757200D01*
X184573628Y-182900057D01*
D10*
D11*
X197002200Y-191507200D02*
X197002200Y-194507200D01*
D10*
D11*
X261002200Y-191507200D02*
X261002200Y-198007200D01*
D14*
G36*
X161978734Y-127014265D02*
X162089661Y-127037236D01*
X162182526Y-127073838D01*
X162259898Y-127127033D01*
X162324349Y-127199782D01*
X162378449Y-127295046D01*
X162424768Y-127415787D01*
X162465876Y-127564966D01*
X162469303Y-127579437D01*
X162483318Y-127646805D01*
X162493073Y-127714460D01*
X162499253Y-127790506D01*
X162502546Y-127883047D01*
X162503599Y-127984250D01*
X162503625Y-128082579D01*
X162502541Y-128155149D01*
X162499694Y-128207947D01*
X162494429Y-128246959D01*
X162486091Y-128278174D01*
X162474026Y-128307577D01*
X162466551Y-128323144D01*
X162434029Y-128375401D01*
X162395720Y-128417819D01*
X162379239Y-128430241D01*
X162316779Y-128453186D01*
X162239709Y-128459739D01*
X162160792Y-128449594D01*
X162120490Y-128436479D01*
X162083313Y-128422224D01*
X162061487Y-128416291D01*
X162059526Y-128416635D01*
X162060640Y-128432805D01*
X162065461Y-128476574D01*
X162073514Y-128544067D01*
X162084324Y-128631409D01*
X162097414Y-128734726D01*
X162112312Y-128850144D01*
X162118438Y-128897062D01*
X162136828Y-129039370D01*
X162151112Y-129155636D01*
X162161707Y-129251247D01*
X162169032Y-129331587D01*
X162173504Y-129402041D01*
X162175542Y-129467993D01*
X162175564Y-129534830D01*
X162173987Y-129607936D01*
X162173886Y-129611437D01*
X162165975Y-129761661D01*
X162150594Y-129889220D01*
X162125896Y-130002696D01*
X162090038Y-130110673D01*
X162043855Y-130216179D01*
X161973929Y-130333312D01*
X161881687Y-130446001D01*
X161776057Y-130544172D01*
X161712193Y-130590475D01*
X161609439Y-130645448D01*
X161479118Y-130696018D01*
X161325237Y-130741108D01*
X161151805Y-130779640D01*
X160962829Y-130810537D01*
X160837562Y-130825600D01*
X160776184Y-130830425D01*
X160689983Y-130835028D01*
X160584770Y-130839289D01*
X160466358Y-130843090D01*
X160340558Y-130846310D01*
X160213180Y-130848830D01*
X160090037Y-130850531D01*
X159976940Y-130851293D01*
X159879699Y-130850997D01*
X159804127Y-130849523D01*
X159766000Y-130847635D01*
X159544409Y-130825820D01*
X159332388Y-130794679D01*
X159133219Y-130755132D01*
X158950188Y-130708100D01*
X158786578Y-130654503D01*
X158645675Y-130595260D01*
X158530761Y-130531291D01*
X158467077Y-130483791D01*
X158371373Y-130383447D01*
X158285173Y-130257998D01*
X158211667Y-130113454D01*
X158154047Y-129955827D01*
X158124338Y-129838325D01*
X158112332Y-129769256D01*
X158104603Y-129696298D01*
X158101308Y-129615659D01*
X158101985Y-129567529D01*
X158240496Y-129567529D01*
X158241497Y-129653896D01*
X158247096Y-129729568D01*
X158257140Y-129797975D01*
X158265789Y-129839353D01*
X158279882Y-129897448D01*
X158289857Y-129928656D01*
X158298122Y-129937162D01*
X158307088Y-129927151D01*
X158311495Y-129918728D01*
X158342091Y-129886661D01*
X158370205Y-129876591D01*
X158395259Y-129878807D01*
X158421259Y-129894892D01*
X158454234Y-129929624D01*
X158484145Y-129966882D01*
X158600147Y-130091611D01*
X158737835Y-130194264D01*
X158842345Y-130251090D01*
X158906073Y-130279429D01*
X158960766Y-130297224D01*
X159019474Y-130307597D01*
X159095248Y-130313668D01*
X159106518Y-130314277D01*
X159189189Y-130316775D01*
X159254121Y-130313272D01*
X159314989Y-130302357D01*
X159371361Y-130286914D01*
X159476325Y-130250329D01*
X159560391Y-130207687D01*
X159609267Y-130171143D01*
X159833441Y-130171143D01*
X160033877Y-130163845D01*
X160120176Y-130162127D01*
X160203986Y-130162944D01*
X160275327Y-130166057D01*
X160321625Y-130170781D01*
X160370246Y-130178006D01*
X160404101Y-130181715D01*
X160413992Y-130181567D01*
X160407936Y-130168286D01*
X160387084Y-130137315D01*
X160362211Y-130103661D01*
X160291389Y-130002450D01*
X160229531Y-129894075D01*
X160171451Y-129770518D01*
X160120675Y-129653715D01*
X160059893Y-129788673D01*
X160020217Y-129869251D01*
X159971323Y-129957961D01*
X159922869Y-130037405D01*
X159916276Y-130047386D01*
X159833441Y-130171143D01*
X159609267Y-130171143D01*
X159634407Y-130152347D01*
X159704085Y-130083281D01*
X159785510Y-129983907D01*
X159857954Y-129870946D01*
X159925255Y-129737829D01*
X159975233Y-129619375D01*
X160008387Y-129530314D01*
X160029783Y-129458090D01*
X160042233Y-129391326D01*
X160048269Y-129323754D01*
X160055517Y-129194820D01*
X159974552Y-129175397D01*
X159879717Y-129140767D01*
X159803416Y-129088795D01*
X159749408Y-129023337D01*
X159721453Y-128948249D01*
X159718375Y-128912656D01*
X159717082Y-128884070D01*
X159710026Y-128867721D01*
X159692437Y-128863881D01*
X159659547Y-128872822D01*
X159606587Y-128894814D01*
X159545441Y-128922502D01*
X159398561Y-129003105D01*
X159262366Y-129106577D01*
X159132696Y-129236358D01*
X159058688Y-129325233D01*
X159022203Y-129364936D01*
X158994323Y-129378457D01*
X158983282Y-129376696D01*
X158962294Y-129361081D01*
X158959617Y-129334498D01*
X158976215Y-129293008D01*
X159013052Y-129232672D01*
X159021718Y-129219785D01*
X159139351Y-129072856D01*
X159280131Y-128941512D01*
X159438241Y-128829942D01*
X159607866Y-128742333D01*
X159758062Y-128689475D01*
X159850804Y-128670935D01*
X159963978Y-128659016D01*
X160086908Y-128653986D01*
X160208919Y-128656110D01*
X160319335Y-128665656D01*
X160371189Y-128674154D01*
X160566326Y-128729006D01*
X160754513Y-128811936D01*
X160930510Y-128919744D01*
X161089077Y-129049232D01*
X161222101Y-129193563D01*
X161275338Y-129264748D01*
X161306329Y-129316616D01*
X161316054Y-129351499D01*
X161305491Y-129371728D01*
X161298428Y-129375320D01*
X161275663Y-129370828D01*
X161238013Y-129344210D01*
X161183657Y-129294090D01*
X161161427Y-129271838D01*
X161000393Y-129125315D01*
X160832604Y-129007208D01*
X160653199Y-128914241D01*
X160595949Y-128890593D01*
X160513087Y-128858217D01*
X160522160Y-128903583D01*
X160519321Y-128965830D01*
X160489527Y-129028406D01*
X160437180Y-129086676D01*
X160366684Y-129136002D01*
X160282441Y-129171748D01*
X160262093Y-129177433D01*
X160194625Y-129194519D01*
X160194625Y-129310432D01*
X160206519Y-129427231D01*
X160241377Y-129560631D01*
X160297957Y-129706685D01*
X160357710Y-129829387D01*
X160446308Y-129977360D01*
X160541037Y-130095750D01*
X160644733Y-130186554D01*
X160760232Y-130251766D01*
X160890370Y-130293385D01*
X161037984Y-130313404D01*
X161046173Y-130313891D01*
X161186315Y-130311089D01*
X161315455Y-130285014D01*
X161437515Y-130233857D01*
X161556419Y-130155811D01*
X161676091Y-130049067D01*
X161720141Y-130003238D01*
X161785564Y-129936334D01*
X161835723Y-129894123D01*
X161873479Y-129875232D01*
X161901693Y-129878289D01*
X161923229Y-129901920D01*
X161924923Y-129904981D01*
X161931709Y-129937699D01*
X161919313Y-129978612D01*
X161886034Y-130030486D01*
X161830170Y-130096090D01*
X161767919Y-130160474D01*
X161639230Y-130274441D01*
X161508209Y-130360327D01*
X161371610Y-130418902D01*
X161226187Y-130450937D01*
X161068694Y-130457203D01*
X160895884Y-130438468D01*
X160739026Y-130404621D01*
X160539338Y-130357496D01*
X160361484Y-130325098D01*
X160199221Y-130307333D01*
X160046303Y-130304108D01*
X159896486Y-130315328D01*
X159743527Y-130340901D01*
X159581181Y-130380733D01*
X159559151Y-130386928D01*
X159453697Y-130416246D01*
X159370909Y-130437006D01*
X159303224Y-130450361D01*
X159243082Y-130457467D01*
X159182919Y-130459481D01*
X159115175Y-130457555D01*
X159101347Y-130456867D01*
X158933519Y-130433040D01*
X158775192Y-130379362D01*
X158625960Y-130295605D01*
X158485418Y-130181542D01*
X158355663Y-130040062D01*
X158304490Y-129976562D01*
X158329479Y-130040062D01*
X158399564Y-130179828D01*
X158491719Y-130303009D01*
X158601980Y-130405504D01*
X158726383Y-130483214D01*
X158780902Y-130507091D01*
X158948524Y-130562955D01*
X159144400Y-130612515D01*
X159365549Y-130655158D01*
X159608988Y-130690267D01*
X159742187Y-130705220D01*
X159794243Y-130708237D01*
X159872659Y-130709805D01*
X159972085Y-130710053D01*
X160087172Y-130709114D01*
X160212569Y-130707118D01*
X160342925Y-130704195D01*
X160472891Y-130700478D01*
X160597116Y-130696096D01*
X160710250Y-130691181D01*
X160806943Y-130685863D01*
X160881845Y-130680274D01*
X160916937Y-130676475D01*
X161112072Y-130646428D01*
X161278919Y-130611738D01*
X161420750Y-130571261D01*
X161540834Y-130523855D01*
X161642440Y-130468377D01*
X161728838Y-130403686D01*
X161748384Y-130385997D01*
X161844913Y-130274746D01*
X161924522Y-130139297D01*
X161980812Y-129996575D01*
X162000286Y-129921071D01*
X162017791Y-129827958D01*
X162032229Y-129726531D01*
X162042501Y-129626083D01*
X162047508Y-129535910D01*
X162046152Y-129465304D01*
X162044963Y-129453887D01*
X162041064Y-129422810D01*
X162033760Y-129364470D01*
X162023582Y-129283109D01*
X162011060Y-129182969D01*
X161996724Y-129068294D01*
X161981106Y-128943324D01*
X161970369Y-128857389D01*
X161903925Y-128325591D01*
X161747658Y-128177007D01*
X161614094Y-128040534D01*
X161498418Y-127902964D01*
X161404476Y-127769218D01*
X161343158Y-127659260D01*
X161312559Y-127589029D01*
X161296137Y-127530796D01*
X161290254Y-127470276D01*
X161290000Y-127450527D01*
X161290000Y-127352472D01*
X161182843Y-127342442D01*
X160927356Y-127321751D01*
X160660621Y-127306119D01*
X160388430Y-127295588D01*
X160116575Y-127290198D01*
X159850847Y-127289990D01*
X159597036Y-127295006D01*
X159360934Y-127305287D01*
X159148333Y-127320874D01*
X159081339Y-127327506D01*
X158991992Y-127337038D01*
X158984699Y-127458237D01*
X158976044Y-127540114D01*
X158958583Y-127607341D01*
X158928005Y-127676615D01*
X158858407Y-127794205D01*
X158765627Y-127920987D01*
X158654385Y-128051004D01*
X158533954Y-128173955D01*
X158379758Y-128321367D01*
X158309830Y-128855277D01*
X158285539Y-129046546D01*
X158266614Y-129209977D01*
X158252901Y-129348999D01*
X158244246Y-129467040D01*
X158240496Y-129567529D01*
X158101985Y-129567529D01*
X158102605Y-129523550D01*
X158108650Y-129416180D01*
X158119601Y-129289757D01*
X158135615Y-129140491D01*
X158156849Y-128964591D01*
X158162413Y-128920554D01*
X158177733Y-128798699D01*
X158191386Y-128687324D01*
X158202934Y-128590233D01*
X158211939Y-128511226D01*
X158217961Y-128454108D01*
X158220563Y-128422680D01*
X158220413Y-128417747D01*
X158203941Y-128419875D01*
X158169458Y-128431696D01*
X158157634Y-128436479D01*
X158083269Y-128456125D01*
X158003591Y-128458900D01*
X157931365Y-128445111D01*
X157898885Y-128430241D01*
X157848759Y-128387484D01*
X157811744Y-128326530D01*
X157786603Y-128243908D01*
X157772094Y-128136148D01*
X157768179Y-128064380D01*
X157769608Y-127894117D01*
X157784455Y-127727333D01*
X157811526Y-127569084D01*
X157849630Y-127424429D01*
X157897574Y-127298426D01*
X157954165Y-127196133D01*
X157981371Y-127160089D01*
X158051908Y-127099422D01*
X158147962Y-127052613D01*
X158266052Y-127020590D01*
X158402698Y-127004282D01*
X158554418Y-127004616D01*
X158562705Y-127005109D01*
X158687144Y-127020914D01*
X158786581Y-127052036D01*
X158864538Y-127099843D01*
X158902616Y-127137281D01*
X158952045Y-127194802D01*
X159243929Y-127172807D01*
X159372106Y-127165176D01*
X159525354Y-127159382D01*
X159697047Y-127155424D01*
X159880560Y-127153307D01*
X160069266Y-127153030D01*
X160256539Y-127154597D01*
X160435753Y-127158010D01*
X160600283Y-127163269D01*
X160743503Y-127170378D01*
X160774062Y-127172365D01*
X160876832Y-127179382D01*
X160981151Y-127186428D01*
X161077541Y-127192870D01*
X161156526Y-127198072D01*
X161186812Y-127200027D01*
X161329687Y-127209151D01*
X161366437Y-127150850D01*
X161419730Y-127094650D01*
X161498738Y-127050826D01*
X161599586Y-127020243D01*
X161718397Y-127003764D01*
X161851299Y-127002255D01*
X161978734Y-127014265D01*
X161978734Y-127014265D01*
G37*
X161978734Y-127014265D02*
X162089661Y-127037236D01*
X162182526Y-127073838D01*
X162259898Y-127127033D01*
X162324349Y-127199782D01*
X162378449Y-127295046D01*
X162424768Y-127415787D01*
X162465876Y-127564966D01*
X162469303Y-127579437D01*
X162483318Y-127646805D01*
X162493073Y-127714460D01*
X162499253Y-127790506D01*
X162502546Y-127883047D01*
X162503599Y-127984250D01*
X162503625Y-128082579D01*
X162502541Y-128155149D01*
X162499694Y-128207947D01*
X162494429Y-128246959D01*
X162486091Y-128278174D01*
X162474026Y-128307577D01*
X162466551Y-128323144D01*
X162434029Y-128375401D01*
X162395720Y-128417819D01*
X162379239Y-128430241D01*
X162316779Y-128453186D01*
X162239709Y-128459739D01*
X162160792Y-128449594D01*
X162120490Y-128436479D01*
X162083313Y-128422224D01*
X162061487Y-128416291D01*
X162059526Y-128416635D01*
X162060640Y-128432805D01*
X162065461Y-128476574D01*
X162073514Y-128544067D01*
X162084324Y-128631409D01*
X162097414Y-128734726D01*
X162112312Y-128850144D01*
X162118438Y-128897062D01*
X162136828Y-129039370D01*
X162151112Y-129155636D01*
X162161707Y-129251247D01*
X162169032Y-129331587D01*
X162173504Y-129402041D01*
X162175542Y-129467993D01*
X162175564Y-129534830D01*
X162173987Y-129607936D01*
X162173886Y-129611437D01*
X162165975Y-129761661D01*
X162150594Y-129889220D01*
X162125896Y-130002696D01*
X162090038Y-130110673D01*
X162043855Y-130216179D01*
X161973929Y-130333312D01*
X161881687Y-130446001D01*
X161776057Y-130544172D01*
X161712193Y-130590475D01*
X161609439Y-130645448D01*
X161479118Y-130696018D01*
X161325237Y-130741108D01*
X161151805Y-130779640D01*
X160962829Y-130810537D01*
X160837562Y-130825600D01*
X160776184Y-130830425D01*
X160689983Y-130835028D01*
X160584770Y-130839289D01*
X160466358Y-130843090D01*
X160340558Y-130846310D01*
X160213180Y-130848830D01*
X160090037Y-130850531D01*
X159976940Y-130851293D01*
X159879699Y-130850997D01*
X159804127Y-130849523D01*
X159766000Y-130847635D01*
X159544409Y-130825820D01*
X159332388Y-130794679D01*
X159133219Y-130755132D01*
X158950188Y-130708100D01*
X158786578Y-130654503D01*
X158645675Y-130595260D01*
X158530761Y-130531291D01*
X158467077Y-130483791D01*
X158371373Y-130383447D01*
X158285173Y-130257998D01*
X158211667Y-130113454D01*
X158154047Y-129955827D01*
X158124338Y-129838325D01*
X158112332Y-129769256D01*
X158104603Y-129696298D01*
X158101308Y-129615659D01*
X158101985Y-129567529D01*
X158240496Y-129567529D01*
X158241497Y-129653896D01*
X158247096Y-129729568D01*
X158257140Y-129797975D01*
X158265789Y-129839353D01*
X158279882Y-129897448D01*
X158289857Y-129928656D01*
X158298122Y-129937162D01*
X158307088Y-129927151D01*
X158311495Y-129918728D01*
X158342091Y-129886661D01*
X158370205Y-129876591D01*
X158395259Y-129878807D01*
X158421259Y-129894892D01*
X158454234Y-129929624D01*
X158484145Y-129966882D01*
X158600147Y-130091611D01*
X158737835Y-130194264D01*
X158842345Y-130251090D01*
X158906073Y-130279429D01*
X158960766Y-130297224D01*
X159019474Y-130307597D01*
X159095248Y-130313668D01*
X159106518Y-130314277D01*
X159189189Y-130316775D01*
X159254121Y-130313272D01*
X159314989Y-130302357D01*
X159371361Y-130286914D01*
X159476325Y-130250329D01*
X159560391Y-130207687D01*
X159609267Y-130171143D01*
X159833441Y-130171143D01*
X160033877Y-130163845D01*
X160120176Y-130162127D01*
X160203986Y-130162944D01*
X160275327Y-130166057D01*
X160321625Y-130170781D01*
X160370246Y-130178006D01*
X160404101Y-130181715D01*
X160413992Y-130181567D01*
X160407936Y-130168286D01*
X160387084Y-130137315D01*
X160362211Y-130103661D01*
X160291389Y-130002450D01*
X160229531Y-129894075D01*
X160171451Y-129770518D01*
X160120675Y-129653715D01*
X160059893Y-129788673D01*
X160020217Y-129869251D01*
X159971323Y-129957961D01*
X159922869Y-130037405D01*
X159916276Y-130047386D01*
X159833441Y-130171143D01*
X159609267Y-130171143D01*
X159634407Y-130152347D01*
X159704085Y-130083281D01*
X159785510Y-129983907D01*
X159857954Y-129870946D01*
X159925255Y-129737829D01*
X159975233Y-129619375D01*
X160008387Y-129530314D01*
X160029783Y-129458090D01*
X160042233Y-129391326D01*
X160048269Y-129323754D01*
X160055517Y-129194820D01*
X159974552Y-129175397D01*
X159879717Y-129140767D01*
X159803416Y-129088795D01*
X159749408Y-129023337D01*
X159721453Y-128948249D01*
X159718375Y-128912656D01*
X159717082Y-128884070D01*
X159710026Y-128867721D01*
X159692437Y-128863881D01*
X159659547Y-128872822D01*
X159606587Y-128894814D01*
X159545441Y-128922502D01*
X159398561Y-129003105D01*
X159262366Y-129106577D01*
X159132696Y-129236358D01*
X159058688Y-129325233D01*
X159022203Y-129364936D01*
X158994323Y-129378457D01*
X158983282Y-129376696D01*
X158962294Y-129361081D01*
X158959617Y-129334498D01*
X158976215Y-129293008D01*
X159013052Y-129232672D01*
X159021718Y-129219785D01*
X159139351Y-129072856D01*
X159280131Y-128941512D01*
X159438241Y-128829942D01*
X159607866Y-128742333D01*
X159758062Y-128689475D01*
X159850804Y-128670935D01*
X159963978Y-128659016D01*
X160086908Y-128653986D01*
X160208919Y-128656110D01*
X160319335Y-128665656D01*
X160371189Y-128674154D01*
X160566326Y-128729006D01*
X160754513Y-128811936D01*
X160930510Y-128919744D01*
X161089077Y-129049232D01*
X161222101Y-129193563D01*
X161275338Y-129264748D01*
X161306329Y-129316616D01*
X161316054Y-129351499D01*
X161305491Y-129371728D01*
X161298428Y-129375320D01*
X161275663Y-129370828D01*
X161238013Y-129344210D01*
X161183657Y-129294090D01*
X161161427Y-129271838D01*
X161000393Y-129125315D01*
X160832604Y-129007208D01*
X160653199Y-128914241D01*
X160595949Y-128890593D01*
X160513087Y-128858217D01*
X160522160Y-128903583D01*
X160519321Y-128965830D01*
X160489527Y-129028406D01*
X160437180Y-129086676D01*
X160366684Y-129136002D01*
X160282441Y-129171748D01*
X160262093Y-129177433D01*
X160194625Y-129194519D01*
X160194625Y-129310432D01*
X160206519Y-129427231D01*
X160241377Y-129560631D01*
X160297957Y-129706685D01*
X160357710Y-129829387D01*
X160446308Y-129977360D01*
X160541037Y-130095750D01*
X160644733Y-130186554D01*
X160760232Y-130251766D01*
X160890370Y-130293385D01*
X161037984Y-130313404D01*
X161046173Y-130313891D01*
X161186315Y-130311089D01*
X161315455Y-130285014D01*
X161437515Y-130233857D01*
X161556419Y-130155811D01*
X161676091Y-130049067D01*
X161720141Y-130003238D01*
X161785564Y-129936334D01*
X161835723Y-129894123D01*
X161873479Y-129875232D01*
X161901693Y-129878289D01*
X161923229Y-129901920D01*
X161924923Y-129904981D01*
X161931709Y-129937699D01*
X161919313Y-129978612D01*
X161886034Y-130030486D01*
X161830170Y-130096090D01*
X161767919Y-130160474D01*
X161639230Y-130274441D01*
X161508209Y-130360327D01*
X161371610Y-130418902D01*
X161226187Y-130450937D01*
X161068694Y-130457203D01*
X160895884Y-130438468D01*
X160739026Y-130404621D01*
X160539338Y-130357496D01*
X160361484Y-130325098D01*
X160199221Y-130307333D01*
X160046303Y-130304108D01*
X159896486Y-130315328D01*
X159743527Y-130340901D01*
X159581181Y-130380733D01*
X159559151Y-130386928D01*
X159453697Y-130416246D01*
X159370909Y-130437006D01*
X159303224Y-130450361D01*
X159243082Y-130457467D01*
X159182919Y-130459481D01*
X159115175Y-130457555D01*
X159101347Y-130456867D01*
X158933519Y-130433040D01*
X158775192Y-130379362D01*
X158625960Y-130295605D01*
X158485418Y-130181542D01*
X158355663Y-130040062D01*
X158304490Y-129976562D01*
X158329479Y-130040062D01*
X158399564Y-130179828D01*
X158491719Y-130303009D01*
X158601980Y-130405504D01*
X158726383Y-130483214D01*
X158780902Y-130507091D01*
X158948524Y-130562955D01*
X159144400Y-130612515D01*
X159365549Y-130655158D01*
X159608988Y-130690267D01*
X159742187Y-130705220D01*
X159794243Y-130708237D01*
X159872659Y-130709805D01*
X159972085Y-130710053D01*
X160087172Y-130709114D01*
X160212569Y-130707118D01*
X160342925Y-130704195D01*
X160472891Y-130700478D01*
X160597116Y-130696096D01*
X160710250Y-130691181D01*
X160806943Y-130685863D01*
X160881845Y-130680274D01*
X160916937Y-130676475D01*
X161112072Y-130646428D01*
X161278919Y-130611738D01*
X161420750Y-130571261D01*
X161540834Y-130523855D01*
X161642440Y-130468377D01*
X161728838Y-130403686D01*
X161748384Y-130385997D01*
X161844913Y-130274746D01*
X161924522Y-130139297D01*
X161980812Y-129996575D01*
X162000286Y-129921071D01*
X162017791Y-129827958D01*
X162032229Y-129726531D01*
X162042501Y-129626083D01*
X162047508Y-129535910D01*
X162046152Y-129465304D01*
X162044963Y-129453887D01*
X162041064Y-129422810D01*
X162033760Y-129364470D01*
X162023582Y-129283109D01*
X162011060Y-129182969D01*
X161996724Y-129068294D01*
X161981106Y-128943324D01*
X161970369Y-128857389D01*
X161903925Y-128325591D01*
X161747658Y-128177007D01*
X161614094Y-128040534D01*
X161498418Y-127902964D01*
X161404476Y-127769218D01*
X161343158Y-127659260D01*
X161312559Y-127589029D01*
X161296137Y-127530796D01*
X161290254Y-127470276D01*
X161290000Y-127450527D01*
X161290000Y-127352472D01*
X161182843Y-127342442D01*
X160927356Y-127321751D01*
X160660621Y-127306119D01*
X160388430Y-127295588D01*
X160116575Y-127290198D01*
X159850847Y-127289990D01*
X159597036Y-127295006D01*
X159360934Y-127305287D01*
X159148333Y-127320874D01*
X159081339Y-127327506D01*
X158991992Y-127337038D01*
X158984699Y-127458237D01*
X158976044Y-127540114D01*
X158958583Y-127607341D01*
X158928005Y-127676615D01*
X158858407Y-127794205D01*
X158765627Y-127920987D01*
X158654385Y-128051004D01*
X158533954Y-128173955D01*
X158379758Y-128321367D01*
X158309830Y-128855277D01*
X158285539Y-129046546D01*
X158266614Y-129209977D01*
X158252901Y-129348999D01*
X158244246Y-129467040D01*
X158240496Y-129567529D01*
X158101985Y-129567529D01*
X158102605Y-129523550D01*
X158108650Y-129416180D01*
X158119601Y-129289757D01*
X158135615Y-129140491D01*
X158156849Y-128964591D01*
X158162413Y-128920554D01*
X158177733Y-128798699D01*
X158191386Y-128687324D01*
X158202934Y-128590233D01*
X158211939Y-128511226D01*
X158217961Y-128454108D01*
X158220563Y-128422680D01*
X158220413Y-128417747D01*
X158203941Y-128419875D01*
X158169458Y-128431696D01*
X158157634Y-128436479D01*
X158083269Y-128456125D01*
X158003591Y-128458900D01*
X157931365Y-128445111D01*
X157898885Y-128430241D01*
X157848759Y-128387484D01*
X157811744Y-128326530D01*
X157786603Y-128243908D01*
X157772094Y-128136148D01*
X157768179Y-128064380D01*
X157769608Y-127894117D01*
X157784455Y-127727333D01*
X157811526Y-127569084D01*
X157849630Y-127424429D01*
X157897574Y-127298426D01*
X157954165Y-127196133D01*
X157981371Y-127160089D01*
X158051908Y-127099422D01*
X158147962Y-127052613D01*
X158266052Y-127020590D01*
X158402698Y-127004282D01*
X158554418Y-127004616D01*
X158562705Y-127005109D01*
X158687144Y-127020914D01*
X158786581Y-127052036D01*
X158864538Y-127099843D01*
X158902616Y-127137281D01*
X158952045Y-127194802D01*
X159243929Y-127172807D01*
X159372106Y-127165176D01*
X159525354Y-127159382D01*
X159697047Y-127155424D01*
X159880560Y-127153307D01*
X160069266Y-127153030D01*
X160256539Y-127154597D01*
X160435753Y-127158010D01*
X160600283Y-127163269D01*
X160743503Y-127170378D01*
X160774062Y-127172365D01*
X160876832Y-127179382D01*
X160981151Y-127186428D01*
X161077541Y-127192870D01*
X161156526Y-127198072D01*
X161186812Y-127200027D01*
X161329687Y-127209151D01*
X161366437Y-127150850D01*
X161419730Y-127094650D01*
X161498738Y-127050826D01*
X161599586Y-127020243D01*
X161718397Y-127003764D01*
X161851299Y-127002255D01*
X161978734Y-127014265D01*
G36*
X160383732Y-128483395D02*
X160534801Y-128524581D01*
X160607216Y-128551135D01*
X160688538Y-128586186D01*
X160771203Y-128625899D01*
X160847647Y-128666439D01*
X160910306Y-128703968D01*
X160951616Y-128734652D01*
X160954534Y-128737446D01*
X160968022Y-128762739D01*
X160966029Y-128775625D01*
X160946617Y-128777912D01*
X160903933Y-128763861D01*
X160849057Y-128738474D01*
X160723131Y-128685866D01*
X160579784Y-128646697D01*
X160415695Y-128620384D01*
X160227546Y-128606343D01*
X160081610Y-128603505D01*
X159893509Y-128611258D01*
X159723400Y-128634331D01*
X159574445Y-128672028D01*
X159449807Y-128723656D01*
X159399141Y-128753450D01*
X159349392Y-128783221D01*
X159319770Y-128792264D01*
X159306876Y-128781173D01*
X159305625Y-128769741D01*
X159318622Y-128750188D01*
X159353694Y-128719545D01*
X159404964Y-128681776D01*
X159466552Y-128640846D01*
X159532579Y-128600718D01*
X159597168Y-128565358D01*
X159637428Y-128545987D01*
X159812418Y-128484734D01*
X159994796Y-128453892D01*
X160185066Y-128453450D01*
X160383732Y-128483395D01*
X160383732Y-128483395D01*
G37*
X160383732Y-128483395D02*
X160534801Y-128524581D01*
X160607216Y-128551135D01*
X160688538Y-128586186D01*
X160771203Y-128625899D01*
X160847647Y-128666439D01*
X160910306Y-128703968D01*
X160951616Y-128734652D01*
X160954534Y-128737446D01*
X160968022Y-128762739D01*
X160966029Y-128775625D01*
X160946617Y-128777912D01*
X160903933Y-128763861D01*
X160849057Y-128738474D01*
X160723131Y-128685866D01*
X160579784Y-128646697D01*
X160415695Y-128620384D01*
X160227546Y-128606343D01*
X160081610Y-128603505D01*
X159893509Y-128611258D01*
X159723400Y-128634331D01*
X159574445Y-128672028D01*
X159449807Y-128723656D01*
X159399141Y-128753450D01*
X159349392Y-128783221D01*
X159319770Y-128792264D01*
X159306876Y-128781173D01*
X159305625Y-128769741D01*
X159318622Y-128750188D01*
X159353694Y-128719545D01*
X159404964Y-128681776D01*
X159466552Y-128640846D01*
X159532579Y-128600718D01*
X159597168Y-128565358D01*
X159637428Y-128545987D01*
X159812418Y-128484734D01*
X159994796Y-128453892D01*
X160185066Y-128453450D01*
X160383732Y-128483395D01*
G36*
X159127390Y-128167211D02*
X159167476Y-128180322D01*
X159233698Y-128222760D01*
X159288985Y-128285745D01*
X159328508Y-128360625D01*
X159347437Y-128438748D01*
X159344556Y-128497547D01*
X159310414Y-128593390D01*
X159254155Y-128666875D01*
X159177412Y-128716588D01*
X159081818Y-128741111D01*
X159061648Y-128742806D01*
X159002389Y-128744174D01*
X158959752Y-128737315D01*
X158918951Y-128718651D01*
X158891193Y-128701583D01*
X158819571Y-128638587D01*
X158773012Y-128561130D01*
X158752735Y-128475073D01*
X158759957Y-128386274D01*
X158775611Y-128348954D01*
X158814598Y-128348954D01*
X158821772Y-128404837D01*
X158858968Y-128460736D01*
X158861761Y-128463578D01*
X158897742Y-128494517D01*
X158928865Y-128504908D01*
X158960924Y-128501658D01*
X159007421Y-128484629D01*
X159042838Y-128460466D01*
X159070238Y-128412740D01*
X159073456Y-128356415D01*
X159053253Y-128302533D01*
X159030102Y-128275880D01*
X158977016Y-128243956D01*
X158923977Y-128242416D01*
X158887862Y-128256718D01*
X158836833Y-128297957D01*
X158814598Y-128348954D01*
X158775611Y-128348954D01*
X158795897Y-128300592D01*
X158804976Y-128286720D01*
X158868025Y-128221970D01*
X158948137Y-128178895D01*
X159037272Y-128159856D01*
X159127390Y-128167211D01*
X159127390Y-128167211D01*
G37*
X159127390Y-128167211D02*
X159167476Y-128180322D01*
X159233698Y-128222760D01*
X159288985Y-128285745D01*
X159328508Y-128360625D01*
X159347437Y-128438748D01*
X159344556Y-128497547D01*
X159310414Y-128593390D01*
X159254155Y-128666875D01*
X159177412Y-128716588D01*
X159081818Y-128741111D01*
X159061648Y-128742806D01*
X159002389Y-128744174D01*
X158959752Y-128737315D01*
X158918951Y-128718651D01*
X158891193Y-128701583D01*
X158819571Y-128638587D01*
X158773012Y-128561130D01*
X158752735Y-128475073D01*
X158759957Y-128386274D01*
X158775611Y-128348954D01*
X158814598Y-128348954D01*
X158821772Y-128404837D01*
X158858968Y-128460736D01*
X158861761Y-128463578D01*
X158897742Y-128494517D01*
X158928865Y-128504908D01*
X158960924Y-128501658D01*
X159007421Y-128484629D01*
X159042838Y-128460466D01*
X159070238Y-128412740D01*
X159073456Y-128356415D01*
X159053253Y-128302533D01*
X159030102Y-128275880D01*
X158977016Y-128243956D01*
X158923977Y-128242416D01*
X158887862Y-128256718D01*
X158836833Y-128297957D01*
X158814598Y-128348954D01*
X158775611Y-128348954D01*
X158795897Y-128300592D01*
X158804976Y-128286720D01*
X158868025Y-128221970D01*
X158948137Y-128178895D01*
X159037272Y-128159856D01*
X159127390Y-128167211D01*
G36*
X161280365Y-128164574D02*
X161358921Y-128191309D01*
X161428271Y-128237410D01*
X161483084Y-128300384D01*
X161518027Y-128377735D01*
X161528125Y-128452562D01*
X161513412Y-128541059D01*
X161472779Y-128619854D01*
X161411481Y-128683686D01*
X161334774Y-128727296D01*
X161247913Y-128745423D01*
X161235298Y-128745628D01*
X161177176Y-128741004D01*
X161123996Y-128730061D01*
X161107142Y-128724127D01*
X161049150Y-128685606D01*
X160995009Y-128627048D01*
X160954029Y-128559694D01*
X160940448Y-128522880D01*
X160931190Y-128431492D01*
X160946843Y-128368434D01*
X160988375Y-128368434D01*
X161002932Y-128424545D01*
X161041563Y-128470888D01*
X161096705Y-128500381D01*
X161136439Y-128507118D01*
X161165499Y-128497122D01*
X161201949Y-128471007D01*
X161211846Y-128461721D01*
X161245718Y-128416143D01*
X161258250Y-128373187D01*
X161244697Y-128328061D01*
X161210700Y-128283876D01*
X161166245Y-128250621D01*
X161123312Y-128238250D01*
X161080462Y-128251120D01*
X161036992Y-128283266D01*
X161002957Y-128324986D01*
X160988410Y-128366580D01*
X160988375Y-128368434D01*
X160946843Y-128368434D01*
X160952821Y-128344353D01*
X161004538Y-128263794D01*
X161042787Y-128225514D01*
X161116966Y-128179182D01*
X161197936Y-128159700D01*
X161280365Y-128164574D01*
X161280365Y-128164574D01*
G37*
X161280365Y-128164574D02*
X161358921Y-128191309D01*
X161428271Y-128237410D01*
X161483084Y-128300384D01*
X161518027Y-128377735D01*
X161528125Y-128452562D01*
X161513412Y-128541059D01*
X161472779Y-128619854D01*
X161411481Y-128683686D01*
X161334774Y-128727296D01*
X161247913Y-128745423D01*
X161235298Y-128745628D01*
X161177176Y-128741004D01*
X161123996Y-128730061D01*
X161107142Y-128724127D01*
X161049150Y-128685606D01*
X160995009Y-128627048D01*
X160954029Y-128559694D01*
X160940448Y-128522880D01*
X160931190Y-128431492D01*
X160946843Y-128368434D01*
X160988375Y-128368434D01*
X161002932Y-128424545D01*
X161041563Y-128470888D01*
X161096705Y-128500381D01*
X161136439Y-128507118D01*
X161165499Y-128497122D01*
X161201949Y-128471007D01*
X161211846Y-128461721D01*
X161245718Y-128416143D01*
X161258250Y-128373187D01*
X161244697Y-128328061D01*
X161210700Y-128283876D01*
X161166245Y-128250621D01*
X161123312Y-128238250D01*
X161080462Y-128251120D01*
X161036992Y-128283266D01*
X161002957Y-128324986D01*
X160988410Y-128366580D01*
X160988375Y-128368434D01*
X160946843Y-128368434D01*
X160952821Y-128344353D01*
X161004538Y-128263794D01*
X161042787Y-128225514D01*
X161116966Y-128179182D01*
X161197936Y-128159700D01*
X161280365Y-128164574D01*
D15*
X157740000Y-116400000D03*
X156940000Y-116400000D03*
X156140000Y-116400000D03*
X155340000Y-116400000D03*
X154540000Y-116400000D03*
X153740000Y-116400000D03*
X152940000Y-116400000D03*
X152140000Y-116400000D03*
D16*
X150690000Y-117850000D03*
X150690000Y-118650000D03*
X150690000Y-119450000D03*
X150690000Y-120250000D03*
X150690000Y-121050000D03*
X150690000Y-121850000D03*
X150690000Y-122650000D03*
X150690000Y-123450000D03*
D15*
X152140000Y-124900000D03*
X152940000Y-124900000D03*
X153740000Y-124900000D03*
X154540000Y-124900000D03*
X155340000Y-124900000D03*
X156140000Y-124900000D03*
X156940000Y-124900000D03*
X157740000Y-124900000D03*
D16*
X159190000Y-123450000D03*
X159190000Y-122650000D03*
X159190000Y-121850000D03*
X159190000Y-121050000D03*
X159190000Y-120250000D03*
X159190000Y-119450000D03*
X159190000Y-118650000D03*
X159190000Y-117850000D03*
D17*
X151165000Y-134112000D03*
X158715000Y-134112000D03*
D18*
X155702000Y-111526000D03*
X155702000Y-114026000D03*
D19*
X166370000Y-101600000D03*
D20*
X168910000Y-101600000D03*
X166370000Y-104140000D03*
X168910000Y-104140000D03*
X166370000Y-106680000D03*
X168910000Y-106680000D03*
X166370000Y-109220000D03*
X168910000Y-109220000D03*
X166370000Y-111760000D03*
X168910000Y-111760000D03*
X166370000Y-114300000D03*
X168910000Y-114300000D03*
X166370000Y-116840000D03*
X168910000Y-116840000D03*
X166370000Y-119380000D03*
X168910000Y-119380000D03*
X166370000Y-121920000D03*
X168910000Y-121920000D03*
X166370000Y-124460000D03*
X168910000Y-124460000D03*
X166370000Y-127000000D03*
X168910000Y-127000000D03*
X166370000Y-129540000D03*
X168910000Y-129540000D03*
X166370000Y-132080000D03*
X168910000Y-132080000D03*
X166370000Y-134620000D03*
X168910000Y-134620000D03*
X166370000Y-137160000D03*
X168910000Y-137160000D03*
X166370000Y-139700000D03*
X168910000Y-139700000D03*
X166370000Y-142240000D03*
X168910000Y-142240000D03*
X166370000Y-144780000D03*
X168910000Y-144780000D03*
X166370000Y-147320000D03*
X168910000Y-147320000D03*
X166370000Y-149860000D03*
X168910000Y-149860000D03*
D19*
X150622000Y-142240000D03*
D20*
X150622000Y-139700000D03*
X153162000Y-142240000D03*
X153162000Y-139700000D03*
X155702000Y-142240000D03*
X155702000Y-139700000D03*
D18*
X152908000Y-130028000D03*
X152908000Y-127528000D03*
X153416000Y-111526000D03*
X153416000Y-114026000D03*
X155194000Y-130028000D03*
X155194000Y-127528000D03*
D21*
X161624000Y-148082000D03*
X158924000Y-148082000D03*
D22*
X158496000Y-142066000D03*
X158496000Y-139366000D03*
X160782000Y-139366000D03*
X160782000Y-142066000D03*
X163068000Y-139366000D03*
X163068000Y-142066000D03*
D21*
X161624000Y-150368000D03*
X158924000Y-150368000D03*
X161624000Y-145796000D03*
X158924000Y-145796000D03*
X154860000Y-150368000D03*
X157560000Y-150368000D03*
X154860000Y-145796000D03*
X157560000Y-145796000D03*
X154860000Y-148082000D03*
X157560000Y-148082000D03*
D22*
X150495000Y-149385000D03*
X150495000Y-146685000D03*
X160020000Y-104140000D03*
X160020000Y-106840000D03*
X163195000Y-104140000D03*
X163195000Y-106840000D03*
D23*
X156174000Y-100927000D03*
X156174000Y-108877000D03*
X151674000Y-100927000D03*
X151674000Y-108877000D03*
D24*
X159004000Y-114300000D03*
X150368000Y-128270000D03*
X160782000Y-114300000D03*
X160782000Y-116332000D03*
X148844000Y-121920000D03*
D12*
X172212000Y-95250000D02*
X177038000Y-95250000D01*
X146050000Y-153797000D02*
X146050000Y-158623000D01*
X148463000Y-156210000D02*
X143637000Y-156210000D01*
X145923000Y-95250000D02*
X145923000Y-92837000D01*
X172212000Y-156210000D02*
X177038000Y-156210000D01*
X174625000Y-153797000D02*
X174625000Y-158623000D01*
X174625000Y-97790000D02*
X174625000Y-92837000D01*
X145923000Y-95250000D02*
X145923000Y-97790000D01*
X148463000Y-95250000D02*
X145923000Y-95250000D01*
X145923000Y-95250000D02*
X143637000Y-95250000D01*
X154305000Y-117550300D02*
X154305000Y-121158000D01*
X154305000Y-121158000D02*
X152940000Y-122523000D01*
X152940000Y-122523000D02*
X152940000Y-124900000D01*
X153740000Y-116400000D02*
X153740000Y-114624000D01*
X153740000Y-114624000D02*
X153670000Y-114554000D01*
X153670000Y-114554000D02*
X153438100Y-114554000D01*
X153438100Y-114554000D02*
X153416000Y-114576100D01*
X153416000Y-114576100D02*
X151615900Y-114576100D01*
X151615900Y-114576100D02*
X147066000Y-119126000D01*
X147066000Y-119126000D02*
X147066000Y-146956300D01*
X147066000Y-146956300D02*
X149494700Y-149385000D01*
X149494700Y-149385000D02*
X150495000Y-149385000D01*
X151165000Y-134112000D02*
X151130000Y-134077000D01*
X151130000Y-134077000D02*
X151130000Y-129286000D01*
X151130000Y-129286000D02*
X152888000Y-127528000D01*
X152888000Y-127528000D02*
X152908000Y-127528000D01*
X166370000Y-101600000D02*
X164846000Y-103124000D01*
X164846000Y-103124000D02*
X164846000Y-103489300D01*
X164195300Y-104140000D02*
X163195000Y-104140000D01*
X164846000Y-103489300D02*
X164195300Y-104140000D01*
X155702000Y-114026000D02*
X155702000Y-114046000D01*
X155702000Y-114046000D02*
X155340000Y-114408000D01*
X155340000Y-114408000D02*
X155340000Y-116400000D01*
X152940000Y-126395700D02*
X152908000Y-126427700D01*
X152940000Y-124900000D02*
X152940000Y-126395700D01*
X153740000Y-116400000D02*
X153740000Y-117550300D01*
X150622000Y-136355300D02*
X151165000Y-135812300D01*
X150622000Y-139700000D02*
X150622000Y-136355300D01*
X151165000Y-134112000D02*
X151165000Y-135812300D01*
X163195000Y-104140000D02*
X160020000Y-104140000D01*
X154305000Y-117550300D02*
X153740000Y-117550300D01*
X152908000Y-126977800D02*
X152908000Y-126427700D01*
X154860000Y-150368000D02*
X153759700Y-150368000D01*
X150495000Y-149385000D02*
X151495300Y-149385000D01*
X152776700Y-149385000D02*
X153759700Y-150368000D01*
X151495300Y-149385000D02*
X152776700Y-149385000D01*
X153416000Y-114026000D02*
X153416000Y-114576100D01*
X152908000Y-127528000D02*
X152908000Y-126977800D01*
X155340000Y-117216400D02*
X155340000Y-116400000D01*
X155006100Y-117550300D02*
X155340000Y-117216400D01*
X154305000Y-117550300D02*
X155006100Y-117550300D01*
X168910000Y-124460000D02*
X167640000Y-125730000D01*
X167640000Y-125730000D02*
X167640000Y-132526900D01*
X167640000Y-132526900D02*
X166873000Y-133293900D01*
X155702000Y-111506000D02*
X156972000Y-111506000D01*
X156140000Y-115469900D02*
X156140000Y-116400000D01*
X156972000Y-111506000D02*
X157353000Y-111887000D01*
X157353000Y-114256900D02*
X156140000Y-115469900D01*
X157353000Y-111887000D02*
X157353000Y-114256900D01*
X157353000Y-113030000D02*
X157734000Y-113030000D01*
X157734000Y-113030000D02*
X158242000Y-113538000D01*
X158242000Y-113538000D02*
X159004000Y-114300000D01*
X158715000Y-134112000D02*
X158115000Y-134112000D01*
X158115000Y-134112000D02*
X156972000Y-135255000D01*
X156972000Y-135255000D02*
X156972000Y-137216100D01*
X156972000Y-137216100D02*
X155702000Y-138486100D01*
X155702000Y-138486100D02*
X155702000Y-139700000D01*
X168910000Y-116840000D02*
X167640000Y-115570000D01*
X167640000Y-115570000D02*
X167640000Y-113030000D01*
X167640000Y-113030000D02*
X166370000Y-111760000D01*
X151674000Y-108877000D02*
X151674000Y-111034000D01*
X151674000Y-111034000D02*
X152146000Y-111506000D01*
X152146000Y-111506000D02*
X153416000Y-111506000D01*
X154540000Y-111674700D02*
X154371300Y-111506000D01*
X153416000Y-111506000D02*
X153416000Y-111526000D01*
X154371300Y-111506000D02*
X153416000Y-111506000D01*
X154540000Y-111674700D02*
X154708700Y-111506000D01*
X154708700Y-111506000D02*
X155702000Y-111506000D01*
X155702000Y-111506000D02*
X155702000Y-111526000D01*
X155340000Y-124900000D02*
X155340000Y-126050300D01*
X154540000Y-116400000D02*
X154540000Y-115249700D01*
X151674000Y-100927000D02*
X151674000Y-108877000D01*
X161624000Y-145796000D02*
X161624000Y-148082000D01*
X168910000Y-137160000D02*
X168910000Y-135946100D01*
X166370000Y-132080000D02*
X166370000Y-133293900D01*
X167696100Y-134117000D02*
X166873000Y-133293900D01*
X167696100Y-135187500D02*
X167696100Y-134117000D01*
X168454700Y-135946100D02*
X167696100Y-135187500D01*
X168910000Y-135946100D02*
X168454700Y-135946100D01*
X166873000Y-133293900D02*
X166370000Y-133293900D01*
X154540000Y-115249700D02*
X154540000Y-111674700D01*
X158715000Y-134112000D02*
X158715000Y-132411700D01*
X156169300Y-126608300D02*
X156169300Y-130028000D01*
X155611300Y-126050300D02*
X156169300Y-126608300D01*
X155340000Y-126050300D02*
X155611300Y-126050300D01*
X156331300Y-130028000D02*
X156169300Y-130028000D01*
X158715000Y-132411700D02*
X156331300Y-130028000D01*
X155681700Y-130028000D02*
X156169300Y-130028000D01*
X155681700Y-130028000D02*
X155194000Y-130028000D01*
X155194000Y-130028000D02*
X152908000Y-130028000D01*
X166370000Y-149860000D02*
X165156100Y-149860000D01*
X161624000Y-148082000D02*
X161624000Y-148582100D01*
X165156100Y-149860000D02*
X161624000Y-149860000D01*
X161624000Y-148582100D02*
X161624000Y-149860000D01*
X161624000Y-149860000D02*
X161624000Y-150368000D01*
X157560000Y-150368000D02*
X158924000Y-150368000D01*
X157560000Y-145796000D02*
X158924000Y-145796000D01*
X150690000Y-124025000D02*
X150690000Y-123450000D01*
X148590000Y-126125000D02*
X150690000Y-124025000D01*
X149987000Y-141605000D02*
X148590000Y-140208000D01*
X149987000Y-142113000D02*
X149987000Y-141605000D01*
X148590000Y-140208000D02*
X148590000Y-126125000D01*
X160782000Y-142066000D02*
X159781700Y-142066000D01*
X159781700Y-141440800D02*
X159306600Y-140965700D01*
X151892000Y-140462000D02*
X151384000Y-140970000D01*
X159781700Y-142066000D02*
X159781700Y-141440800D01*
X159306600Y-140965700D02*
X155188400Y-140965700D01*
X152527000Y-138430000D02*
X151892000Y-139065000D01*
X155188400Y-140965700D02*
X154432100Y-140209400D01*
X154432100Y-139065100D02*
X153797000Y-138430000D01*
X151384000Y-141478000D02*
X150622000Y-142240000D01*
X154432100Y-140209400D02*
X154432100Y-139065100D01*
X153797000Y-138430000D02*
X152527000Y-138430000D01*
X151892000Y-139065000D02*
X151892000Y-140462000D01*
X151384000Y-140970000D02*
X151384000Y-141478000D01*
X154860000Y-144795600D02*
X155256600Y-144399000D01*
X155256600Y-144399000D02*
X156464000Y-144399000D01*
X156464000Y-144399000D02*
X157226000Y-143637000D01*
X157226000Y-143637000D02*
X161544000Y-143637000D01*
X161544000Y-143637000D02*
X163068000Y-142113000D01*
X163068000Y-142113000D02*
X163068000Y-142066000D01*
X153162000Y-142240000D02*
X153162000Y-143002000D01*
X153162000Y-143002000D02*
X154860000Y-144700000D01*
X154860000Y-144700000D02*
X154860000Y-144795600D01*
X150368000Y-127772000D02*
X150368000Y-128270000D01*
X152140000Y-124900000D02*
X152140000Y-126000000D01*
X152140000Y-126000000D02*
X150368000Y-127772000D01*
X154860000Y-145796000D02*
X154860000Y-144920800D01*
X154860000Y-144920800D02*
X154860000Y-144795600D01*
X149225000Y-143637000D02*
X151765000Y-143637000D01*
X151765000Y-143637000D02*
X151892000Y-143510000D01*
X151892000Y-141478000D02*
X153035000Y-140335000D01*
X148082000Y-142494000D02*
X149225000Y-143637000D01*
X150690000Y-122650000D02*
X149742004Y-122650000D01*
X148082000Y-124310004D02*
X148082000Y-142494000D01*
X149742004Y-122650000D02*
X148082000Y-124310004D01*
X151892000Y-143510000D02*
X151892000Y-141478000D01*
X158496000Y-142066000D02*
X158496000Y-142113000D01*
X157734000Y-142875000D02*
X157099000Y-142875000D01*
X158496000Y-142113000D02*
X157734000Y-142875000D01*
X157099000Y-142875000D02*
X156337000Y-143637000D01*
X156337000Y-143637000D02*
X155067000Y-143637000D01*
X155067000Y-143637000D02*
X154432000Y-143002000D01*
X154432000Y-143002000D02*
X154432000Y-141478000D01*
X154432000Y-141478000D02*
X153162000Y-140208000D01*
X153162000Y-140208000D02*
X153162000Y-139700000D01*
X158750000Y-102552500D02*
X164020500Y-102552500D01*
X156674200Y-102552500D02*
X158750000Y-102552500D01*
X156255200Y-108458000D02*
X158750000Y-108458000D01*
X158750000Y-108458000D02*
X162433000Y-108458000D01*
X158750000Y-102552500D02*
X158750000Y-108458000D01*
X156674200Y-108877000D02*
X156255200Y-108458000D01*
X163576000Y-109601000D02*
X163576000Y-116964000D01*
X162433000Y-108458000D02*
X163576000Y-109601000D01*
X163576000Y-116964000D02*
X160290000Y-120250000D01*
X160290000Y-120250000D02*
X159190000Y-120250000D01*
X164020500Y-102552500D02*
X164592000Y-101981000D01*
X164592000Y-101981000D02*
X164592000Y-100838000D01*
X169418000Y-99822000D02*
X170661600Y-101065600D01*
X164592000Y-100838000D02*
X165608000Y-99822000D01*
X165608000Y-99822000D02*
X169418000Y-99822000D01*
X170661600Y-101065600D02*
X170661600Y-130328400D01*
X170661600Y-130328400D02*
X169037000Y-131953000D01*
X169037000Y-131953000D02*
X168910000Y-132080000D01*
X168910000Y-132080000D02*
X170307000Y-133477000D01*
X165735000Y-140970000D02*
X164719000Y-141986000D01*
X170307000Y-133477000D02*
X170307000Y-140335000D01*
X160274000Y-145192600D02*
X160274000Y-146355400D01*
X170307000Y-140335000D02*
X169672000Y-140970000D01*
X169672000Y-140970000D02*
X165735000Y-140970000D01*
X164719000Y-141986000D02*
X164719000Y-143383000D01*
X161308600Y-144158000D02*
X160274000Y-145192600D01*
X164719000Y-143383000D02*
X163944000Y-144158000D01*
X163944000Y-144158000D02*
X161308600Y-144158000D01*
X160274000Y-146355400D02*
X159690400Y-146939000D01*
X159690400Y-146939000D02*
X150495000Y-146939000D01*
X150495000Y-146939000D02*
X150495000Y-146685000D01*
X156174000Y-108877000D02*
X156674200Y-108877000D01*
X156174000Y-100927000D02*
X156174000Y-102052300D01*
X156674200Y-102552500D02*
X156174000Y-102052300D01*
X159190000Y-121850000D02*
X160340300Y-121850000D01*
X160340300Y-121850000D02*
X164592000Y-117598300D01*
X164592000Y-108712000D02*
X165354000Y-107950000D01*
X167626400Y-107455600D02*
X167626400Y-105396400D01*
X164592000Y-117598300D02*
X164592000Y-108712000D01*
X165354000Y-107950000D02*
X167132000Y-107950000D01*
X167132000Y-107950000D02*
X167626400Y-107455600D01*
X167626400Y-105396400D02*
X167386000Y-105156000D01*
X167386000Y-105156000D02*
X166370000Y-104140000D01*
X166370000Y-104140000D02*
X165044000Y-105466000D01*
X165044000Y-105466000D02*
X162394300Y-105466000D01*
X162394300Y-105466000D02*
X161020300Y-106840000D01*
X161020300Y-106840000D02*
X160020000Y-106840000D01*
X159190000Y-121050000D02*
X160340300Y-121050000D01*
X160340300Y-121050000D02*
X164084000Y-117306300D01*
X164084000Y-117306300D02*
X164084000Y-107729000D01*
X164084000Y-107729000D02*
X163195000Y-106840000D01*
X166370000Y-106680000D02*
X163322000Y-106680000D01*
X163322000Y-106680000D02*
X163195000Y-106807000D01*
X163195000Y-106807000D02*
X163195000Y-106840000D01*
X161531999Y-115049999D02*
X160782000Y-114300000D01*
X162039999Y-117700001D02*
X162039999Y-115557999D01*
X159190000Y-119450000D02*
X160290000Y-119450000D01*
X162039999Y-115557999D02*
X161531999Y-115049999D01*
X160290000Y-119450000D02*
X162039999Y-117700001D01*
X160782000Y-117392660D02*
X160782000Y-116332000D01*
X160290000Y-118650000D02*
X160782000Y-118158000D01*
X160782000Y-118158000D02*
X160782000Y-117392660D01*
X159190000Y-118650000D02*
X160290000Y-118650000D01*
X166370000Y-114300000D02*
X165100000Y-115570000D01*
X165100000Y-115570000D02*
X165100000Y-117890300D01*
X165100000Y-117890300D02*
X160340300Y-122650000D01*
X160340300Y-122650000D02*
X159190000Y-122650000D01*
X157740000Y-124900000D02*
X157926000Y-124714000D01*
X160020000Y-124714000D02*
X162941000Y-121793000D01*
X162941000Y-121793000D02*
X164211000Y-121793000D01*
X157926000Y-124714000D02*
X160020000Y-124714000D01*
X164211000Y-121793000D02*
X165608000Y-123190000D01*
X165608000Y-123190000D02*
X167132000Y-123190000D01*
X167640000Y-122682000D02*
X167640000Y-121285000D01*
X169545000Y-120650000D02*
X170161200Y-120033800D01*
X167132000Y-123190000D02*
X167640000Y-122682000D01*
X167640000Y-121285000D02*
X168275000Y-120650000D01*
X168275000Y-120650000D02*
X169545000Y-120650000D01*
X170161200Y-120033800D02*
X170161200Y-115551200D01*
X170161200Y-115551200D02*
X168910000Y-114300000D01*
X159190000Y-123450000D02*
X160395000Y-123450000D01*
X160395000Y-123450000D02*
X163195000Y-120650000D01*
X163195000Y-120650000D02*
X167132000Y-120650000D01*
X167132000Y-120650000D02*
X168402000Y-119380000D01*
X168402000Y-119380000D02*
X168910000Y-119380000D01*
X148914000Y-121850000D02*
X148844000Y-121920000D01*
X150690000Y-121850000D02*
X148914000Y-121850000D01*
X154540000Y-126874000D02*
X154540000Y-124900000D01*
X155194000Y-127528000D02*
X154540000Y-126874000D01*
X157560000Y-148082000D02*
X158924000Y-148082000D01*
X166370000Y-124460000D02*
X166243000Y-124460000D01*
X164465000Y-127889000D02*
X164465000Y-129667000D01*
X161798000Y-137287000D02*
X161163000Y-137922000D01*
X166243000Y-124460000D02*
X164973000Y-125730000D01*
X164973000Y-125730000D02*
X164973000Y-127381000D01*
X164465000Y-129667000D02*
X163576000Y-130556000D01*
X164973000Y-127381000D02*
X164465000Y-127889000D01*
X163576000Y-130556000D02*
X163576000Y-136906000D01*
X159940000Y-137922000D02*
X158496000Y-139366000D01*
X163576000Y-136906000D02*
X163195000Y-137287000D01*
X163195000Y-137287000D02*
X161798000Y-137287000D01*
X161163000Y-137922000D02*
X159940000Y-137922000D01*
X160782000Y-139366000D02*
X160782000Y-139319000D01*
X160782000Y-139319000D02*
X162179000Y-137922000D01*
X163449000Y-137922000D02*
X164211000Y-137160000D01*
X162179000Y-137922000D02*
X163449000Y-137922000D01*
X164211000Y-137160000D02*
X164211000Y-130810000D01*
X164211000Y-130810000D02*
X164973000Y-130048000D01*
X164973000Y-130048000D02*
X164973000Y-128397000D01*
X164973000Y-128397000D02*
X166370000Y-127000000D01*
X163068000Y-139366000D02*
X164719000Y-137715000D01*
X164719000Y-137715000D02*
X164719000Y-131191000D01*
X164719000Y-131191000D02*
X166370000Y-129540000D01*
X150690000Y-120250000D02*
X148727500Y-120250000D01*
X148727500Y-120250000D02*
X147574000Y-121403500D01*
X147574000Y-146050000D02*
X149606000Y-148082000D01*
X149606000Y-148082000D02*
X154860000Y-148082000D01*
X147574000Y-121403500D02*
X147574000Y-146050000D01*
D25*
G36*
X172477184Y-93812163D02*
X172090441Y-94743545D01*
X172089561Y-95752031D01*
X172474678Y-96684086D01*
X173187163Y-97397816D01*
X174118545Y-97784559D01*
X175127031Y-97785439D01*
X176059086Y-97400322D01*
X176455000Y-97005099D01*
X176455000Y-154455032D01*
X176062837Y-154062184D01*
X175131455Y-153675441D01*
X174122969Y-153674561D01*
X173190914Y-154059678D01*
X172477184Y-154772163D01*
X172090441Y-155703545D01*
X172089561Y-156712031D01*
X172474678Y-157644086D01*
X172869901Y-158040000D01*
X147804968Y-158040000D01*
X148197816Y-157647837D01*
X148584559Y-156716455D01*
X148585439Y-155707969D01*
X148200322Y-154775914D01*
X147487837Y-154062184D01*
X146556455Y-153675441D01*
X145547969Y-153674561D01*
X144615914Y-154059678D01*
X144220000Y-154454901D01*
X144220000Y-119126000D01*
X146281000Y-119126000D01*
X146281000Y-146956300D01*
X146340755Y-147256707D01*
X146510921Y-147511379D01*
X148939619Y-149940076D01*
X148939621Y-149940079D01*
X149194294Y-150110245D01*
X149197560Y-150110895D01*
X149197560Y-150135000D01*
X149241838Y-150370317D01*
X149380910Y-150586441D01*
X149593110Y-150731431D01*
X149845000Y-150782440D01*
X151145000Y-150782440D01*
X151380317Y-150738162D01*
X151596441Y-150599090D01*
X151741431Y-150386890D01*
X151785352Y-150170000D01*
X152451542Y-150170000D01*
X153204621Y-150923079D01*
X153459294Y-151093245D01*
X153477396Y-151096846D01*
X153506838Y-151253317D01*
X153645910Y-151469441D01*
X153858110Y-151614431D01*
X154110000Y-151665440D01*
X155610000Y-151665440D01*
X155845317Y-151621162D01*
X156061441Y-151482090D01*
X156206431Y-151269890D01*
X156209081Y-151256803D01*
X156345910Y-151469441D01*
X156558110Y-151614431D01*
X156810000Y-151665440D01*
X159674000Y-151665440D01*
X159909317Y-151621162D01*
X160125441Y-151482090D01*
X160270431Y-151269890D01*
X160277191Y-151236510D01*
X160335673Y-151377699D01*
X160514302Y-151556327D01*
X160747691Y-151653000D01*
X161338250Y-151653000D01*
X161497000Y-151494250D01*
X161497000Y-150495000D01*
X161751000Y-150495000D01*
X161751000Y-151494250D01*
X161909750Y-151653000D01*
X162500309Y-151653000D01*
X162733698Y-151556327D01*
X162912327Y-151377699D01*
X163009000Y-151144310D01*
X163009000Y-150653750D01*
X162850250Y-150495000D01*
X161751000Y-150495000D01*
X161497000Y-150495000D01*
X161477000Y-150495000D01*
X161477000Y-150241000D01*
X161497000Y-150241000D01*
X161497000Y-149241750D01*
X161480250Y-149225000D01*
X161497000Y-149208250D01*
X161497000Y-148209000D01*
X161751000Y-148209000D01*
X161751000Y-149208250D01*
X161767750Y-149225000D01*
X161751000Y-149241750D01*
X161751000Y-150241000D01*
X162850250Y-150241000D01*
X162872224Y-150219026D01*
X164915042Y-150219026D01*
X165087312Y-150634947D01*
X165481510Y-151066821D01*
X166010973Y-151314968D01*
X166243000Y-151194469D01*
X166243000Y-149987000D01*
X165036183Y-149987000D01*
X164915042Y-150219026D01*
X162872224Y-150219026D01*
X163009000Y-150082250D01*
X163009000Y-149591690D01*
X162912327Y-149358301D01*
X162779025Y-149225000D01*
X162912327Y-149091699D01*
X163009000Y-148858310D01*
X163009000Y-148367750D01*
X162850250Y-148209000D01*
X161751000Y-148209000D01*
X161497000Y-148209000D01*
X161477000Y-148209000D01*
X161477000Y-147955000D01*
X161497000Y-147955000D01*
X161497000Y-146955750D01*
X161480250Y-146939000D01*
X161497000Y-146922250D01*
X161497000Y-145923000D01*
X161751000Y-145923000D01*
X161751000Y-146922250D01*
X161767750Y-146939000D01*
X161751000Y-146955750D01*
X161751000Y-147955000D01*
X162850250Y-147955000D01*
X163009000Y-147796250D01*
X163009000Y-147305690D01*
X162912327Y-147072301D01*
X162779025Y-146939000D01*
X162912327Y-146805699D01*
X163009000Y-146572310D01*
X163009000Y-146081750D01*
X162850250Y-145923000D01*
X161751000Y-145923000D01*
X161497000Y-145923000D01*
X161477000Y-145923000D01*
X161477000Y-145669000D01*
X161497000Y-145669000D01*
X161497000Y-145649000D01*
X161751000Y-145649000D01*
X161751000Y-145669000D01*
X162850250Y-145669000D01*
X163009000Y-145510250D01*
X163009000Y-145019690D01*
X162977234Y-144943000D01*
X163944000Y-144943000D01*
X164244407Y-144883245D01*
X164499079Y-144713079D01*
X164943816Y-144268341D01*
X164842041Y-144780000D01*
X164956115Y-145353489D01*
X165280971Y-145839670D01*
X165595752Y-146050000D01*
X165280971Y-146260330D01*
X164956115Y-146746511D01*
X164842041Y-147320000D01*
X164956115Y-147893489D01*
X165280971Y-148379670D01*
X165604228Y-148595664D01*
X165481510Y-148653179D01*
X165087312Y-149085053D01*
X164915042Y-149500974D01*
X165036183Y-149733000D01*
X166243000Y-149733000D01*
X166243000Y-149713000D01*
X166497000Y-149713000D01*
X166497000Y-149733000D01*
X166517000Y-149733000D01*
X166517000Y-149987000D01*
X166497000Y-149987000D01*
X166497000Y-151194469D01*
X166729027Y-151314968D01*
X167258490Y-151066821D01*
X167640008Y-150648839D01*
X167820971Y-150919670D01*
X168307152Y-151244526D01*
X168880641Y-151358600D01*
X168939359Y-151358600D01*
X169512848Y-151244526D01*
X169999029Y-150919670D01*
X170323885Y-150433489D01*
X170437959Y-149860000D01*
X170323885Y-149286511D01*
X169999029Y-148800330D01*
X169684248Y-148590000D01*
X169999029Y-148379670D01*
X170323885Y-147893489D01*
X170437959Y-147320000D01*
X170323885Y-146746511D01*
X169999029Y-146260330D01*
X169684248Y-146050000D01*
X169999029Y-145839670D01*
X170323885Y-145353489D01*
X170437959Y-144780000D01*
X170323885Y-144206511D01*
X169999029Y-143720330D01*
X169675772Y-143504336D01*
X169798490Y-143446821D01*
X170192688Y-143014947D01*
X170364958Y-142599026D01*
X170243817Y-142367000D01*
X169037000Y-142367000D01*
X169037000Y-142387000D01*
X168783000Y-142387000D01*
X168783000Y-142367000D01*
X168763000Y-142367000D01*
X168763000Y-142113000D01*
X168783000Y-142113000D01*
X168783000Y-142093000D01*
X169037000Y-142093000D01*
X169037000Y-142113000D01*
X170243817Y-142113000D01*
X170364958Y-141880974D01*
X170219616Y-141530066D01*
X170227079Y-141525079D01*
X170862079Y-140890079D01*
X171032245Y-140635406D01*
X171092001Y-140335000D01*
X171092000Y-140334995D01*
X171092000Y-133477000D01*
X171032245Y-133176594D01*
X171032245Y-133176593D01*
X170862079Y-132921921D01*
X170368641Y-132428483D01*
X170437959Y-132080000D01*
X170368641Y-131731517D01*
X171216679Y-130883479D01*
X171386845Y-130628807D01*
X171446600Y-130328400D01*
X171446600Y-101065600D01*
X171419031Y-100927000D01*
X171386845Y-100765193D01*
X171216679Y-100510521D01*
X169973079Y-99266921D01*
X169718407Y-99096755D01*
X169418000Y-99037000D01*
X165608000Y-99037000D01*
X165307593Y-99096755D01*
X165052921Y-99266921D01*
X164036921Y-100282921D01*
X163866755Y-100537593D01*
X163866755Y-100537594D01*
X163807000Y-100838000D01*
X163807000Y-101655842D01*
X163695342Y-101767500D01*
X157458176Y-101767500D01*
X157471440Y-101702000D01*
X157471440Y-100152000D01*
X157427162Y-99916683D01*
X157288090Y-99700559D01*
X157075890Y-99555569D01*
X156824000Y-99504560D01*
X155524000Y-99504560D01*
X155288683Y-99548838D01*
X155072559Y-99687910D01*
X154927569Y-99900110D01*
X154876560Y-100152000D01*
X154876560Y-101702000D01*
X154920838Y-101937317D01*
X155059910Y-102153441D01*
X155272110Y-102298431D01*
X155444920Y-102333426D01*
X155448755Y-102352707D01*
X155618921Y-102607379D01*
X156119121Y-103107579D01*
X156373794Y-103277745D01*
X156674200Y-103337501D01*
X156674205Y-103337500D01*
X157965000Y-103337500D01*
X157965000Y-107673000D01*
X157302530Y-107673000D01*
X157288090Y-107650559D01*
X157075890Y-107505569D01*
X156824000Y-107454560D01*
X155524000Y-107454560D01*
X155288683Y-107498838D01*
X155072559Y-107637910D01*
X154927569Y-107850110D01*
X154876560Y-108102000D01*
X154876560Y-109652000D01*
X154920838Y-109887317D01*
X155059910Y-110103441D01*
X155114879Y-110141000D01*
X154950690Y-110141000D01*
X154717301Y-110237673D01*
X154559000Y-110395975D01*
X154400699Y-110237673D01*
X154167310Y-110141000D01*
X153701750Y-110141000D01*
X153543000Y-110299750D01*
X153543000Y-111399000D01*
X154517250Y-111399000D01*
X154559000Y-111357250D01*
X154600750Y-111399000D01*
X155575000Y-111399000D01*
X155575000Y-111379000D01*
X155829000Y-111379000D01*
X155829000Y-111399000D01*
X156803250Y-111399000D01*
X156962000Y-111240250D01*
X156962000Y-110649691D01*
X156865327Y-110416302D01*
X156748466Y-110299440D01*
X156824000Y-110299440D01*
X157059317Y-110255162D01*
X157275441Y-110116090D01*
X157420431Y-109903890D01*
X157471440Y-109652000D01*
X157471440Y-109243000D01*
X162107842Y-109243000D01*
X162791000Y-109926158D01*
X162791000Y-115387076D01*
X162765244Y-115257593D01*
X162595078Y-115002920D01*
X162595075Y-115002918D01*
X162166761Y-114574603D01*
X162167240Y-114025715D01*
X161956831Y-113516485D01*
X161567564Y-113126539D01*
X161058702Y-112915241D01*
X160507715Y-112914760D01*
X159998485Y-113125169D01*
X159608539Y-113514436D01*
X159397241Y-114023298D01*
X159396760Y-114574285D01*
X159607169Y-115083515D01*
X159839313Y-115316064D01*
X159608539Y-115546436D01*
X159397241Y-116055298D01*
X159396760Y-116606285D01*
X159529508Y-116927560D01*
X158662440Y-116927560D01*
X158662440Y-115600000D01*
X158618162Y-115364683D01*
X158479090Y-115148559D01*
X158266890Y-115003569D01*
X158015000Y-114952560D01*
X157465000Y-114952560D01*
X157335411Y-114976944D01*
X157215000Y-114952560D01*
X156938686Y-114952560D01*
X156974440Y-114776000D01*
X156974440Y-113276000D01*
X156930162Y-113040683D01*
X156791090Y-112824559D01*
X156722994Y-112778031D01*
X156865327Y-112635698D01*
X156962000Y-112402309D01*
X156962000Y-111811750D01*
X156803250Y-111653000D01*
X155829000Y-111653000D01*
X155829000Y-111673000D01*
X155575000Y-111673000D01*
X155575000Y-111653000D01*
X154600750Y-111653000D01*
X154559000Y-111694750D01*
X154517250Y-111653000D01*
X153543000Y-111653000D01*
X153543000Y-111673000D01*
X153289000Y-111673000D01*
X153289000Y-111653000D01*
X152314750Y-111653000D01*
X152156000Y-111811750D01*
X152156000Y-112402309D01*
X152252673Y-112635698D01*
X152393910Y-112776936D01*
X152339559Y-112811910D01*
X152194569Y-113024110D01*
X152143560Y-113276000D01*
X152143560Y-113791100D01*
X151615900Y-113791100D01*
X151315493Y-113850855D01*
X151060821Y-114021021D01*
X146510921Y-118570921D01*
X146340755Y-118825593D01*
X146340755Y-118825594D01*
X146281000Y-119126000D01*
X144220000Y-119126000D01*
X144220000Y-109162750D01*
X150389000Y-109162750D01*
X150389000Y-109778309D01*
X150485673Y-110011698D01*
X150664301Y-110190327D01*
X150897690Y-110287000D01*
X151388250Y-110287000D01*
X151547000Y-110128250D01*
X151547000Y-109004000D01*
X151801000Y-109004000D01*
X151801000Y-110128250D01*
X151959750Y-110287000D01*
X152381974Y-110287000D01*
X152252673Y-110416302D01*
X152156000Y-110649691D01*
X152156000Y-111240250D01*
X152314750Y-111399000D01*
X153289000Y-111399000D01*
X153289000Y-110299750D01*
X153130250Y-110141000D01*
X152733026Y-110141000D01*
X152862327Y-110011698D01*
X152959000Y-109778309D01*
X152959000Y-109162750D01*
X152800250Y-109004000D01*
X151801000Y-109004000D01*
X151547000Y-109004000D01*
X150547750Y-109004000D01*
X150389000Y-109162750D01*
X144220000Y-109162750D01*
X144220000Y-107975691D01*
X150389000Y-107975691D01*
X150389000Y-108591250D01*
X150547750Y-108750000D01*
X151547000Y-108750000D01*
X151547000Y-107625750D01*
X151801000Y-107625750D01*
X151801000Y-108750000D01*
X152800250Y-108750000D01*
X152959000Y-108591250D01*
X152959000Y-107975691D01*
X152862327Y-107742302D01*
X152683699Y-107563673D01*
X152450310Y-107467000D01*
X151959750Y-107467000D01*
X151801000Y-107625750D01*
X151547000Y-107625750D01*
X151388250Y-107467000D01*
X150897690Y-107467000D01*
X150664301Y-107563673D01*
X150485673Y-107742302D01*
X150389000Y-107975691D01*
X144220000Y-107975691D01*
X144220000Y-101212750D01*
X150389000Y-101212750D01*
X150389000Y-101828309D01*
X150485673Y-102061698D01*
X150664301Y-102240327D01*
X150897690Y-102337000D01*
X151388250Y-102337000D01*
X151547000Y-102178250D01*
X151547000Y-101054000D01*
X151801000Y-101054000D01*
X151801000Y-102178250D01*
X151959750Y-102337000D01*
X152450310Y-102337000D01*
X152683699Y-102240327D01*
X152862327Y-102061698D01*
X152959000Y-101828309D01*
X152959000Y-101212750D01*
X152800250Y-101054000D01*
X151801000Y-101054000D01*
X151547000Y-101054000D01*
X150547750Y-101054000D01*
X150389000Y-101212750D01*
X144220000Y-101212750D01*
X144220000Y-100025691D01*
X150389000Y-100025691D01*
X150389000Y-100641250D01*
X150547750Y-100800000D01*
X151547000Y-100800000D01*
X151547000Y-99675750D01*
X151801000Y-99675750D01*
X151801000Y-100800000D01*
X152800250Y-100800000D01*
X152959000Y-100641250D01*
X152959000Y-100025691D01*
X152862327Y-99792302D01*
X152683699Y-99613673D01*
X152450310Y-99517000D01*
X151959750Y-99517000D01*
X151801000Y-99675750D01*
X151547000Y-99675750D01*
X151388250Y-99517000D01*
X150897690Y-99517000D01*
X150664301Y-99613673D01*
X150485673Y-99792302D01*
X150389000Y-100025691D01*
X144220000Y-100025691D01*
X144220000Y-97004968D01*
X144612163Y-97397816D01*
X145543545Y-97784559D01*
X146552031Y-97785439D01*
X147484086Y-97400322D01*
X148197816Y-96687837D01*
X148584559Y-95756455D01*
X148585439Y-94747969D01*
X148200322Y-93815914D01*
X147805099Y-93420000D01*
X172870032Y-93420000D01*
X172477184Y-93812163D01*
X172477184Y-93812163D01*
G37*
X172477184Y-93812163D02*
X172090441Y-94743545D01*
X172089561Y-95752031D01*
X172474678Y-96684086D01*
X173187163Y-97397816D01*
X174118545Y-97784559D01*
X175127031Y-97785439D01*
X176059086Y-97400322D01*
X176455000Y-97005099D01*
X176455000Y-154455032D01*
X176062837Y-154062184D01*
X175131455Y-153675441D01*
X174122969Y-153674561D01*
X173190914Y-154059678D01*
X172477184Y-154772163D01*
X172090441Y-155703545D01*
X172089561Y-156712031D01*
X172474678Y-157644086D01*
X172869901Y-158040000D01*
X147804968Y-158040000D01*
X148197816Y-157647837D01*
X148584559Y-156716455D01*
X148585439Y-155707969D01*
X148200322Y-154775914D01*
X147487837Y-154062184D01*
X146556455Y-153675441D01*
X145547969Y-153674561D01*
X144615914Y-154059678D01*
X144220000Y-154454901D01*
X144220000Y-119126000D01*
X146281000Y-119126000D01*
X146281000Y-146956300D01*
X146340755Y-147256707D01*
X146510921Y-147511379D01*
X148939619Y-149940076D01*
X148939621Y-149940079D01*
X149194294Y-150110245D01*
X149197560Y-150110895D01*
X149197560Y-150135000D01*
X149241838Y-150370317D01*
X149380910Y-150586441D01*
X149593110Y-150731431D01*
X149845000Y-150782440D01*
X151145000Y-150782440D01*
X151380317Y-150738162D01*
X151596441Y-150599090D01*
X151741431Y-150386890D01*
X151785352Y-150170000D01*
X152451542Y-150170000D01*
X153204621Y-150923079D01*
X153459294Y-151093245D01*
X153477396Y-151096846D01*
X153506838Y-151253317D01*
X153645910Y-151469441D01*
X153858110Y-151614431D01*
X154110000Y-151665440D01*
X155610000Y-151665440D01*
X155845317Y-151621162D01*
X156061441Y-151482090D01*
X156206431Y-151269890D01*
X156209081Y-151256803D01*
X156345910Y-151469441D01*
X156558110Y-151614431D01*
X156810000Y-151665440D01*
X159674000Y-151665440D01*
X159909317Y-151621162D01*
X160125441Y-151482090D01*
X160270431Y-151269890D01*
X160277191Y-151236510D01*
X160335673Y-151377699D01*
X160514302Y-151556327D01*
X160747691Y-151653000D01*
X161338250Y-151653000D01*
X161497000Y-151494250D01*
X161497000Y-150495000D01*
X161751000Y-150495000D01*
X161751000Y-151494250D01*
X161909750Y-151653000D01*
X162500309Y-151653000D01*
X162733698Y-151556327D01*
X162912327Y-151377699D01*
X163009000Y-151144310D01*
X163009000Y-150653750D01*
X162850250Y-150495000D01*
X161751000Y-150495000D01*
X161497000Y-150495000D01*
X161477000Y-150495000D01*
X161477000Y-150241000D01*
X161497000Y-150241000D01*
X161497000Y-149241750D01*
X161480250Y-149225000D01*
X161497000Y-149208250D01*
X161497000Y-148209000D01*
X161751000Y-148209000D01*
X161751000Y-149208250D01*
X161767750Y-149225000D01*
X161751000Y-149241750D01*
X161751000Y-150241000D01*
X162850250Y-150241000D01*
X162872224Y-150219026D01*
X164915042Y-150219026D01*
X165087312Y-150634947D01*
X165481510Y-151066821D01*
X166010973Y-151314968D01*
X166243000Y-151194469D01*
X166243000Y-149987000D01*
X165036183Y-149987000D01*
X164915042Y-150219026D01*
X162872224Y-150219026D01*
X163009000Y-150082250D01*
X163009000Y-149591690D01*
X162912327Y-149358301D01*
X162779025Y-149225000D01*
X162912327Y-149091699D01*
X163009000Y-148858310D01*
X163009000Y-148367750D01*
X162850250Y-148209000D01*
X161751000Y-148209000D01*
X161497000Y-148209000D01*
X161477000Y-148209000D01*
X161477000Y-147955000D01*
X161497000Y-147955000D01*
X161497000Y-146955750D01*
X161480250Y-146939000D01*
X161497000Y-146922250D01*
X161497000Y-145923000D01*
X161751000Y-145923000D01*
X161751000Y-146922250D01*
X161767750Y-146939000D01*
X161751000Y-146955750D01*
X161751000Y-147955000D01*
X162850250Y-147955000D01*
X163009000Y-147796250D01*
X163009000Y-147305690D01*
X162912327Y-147072301D01*
X162779025Y-146939000D01*
X162912327Y-146805699D01*
X163009000Y-146572310D01*
X163009000Y-146081750D01*
X162850250Y-145923000D01*
X161751000Y-145923000D01*
X161497000Y-145923000D01*
X161477000Y-145923000D01*
X161477000Y-145669000D01*
X161497000Y-145669000D01*
X161497000Y-145649000D01*
X161751000Y-145649000D01*
X161751000Y-145669000D01*
X162850250Y-145669000D01*
X163009000Y-145510250D01*
X163009000Y-145019690D01*
X162977234Y-144943000D01*
X163944000Y-144943000D01*
X164244407Y-144883245D01*
X164499079Y-144713079D01*
X164943816Y-144268341D01*
X164842041Y-144780000D01*
X164956115Y-145353489D01*
X165280971Y-145839670D01*
X165595752Y-146050000D01*
X165280971Y-146260330D01*
X164956115Y-146746511D01*
X164842041Y-147320000D01*
X164956115Y-147893489D01*
X165280971Y-148379670D01*
X165604228Y-148595664D01*
X165481510Y-148653179D01*
X165087312Y-149085053D01*
X164915042Y-149500974D01*
X165036183Y-149733000D01*
X166243000Y-149733000D01*
X166243000Y-149713000D01*
X166497000Y-149713000D01*
X166497000Y-149733000D01*
X166517000Y-149733000D01*
X166517000Y-149987000D01*
X166497000Y-149987000D01*
X166497000Y-151194469D01*
X166729027Y-151314968D01*
X167258490Y-151066821D01*
X167640008Y-150648839D01*
X167820971Y-150919670D01*
X168307152Y-151244526D01*
X168880641Y-151358600D01*
X168939359Y-151358600D01*
X169512848Y-151244526D01*
X169999029Y-150919670D01*
X170323885Y-150433489D01*
X170437959Y-149860000D01*
X170323885Y-149286511D01*
X169999029Y-148800330D01*
X169684248Y-148590000D01*
X169999029Y-148379670D01*
X170323885Y-147893489D01*
X170437959Y-147320000D01*
X170323885Y-146746511D01*
X169999029Y-146260330D01*
X169684248Y-146050000D01*
X169999029Y-145839670D01*
X170323885Y-145353489D01*
X170437959Y-144780000D01*
X170323885Y-144206511D01*
X169999029Y-143720330D01*
X169675772Y-143504336D01*
X169798490Y-143446821D01*
X170192688Y-143014947D01*
X170364958Y-142599026D01*
X170243817Y-142367000D01*
X169037000Y-142367000D01*
X169037000Y-142387000D01*
X168783000Y-142387000D01*
X168783000Y-142367000D01*
X168763000Y-142367000D01*
X168763000Y-142113000D01*
X168783000Y-142113000D01*
X168783000Y-142093000D01*
X169037000Y-142093000D01*
X169037000Y-142113000D01*
X170243817Y-142113000D01*
X170364958Y-141880974D01*
X170219616Y-141530066D01*
X170227079Y-141525079D01*
X170862079Y-140890079D01*
X171032245Y-140635406D01*
X171092001Y-140335000D01*
X171092000Y-140334995D01*
X171092000Y-133477000D01*
X171032245Y-133176594D01*
X171032245Y-133176593D01*
X170862079Y-132921921D01*
X170368641Y-132428483D01*
X170437959Y-132080000D01*
X170368641Y-131731517D01*
X171216679Y-130883479D01*
X171386845Y-130628807D01*
X171446600Y-130328400D01*
X171446600Y-101065600D01*
X171419031Y-100927000D01*
X171386845Y-100765193D01*
X171216679Y-100510521D01*
X169973079Y-99266921D01*
X169718407Y-99096755D01*
X169418000Y-99037000D01*
X165608000Y-99037000D01*
X165307593Y-99096755D01*
X165052921Y-99266921D01*
X164036921Y-100282921D01*
X163866755Y-100537593D01*
X163866755Y-100537594D01*
X163807000Y-100838000D01*
X163807000Y-101655842D01*
X163695342Y-101767500D01*
X157458176Y-101767500D01*
X157471440Y-101702000D01*
X157471440Y-100152000D01*
X157427162Y-99916683D01*
X157288090Y-99700559D01*
X157075890Y-99555569D01*
X156824000Y-99504560D01*
X155524000Y-99504560D01*
X155288683Y-99548838D01*
X155072559Y-99687910D01*
X154927569Y-99900110D01*
X154876560Y-100152000D01*
X154876560Y-101702000D01*
X154920838Y-101937317D01*
X155059910Y-102153441D01*
X155272110Y-102298431D01*
X155444920Y-102333426D01*
X155448755Y-102352707D01*
X155618921Y-102607379D01*
X156119121Y-103107579D01*
X156373794Y-103277745D01*
X156674200Y-103337501D01*
X156674205Y-103337500D01*
X157965000Y-103337500D01*
X157965000Y-107673000D01*
X157302530Y-107673000D01*
X157288090Y-107650559D01*
X157075890Y-107505569D01*
X156824000Y-107454560D01*
X155524000Y-107454560D01*
X155288683Y-107498838D01*
X155072559Y-107637910D01*
X154927569Y-107850110D01*
X154876560Y-108102000D01*
X154876560Y-109652000D01*
X154920838Y-109887317D01*
X155059910Y-110103441D01*
X155114879Y-110141000D01*
X154950690Y-110141000D01*
X154717301Y-110237673D01*
X154559000Y-110395975D01*
X154400699Y-110237673D01*
X154167310Y-110141000D01*
X153701750Y-110141000D01*
X153543000Y-110299750D01*
X153543000Y-111399000D01*
X154517250Y-111399000D01*
X154559000Y-111357250D01*
X154600750Y-111399000D01*
X155575000Y-111399000D01*
X155575000Y-111379000D01*
X155829000Y-111379000D01*
X155829000Y-111399000D01*
X156803250Y-111399000D01*
X156962000Y-111240250D01*
X156962000Y-110649691D01*
X156865327Y-110416302D01*
X156748466Y-110299440D01*
X156824000Y-110299440D01*
X157059317Y-110255162D01*
X157275441Y-110116090D01*
X157420431Y-109903890D01*
X157471440Y-109652000D01*
X157471440Y-109243000D01*
X162107842Y-109243000D01*
X162791000Y-109926158D01*
X162791000Y-115387076D01*
X162765244Y-115257593D01*
X162595078Y-115002920D01*
X162595075Y-115002918D01*
X162166761Y-114574603D01*
X162167240Y-114025715D01*
X161956831Y-113516485D01*
X161567564Y-113126539D01*
X161058702Y-112915241D01*
X160507715Y-112914760D01*
X159998485Y-113125169D01*
X159608539Y-113514436D01*
X159397241Y-114023298D01*
X159396760Y-114574285D01*
X159607169Y-115083515D01*
X159839313Y-115316064D01*
X159608539Y-115546436D01*
X159397241Y-116055298D01*
X159396760Y-116606285D01*
X159529508Y-116927560D01*
X158662440Y-116927560D01*
X158662440Y-115600000D01*
X158618162Y-115364683D01*
X158479090Y-115148559D01*
X158266890Y-115003569D01*
X158015000Y-114952560D01*
X157465000Y-114952560D01*
X157335411Y-114976944D01*
X157215000Y-114952560D01*
X156938686Y-114952560D01*
X156974440Y-114776000D01*
X156974440Y-113276000D01*
X156930162Y-113040683D01*
X156791090Y-112824559D01*
X156722994Y-112778031D01*
X156865327Y-112635698D01*
X156962000Y-112402309D01*
X156962000Y-111811750D01*
X156803250Y-111653000D01*
X155829000Y-111653000D01*
X155829000Y-111673000D01*
X155575000Y-111673000D01*
X155575000Y-111653000D01*
X154600750Y-111653000D01*
X154559000Y-111694750D01*
X154517250Y-111653000D01*
X153543000Y-111653000D01*
X153543000Y-111673000D01*
X153289000Y-111673000D01*
X153289000Y-111653000D01*
X152314750Y-111653000D01*
X152156000Y-111811750D01*
X152156000Y-112402309D01*
X152252673Y-112635698D01*
X152393910Y-112776936D01*
X152339559Y-112811910D01*
X152194569Y-113024110D01*
X152143560Y-113276000D01*
X152143560Y-113791100D01*
X151615900Y-113791100D01*
X151315493Y-113850855D01*
X151060821Y-114021021D01*
X146510921Y-118570921D01*
X146340755Y-118825593D01*
X146340755Y-118825594D01*
X146281000Y-119126000D01*
X144220000Y-119126000D01*
X144220000Y-109162750D01*
X150389000Y-109162750D01*
X150389000Y-109778309D01*
X150485673Y-110011698D01*
X150664301Y-110190327D01*
X150897690Y-110287000D01*
X151388250Y-110287000D01*
X151547000Y-110128250D01*
X151547000Y-109004000D01*
X151801000Y-109004000D01*
X151801000Y-110128250D01*
X151959750Y-110287000D01*
X152381974Y-110287000D01*
X152252673Y-110416302D01*
X152156000Y-110649691D01*
X152156000Y-111240250D01*
X152314750Y-111399000D01*
X153289000Y-111399000D01*
X153289000Y-110299750D01*
X153130250Y-110141000D01*
X152733026Y-110141000D01*
X152862327Y-110011698D01*
X152959000Y-109778309D01*
X152959000Y-109162750D01*
X152800250Y-109004000D01*
X151801000Y-109004000D01*
X151547000Y-109004000D01*
X150547750Y-109004000D01*
X150389000Y-109162750D01*
X144220000Y-109162750D01*
X144220000Y-107975691D01*
X150389000Y-107975691D01*
X150389000Y-108591250D01*
X150547750Y-108750000D01*
X151547000Y-108750000D01*
X151547000Y-107625750D01*
X151801000Y-107625750D01*
X151801000Y-108750000D01*
X152800250Y-108750000D01*
X152959000Y-108591250D01*
X152959000Y-107975691D01*
X152862327Y-107742302D01*
X152683699Y-107563673D01*
X152450310Y-107467000D01*
X151959750Y-107467000D01*
X151801000Y-107625750D01*
X151547000Y-107625750D01*
X151388250Y-107467000D01*
X150897690Y-107467000D01*
X150664301Y-107563673D01*
X150485673Y-107742302D01*
X150389000Y-107975691D01*
X144220000Y-107975691D01*
X144220000Y-101212750D01*
X150389000Y-101212750D01*
X150389000Y-101828309D01*
X150485673Y-102061698D01*
X150664301Y-102240327D01*
X150897690Y-102337000D01*
X151388250Y-102337000D01*
X151547000Y-102178250D01*
X151547000Y-101054000D01*
X151801000Y-101054000D01*
X151801000Y-102178250D01*
X151959750Y-102337000D01*
X152450310Y-102337000D01*
X152683699Y-102240327D01*
X152862327Y-102061698D01*
X152959000Y-101828309D01*
X152959000Y-101212750D01*
X152800250Y-101054000D01*
X151801000Y-101054000D01*
X151547000Y-101054000D01*
X150547750Y-101054000D01*
X150389000Y-101212750D01*
X144220000Y-101212750D01*
X144220000Y-100025691D01*
X150389000Y-100025691D01*
X150389000Y-100641250D01*
X150547750Y-100800000D01*
X151547000Y-100800000D01*
X151547000Y-99675750D01*
X151801000Y-99675750D01*
X151801000Y-100800000D01*
X152800250Y-100800000D01*
X152959000Y-100641250D01*
X152959000Y-100025691D01*
X152862327Y-99792302D01*
X152683699Y-99613673D01*
X152450310Y-99517000D01*
X151959750Y-99517000D01*
X151801000Y-99675750D01*
X151547000Y-99675750D01*
X151388250Y-99517000D01*
X150897690Y-99517000D01*
X150664301Y-99613673D01*
X150485673Y-99792302D01*
X150389000Y-100025691D01*
X144220000Y-100025691D01*
X144220000Y-97004968D01*
X144612163Y-97397816D01*
X145543545Y-97784559D01*
X146552031Y-97785439D01*
X147484086Y-97400322D01*
X148197816Y-96687837D01*
X148584559Y-95756455D01*
X148585439Y-94747969D01*
X148200322Y-93815914D01*
X147805099Y-93420000D01*
X172870032Y-93420000D01*
X172477184Y-93812163D01*
G36*
X165051540Y-123743698D02*
X164956115Y-123886511D01*
X164842041Y-124460000D01*
X164890288Y-124702554D01*
X164417921Y-125174921D01*
X164247755Y-125429593D01*
X164219842Y-125569921D01*
X164188000Y-125730000D01*
X164188000Y-127055843D01*
X163909921Y-127333921D01*
X163739755Y-127588593D01*
X163685136Y-127863180D01*
X163680000Y-127889000D01*
X163680000Y-129341842D01*
X163020921Y-130000921D01*
X162850755Y-130255593D01*
X162795158Y-130535098D01*
X162791000Y-130556000D01*
X162791000Y-136502000D01*
X161798005Y-136502000D01*
X161798000Y-136501999D01*
X161497594Y-136561755D01*
X161242921Y-136731921D01*
X160837842Y-137137000D01*
X159940000Y-137137000D01*
X159639593Y-137196755D01*
X159384921Y-137366921D01*
X158783282Y-137968560D01*
X157846000Y-137968560D01*
X157610683Y-138012838D01*
X157394559Y-138151910D01*
X157249569Y-138364110D01*
X157198560Y-138616000D01*
X157198560Y-139572998D01*
X157036470Y-139572998D01*
X157156968Y-139340973D01*
X156908821Y-138811510D01*
X156476947Y-138417312D01*
X156061026Y-138245042D01*
X155829000Y-138366183D01*
X155829000Y-139573000D01*
X155849000Y-139573000D01*
X155849000Y-139827000D01*
X155829000Y-139827000D01*
X155829000Y-139847000D01*
X155575000Y-139847000D01*
X155575000Y-139827000D01*
X155555000Y-139827000D01*
X155555000Y-139573000D01*
X155575000Y-139573000D01*
X155575000Y-138366183D01*
X155342974Y-138245042D01*
X154927053Y-138417312D01*
X154910018Y-138432860D01*
X154352079Y-137874921D01*
X154097407Y-137704755D01*
X153797000Y-137645000D01*
X152527005Y-137645000D01*
X152527000Y-137644999D01*
X152226594Y-137704755D01*
X151971921Y-137874921D01*
X151414433Y-138432409D01*
X151407000Y-138427442D01*
X151407000Y-136680458D01*
X151720079Y-136367379D01*
X151890245Y-136112707D01*
X151890895Y-136109440D01*
X153040000Y-136109440D01*
X153275317Y-136065162D01*
X153491441Y-135926090D01*
X153636431Y-135713890D01*
X153687440Y-135462000D01*
X153687440Y-134397750D01*
X156205000Y-134397750D01*
X156205000Y-135588310D01*
X156301673Y-135821699D01*
X156480302Y-136000327D01*
X156713691Y-136097000D01*
X158429250Y-136097000D01*
X158588000Y-135938250D01*
X158588000Y-134239000D01*
X158842000Y-134239000D01*
X158842000Y-135938250D01*
X159000750Y-136097000D01*
X160716309Y-136097000D01*
X160949698Y-136000327D01*
X161128327Y-135821699D01*
X161225000Y-135588310D01*
X161225000Y-134397750D01*
X161066250Y-134239000D01*
X158842000Y-134239000D01*
X158588000Y-134239000D01*
X156363750Y-134239000D01*
X156205000Y-134397750D01*
X153687440Y-134397750D01*
X153687440Y-132762000D01*
X153663674Y-132635690D01*
X156205000Y-132635690D01*
X156205000Y-133826250D01*
X156363750Y-133985000D01*
X158588000Y-133985000D01*
X158588000Y-132285750D01*
X158842000Y-132285750D01*
X158842000Y-133985000D01*
X161066250Y-133985000D01*
X161225000Y-133826250D01*
X161225000Y-132635690D01*
X161128327Y-132402301D01*
X160949698Y-132223673D01*
X160716309Y-132127000D01*
X159000750Y-132127000D01*
X158842000Y-132285750D01*
X158588000Y-132285750D01*
X158429250Y-132127000D01*
X156713691Y-132127000D01*
X156480302Y-132223673D01*
X156301673Y-132402301D01*
X156205000Y-132635690D01*
X153663674Y-132635690D01*
X153643162Y-132526683D01*
X153504090Y-132310559D01*
X153291890Y-132165569D01*
X153040000Y-132114560D01*
X151915000Y-132114560D01*
X151915000Y-131308026D01*
X151923301Y-131316327D01*
X152156690Y-131413000D01*
X152622250Y-131413000D01*
X152781000Y-131254250D01*
X152781000Y-130155000D01*
X153035000Y-130155000D01*
X153035000Y-131254250D01*
X153193750Y-131413000D01*
X153659310Y-131413000D01*
X153892699Y-131316327D01*
X154051000Y-131158025D01*
X154209301Y-131316327D01*
X154442690Y-131413000D01*
X154908250Y-131413000D01*
X155067000Y-131254250D01*
X155067000Y-130155000D01*
X155321000Y-130155000D01*
X155321000Y-131254250D01*
X155479750Y-131413000D01*
X155945310Y-131413000D01*
X156178699Y-131316327D01*
X156357327Y-131137698D01*
X156454000Y-130904309D01*
X156454000Y-130313750D01*
X156295250Y-130155000D01*
X155321000Y-130155000D01*
X155067000Y-130155000D01*
X154092750Y-130155000D01*
X154051000Y-130196750D01*
X154009250Y-130155000D01*
X153035000Y-130155000D01*
X152781000Y-130155000D01*
X152761000Y-130155000D01*
X152761000Y-129901000D01*
X152781000Y-129901000D01*
X152781000Y-129881000D01*
X153035000Y-129881000D01*
X153035000Y-129901000D01*
X154009250Y-129901000D01*
X154051000Y-129859250D01*
X154092750Y-129901000D01*
X155067000Y-129901000D01*
X155067000Y-129881000D01*
X155321000Y-129881000D01*
X155321000Y-129901000D01*
X156295250Y-129901000D01*
X156454000Y-129742250D01*
X156454000Y-129151691D01*
X156357327Y-128918302D01*
X156216090Y-128777064D01*
X156270441Y-128742090D01*
X156415431Y-128529890D01*
X156466440Y-128278000D01*
X156466440Y-128059009D01*
X157128202Y-128059009D01*
X157132013Y-128079046D01*
X157129129Y-128099241D01*
X157133044Y-128171009D01*
X157139422Y-128195901D01*
X157137817Y-128221548D01*
X157152326Y-128329308D01*
X157169182Y-128378488D01*
X157174322Y-128430219D01*
X157199463Y-128512840D01*
X157237286Y-128583455D01*
X157264709Y-128658723D01*
X157301724Y-128719678D01*
X157370429Y-128794607D01*
X157433419Y-128874406D01*
X157483546Y-128917163D01*
X157515754Y-128935174D01*
X157500228Y-129063789D01*
X157500557Y-129068097D01*
X157499267Y-129072220D01*
X157483253Y-129221486D01*
X157483849Y-129228125D01*
X157481989Y-129234526D01*
X157471038Y-129360949D01*
X157472115Y-129370702D01*
X157469662Y-129380205D01*
X157463617Y-129487575D01*
X157465530Y-129501137D01*
X157462669Y-129514529D01*
X157462049Y-129558507D01*
X157462051Y-129558515D01*
X157462048Y-129558527D01*
X157461371Y-129606658D01*
X157464602Y-129624185D01*
X157461842Y-129641788D01*
X157465137Y-129722427D01*
X157470067Y-129742821D01*
X157468164Y-129763721D01*
X157475893Y-129836679D01*
X157482310Y-129857285D01*
X157481787Y-129878861D01*
X157493793Y-129947930D01*
X157502608Y-129970762D01*
X157503863Y-129995205D01*
X157533572Y-130112707D01*
X157547848Y-130142719D01*
X157552949Y-130175556D01*
X157610569Y-130333183D01*
X157630710Y-130366270D01*
X157641195Y-130403560D01*
X157714701Y-130548105D01*
X157740949Y-130581454D01*
X157757696Y-130620445D01*
X157843896Y-130745894D01*
X157880709Y-130781763D01*
X157908244Y-130825161D01*
X158003948Y-130925505D01*
X158048209Y-130956619D01*
X158084434Y-130996806D01*
X158148118Y-131044306D01*
X158186813Y-131062736D01*
X158219474Y-131090487D01*
X158334388Y-131154456D01*
X158368193Y-131165344D01*
X158397619Y-131185233D01*
X158538522Y-131244476D01*
X158564361Y-131249759D01*
X158587339Y-131262700D01*
X158750948Y-131316297D01*
X158771891Y-131318827D01*
X158790907Y-131327963D01*
X158973938Y-131374994D01*
X158991925Y-131375987D01*
X159008574Y-131382877D01*
X159207743Y-131422424D01*
X159224038Y-131422418D01*
X159239385Y-131427885D01*
X159451406Y-131459026D01*
X159466878Y-131458244D01*
X159481706Y-131462741D01*
X159703297Y-131484556D01*
X159719021Y-131483007D01*
X159734347Y-131486852D01*
X159772474Y-131488740D01*
X159782122Y-131487313D01*
X159791646Y-131489401D01*
X159867218Y-131490875D01*
X159872495Y-131489932D01*
X159877751Y-131490994D01*
X159974991Y-131491290D01*
X159978121Y-131490677D01*
X159981252Y-131491278D01*
X160094349Y-131490516D01*
X160096607Y-131490051D01*
X160098877Y-131490470D01*
X160222020Y-131488769D01*
X160223923Y-131488363D01*
X160225839Y-131488705D01*
X160353217Y-131486185D01*
X160355069Y-131485778D01*
X160356934Y-131486100D01*
X160482734Y-131482880D01*
X160484798Y-131482414D01*
X160486891Y-131482761D01*
X160605303Y-131478960D01*
X160607967Y-131478341D01*
X160610668Y-131478765D01*
X160715881Y-131474504D01*
X160719957Y-131473520D01*
X160724109Y-131474118D01*
X160810311Y-131469514D01*
X160818225Y-131467496D01*
X160826340Y-131468457D01*
X160887718Y-131463632D01*
X160900612Y-131459997D01*
X160913970Y-131461023D01*
X161039236Y-131445960D01*
X161052329Y-131441679D01*
X161066096Y-131442151D01*
X161255072Y-131411254D01*
X161272262Y-131404815D01*
X161290612Y-131404406D01*
X161464044Y-131365874D01*
X161483752Y-131357191D01*
X161505202Y-131355284D01*
X161659083Y-131310194D01*
X161683504Y-131297437D01*
X161710645Y-131292672D01*
X161840966Y-131242101D01*
X161873945Y-131221125D01*
X161911346Y-131209764D01*
X162014100Y-131154791D01*
X162048001Y-131126948D01*
X162087861Y-131108620D01*
X162151724Y-131062317D01*
X162178371Y-131033548D01*
X162211751Y-131012969D01*
X162317381Y-130914798D01*
X162343064Y-130879248D01*
X162376929Y-130851384D01*
X162469172Y-130738694D01*
X162491556Y-130696689D01*
X162523455Y-130661368D01*
X162593382Y-130544235D01*
X162606968Y-130506053D01*
X162630146Y-130472816D01*
X162676329Y-130367310D01*
X162682713Y-130338249D01*
X162697422Y-130312379D01*
X162733280Y-130204402D01*
X162737540Y-130170305D01*
X162751255Y-130138805D01*
X162775953Y-130025329D01*
X162776501Y-129994831D01*
X162785992Y-129965836D01*
X162801373Y-129838277D01*
X162799706Y-129816490D01*
X162805089Y-129795318D01*
X162813000Y-129645094D01*
X162811892Y-129637437D01*
X162813620Y-129629893D01*
X162813721Y-129626392D01*
X162813325Y-129624053D01*
X162813838Y-129621738D01*
X162815415Y-129548633D01*
X162814175Y-129541613D01*
X162815564Y-129534619D01*
X162815542Y-129467782D01*
X162813599Y-129458032D01*
X162815237Y-129448225D01*
X162813199Y-129382274D01*
X162810818Y-129371976D01*
X162812219Y-129361499D01*
X162807747Y-129291045D01*
X162805445Y-129282384D01*
X162806388Y-129273476D01*
X162799063Y-129193136D01*
X162797269Y-129187065D01*
X162797813Y-129180758D01*
X162787218Y-129085147D01*
X162786049Y-129081457D01*
X162786336Y-129077595D01*
X162772052Y-128961329D01*
X162771411Y-128959387D01*
X162771550Y-128957347D01*
X162769034Y-128937876D01*
X162780934Y-128928906D01*
X162797603Y-128910226D01*
X162813023Y-128900806D01*
X162830703Y-128876541D01*
X162870688Y-128846777D01*
X162908997Y-128804359D01*
X162938299Y-128755274D01*
X162977395Y-128713563D01*
X163009917Y-128661306D01*
X163022337Y-128628344D01*
X163043485Y-128600177D01*
X163050960Y-128584610D01*
X163055663Y-128566292D01*
X163066118Y-128550532D01*
X163078183Y-128521129D01*
X163086127Y-128480489D01*
X163104412Y-128443337D01*
X163112750Y-128412122D01*
X163115395Y-128371275D01*
X163128679Y-128332556D01*
X163133944Y-128293544D01*
X163132328Y-128267597D01*
X163138766Y-128242407D01*
X163141613Y-128189609D01*
X163139816Y-128177082D01*
X163142470Y-128164708D01*
X163143554Y-128092138D01*
X163142660Y-128087266D01*
X163143625Y-128082410D01*
X163143599Y-127984081D01*
X163142953Y-127980838D01*
X163143564Y-127977591D01*
X163142511Y-127876388D01*
X163140830Y-127868373D01*
X163142141Y-127860288D01*
X163138848Y-127767746D01*
X163135449Y-127753356D01*
X163137150Y-127738667D01*
X163130970Y-127662620D01*
X163125452Y-127643243D01*
X163126522Y-127623125D01*
X163116767Y-127555470D01*
X163110079Y-127536536D01*
X163109903Y-127516452D01*
X163095888Y-127449085D01*
X163092401Y-127440871D01*
X163092078Y-127431952D01*
X163088651Y-127417481D01*
X163083736Y-127406732D01*
X163082879Y-127394943D01*
X163041771Y-127245765D01*
X163027637Y-127217609D01*
X163022308Y-127186557D01*
X162975989Y-127065816D01*
X162950189Y-127024907D01*
X162934970Y-126979001D01*
X162880870Y-126883736D01*
X162837125Y-126833132D01*
X162803392Y-126775380D01*
X162738942Y-126702631D01*
X162676863Y-126655492D01*
X162622484Y-126599652D01*
X162545113Y-126546457D01*
X162478332Y-126517753D01*
X162417206Y-126478418D01*
X162324341Y-126441816D01*
X162270154Y-126432006D01*
X162219440Y-126410532D01*
X162108513Y-126387561D01*
X162072904Y-126387282D01*
X162038784Y-126377088D01*
X161911349Y-126365078D01*
X161877489Y-126368557D01*
X161844033Y-126362296D01*
X161711131Y-126363805D01*
X161671203Y-126372220D01*
X161630471Y-126369833D01*
X161511660Y-126386312D01*
X161464031Y-126402848D01*
X161413853Y-126407786D01*
X161313005Y-126438369D01*
X161253043Y-126470413D01*
X161188302Y-126491157D01*
X161109294Y-126534981D01*
X161088959Y-126552206D01*
X161024281Y-126547883D01*
X161024280Y-126547883D01*
X160919961Y-126540837D01*
X160817659Y-126533852D01*
X160816610Y-126533987D01*
X160815589Y-126533714D01*
X160785029Y-126531727D01*
X160780077Y-126532382D01*
X160775231Y-126531165D01*
X160632012Y-126524056D01*
X160626326Y-126524896D01*
X160620729Y-126523596D01*
X160456199Y-126518337D01*
X160452050Y-126519025D01*
X160447939Y-126518126D01*
X160268725Y-126514713D01*
X160265301Y-126515326D01*
X160261894Y-126514619D01*
X160074621Y-126513052D01*
X160071470Y-126513651D01*
X160068326Y-126513031D01*
X159879621Y-126513308D01*
X159876403Y-126513953D01*
X159873177Y-126513350D01*
X159689664Y-126515467D01*
X159685994Y-126516241D01*
X159682298Y-126515594D01*
X159510604Y-126519552D01*
X159505916Y-126520597D01*
X159501174Y-126519839D01*
X159347926Y-126525633D01*
X159341062Y-126527270D01*
X159334071Y-126526307D01*
X159205894Y-126533938D01*
X159200931Y-126535236D01*
X159195838Y-126534616D01*
X159170226Y-126536546D01*
X159121158Y-126506455D01*
X159047068Y-126479094D01*
X158977746Y-126441253D01*
X158878308Y-126410131D01*
X158821740Y-126404056D01*
X158767783Y-126386015D01*
X158643344Y-126370209D01*
X158621699Y-126371727D01*
X158600712Y-126366239D01*
X158592425Y-126365746D01*
X158574030Y-126368281D01*
X158555827Y-126364618D01*
X158404107Y-126364284D01*
X158365790Y-126371818D01*
X158326856Y-126368792D01*
X158190209Y-126385100D01*
X158145484Y-126399680D01*
X158098550Y-126402898D01*
X157980460Y-126434921D01*
X157926197Y-126461884D01*
X157867596Y-126477291D01*
X157771542Y-126524100D01*
X157706126Y-126573809D01*
X157634582Y-126614201D01*
X157564045Y-126674868D01*
X157521763Y-126728886D01*
X157470550Y-126774522D01*
X157443344Y-126810566D01*
X157423534Y-126851553D01*
X157394151Y-126886320D01*
X157337560Y-126988613D01*
X157323671Y-127032127D01*
X157299412Y-127070826D01*
X157251468Y-127196829D01*
X157245765Y-127230612D01*
X157230741Y-127261406D01*
X157192637Y-127406061D01*
X157190892Y-127434532D01*
X157180690Y-127461169D01*
X157153619Y-127619418D01*
X157154322Y-127645524D01*
X157146976Y-127670585D01*
X157132129Y-127837369D01*
X157134924Y-127863255D01*
X157129631Y-127888746D01*
X157128202Y-128059009D01*
X156466440Y-128059009D01*
X156466440Y-126778000D01*
X156422162Y-126542683D01*
X156296527Y-126347440D01*
X156415000Y-126347440D01*
X156544589Y-126323056D01*
X156665000Y-126347440D01*
X157215000Y-126347440D01*
X157344589Y-126323056D01*
X157465000Y-126347440D01*
X158015000Y-126347440D01*
X158250317Y-126303162D01*
X158466441Y-126164090D01*
X158611431Y-125951890D01*
X158662440Y-125700000D01*
X158662440Y-125499000D01*
X160020000Y-125499000D01*
X160320407Y-125439245D01*
X160575079Y-125269079D01*
X163266158Y-122578000D01*
X163885842Y-122578000D01*
X165051540Y-123743698D01*
X165051540Y-123743698D01*
G37*
X165051540Y-123743698D02*
X164956115Y-123886511D01*
X164842041Y-124460000D01*
X164890288Y-124702554D01*
X164417921Y-125174921D01*
X164247755Y-125429593D01*
X164219842Y-125569921D01*
X164188000Y-125730000D01*
X164188000Y-127055843D01*
X163909921Y-127333921D01*
X163739755Y-127588593D01*
X163685136Y-127863180D01*
X163680000Y-127889000D01*
X163680000Y-129341842D01*
X163020921Y-130000921D01*
X162850755Y-130255593D01*
X162795158Y-130535098D01*
X162791000Y-130556000D01*
X162791000Y-136502000D01*
X161798005Y-136502000D01*
X161798000Y-136501999D01*
X161497594Y-136561755D01*
X161242921Y-136731921D01*
X160837842Y-137137000D01*
X159940000Y-137137000D01*
X159639593Y-137196755D01*
X159384921Y-137366921D01*
X158783282Y-137968560D01*
X157846000Y-137968560D01*
X157610683Y-138012838D01*
X157394559Y-138151910D01*
X157249569Y-138364110D01*
X157198560Y-138616000D01*
X157198560Y-139572998D01*
X157036470Y-139572998D01*
X157156968Y-139340973D01*
X156908821Y-138811510D01*
X156476947Y-138417312D01*
X156061026Y-138245042D01*
X155829000Y-138366183D01*
X155829000Y-139573000D01*
X155849000Y-139573000D01*
X155849000Y-139827000D01*
X155829000Y-139827000D01*
X155829000Y-139847000D01*
X155575000Y-139847000D01*
X155575000Y-139827000D01*
X155555000Y-139827000D01*
X155555000Y-139573000D01*
X155575000Y-139573000D01*
X155575000Y-138366183D01*
X155342974Y-138245042D01*
X154927053Y-138417312D01*
X154910018Y-138432860D01*
X154352079Y-137874921D01*
X154097407Y-137704755D01*
X153797000Y-137645000D01*
X152527005Y-137645000D01*
X152527000Y-137644999D01*
X152226594Y-137704755D01*
X151971921Y-137874921D01*
X151414433Y-138432409D01*
X151407000Y-138427442D01*
X151407000Y-136680458D01*
X151720079Y-136367379D01*
X151890245Y-136112707D01*
X151890895Y-136109440D01*
X153040000Y-136109440D01*
X153275317Y-136065162D01*
X153491441Y-135926090D01*
X153636431Y-135713890D01*
X153687440Y-135462000D01*
X153687440Y-134397750D01*
X156205000Y-134397750D01*
X156205000Y-135588310D01*
X156301673Y-135821699D01*
X156480302Y-136000327D01*
X156713691Y-136097000D01*
X158429250Y-136097000D01*
X158588000Y-135938250D01*
X158588000Y-134239000D01*
X158842000Y-134239000D01*
X158842000Y-135938250D01*
X159000750Y-136097000D01*
X160716309Y-136097000D01*
X160949698Y-136000327D01*
X161128327Y-135821699D01*
X161225000Y-135588310D01*
X161225000Y-134397750D01*
X161066250Y-134239000D01*
X158842000Y-134239000D01*
X158588000Y-134239000D01*
X156363750Y-134239000D01*
X156205000Y-134397750D01*
X153687440Y-134397750D01*
X153687440Y-132762000D01*
X153663674Y-132635690D01*
X156205000Y-132635690D01*
X156205000Y-133826250D01*
X156363750Y-133985000D01*
X158588000Y-133985000D01*
X158588000Y-132285750D01*
X158842000Y-132285750D01*
X158842000Y-133985000D01*
X161066250Y-133985000D01*
X161225000Y-133826250D01*
X161225000Y-132635690D01*
X161128327Y-132402301D01*
X160949698Y-132223673D01*
X160716309Y-132127000D01*
X159000750Y-132127000D01*
X158842000Y-132285750D01*
X158588000Y-132285750D01*
X158429250Y-132127000D01*
X156713691Y-132127000D01*
X156480302Y-132223673D01*
X156301673Y-132402301D01*
X156205000Y-132635690D01*
X153663674Y-132635690D01*
X153643162Y-132526683D01*
X153504090Y-132310559D01*
X153291890Y-132165569D01*
X153040000Y-132114560D01*
X151915000Y-132114560D01*
X151915000Y-131308026D01*
X151923301Y-131316327D01*
X152156690Y-131413000D01*
X152622250Y-131413000D01*
X152781000Y-131254250D01*
X152781000Y-130155000D01*
X153035000Y-130155000D01*
X153035000Y-131254250D01*
X153193750Y-131413000D01*
X153659310Y-131413000D01*
X153892699Y-131316327D01*
X154051000Y-131158025D01*
X154209301Y-131316327D01*
X154442690Y-131413000D01*
X154908250Y-131413000D01*
X155067000Y-131254250D01*
X155067000Y-130155000D01*
X155321000Y-130155000D01*
X155321000Y-131254250D01*
X155479750Y-131413000D01*
X155945310Y-131413000D01*
X156178699Y-131316327D01*
X156357327Y-131137698D01*
X156454000Y-130904309D01*
X156454000Y-130313750D01*
X156295250Y-130155000D01*
X155321000Y-130155000D01*
X155067000Y-130155000D01*
X154092750Y-130155000D01*
X154051000Y-130196750D01*
X154009250Y-130155000D01*
X153035000Y-130155000D01*
X152781000Y-130155000D01*
X152761000Y-130155000D01*
X152761000Y-129901000D01*
X152781000Y-129901000D01*
X152781000Y-129881000D01*
X153035000Y-129881000D01*
X153035000Y-129901000D01*
X154009250Y-129901000D01*
X154051000Y-129859250D01*
X154092750Y-129901000D01*
X155067000Y-129901000D01*
X155067000Y-129881000D01*
X155321000Y-129881000D01*
X155321000Y-129901000D01*
X156295250Y-129901000D01*
X156454000Y-129742250D01*
X156454000Y-129151691D01*
X156357327Y-128918302D01*
X156216090Y-128777064D01*
X156270441Y-128742090D01*
X156415431Y-128529890D01*
X156466440Y-128278000D01*
X156466440Y-128059009D01*
X157128202Y-128059009D01*
X157132013Y-128079046D01*
X157129129Y-128099241D01*
X157133044Y-128171009D01*
X157139422Y-128195901D01*
X157137817Y-128221548D01*
X157152326Y-128329308D01*
X157169182Y-128378488D01*
X157174322Y-128430219D01*
X157199463Y-128512840D01*
X157237286Y-128583455D01*
X157264709Y-128658723D01*
X157301724Y-128719678D01*
X157370429Y-128794607D01*
X157433419Y-128874406D01*
X157483546Y-128917163D01*
X157515754Y-128935174D01*
X157500228Y-129063789D01*
X157500557Y-129068097D01*
X157499267Y-129072220D01*
X157483253Y-129221486D01*
X157483849Y-129228125D01*
X157481989Y-129234526D01*
X157471038Y-129360949D01*
X157472115Y-129370702D01*
X157469662Y-129380205D01*
X157463617Y-129487575D01*
X157465530Y-129501137D01*
X157462669Y-129514529D01*
X157462049Y-129558507D01*
X157462051Y-129558515D01*
X157462048Y-129558527D01*
X157461371Y-129606658D01*
X157464602Y-129624185D01*
X157461842Y-129641788D01*
X157465137Y-129722427D01*
X157470067Y-129742821D01*
X157468164Y-129763721D01*
X157475893Y-129836679D01*
X157482310Y-129857285D01*
X157481787Y-129878861D01*
X157493793Y-129947930D01*
X157502608Y-129970762D01*
X157503863Y-129995205D01*
X157533572Y-130112707D01*
X157547848Y-130142719D01*
X157552949Y-130175556D01*
X157610569Y-130333183D01*
X157630710Y-130366270D01*
X157641195Y-130403560D01*
X157714701Y-130548105D01*
X157740949Y-130581454D01*
X157757696Y-130620445D01*
X157843896Y-130745894D01*
X157880709Y-130781763D01*
X157908244Y-130825161D01*
X158003948Y-130925505D01*
X158048209Y-130956619D01*
X158084434Y-130996806D01*
X158148118Y-131044306D01*
X158186813Y-131062736D01*
X158219474Y-131090487D01*
X158334388Y-131154456D01*
X158368193Y-131165344D01*
X158397619Y-131185233D01*
X158538522Y-131244476D01*
X158564361Y-131249759D01*
X158587339Y-131262700D01*
X158750948Y-131316297D01*
X158771891Y-131318827D01*
X158790907Y-131327963D01*
X158973938Y-131374994D01*
X158991925Y-131375987D01*
X159008574Y-131382877D01*
X159207743Y-131422424D01*
X159224038Y-131422418D01*
X159239385Y-131427885D01*
X159451406Y-131459026D01*
X159466878Y-131458244D01*
X159481706Y-131462741D01*
X159703297Y-131484556D01*
X159719021Y-131483007D01*
X159734347Y-131486852D01*
X159772474Y-131488740D01*
X159782122Y-131487313D01*
X159791646Y-131489401D01*
X159867218Y-131490875D01*
X159872495Y-131489932D01*
X159877751Y-131490994D01*
X159974991Y-131491290D01*
X159978121Y-131490677D01*
X159981252Y-131491278D01*
X160094349Y-131490516D01*
X160096607Y-131490051D01*
X160098877Y-131490470D01*
X160222020Y-131488769D01*
X160223923Y-131488363D01*
X160225839Y-131488705D01*
X160353217Y-131486185D01*
X160355069Y-131485778D01*
X160356934Y-131486100D01*
X160482734Y-131482880D01*
X160484798Y-131482414D01*
X160486891Y-131482761D01*
X160605303Y-131478960D01*
X160607967Y-131478341D01*
X160610668Y-131478765D01*
X160715881Y-131474504D01*
X160719957Y-131473520D01*
X160724109Y-131474118D01*
X160810311Y-131469514D01*
X160818225Y-131467496D01*
X160826340Y-131468457D01*
X160887718Y-131463632D01*
X160900612Y-131459997D01*
X160913970Y-131461023D01*
X161039236Y-131445960D01*
X161052329Y-131441679D01*
X161066096Y-131442151D01*
X161255072Y-131411254D01*
X161272262Y-131404815D01*
X161290612Y-131404406D01*
X161464044Y-131365874D01*
X161483752Y-131357191D01*
X161505202Y-131355284D01*
X161659083Y-131310194D01*
X161683504Y-131297437D01*
X161710645Y-131292672D01*
X161840966Y-131242101D01*
X161873945Y-131221125D01*
X161911346Y-131209764D01*
X162014100Y-131154791D01*
X162048001Y-131126948D01*
X162087861Y-131108620D01*
X162151724Y-131062317D01*
X162178371Y-131033548D01*
X162211751Y-131012969D01*
X162317381Y-130914798D01*
X162343064Y-130879248D01*
X162376929Y-130851384D01*
X162469172Y-130738694D01*
X162491556Y-130696689D01*
X162523455Y-130661368D01*
X162593382Y-130544235D01*
X162606968Y-130506053D01*
X162630146Y-130472816D01*
X162676329Y-130367310D01*
X162682713Y-130338249D01*
X162697422Y-130312379D01*
X162733280Y-130204402D01*
X162737540Y-130170305D01*
X162751255Y-130138805D01*
X162775953Y-130025329D01*
X162776501Y-129994831D01*
X162785992Y-129965836D01*
X162801373Y-129838277D01*
X162799706Y-129816490D01*
X162805089Y-129795318D01*
X162813000Y-129645094D01*
X162811892Y-129637437D01*
X162813620Y-129629893D01*
X162813721Y-129626392D01*
X162813325Y-129624053D01*
X162813838Y-129621738D01*
X162815415Y-129548633D01*
X162814175Y-129541613D01*
X162815564Y-129534619D01*
X162815542Y-129467782D01*
X162813599Y-129458032D01*
X162815237Y-129448225D01*
X162813199Y-129382274D01*
X162810818Y-129371976D01*
X162812219Y-129361499D01*
X162807747Y-129291045D01*
X162805445Y-129282384D01*
X162806388Y-129273476D01*
X162799063Y-129193136D01*
X162797269Y-129187065D01*
X162797813Y-129180758D01*
X162787218Y-129085147D01*
X162786049Y-129081457D01*
X162786336Y-129077595D01*
X162772052Y-128961329D01*
X162771411Y-128959387D01*
X162771550Y-128957347D01*
X162769034Y-128937876D01*
X162780934Y-128928906D01*
X162797603Y-128910226D01*
X162813023Y-128900806D01*
X162830703Y-128876541D01*
X162870688Y-128846777D01*
X162908997Y-128804359D01*
X162938299Y-128755274D01*
X162977395Y-128713563D01*
X163009917Y-128661306D01*
X163022337Y-128628344D01*
X163043485Y-128600177D01*
X163050960Y-128584610D01*
X163055663Y-128566292D01*
X163066118Y-128550532D01*
X163078183Y-128521129D01*
X163086127Y-128480489D01*
X163104412Y-128443337D01*
X163112750Y-128412122D01*
X163115395Y-128371275D01*
X163128679Y-128332556D01*
X163133944Y-128293544D01*
X163132328Y-128267597D01*
X163138766Y-128242407D01*
X163141613Y-128189609D01*
X163139816Y-128177082D01*
X163142470Y-128164708D01*
X163143554Y-128092138D01*
X163142660Y-128087266D01*
X163143625Y-128082410D01*
X163143599Y-127984081D01*
X163142953Y-127980838D01*
X163143564Y-127977591D01*
X163142511Y-127876388D01*
X163140830Y-127868373D01*
X163142141Y-127860288D01*
X163138848Y-127767746D01*
X163135449Y-127753356D01*
X163137150Y-127738667D01*
X163130970Y-127662620D01*
X163125452Y-127643243D01*
X163126522Y-127623125D01*
X163116767Y-127555470D01*
X163110079Y-127536536D01*
X163109903Y-127516452D01*
X163095888Y-127449085D01*
X163092401Y-127440871D01*
X163092078Y-127431952D01*
X163088651Y-127417481D01*
X163083736Y-127406732D01*
X163082879Y-127394943D01*
X163041771Y-127245765D01*
X163027637Y-127217609D01*
X163022308Y-127186557D01*
X162975989Y-127065816D01*
X162950189Y-127024907D01*
X162934970Y-126979001D01*
X162880870Y-126883736D01*
X162837125Y-126833132D01*
X162803392Y-126775380D01*
X162738942Y-126702631D01*
X162676863Y-126655492D01*
X162622484Y-126599652D01*
X162545113Y-126546457D01*
X162478332Y-126517753D01*
X162417206Y-126478418D01*
X162324341Y-126441816D01*
X162270154Y-126432006D01*
X162219440Y-126410532D01*
X162108513Y-126387561D01*
X162072904Y-126387282D01*
X162038784Y-126377088D01*
X161911349Y-126365078D01*
X161877489Y-126368557D01*
X161844033Y-126362296D01*
X161711131Y-126363805D01*
X161671203Y-126372220D01*
X161630471Y-126369833D01*
X161511660Y-126386312D01*
X161464031Y-126402848D01*
X161413853Y-126407786D01*
X161313005Y-126438369D01*
X161253043Y-126470413D01*
X161188302Y-126491157D01*
X161109294Y-126534981D01*
X161088959Y-126552206D01*
X161024281Y-126547883D01*
X161024280Y-126547883D01*
X160919961Y-126540837D01*
X160817659Y-126533852D01*
X160816610Y-126533987D01*
X160815589Y-126533714D01*
X160785029Y-126531727D01*
X160780077Y-126532382D01*
X160775231Y-126531165D01*
X160632012Y-126524056D01*
X160626326Y-126524896D01*
X160620729Y-126523596D01*
X160456199Y-126518337D01*
X160452050Y-126519025D01*
X160447939Y-126518126D01*
X160268725Y-126514713D01*
X160265301Y-126515326D01*
X160261894Y-126514619D01*
X160074621Y-126513052D01*
X160071470Y-126513651D01*
X160068326Y-126513031D01*
X159879621Y-126513308D01*
X159876403Y-126513953D01*
X159873177Y-126513350D01*
X159689664Y-126515467D01*
X159685994Y-126516241D01*
X159682298Y-126515594D01*
X159510604Y-126519552D01*
X159505916Y-126520597D01*
X159501174Y-126519839D01*
X159347926Y-126525633D01*
X159341062Y-126527270D01*
X159334071Y-126526307D01*
X159205894Y-126533938D01*
X159200931Y-126535236D01*
X159195838Y-126534616D01*
X159170226Y-126536546D01*
X159121158Y-126506455D01*
X159047068Y-126479094D01*
X158977746Y-126441253D01*
X158878308Y-126410131D01*
X158821740Y-126404056D01*
X158767783Y-126386015D01*
X158643344Y-126370209D01*
X158621699Y-126371727D01*
X158600712Y-126366239D01*
X158592425Y-126365746D01*
X158574030Y-126368281D01*
X158555827Y-126364618D01*
X158404107Y-126364284D01*
X158365790Y-126371818D01*
X158326856Y-126368792D01*
X158190209Y-126385100D01*
X158145484Y-126399680D01*
X158098550Y-126402898D01*
X157980460Y-126434921D01*
X157926197Y-126461884D01*
X157867596Y-126477291D01*
X157771542Y-126524100D01*
X157706126Y-126573809D01*
X157634582Y-126614201D01*
X157564045Y-126674868D01*
X157521763Y-126728886D01*
X157470550Y-126774522D01*
X157443344Y-126810566D01*
X157423534Y-126851553D01*
X157394151Y-126886320D01*
X157337560Y-126988613D01*
X157323671Y-127032127D01*
X157299412Y-127070826D01*
X157251468Y-127196829D01*
X157245765Y-127230612D01*
X157230741Y-127261406D01*
X157192637Y-127406061D01*
X157190892Y-127434532D01*
X157180690Y-127461169D01*
X157153619Y-127619418D01*
X157154322Y-127645524D01*
X157146976Y-127670585D01*
X157132129Y-127837369D01*
X157134924Y-127863255D01*
X157129631Y-127888746D01*
X157128202Y-128059009D01*
X156466440Y-128059009D01*
X156466440Y-126778000D01*
X156422162Y-126542683D01*
X156296527Y-126347440D01*
X156415000Y-126347440D01*
X156544589Y-126323056D01*
X156665000Y-126347440D01*
X157215000Y-126347440D01*
X157344589Y-126323056D01*
X157465000Y-126347440D01*
X158015000Y-126347440D01*
X158250317Y-126303162D01*
X158466441Y-126164090D01*
X158611431Y-125951890D01*
X158662440Y-125700000D01*
X158662440Y-125499000D01*
X160020000Y-125499000D01*
X160320407Y-125439245D01*
X160575079Y-125269079D01*
X163266158Y-122578000D01*
X163885842Y-122578000D01*
X165051540Y-123743698D01*
G36*
X169037000Y-137033000D02*
X169057000Y-137033000D01*
X169057000Y-137287000D01*
X169037000Y-137287000D01*
X169037000Y-137307000D01*
X168783000Y-137307000D01*
X168783000Y-137287000D01*
X168763000Y-137287000D01*
X168763000Y-137033000D01*
X168783000Y-137033000D01*
X168783000Y-137013000D01*
X169037000Y-137013000D01*
X169037000Y-137033000D01*
X169037000Y-137033000D01*
G37*
X169037000Y-137033000D02*
X169057000Y-137033000D01*
X169057000Y-137287000D01*
X169037000Y-137287000D01*
X169037000Y-137307000D01*
X168783000Y-137307000D01*
X168783000Y-137287000D01*
X168763000Y-137287000D01*
X168763000Y-137033000D01*
X168783000Y-137033000D01*
X168783000Y-137013000D01*
X169037000Y-137013000D01*
X169037000Y-137033000D01*
G36*
X166497000Y-131953000D02*
X166517000Y-131953000D01*
X166517000Y-132207000D01*
X166497000Y-132207000D01*
X166497000Y-132227000D01*
X166243000Y-132227000D01*
X166243000Y-132207000D01*
X166223000Y-132207000D01*
X166223000Y-131953000D01*
X166243000Y-131953000D01*
X166243000Y-131933000D01*
X166497000Y-131933000D01*
X166497000Y-131953000D01*
X166497000Y-131953000D01*
G37*
X166497000Y-131953000D02*
X166517000Y-131953000D01*
X166517000Y-132207000D01*
X166497000Y-132207000D01*
X166497000Y-132227000D01*
X166243000Y-132227000D01*
X166243000Y-132207000D01*
X166223000Y-132207000D01*
X166223000Y-131953000D01*
X166243000Y-131953000D01*
X166243000Y-131933000D01*
X166497000Y-131933000D01*
X166497000Y-131953000D01*
G36*
X168021510Y-125666821D02*
X168144228Y-125724336D01*
X167820971Y-125940330D01*
X167640000Y-126211172D01*
X167459029Y-125940330D01*
X167144248Y-125730000D01*
X167459029Y-125519670D01*
X167639992Y-125248839D01*
X168021510Y-125666821D01*
X168021510Y-125666821D01*
G37*
X168021510Y-125666821D02*
X168144228Y-125724336D01*
X167820971Y-125940330D01*
X167640000Y-126211172D01*
X167459029Y-125940330D01*
X167144248Y-125730000D01*
X167459029Y-125519670D01*
X167639992Y-125248839D01*
X168021510Y-125666821D01*
G36*
X169037000Y-124333000D02*
X169057000Y-124333000D01*
X169057000Y-124587000D01*
X169037000Y-124587000D01*
X169037000Y-124607000D01*
X168783000Y-124607000D01*
X168783000Y-124587000D01*
X168763000Y-124587000D01*
X168763000Y-124333000D01*
X168783000Y-124333000D01*
X168783000Y-124313000D01*
X169037000Y-124313000D01*
X169037000Y-124333000D01*
X169037000Y-124333000D01*
G37*
X169037000Y-124333000D02*
X169057000Y-124333000D01*
X169057000Y-124587000D01*
X169037000Y-124587000D01*
X169037000Y-124607000D01*
X168783000Y-124607000D01*
X168783000Y-124587000D01*
X168763000Y-124587000D01*
X168763000Y-124333000D01*
X168783000Y-124333000D01*
X168783000Y-124313000D01*
X169037000Y-124313000D01*
X169037000Y-124333000D01*
G36*
X169037000Y-116713000D02*
X169057000Y-116713000D01*
X169057000Y-116967000D01*
X169037000Y-116967000D01*
X169037000Y-116987000D01*
X168783000Y-116987000D01*
X168783000Y-116967000D01*
X168763000Y-116967000D01*
X168763000Y-116713000D01*
X168783000Y-116713000D01*
X168783000Y-116693000D01*
X169037000Y-116693000D01*
X169037000Y-116713000D01*
X169037000Y-116713000D01*
G37*
X169037000Y-116713000D02*
X169057000Y-116713000D01*
X169057000Y-116967000D01*
X169037000Y-116967000D01*
X169037000Y-116987000D01*
X168783000Y-116987000D01*
X168783000Y-116967000D01*
X168763000Y-116967000D01*
X168763000Y-116713000D01*
X168783000Y-116713000D01*
X168783000Y-116693000D01*
X169037000Y-116693000D01*
X169037000Y-116713000D01*
G36*
X167820971Y-115359670D02*
X168144228Y-115575664D01*
X168021510Y-115633179D01*
X167639992Y-116051161D01*
X167459029Y-115780330D01*
X167144248Y-115570000D01*
X167459029Y-115359670D01*
X167640000Y-115088828D01*
X167820971Y-115359670D01*
X167820971Y-115359670D01*
G37*
X167820971Y-115359670D02*
X168144228Y-115575664D01*
X168021510Y-115633179D01*
X167639992Y-116051161D01*
X167459029Y-115780330D01*
X167144248Y-115570000D01*
X167459029Y-115359670D01*
X167640000Y-115088828D01*
X167820971Y-115359670D01*
G36*
X167820971Y-112819670D02*
X168135752Y-113030000D01*
X167820971Y-113240330D01*
X167640000Y-113511172D01*
X167459029Y-113240330D01*
X167135772Y-113024336D01*
X167258490Y-112966821D01*
X167640008Y-112548839D01*
X167820971Y-112819670D01*
X167820971Y-112819670D01*
G37*
X167820971Y-112819670D02*
X168135752Y-113030000D01*
X167820971Y-113240330D01*
X167640000Y-113511172D01*
X167459029Y-113240330D01*
X167135772Y-113024336D01*
X167258490Y-112966821D01*
X167640008Y-112548839D01*
X167820971Y-112819670D01*
G36*
X166497000Y-111633000D02*
X166517000Y-111633000D01*
X166517000Y-111887000D01*
X166497000Y-111887000D01*
X166497000Y-111907000D01*
X166243000Y-111907000D01*
X166243000Y-111887000D01*
X166223000Y-111887000D01*
X166223000Y-111633000D01*
X166243000Y-111633000D01*
X166243000Y-111613000D01*
X166497000Y-111613000D01*
X166497000Y-111633000D01*
X166497000Y-111633000D01*
G37*
X166497000Y-111633000D02*
X166517000Y-111633000D01*
X166517000Y-111887000D01*
X166497000Y-111887000D01*
X166497000Y-111907000D01*
X166243000Y-111907000D01*
X166243000Y-111887000D01*
X166223000Y-111887000D01*
X166223000Y-111633000D01*
X166243000Y-111633000D01*
X166243000Y-111613000D01*
X166497000Y-111613000D01*
X166497000Y-111633000D01*
G36*
X169037000Y-106553000D02*
X169057000Y-106553000D01*
X169057000Y-106807000D01*
X169037000Y-106807000D01*
X169037000Y-106827000D01*
X168783000Y-106827000D01*
X168783000Y-106807000D01*
X168763000Y-106807000D01*
X168763000Y-106553000D01*
X168783000Y-106553000D01*
X168783000Y-106533000D01*
X169037000Y-106533000D01*
X169037000Y-106553000D01*
X169037000Y-106553000D01*
G37*
X169037000Y-106553000D02*
X169057000Y-106553000D01*
X169057000Y-106807000D01*
X169037000Y-106807000D01*
X169037000Y-106827000D01*
X168783000Y-106827000D01*
X168783000Y-106807000D01*
X168763000Y-106807000D01*
X168763000Y-106553000D01*
X168783000Y-106553000D01*
X168783000Y-106533000D01*
X169037000Y-106533000D01*
X169037000Y-106553000D01*
G36*
X157353000Y-119051606D02*
X157353000Y-123063000D01*
X152527000Y-123063000D01*
X152527000Y-118237000D01*
X156538394Y-118237000D01*
X157353000Y-119051606D01*
X157353000Y-119051606D01*
G37*
X157353000Y-119051606D02*
X157353000Y-123063000D01*
X152527000Y-123063000D01*
X152527000Y-118237000D01*
X156538394Y-118237000D01*
X157353000Y-119051606D01*
M02*
