G04 #@! TF.FileFunction,Copper,L1,Top,Signal*
%FSLAX46Y46*%
G04 Gerber Fmt 4.6, Leading zero omitted, Abs format (unit mm)*
G04 Created by KiCad (PCBNEW 4.0.7) date 04/13/18 12:15:04*
%MOMM*%
%LPD*%
G01*
G04 APERTURE LIST*
%ADD10C,0.100000*%
%ADD11C,0.300000*%
%ADD12C,0.010000*%
%ADD13R,1.727200X1.727200*%
%ADD14O,1.727200X1.727200*%
%ADD15R,2.600960X1.600200*%
%ADD16R,1.198880X1.198880*%
%ADD17R,0.500000X0.900000*%
%ADD18R,0.900000X0.500000*%
%ADD19R,1.000000X2.750000*%
%ADD20R,0.508000X1.473200*%
%ADD21R,1.473200X0.508000*%
%ADD22C,3.800000*%
%ADD23C,1.500000*%
%ADD24C,0.254000*%
G04 APERTURE END LIST*
D10*
D11*
X157480000Y-118010714D02*
X157551428Y-118082143D01*
X157480000Y-118153571D01*
X157408571Y-118082143D01*
X157480000Y-118010714D01*
X157480000Y-118153571D01*
D12*
G36*
X163121734Y-126379265D02*
X163232661Y-126402236D01*
X163325526Y-126438838D01*
X163402898Y-126492033D01*
X163467349Y-126564782D01*
X163521449Y-126660046D01*
X163567768Y-126780787D01*
X163608876Y-126929966D01*
X163612303Y-126944437D01*
X163626318Y-127011805D01*
X163636073Y-127079460D01*
X163642253Y-127155506D01*
X163645546Y-127248047D01*
X163646599Y-127349250D01*
X163646625Y-127447579D01*
X163645541Y-127520149D01*
X163642694Y-127572947D01*
X163637429Y-127611959D01*
X163629091Y-127643174D01*
X163617026Y-127672577D01*
X163609551Y-127688144D01*
X163577029Y-127740401D01*
X163538720Y-127782819D01*
X163522239Y-127795241D01*
X163459779Y-127818186D01*
X163382709Y-127824739D01*
X163303792Y-127814594D01*
X163263490Y-127801479D01*
X163226313Y-127787224D01*
X163204487Y-127781291D01*
X163202526Y-127781635D01*
X163203640Y-127797805D01*
X163208461Y-127841574D01*
X163216514Y-127909067D01*
X163227324Y-127996409D01*
X163240414Y-128099726D01*
X163255312Y-128215144D01*
X163261438Y-128262062D01*
X163279828Y-128404370D01*
X163294112Y-128520636D01*
X163304707Y-128616247D01*
X163312032Y-128696587D01*
X163316504Y-128767041D01*
X163318542Y-128832993D01*
X163318564Y-128899830D01*
X163316987Y-128972936D01*
X163316886Y-128976437D01*
X163308975Y-129126661D01*
X163293594Y-129254220D01*
X163268896Y-129367696D01*
X163233038Y-129475673D01*
X163186855Y-129581179D01*
X163116929Y-129698312D01*
X163024687Y-129811001D01*
X162919057Y-129909172D01*
X162855193Y-129955475D01*
X162752439Y-130010448D01*
X162622118Y-130061018D01*
X162468237Y-130106108D01*
X162294805Y-130144640D01*
X162105829Y-130175537D01*
X161980562Y-130190600D01*
X161919184Y-130195425D01*
X161832983Y-130200028D01*
X161727770Y-130204289D01*
X161609358Y-130208090D01*
X161483558Y-130211310D01*
X161356180Y-130213830D01*
X161233037Y-130215531D01*
X161119940Y-130216293D01*
X161022699Y-130215997D01*
X160947127Y-130214523D01*
X160909000Y-130212635D01*
X160687409Y-130190820D01*
X160475388Y-130159679D01*
X160276219Y-130120132D01*
X160093188Y-130073100D01*
X159929578Y-130019503D01*
X159788675Y-129960260D01*
X159673761Y-129896291D01*
X159610077Y-129848791D01*
X159514373Y-129748447D01*
X159428173Y-129622998D01*
X159354667Y-129478454D01*
X159297047Y-129320827D01*
X159267338Y-129203325D01*
X159255332Y-129134256D01*
X159247603Y-129061298D01*
X159244308Y-128980659D01*
X159244985Y-128932529D01*
X159383496Y-128932529D01*
X159384497Y-129018896D01*
X159390096Y-129094568D01*
X159400140Y-129162975D01*
X159408789Y-129204353D01*
X159422882Y-129262448D01*
X159432857Y-129293656D01*
X159441122Y-129302162D01*
X159450088Y-129292151D01*
X159454495Y-129283728D01*
X159485091Y-129251661D01*
X159513205Y-129241591D01*
X159538259Y-129243807D01*
X159564259Y-129259892D01*
X159597234Y-129294624D01*
X159627145Y-129331882D01*
X159743147Y-129456611D01*
X159880835Y-129559264D01*
X159985345Y-129616090D01*
X160049073Y-129644429D01*
X160103766Y-129662224D01*
X160162474Y-129672597D01*
X160238248Y-129678668D01*
X160249518Y-129679277D01*
X160332189Y-129681775D01*
X160397121Y-129678272D01*
X160457989Y-129667357D01*
X160514361Y-129651914D01*
X160619325Y-129615329D01*
X160703391Y-129572687D01*
X160752267Y-129536143D01*
X160976441Y-129536143D01*
X161176877Y-129528845D01*
X161263176Y-129527127D01*
X161346986Y-129527944D01*
X161418327Y-129531057D01*
X161464625Y-129535781D01*
X161513246Y-129543006D01*
X161547101Y-129546715D01*
X161556992Y-129546567D01*
X161550936Y-129533286D01*
X161530084Y-129502315D01*
X161505211Y-129468661D01*
X161434389Y-129367450D01*
X161372531Y-129259075D01*
X161314451Y-129135518D01*
X161263675Y-129018715D01*
X161202893Y-129153673D01*
X161163217Y-129234251D01*
X161114323Y-129322961D01*
X161065869Y-129402405D01*
X161059276Y-129412386D01*
X160976441Y-129536143D01*
X160752267Y-129536143D01*
X160777407Y-129517347D01*
X160847085Y-129448281D01*
X160928510Y-129348907D01*
X161000954Y-129235946D01*
X161068255Y-129102829D01*
X161118233Y-128984375D01*
X161151387Y-128895314D01*
X161172783Y-128823090D01*
X161185233Y-128756326D01*
X161191269Y-128688754D01*
X161198517Y-128559820D01*
X161117552Y-128540397D01*
X161022717Y-128505767D01*
X160946416Y-128453795D01*
X160892408Y-128388337D01*
X160864453Y-128313249D01*
X160861375Y-128277656D01*
X160860082Y-128249070D01*
X160853026Y-128232721D01*
X160835437Y-128228881D01*
X160802547Y-128237822D01*
X160749587Y-128259814D01*
X160688441Y-128287502D01*
X160541561Y-128368105D01*
X160405366Y-128471577D01*
X160275696Y-128601358D01*
X160201688Y-128690233D01*
X160165203Y-128729936D01*
X160137323Y-128743457D01*
X160126282Y-128741696D01*
X160105294Y-128726081D01*
X160102617Y-128699498D01*
X160119215Y-128658008D01*
X160156052Y-128597672D01*
X160164718Y-128584785D01*
X160282351Y-128437856D01*
X160423131Y-128306512D01*
X160581241Y-128194942D01*
X160750866Y-128107333D01*
X160901062Y-128054475D01*
X160993804Y-128035935D01*
X161106978Y-128024016D01*
X161229908Y-128018986D01*
X161351919Y-128021110D01*
X161462335Y-128030656D01*
X161514189Y-128039154D01*
X161709326Y-128094006D01*
X161897513Y-128176936D01*
X162073510Y-128284744D01*
X162232077Y-128414232D01*
X162365101Y-128558563D01*
X162418338Y-128629748D01*
X162449329Y-128681616D01*
X162459054Y-128716499D01*
X162448491Y-128736728D01*
X162441428Y-128740320D01*
X162418663Y-128735828D01*
X162381013Y-128709210D01*
X162326657Y-128659090D01*
X162304427Y-128636838D01*
X162143393Y-128490315D01*
X161975604Y-128372208D01*
X161796199Y-128279241D01*
X161738949Y-128255593D01*
X161656087Y-128223217D01*
X161665160Y-128268583D01*
X161662321Y-128330830D01*
X161632527Y-128393406D01*
X161580180Y-128451676D01*
X161509684Y-128501002D01*
X161425441Y-128536748D01*
X161405093Y-128542433D01*
X161337625Y-128559519D01*
X161337625Y-128675432D01*
X161349519Y-128792231D01*
X161384377Y-128925631D01*
X161440957Y-129071685D01*
X161500710Y-129194387D01*
X161589308Y-129342360D01*
X161684037Y-129460750D01*
X161787733Y-129551554D01*
X161903232Y-129616766D01*
X162033370Y-129658385D01*
X162180984Y-129678404D01*
X162189173Y-129678891D01*
X162329315Y-129676089D01*
X162458455Y-129650014D01*
X162580515Y-129598857D01*
X162699419Y-129520811D01*
X162819091Y-129414067D01*
X162863141Y-129368238D01*
X162928564Y-129301334D01*
X162978723Y-129259123D01*
X163016479Y-129240232D01*
X163044693Y-129243289D01*
X163066229Y-129266920D01*
X163067923Y-129269981D01*
X163074709Y-129302699D01*
X163062313Y-129343612D01*
X163029034Y-129395486D01*
X162973170Y-129461090D01*
X162910919Y-129525474D01*
X162782230Y-129639441D01*
X162651209Y-129725327D01*
X162514610Y-129783902D01*
X162369187Y-129815937D01*
X162211694Y-129822203D01*
X162038884Y-129803468D01*
X161882026Y-129769621D01*
X161682338Y-129722496D01*
X161504484Y-129690098D01*
X161342221Y-129672333D01*
X161189303Y-129669108D01*
X161039486Y-129680328D01*
X160886527Y-129705901D01*
X160724181Y-129745733D01*
X160702151Y-129751928D01*
X160596697Y-129781246D01*
X160513909Y-129802006D01*
X160446224Y-129815361D01*
X160386082Y-129822467D01*
X160325919Y-129824481D01*
X160258175Y-129822555D01*
X160244347Y-129821867D01*
X160076519Y-129798040D01*
X159918192Y-129744362D01*
X159768960Y-129660605D01*
X159628418Y-129546542D01*
X159498663Y-129405062D01*
X159447490Y-129341562D01*
X159472479Y-129405062D01*
X159542564Y-129544828D01*
X159634719Y-129668009D01*
X159744980Y-129770504D01*
X159869383Y-129848214D01*
X159923902Y-129872091D01*
X160091524Y-129927955D01*
X160287400Y-129977515D01*
X160508549Y-130020158D01*
X160751988Y-130055267D01*
X160885187Y-130070220D01*
X160937243Y-130073237D01*
X161015659Y-130074805D01*
X161115085Y-130075053D01*
X161230172Y-130074114D01*
X161355569Y-130072118D01*
X161485925Y-130069195D01*
X161615891Y-130065478D01*
X161740116Y-130061096D01*
X161853250Y-130056181D01*
X161949943Y-130050863D01*
X162024845Y-130045274D01*
X162059937Y-130041475D01*
X162255072Y-130011428D01*
X162421919Y-129976738D01*
X162563750Y-129936261D01*
X162683834Y-129888855D01*
X162785440Y-129833377D01*
X162871838Y-129768686D01*
X162891384Y-129750997D01*
X162987913Y-129639746D01*
X163067522Y-129504297D01*
X163123812Y-129361575D01*
X163143286Y-129286071D01*
X163160791Y-129192958D01*
X163175229Y-129091531D01*
X163185501Y-128991083D01*
X163190508Y-128900910D01*
X163189152Y-128830304D01*
X163187963Y-128818887D01*
X163184064Y-128787810D01*
X163176760Y-128729470D01*
X163166582Y-128648109D01*
X163154060Y-128547969D01*
X163139724Y-128433294D01*
X163124106Y-128308324D01*
X163113369Y-128222389D01*
X163046925Y-127690591D01*
X162890658Y-127542007D01*
X162757094Y-127405534D01*
X162641418Y-127267964D01*
X162547476Y-127134218D01*
X162486158Y-127024260D01*
X162455559Y-126954029D01*
X162439137Y-126895796D01*
X162433254Y-126835276D01*
X162433000Y-126815527D01*
X162433000Y-126717472D01*
X162325843Y-126707442D01*
X162070356Y-126686751D01*
X161803621Y-126671119D01*
X161531430Y-126660588D01*
X161259575Y-126655198D01*
X160993847Y-126654990D01*
X160740036Y-126660006D01*
X160503934Y-126670287D01*
X160291333Y-126685874D01*
X160224339Y-126692506D01*
X160134992Y-126702038D01*
X160127699Y-126823237D01*
X160119044Y-126905114D01*
X160101583Y-126972341D01*
X160071005Y-127041615D01*
X160001407Y-127159205D01*
X159908627Y-127285987D01*
X159797385Y-127416004D01*
X159676954Y-127538955D01*
X159522758Y-127686367D01*
X159452830Y-128220277D01*
X159428539Y-128411546D01*
X159409614Y-128574977D01*
X159395901Y-128713999D01*
X159387246Y-128832040D01*
X159383496Y-128932529D01*
X159244985Y-128932529D01*
X159245605Y-128888550D01*
X159251650Y-128781180D01*
X159262601Y-128654757D01*
X159278615Y-128505491D01*
X159299849Y-128329591D01*
X159305413Y-128285554D01*
X159320733Y-128163699D01*
X159334386Y-128052324D01*
X159345934Y-127955233D01*
X159354939Y-127876226D01*
X159360961Y-127819108D01*
X159363563Y-127787680D01*
X159363413Y-127782747D01*
X159346941Y-127784875D01*
X159312458Y-127796696D01*
X159300634Y-127801479D01*
X159226269Y-127821125D01*
X159146591Y-127823900D01*
X159074365Y-127810111D01*
X159041885Y-127795241D01*
X158991759Y-127752484D01*
X158954744Y-127691530D01*
X158929603Y-127608908D01*
X158915094Y-127501148D01*
X158911179Y-127429380D01*
X158912608Y-127259117D01*
X158927455Y-127092333D01*
X158954526Y-126934084D01*
X158992630Y-126789429D01*
X159040574Y-126663426D01*
X159097165Y-126561133D01*
X159124371Y-126525089D01*
X159194908Y-126464422D01*
X159290962Y-126417613D01*
X159409052Y-126385590D01*
X159545698Y-126369282D01*
X159697418Y-126369616D01*
X159705705Y-126370109D01*
X159830144Y-126385914D01*
X159929581Y-126417036D01*
X160007538Y-126464843D01*
X160045616Y-126502281D01*
X160095045Y-126559802D01*
X160386929Y-126537807D01*
X160515106Y-126530176D01*
X160668354Y-126524382D01*
X160840047Y-126520424D01*
X161023560Y-126518307D01*
X161212266Y-126518030D01*
X161399539Y-126519597D01*
X161578753Y-126523010D01*
X161743283Y-126528269D01*
X161886503Y-126535378D01*
X161917062Y-126537365D01*
X162019832Y-126544382D01*
X162124151Y-126551428D01*
X162220541Y-126557870D01*
X162299526Y-126563072D01*
X162329812Y-126565027D01*
X162472687Y-126574151D01*
X162509437Y-126515850D01*
X162562730Y-126459650D01*
X162641738Y-126415826D01*
X162742586Y-126385243D01*
X162861397Y-126368764D01*
X162994299Y-126367255D01*
X163121734Y-126379265D01*
X163121734Y-126379265D01*
G37*
X163121734Y-126379265D02*
X163232661Y-126402236D01*
X163325526Y-126438838D01*
X163402898Y-126492033D01*
X163467349Y-126564782D01*
X163521449Y-126660046D01*
X163567768Y-126780787D01*
X163608876Y-126929966D01*
X163612303Y-126944437D01*
X163626318Y-127011805D01*
X163636073Y-127079460D01*
X163642253Y-127155506D01*
X163645546Y-127248047D01*
X163646599Y-127349250D01*
X163646625Y-127447579D01*
X163645541Y-127520149D01*
X163642694Y-127572947D01*
X163637429Y-127611959D01*
X163629091Y-127643174D01*
X163617026Y-127672577D01*
X163609551Y-127688144D01*
X163577029Y-127740401D01*
X163538720Y-127782819D01*
X163522239Y-127795241D01*
X163459779Y-127818186D01*
X163382709Y-127824739D01*
X163303792Y-127814594D01*
X163263490Y-127801479D01*
X163226313Y-127787224D01*
X163204487Y-127781291D01*
X163202526Y-127781635D01*
X163203640Y-127797805D01*
X163208461Y-127841574D01*
X163216514Y-127909067D01*
X163227324Y-127996409D01*
X163240414Y-128099726D01*
X163255312Y-128215144D01*
X163261438Y-128262062D01*
X163279828Y-128404370D01*
X163294112Y-128520636D01*
X163304707Y-128616247D01*
X163312032Y-128696587D01*
X163316504Y-128767041D01*
X163318542Y-128832993D01*
X163318564Y-128899830D01*
X163316987Y-128972936D01*
X163316886Y-128976437D01*
X163308975Y-129126661D01*
X163293594Y-129254220D01*
X163268896Y-129367696D01*
X163233038Y-129475673D01*
X163186855Y-129581179D01*
X163116929Y-129698312D01*
X163024687Y-129811001D01*
X162919057Y-129909172D01*
X162855193Y-129955475D01*
X162752439Y-130010448D01*
X162622118Y-130061018D01*
X162468237Y-130106108D01*
X162294805Y-130144640D01*
X162105829Y-130175537D01*
X161980562Y-130190600D01*
X161919184Y-130195425D01*
X161832983Y-130200028D01*
X161727770Y-130204289D01*
X161609358Y-130208090D01*
X161483558Y-130211310D01*
X161356180Y-130213830D01*
X161233037Y-130215531D01*
X161119940Y-130216293D01*
X161022699Y-130215997D01*
X160947127Y-130214523D01*
X160909000Y-130212635D01*
X160687409Y-130190820D01*
X160475388Y-130159679D01*
X160276219Y-130120132D01*
X160093188Y-130073100D01*
X159929578Y-130019503D01*
X159788675Y-129960260D01*
X159673761Y-129896291D01*
X159610077Y-129848791D01*
X159514373Y-129748447D01*
X159428173Y-129622998D01*
X159354667Y-129478454D01*
X159297047Y-129320827D01*
X159267338Y-129203325D01*
X159255332Y-129134256D01*
X159247603Y-129061298D01*
X159244308Y-128980659D01*
X159244985Y-128932529D01*
X159383496Y-128932529D01*
X159384497Y-129018896D01*
X159390096Y-129094568D01*
X159400140Y-129162975D01*
X159408789Y-129204353D01*
X159422882Y-129262448D01*
X159432857Y-129293656D01*
X159441122Y-129302162D01*
X159450088Y-129292151D01*
X159454495Y-129283728D01*
X159485091Y-129251661D01*
X159513205Y-129241591D01*
X159538259Y-129243807D01*
X159564259Y-129259892D01*
X159597234Y-129294624D01*
X159627145Y-129331882D01*
X159743147Y-129456611D01*
X159880835Y-129559264D01*
X159985345Y-129616090D01*
X160049073Y-129644429D01*
X160103766Y-129662224D01*
X160162474Y-129672597D01*
X160238248Y-129678668D01*
X160249518Y-129679277D01*
X160332189Y-129681775D01*
X160397121Y-129678272D01*
X160457989Y-129667357D01*
X160514361Y-129651914D01*
X160619325Y-129615329D01*
X160703391Y-129572687D01*
X160752267Y-129536143D01*
X160976441Y-129536143D01*
X161176877Y-129528845D01*
X161263176Y-129527127D01*
X161346986Y-129527944D01*
X161418327Y-129531057D01*
X161464625Y-129535781D01*
X161513246Y-129543006D01*
X161547101Y-129546715D01*
X161556992Y-129546567D01*
X161550936Y-129533286D01*
X161530084Y-129502315D01*
X161505211Y-129468661D01*
X161434389Y-129367450D01*
X161372531Y-129259075D01*
X161314451Y-129135518D01*
X161263675Y-129018715D01*
X161202893Y-129153673D01*
X161163217Y-129234251D01*
X161114323Y-129322961D01*
X161065869Y-129402405D01*
X161059276Y-129412386D01*
X160976441Y-129536143D01*
X160752267Y-129536143D01*
X160777407Y-129517347D01*
X160847085Y-129448281D01*
X160928510Y-129348907D01*
X161000954Y-129235946D01*
X161068255Y-129102829D01*
X161118233Y-128984375D01*
X161151387Y-128895314D01*
X161172783Y-128823090D01*
X161185233Y-128756326D01*
X161191269Y-128688754D01*
X161198517Y-128559820D01*
X161117552Y-128540397D01*
X161022717Y-128505767D01*
X160946416Y-128453795D01*
X160892408Y-128388337D01*
X160864453Y-128313249D01*
X160861375Y-128277656D01*
X160860082Y-128249070D01*
X160853026Y-128232721D01*
X160835437Y-128228881D01*
X160802547Y-128237822D01*
X160749587Y-128259814D01*
X160688441Y-128287502D01*
X160541561Y-128368105D01*
X160405366Y-128471577D01*
X160275696Y-128601358D01*
X160201688Y-128690233D01*
X160165203Y-128729936D01*
X160137323Y-128743457D01*
X160126282Y-128741696D01*
X160105294Y-128726081D01*
X160102617Y-128699498D01*
X160119215Y-128658008D01*
X160156052Y-128597672D01*
X160164718Y-128584785D01*
X160282351Y-128437856D01*
X160423131Y-128306512D01*
X160581241Y-128194942D01*
X160750866Y-128107333D01*
X160901062Y-128054475D01*
X160993804Y-128035935D01*
X161106978Y-128024016D01*
X161229908Y-128018986D01*
X161351919Y-128021110D01*
X161462335Y-128030656D01*
X161514189Y-128039154D01*
X161709326Y-128094006D01*
X161897513Y-128176936D01*
X162073510Y-128284744D01*
X162232077Y-128414232D01*
X162365101Y-128558563D01*
X162418338Y-128629748D01*
X162449329Y-128681616D01*
X162459054Y-128716499D01*
X162448491Y-128736728D01*
X162441428Y-128740320D01*
X162418663Y-128735828D01*
X162381013Y-128709210D01*
X162326657Y-128659090D01*
X162304427Y-128636838D01*
X162143393Y-128490315D01*
X161975604Y-128372208D01*
X161796199Y-128279241D01*
X161738949Y-128255593D01*
X161656087Y-128223217D01*
X161665160Y-128268583D01*
X161662321Y-128330830D01*
X161632527Y-128393406D01*
X161580180Y-128451676D01*
X161509684Y-128501002D01*
X161425441Y-128536748D01*
X161405093Y-128542433D01*
X161337625Y-128559519D01*
X161337625Y-128675432D01*
X161349519Y-128792231D01*
X161384377Y-128925631D01*
X161440957Y-129071685D01*
X161500710Y-129194387D01*
X161589308Y-129342360D01*
X161684037Y-129460750D01*
X161787733Y-129551554D01*
X161903232Y-129616766D01*
X162033370Y-129658385D01*
X162180984Y-129678404D01*
X162189173Y-129678891D01*
X162329315Y-129676089D01*
X162458455Y-129650014D01*
X162580515Y-129598857D01*
X162699419Y-129520811D01*
X162819091Y-129414067D01*
X162863141Y-129368238D01*
X162928564Y-129301334D01*
X162978723Y-129259123D01*
X163016479Y-129240232D01*
X163044693Y-129243289D01*
X163066229Y-129266920D01*
X163067923Y-129269981D01*
X163074709Y-129302699D01*
X163062313Y-129343612D01*
X163029034Y-129395486D01*
X162973170Y-129461090D01*
X162910919Y-129525474D01*
X162782230Y-129639441D01*
X162651209Y-129725327D01*
X162514610Y-129783902D01*
X162369187Y-129815937D01*
X162211694Y-129822203D01*
X162038884Y-129803468D01*
X161882026Y-129769621D01*
X161682338Y-129722496D01*
X161504484Y-129690098D01*
X161342221Y-129672333D01*
X161189303Y-129669108D01*
X161039486Y-129680328D01*
X160886527Y-129705901D01*
X160724181Y-129745733D01*
X160702151Y-129751928D01*
X160596697Y-129781246D01*
X160513909Y-129802006D01*
X160446224Y-129815361D01*
X160386082Y-129822467D01*
X160325919Y-129824481D01*
X160258175Y-129822555D01*
X160244347Y-129821867D01*
X160076519Y-129798040D01*
X159918192Y-129744362D01*
X159768960Y-129660605D01*
X159628418Y-129546542D01*
X159498663Y-129405062D01*
X159447490Y-129341562D01*
X159472479Y-129405062D01*
X159542564Y-129544828D01*
X159634719Y-129668009D01*
X159744980Y-129770504D01*
X159869383Y-129848214D01*
X159923902Y-129872091D01*
X160091524Y-129927955D01*
X160287400Y-129977515D01*
X160508549Y-130020158D01*
X160751988Y-130055267D01*
X160885187Y-130070220D01*
X160937243Y-130073237D01*
X161015659Y-130074805D01*
X161115085Y-130075053D01*
X161230172Y-130074114D01*
X161355569Y-130072118D01*
X161485925Y-130069195D01*
X161615891Y-130065478D01*
X161740116Y-130061096D01*
X161853250Y-130056181D01*
X161949943Y-130050863D01*
X162024845Y-130045274D01*
X162059937Y-130041475D01*
X162255072Y-130011428D01*
X162421919Y-129976738D01*
X162563750Y-129936261D01*
X162683834Y-129888855D01*
X162785440Y-129833377D01*
X162871838Y-129768686D01*
X162891384Y-129750997D01*
X162987913Y-129639746D01*
X163067522Y-129504297D01*
X163123812Y-129361575D01*
X163143286Y-129286071D01*
X163160791Y-129192958D01*
X163175229Y-129091531D01*
X163185501Y-128991083D01*
X163190508Y-128900910D01*
X163189152Y-128830304D01*
X163187963Y-128818887D01*
X163184064Y-128787810D01*
X163176760Y-128729470D01*
X163166582Y-128648109D01*
X163154060Y-128547969D01*
X163139724Y-128433294D01*
X163124106Y-128308324D01*
X163113369Y-128222389D01*
X163046925Y-127690591D01*
X162890658Y-127542007D01*
X162757094Y-127405534D01*
X162641418Y-127267964D01*
X162547476Y-127134218D01*
X162486158Y-127024260D01*
X162455559Y-126954029D01*
X162439137Y-126895796D01*
X162433254Y-126835276D01*
X162433000Y-126815527D01*
X162433000Y-126717472D01*
X162325843Y-126707442D01*
X162070356Y-126686751D01*
X161803621Y-126671119D01*
X161531430Y-126660588D01*
X161259575Y-126655198D01*
X160993847Y-126654990D01*
X160740036Y-126660006D01*
X160503934Y-126670287D01*
X160291333Y-126685874D01*
X160224339Y-126692506D01*
X160134992Y-126702038D01*
X160127699Y-126823237D01*
X160119044Y-126905114D01*
X160101583Y-126972341D01*
X160071005Y-127041615D01*
X160001407Y-127159205D01*
X159908627Y-127285987D01*
X159797385Y-127416004D01*
X159676954Y-127538955D01*
X159522758Y-127686367D01*
X159452830Y-128220277D01*
X159428539Y-128411546D01*
X159409614Y-128574977D01*
X159395901Y-128713999D01*
X159387246Y-128832040D01*
X159383496Y-128932529D01*
X159244985Y-128932529D01*
X159245605Y-128888550D01*
X159251650Y-128781180D01*
X159262601Y-128654757D01*
X159278615Y-128505491D01*
X159299849Y-128329591D01*
X159305413Y-128285554D01*
X159320733Y-128163699D01*
X159334386Y-128052324D01*
X159345934Y-127955233D01*
X159354939Y-127876226D01*
X159360961Y-127819108D01*
X159363563Y-127787680D01*
X159363413Y-127782747D01*
X159346941Y-127784875D01*
X159312458Y-127796696D01*
X159300634Y-127801479D01*
X159226269Y-127821125D01*
X159146591Y-127823900D01*
X159074365Y-127810111D01*
X159041885Y-127795241D01*
X158991759Y-127752484D01*
X158954744Y-127691530D01*
X158929603Y-127608908D01*
X158915094Y-127501148D01*
X158911179Y-127429380D01*
X158912608Y-127259117D01*
X158927455Y-127092333D01*
X158954526Y-126934084D01*
X158992630Y-126789429D01*
X159040574Y-126663426D01*
X159097165Y-126561133D01*
X159124371Y-126525089D01*
X159194908Y-126464422D01*
X159290962Y-126417613D01*
X159409052Y-126385590D01*
X159545698Y-126369282D01*
X159697418Y-126369616D01*
X159705705Y-126370109D01*
X159830144Y-126385914D01*
X159929581Y-126417036D01*
X160007538Y-126464843D01*
X160045616Y-126502281D01*
X160095045Y-126559802D01*
X160386929Y-126537807D01*
X160515106Y-126530176D01*
X160668354Y-126524382D01*
X160840047Y-126520424D01*
X161023560Y-126518307D01*
X161212266Y-126518030D01*
X161399539Y-126519597D01*
X161578753Y-126523010D01*
X161743283Y-126528269D01*
X161886503Y-126535378D01*
X161917062Y-126537365D01*
X162019832Y-126544382D01*
X162124151Y-126551428D01*
X162220541Y-126557870D01*
X162299526Y-126563072D01*
X162329812Y-126565027D01*
X162472687Y-126574151D01*
X162509437Y-126515850D01*
X162562730Y-126459650D01*
X162641738Y-126415826D01*
X162742586Y-126385243D01*
X162861397Y-126368764D01*
X162994299Y-126367255D01*
X163121734Y-126379265D01*
G36*
X161526732Y-127848395D02*
X161677801Y-127889581D01*
X161750216Y-127916135D01*
X161831538Y-127951186D01*
X161914203Y-127990899D01*
X161990647Y-128031439D01*
X162053306Y-128068968D01*
X162094616Y-128099652D01*
X162097534Y-128102446D01*
X162111022Y-128127739D01*
X162109029Y-128140625D01*
X162089617Y-128142912D01*
X162046933Y-128128861D01*
X161992057Y-128103474D01*
X161866131Y-128050866D01*
X161722784Y-128011697D01*
X161558695Y-127985384D01*
X161370546Y-127971343D01*
X161224610Y-127968505D01*
X161036509Y-127976258D01*
X160866400Y-127999331D01*
X160717445Y-128037028D01*
X160592807Y-128088656D01*
X160542141Y-128118450D01*
X160492392Y-128148221D01*
X160462770Y-128157264D01*
X160449876Y-128146173D01*
X160448625Y-128134741D01*
X160461622Y-128115188D01*
X160496694Y-128084545D01*
X160547964Y-128046776D01*
X160609552Y-128005846D01*
X160675579Y-127965718D01*
X160740168Y-127930358D01*
X160780428Y-127910987D01*
X160955418Y-127849734D01*
X161137796Y-127818892D01*
X161328066Y-127818450D01*
X161526732Y-127848395D01*
X161526732Y-127848395D01*
G37*
X161526732Y-127848395D02*
X161677801Y-127889581D01*
X161750216Y-127916135D01*
X161831538Y-127951186D01*
X161914203Y-127990899D01*
X161990647Y-128031439D01*
X162053306Y-128068968D01*
X162094616Y-128099652D01*
X162097534Y-128102446D01*
X162111022Y-128127739D01*
X162109029Y-128140625D01*
X162089617Y-128142912D01*
X162046933Y-128128861D01*
X161992057Y-128103474D01*
X161866131Y-128050866D01*
X161722784Y-128011697D01*
X161558695Y-127985384D01*
X161370546Y-127971343D01*
X161224610Y-127968505D01*
X161036509Y-127976258D01*
X160866400Y-127999331D01*
X160717445Y-128037028D01*
X160592807Y-128088656D01*
X160542141Y-128118450D01*
X160492392Y-128148221D01*
X160462770Y-128157264D01*
X160449876Y-128146173D01*
X160448625Y-128134741D01*
X160461622Y-128115188D01*
X160496694Y-128084545D01*
X160547964Y-128046776D01*
X160609552Y-128005846D01*
X160675579Y-127965718D01*
X160740168Y-127930358D01*
X160780428Y-127910987D01*
X160955418Y-127849734D01*
X161137796Y-127818892D01*
X161328066Y-127818450D01*
X161526732Y-127848395D01*
G36*
X160270390Y-127532211D02*
X160310476Y-127545322D01*
X160376698Y-127587760D01*
X160431985Y-127650745D01*
X160471508Y-127725625D01*
X160490437Y-127803748D01*
X160487556Y-127862547D01*
X160453414Y-127958390D01*
X160397155Y-128031875D01*
X160320412Y-128081588D01*
X160224818Y-128106111D01*
X160204648Y-128107806D01*
X160145389Y-128109174D01*
X160102752Y-128102315D01*
X160061951Y-128083651D01*
X160034193Y-128066583D01*
X159962571Y-128003587D01*
X159916012Y-127926130D01*
X159895735Y-127840073D01*
X159902957Y-127751274D01*
X159918611Y-127713954D01*
X159957598Y-127713954D01*
X159964772Y-127769837D01*
X160001968Y-127825736D01*
X160004761Y-127828578D01*
X160040742Y-127859517D01*
X160071865Y-127869908D01*
X160103924Y-127866658D01*
X160150421Y-127849629D01*
X160185838Y-127825466D01*
X160213238Y-127777740D01*
X160216456Y-127721415D01*
X160196253Y-127667533D01*
X160173102Y-127640880D01*
X160120016Y-127608956D01*
X160066977Y-127607416D01*
X160030862Y-127621718D01*
X159979833Y-127662957D01*
X159957598Y-127713954D01*
X159918611Y-127713954D01*
X159938897Y-127665592D01*
X159947976Y-127651720D01*
X160011025Y-127586970D01*
X160091137Y-127543895D01*
X160180272Y-127524856D01*
X160270390Y-127532211D01*
X160270390Y-127532211D01*
G37*
X160270390Y-127532211D02*
X160310476Y-127545322D01*
X160376698Y-127587760D01*
X160431985Y-127650745D01*
X160471508Y-127725625D01*
X160490437Y-127803748D01*
X160487556Y-127862547D01*
X160453414Y-127958390D01*
X160397155Y-128031875D01*
X160320412Y-128081588D01*
X160224818Y-128106111D01*
X160204648Y-128107806D01*
X160145389Y-128109174D01*
X160102752Y-128102315D01*
X160061951Y-128083651D01*
X160034193Y-128066583D01*
X159962571Y-128003587D01*
X159916012Y-127926130D01*
X159895735Y-127840073D01*
X159902957Y-127751274D01*
X159918611Y-127713954D01*
X159957598Y-127713954D01*
X159964772Y-127769837D01*
X160001968Y-127825736D01*
X160004761Y-127828578D01*
X160040742Y-127859517D01*
X160071865Y-127869908D01*
X160103924Y-127866658D01*
X160150421Y-127849629D01*
X160185838Y-127825466D01*
X160213238Y-127777740D01*
X160216456Y-127721415D01*
X160196253Y-127667533D01*
X160173102Y-127640880D01*
X160120016Y-127608956D01*
X160066977Y-127607416D01*
X160030862Y-127621718D01*
X159979833Y-127662957D01*
X159957598Y-127713954D01*
X159918611Y-127713954D01*
X159938897Y-127665592D01*
X159947976Y-127651720D01*
X160011025Y-127586970D01*
X160091137Y-127543895D01*
X160180272Y-127524856D01*
X160270390Y-127532211D01*
G36*
X162423365Y-127529574D02*
X162501921Y-127556309D01*
X162571271Y-127602410D01*
X162626084Y-127665384D01*
X162661027Y-127742735D01*
X162671125Y-127817562D01*
X162656412Y-127906059D01*
X162615779Y-127984854D01*
X162554481Y-128048686D01*
X162477774Y-128092296D01*
X162390913Y-128110423D01*
X162378298Y-128110628D01*
X162320176Y-128106004D01*
X162266996Y-128095061D01*
X162250142Y-128089127D01*
X162192150Y-128050606D01*
X162138009Y-127992048D01*
X162097029Y-127924694D01*
X162083448Y-127887880D01*
X162074190Y-127796492D01*
X162089843Y-127733434D01*
X162131375Y-127733434D01*
X162145932Y-127789545D01*
X162184563Y-127835888D01*
X162239705Y-127865381D01*
X162279439Y-127872118D01*
X162308499Y-127862122D01*
X162344949Y-127836007D01*
X162354846Y-127826721D01*
X162388718Y-127781143D01*
X162401250Y-127738187D01*
X162387697Y-127693061D01*
X162353700Y-127648876D01*
X162309245Y-127615621D01*
X162266312Y-127603250D01*
X162223462Y-127616120D01*
X162179992Y-127648266D01*
X162145957Y-127689986D01*
X162131410Y-127731580D01*
X162131375Y-127733434D01*
X162089843Y-127733434D01*
X162095821Y-127709353D01*
X162147538Y-127628794D01*
X162185787Y-127590514D01*
X162259966Y-127544182D01*
X162340936Y-127524700D01*
X162423365Y-127529574D01*
X162423365Y-127529574D01*
G37*
X162423365Y-127529574D02*
X162501921Y-127556309D01*
X162571271Y-127602410D01*
X162626084Y-127665384D01*
X162661027Y-127742735D01*
X162671125Y-127817562D01*
X162656412Y-127906059D01*
X162615779Y-127984854D01*
X162554481Y-128048686D01*
X162477774Y-128092296D01*
X162390913Y-128110423D01*
X162378298Y-128110628D01*
X162320176Y-128106004D01*
X162266996Y-128095061D01*
X162250142Y-128089127D01*
X162192150Y-128050606D01*
X162138009Y-127992048D01*
X162097029Y-127924694D01*
X162083448Y-127887880D01*
X162074190Y-127796492D01*
X162089843Y-127733434D01*
X162131375Y-127733434D01*
X162145932Y-127789545D01*
X162184563Y-127835888D01*
X162239705Y-127865381D01*
X162279439Y-127872118D01*
X162308499Y-127862122D01*
X162344949Y-127836007D01*
X162354846Y-127826721D01*
X162388718Y-127781143D01*
X162401250Y-127738187D01*
X162387697Y-127693061D01*
X162353700Y-127648876D01*
X162309245Y-127615621D01*
X162266312Y-127603250D01*
X162223462Y-127616120D01*
X162179992Y-127648266D01*
X162145957Y-127689986D01*
X162131410Y-127731580D01*
X162131375Y-127733434D01*
X162089843Y-127733434D01*
X162095821Y-127709353D01*
X162147538Y-127628794D01*
X162185787Y-127590514D01*
X162259966Y-127544182D01*
X162340936Y-127524700D01*
X162423365Y-127529574D01*
D13*
X166370000Y-101600000D03*
D14*
X168910000Y-101600000D03*
X166370000Y-104140000D03*
X168910000Y-104140000D03*
X166370000Y-106680000D03*
X168910000Y-106680000D03*
X166370000Y-109220000D03*
X168910000Y-109220000D03*
X166370000Y-111760000D03*
X168910000Y-111760000D03*
X166370000Y-114300000D03*
X168910000Y-114300000D03*
X166370000Y-116840000D03*
X168910000Y-116840000D03*
X166370000Y-119380000D03*
X168910000Y-119380000D03*
X166370000Y-121920000D03*
X168910000Y-121920000D03*
X166370000Y-124460000D03*
X168910000Y-124460000D03*
X166370000Y-127000000D03*
X168910000Y-127000000D03*
X166370000Y-129540000D03*
X168910000Y-129540000D03*
X166370000Y-132080000D03*
X168910000Y-132080000D03*
X166370000Y-134620000D03*
X168910000Y-134620000D03*
X166370000Y-137160000D03*
X168910000Y-137160000D03*
X166370000Y-139700000D03*
X168910000Y-139700000D03*
X166370000Y-142240000D03*
X168910000Y-142240000D03*
X166370000Y-144780000D03*
X168910000Y-144780000D03*
X166370000Y-147320000D03*
X168910000Y-147320000D03*
X166370000Y-149860000D03*
X168910000Y-149860000D03*
D15*
X154409140Y-133350000D03*
X158010860Y-133350000D03*
D16*
X158970980Y-149860000D03*
X161069020Y-149860000D03*
X158970980Y-147320000D03*
X161069020Y-147320000D03*
D13*
X153670000Y-140970000D03*
D14*
X153670000Y-138430000D03*
X156210000Y-140970000D03*
X156210000Y-138430000D03*
X158750000Y-140970000D03*
X158750000Y-138430000D03*
D17*
X155460000Y-149860000D03*
X156960000Y-149860000D03*
D18*
X151130000Y-113780000D03*
X151130000Y-112280000D03*
D17*
X155460000Y-147320000D03*
X156960000Y-147320000D03*
X156730000Y-144780000D03*
X158230000Y-144780000D03*
D18*
X160020000Y-104660000D03*
X160020000Y-106160000D03*
X162560000Y-104660000D03*
X162560000Y-106160000D03*
D19*
X156940000Y-102535000D03*
X156940000Y-108285000D03*
X152940000Y-108285000D03*
X152940000Y-102535000D03*
D20*
X157734000Y-116535200D03*
X156946600Y-116535200D03*
X156133800Y-116535200D03*
X155346400Y-116535200D03*
X154533600Y-116535200D03*
X153746200Y-116535200D03*
X152933400Y-116535200D03*
X152146000Y-116535200D03*
D21*
X150825200Y-117856000D03*
X150825200Y-118643400D03*
X150825200Y-119456200D03*
X150825200Y-120243600D03*
X150825200Y-121056400D03*
X150825200Y-121843800D03*
X150825200Y-122656600D03*
X150825200Y-123444000D03*
D20*
X152146000Y-124764800D03*
X152933400Y-124764800D03*
X153746200Y-124764800D03*
X154533600Y-124764800D03*
X155346400Y-124764800D03*
X156133800Y-124764800D03*
X156946600Y-124764800D03*
X157734000Y-124764800D03*
D21*
X159054800Y-123444000D03*
X159054800Y-122656600D03*
X159054800Y-121843800D03*
X159054800Y-121056400D03*
X159054800Y-120243600D03*
X159054800Y-119456200D03*
X159054800Y-118643400D03*
X159054800Y-117856000D03*
D22*
X174625000Y-95250000D03*
X146050000Y-95250000D03*
X174625000Y-156210000D03*
X146050000Y-156210000D03*
D23*
X153670000Y-144780000D03*
X156845000Y-113665000D03*
X154305008Y-113665000D03*
D11*
X166370000Y-101600000D02*
X167640000Y-102870000D01*
X168275000Y-118110000D02*
X169545000Y-118110000D01*
X167640000Y-113758200D02*
X167640000Y-117475000D01*
X167640000Y-104775000D02*
X168275000Y-105410000D01*
X167640000Y-102870000D02*
X167640000Y-104775000D01*
X167640000Y-117475000D02*
X168275000Y-118110000D01*
X168275000Y-105410000D02*
X169545000Y-105410000D01*
X169545000Y-105410000D02*
X170180000Y-106045000D01*
X170166500Y-120028500D02*
X169545000Y-120650000D01*
X170166500Y-118731500D02*
X170166500Y-120028500D01*
X170180000Y-106045000D02*
X170180000Y-112395000D01*
X170180000Y-112395000D02*
X169545000Y-113030000D01*
X169545000Y-113030000D02*
X168368200Y-113030000D01*
X168368200Y-113030000D02*
X167640000Y-113758200D01*
X169545000Y-118110000D02*
X170166500Y-118731500D01*
X167005000Y-121920000D02*
X166370000Y-121920000D01*
X169545000Y-120650000D02*
X168350900Y-120650000D01*
X168350900Y-120650000D02*
X167080900Y-121920000D01*
X167080900Y-121920000D02*
X167005000Y-121920000D01*
X152400000Y-133350000D02*
X152400000Y-130810000D01*
X152400000Y-130810000D02*
X154533600Y-128676400D01*
X154533600Y-128676400D02*
X154533600Y-125851700D01*
X154361100Y-136525000D02*
X156845000Y-136525000D01*
X156845000Y-136525000D02*
X157479900Y-137159900D01*
X157479900Y-142875100D02*
X156845000Y-143510000D01*
X157479900Y-137159900D02*
X157479900Y-142875100D01*
X156845000Y-143510000D02*
X156845000Y-144780000D01*
X154361100Y-136525000D02*
X153670000Y-136525000D01*
X153670000Y-136525000D02*
X153670000Y-138430000D01*
X152400000Y-133350000D02*
X152400000Y-136525000D01*
X152400000Y-136525000D02*
X154361100Y-136525000D01*
X154409100Y-133350000D02*
X154305000Y-133350000D01*
X154305000Y-133350000D02*
X152400000Y-133350000D01*
X154409140Y-133350000D02*
X152400000Y-133350000D01*
X156730000Y-144780000D02*
X156845000Y-144780000D01*
X156845000Y-144780000D02*
X156210000Y-145415000D01*
X156210000Y-145415000D02*
X156210000Y-149860000D01*
X156210000Y-149860000D02*
X155460000Y-149860000D01*
X162560000Y-104660000D02*
X162560000Y-104196100D01*
X162560000Y-104196100D02*
X163195000Y-103561100D01*
X160020000Y-104660000D02*
X162560000Y-104660000D01*
X152933400Y-117701800D02*
X152933400Y-116535200D01*
X154533600Y-119302000D02*
X152933400Y-117701800D01*
X154533600Y-124764800D02*
X154533600Y-119302000D01*
X155346400Y-124764800D02*
X155346400Y-125851700D01*
X155346400Y-125851700D02*
X154533600Y-125851700D01*
X154533600Y-124764800D02*
X154533600Y-125851700D01*
X165156100Y-101600000D02*
X163195000Y-103561100D01*
X165781500Y-101600000D02*
X165156100Y-101600000D01*
X163195000Y-103561100D02*
X162696400Y-104059700D01*
X166370000Y-101600000D02*
X165781500Y-101600000D01*
X158750000Y-133969500D02*
X163210500Y-133969500D01*
X163210500Y-133969500D02*
X165100000Y-132080000D01*
X165100000Y-132080000D02*
X166370000Y-132080000D01*
X166370000Y-132080000D02*
X166370000Y-131445000D01*
X166370000Y-131445000D02*
X167640000Y-130175000D01*
X167640000Y-130175000D02*
X167640000Y-125730000D01*
X167640000Y-125730000D02*
X168910000Y-124460000D01*
X168910000Y-142240000D02*
X167640000Y-143510000D01*
X167640000Y-143510000D02*
X167640000Y-148590000D01*
X167640000Y-148590000D02*
X166370000Y-149860000D01*
X151130000Y-116535200D02*
X149529800Y-116535200D01*
X161069000Y-151351000D02*
X161069000Y-150334800D01*
X149529800Y-116535200D02*
X148590000Y-117475000D01*
X148590000Y-117475000D02*
X148590000Y-146050000D01*
X148590000Y-146050000D02*
X154940000Y-152400000D01*
X154940000Y-152400000D02*
X160020000Y-152400000D01*
X160020000Y-152400000D02*
X161069000Y-151351000D01*
X167640000Y-110490000D02*
X167640000Y-108657122D01*
X168910000Y-107387122D02*
X168910000Y-106680000D01*
X166370000Y-111760000D02*
X167640000Y-110490000D01*
X167640000Y-108657122D02*
X168910000Y-107387122D01*
X166370000Y-149860000D02*
X161290000Y-149860000D01*
X161290000Y-149860000D02*
X161290000Y-150113800D01*
X161290000Y-150113800D02*
X161069000Y-150334800D01*
X158010900Y-133350000D02*
X158010900Y-133230400D01*
X156133800Y-129052500D02*
X158010900Y-130929600D01*
X156133800Y-124764800D02*
X156133800Y-129052500D01*
X158010900Y-133350000D02*
X158010900Y-130929600D01*
X161069000Y-149860000D02*
X161069000Y-147320000D01*
X161069000Y-149860000D02*
X161069000Y-150334800D01*
X158750000Y-138430000D02*
X158750000Y-133969500D01*
X158750000Y-133969500D02*
X158010900Y-133230400D01*
X151130000Y-113780000D02*
X151130000Y-114380300D01*
X151130000Y-116535200D02*
X151130000Y-114380300D01*
X151130000Y-116535200D02*
X152146000Y-116535200D01*
X151130000Y-116535200D02*
X150659400Y-116535200D01*
X156960000Y-149860000D02*
X158971000Y-149860000D01*
X156960000Y-147320000D02*
X158971000Y-147320000D01*
X152933400Y-124764800D02*
X152933400Y-127736600D01*
X152933400Y-127736600D02*
X151130000Y-129540000D01*
X151130000Y-129540000D02*
X151130000Y-139593600D01*
X151130000Y-139593600D02*
X152506400Y-140970000D01*
X152506400Y-140970000D02*
X153670000Y-140970000D01*
X153746200Y-124764800D02*
X153746200Y-128193800D01*
X151765000Y-130175000D02*
X151765000Y-139065000D01*
X152400000Y-139700000D02*
X154940000Y-139700000D01*
X153746200Y-128193800D02*
X151765000Y-130175000D01*
X151765000Y-139065000D02*
X152400000Y-139700000D01*
X154940000Y-139700000D02*
X156210000Y-140970000D01*
X155460000Y-142933900D02*
X156210000Y-142183900D01*
X155460000Y-147320000D02*
X155460000Y-142933900D01*
X156210000Y-141576900D02*
X156210000Y-142183900D01*
X156210000Y-141576900D02*
X156210000Y-140970000D01*
X152146000Y-124764800D02*
X152146000Y-127254000D01*
X152146000Y-127254000D02*
X150495000Y-128905000D01*
X150495000Y-128905000D02*
X150495000Y-140021300D01*
X150495000Y-140021300D02*
X151418500Y-140944800D01*
X151418500Y-140944800D02*
X151418500Y-143798500D01*
X152400000Y-144780000D02*
X153670000Y-144780000D01*
X151418500Y-143798500D02*
X152400000Y-144780000D01*
X168910000Y-132080000D02*
X171167100Y-129822900D01*
X164465000Y-100965000D02*
X161925000Y-103505000D01*
X171167100Y-129822900D02*
X171167100Y-101317100D01*
X171167100Y-101317100D02*
X169545000Y-99695000D01*
X169545000Y-99695000D02*
X165100000Y-99695000D01*
X165100000Y-99695000D02*
X164465000Y-100330000D01*
X164465000Y-100330000D02*
X164465000Y-100965000D01*
X161925000Y-103505000D02*
X158750000Y-103505000D01*
X158750000Y-103505000D02*
X157780000Y-102535000D01*
X157780000Y-102535000D02*
X156940000Y-102535000D01*
X158230000Y-142703900D02*
X158230000Y-144780000D01*
X158750000Y-142183900D02*
X158230000Y-142703900D01*
X158750000Y-140970000D02*
X158750000Y-142183900D01*
X156940000Y-108285000D02*
X156940000Y-102535000D01*
X157734000Y-116535200D02*
X157734000Y-115448300D01*
X156940000Y-108285000D02*
X156940000Y-110010300D01*
X158091600Y-111161900D02*
X156940000Y-110010300D01*
X158091600Y-115090700D02*
X158091600Y-111161900D01*
X157734000Y-115448300D02*
X158091600Y-115090700D01*
X159054800Y-121843800D02*
X160731200Y-121843800D01*
X160731200Y-121843800D02*
X161290000Y-121285000D01*
X161290000Y-121285000D02*
X161290000Y-116840000D01*
X166370000Y-104728500D02*
X166370000Y-104140000D01*
X161290000Y-116840000D02*
X159385000Y-114935000D01*
X166291400Y-104807100D02*
X166370000Y-104728500D01*
X159385000Y-114935000D02*
X159385000Y-108585000D01*
X159385000Y-108585000D02*
X160020000Y-107950000D01*
X160020000Y-107950000D02*
X167005000Y-107950000D01*
X167005000Y-107950000D02*
X167640000Y-107315000D01*
X166402100Y-104807100D02*
X166291400Y-104807100D01*
X167640000Y-107315000D02*
X167640000Y-106045000D01*
X167640000Y-106045000D02*
X166402100Y-104807100D01*
X160020000Y-106160000D02*
X160020000Y-105410000D01*
X160020000Y-105410000D02*
X165100000Y-105410000D01*
X165100000Y-105410000D02*
X166370000Y-104140000D01*
X159054800Y-121056400D02*
X160248600Y-121056400D01*
X160248600Y-121056400D02*
X160655000Y-120650000D01*
X161925000Y-106680000D02*
X162560000Y-106680000D01*
X160655000Y-120650000D02*
X160655000Y-117475000D01*
X160655000Y-117475000D02*
X158750000Y-115570000D01*
X158750000Y-115570000D02*
X158750000Y-107950000D01*
X158750000Y-107950000D02*
X159385000Y-107315000D01*
X159385000Y-107315000D02*
X161290000Y-107315000D01*
X161290000Y-107315000D02*
X161925000Y-106680000D01*
X163195000Y-106680000D02*
X163080000Y-106680000D01*
X163080000Y-106680000D02*
X162560000Y-106160000D01*
X162560000Y-106160000D02*
X162560000Y-106680000D01*
X164936200Y-106680000D02*
X165156100Y-106680000D01*
X162560000Y-106680000D02*
X163195000Y-106680000D01*
X163195000Y-106680000D02*
X164936200Y-106680000D01*
X166370000Y-106680000D02*
X165156100Y-106680000D01*
X156946600Y-113766600D02*
X156845000Y-113665000D01*
X156946600Y-116535200D02*
X156946600Y-113766600D01*
X155055007Y-114414999D02*
X154305008Y-113665000D01*
X156133800Y-116535200D02*
X156133800Y-115493792D01*
X156133800Y-115493792D02*
X155055007Y-114414999D01*
X159054800Y-122656600D02*
X161823400Y-122656600D01*
X161823400Y-122656600D02*
X164465000Y-120015000D01*
X164465000Y-120015000D02*
X164465000Y-116205000D01*
X164465000Y-116205000D02*
X165506401Y-115163599D01*
X165506401Y-115163599D02*
X166370000Y-114300000D01*
X168910000Y-114300000D02*
X168910000Y-115513900D01*
X169365200Y-115513900D02*
X168910000Y-115513900D01*
X170666800Y-116815500D02*
X169365200Y-115513900D01*
X170666800Y-121879900D02*
X170666800Y-116815500D01*
X169412700Y-123134000D02*
X170666800Y-121879900D01*
X163596100Y-123134000D02*
X169412700Y-123134000D01*
X161965300Y-124764800D02*
X163596100Y-123134000D01*
X157734000Y-124764800D02*
X161965300Y-124764800D01*
X159054800Y-123444000D02*
X162306000Y-123444000D01*
X162306000Y-123444000D02*
X165100000Y-120650000D01*
X165100000Y-120650000D02*
X167640000Y-120650000D01*
X167640000Y-120650000D02*
X168910000Y-119380000D01*
X150825200Y-123444000D02*
X151130000Y-123748800D01*
X154305000Y-146685000D02*
X154305000Y-150495000D01*
X167640000Y-132621800D02*
X167640000Y-131520900D01*
X151130000Y-123748800D02*
X151130000Y-127000000D01*
X166911800Y-133350000D02*
X167640000Y-132621800D01*
X149860000Y-128270000D02*
X149860000Y-140970000D01*
X151130000Y-127000000D02*
X149860000Y-128270000D01*
X160020000Y-150639862D02*
X160020000Y-146050000D01*
X149860000Y-140970000D02*
X150495000Y-141605000D01*
X150495000Y-141605000D02*
X150495000Y-144145000D01*
X159529862Y-151130000D02*
X160020000Y-150639862D01*
X154305000Y-150495000D02*
X154940000Y-151130000D01*
X150495000Y-144145000D02*
X152400000Y-146050000D01*
X165735000Y-133350000D02*
X166911800Y-133350000D01*
X152400000Y-146050000D02*
X153670000Y-146050000D01*
X167640000Y-131520900D02*
X168910000Y-130250900D01*
X153670000Y-146050000D02*
X154305000Y-146685000D01*
X159385000Y-142875000D02*
X160655000Y-141605000D01*
X154940000Y-151130000D02*
X159529862Y-151130000D01*
X160020000Y-146050000D02*
X159385000Y-145415000D01*
X159385000Y-145415000D02*
X159385000Y-142875000D01*
X160655000Y-141605000D02*
X160655000Y-138430000D01*
X160655000Y-138430000D02*
X165735000Y-133350000D01*
X168910000Y-130250900D02*
X168910000Y-130175000D01*
X168910000Y-130175000D02*
X168910000Y-129540000D01*
X151130000Y-112280000D02*
X151130000Y-111820300D01*
X151130000Y-111820300D02*
X152940000Y-110010300D01*
X152940000Y-110010300D02*
X152940000Y-108285000D01*
X152940000Y-102535000D02*
X152940000Y-108285000D01*
D24*
G36*
X172477184Y-93812163D02*
X172090441Y-94743545D01*
X172089561Y-95752031D01*
X172474678Y-96684086D01*
X173187163Y-97397816D01*
X174118545Y-97784559D01*
X175127031Y-97785439D01*
X176059086Y-97400322D01*
X176455000Y-97005099D01*
X176455000Y-154455032D01*
X176062837Y-154062184D01*
X175131455Y-153675441D01*
X174122969Y-153674561D01*
X173190914Y-154059678D01*
X172477184Y-154772163D01*
X172090441Y-155703545D01*
X172089561Y-156712031D01*
X172474678Y-157644086D01*
X172869901Y-158040000D01*
X147804968Y-158040000D01*
X148197816Y-157647837D01*
X148584559Y-156716455D01*
X148585439Y-155707969D01*
X148200322Y-154775914D01*
X147487837Y-154062184D01*
X146556455Y-153675441D01*
X145547969Y-153674561D01*
X144615914Y-154059678D01*
X144220000Y-154454901D01*
X144220000Y-128270000D01*
X149075000Y-128270000D01*
X149075000Y-140970000D01*
X149134755Y-141270407D01*
X149304921Y-141525079D01*
X149710000Y-141930158D01*
X149710000Y-144145000D01*
X149769755Y-144445407D01*
X149939921Y-144700079D01*
X151844921Y-146605079D01*
X152099594Y-146775245D01*
X152400000Y-146835000D01*
X153344842Y-146835000D01*
X153520000Y-147010158D01*
X153520000Y-150495000D01*
X153579755Y-150795407D01*
X153749921Y-151050079D01*
X154384921Y-151685079D01*
X154639594Y-151855245D01*
X154940000Y-151915001D01*
X154940005Y-151915000D01*
X159529862Y-151915000D01*
X159830269Y-151855245D01*
X160084941Y-151685079D01*
X160575079Y-151194941D01*
X160642231Y-151094440D01*
X160783270Y-151094440D01*
X160942020Y-150935690D01*
X160942020Y-149987000D01*
X161196020Y-149987000D01*
X161196020Y-150935690D01*
X161354770Y-151094440D01*
X161794769Y-151094440D01*
X162028158Y-150997767D01*
X162206787Y-150819139D01*
X162303460Y-150585750D01*
X162303460Y-150219026D01*
X164915042Y-150219026D01*
X165087312Y-150634947D01*
X165481510Y-151066821D01*
X166010973Y-151314968D01*
X166243000Y-151194469D01*
X166243000Y-149987000D01*
X165036183Y-149987000D01*
X164915042Y-150219026D01*
X162303460Y-150219026D01*
X162303460Y-150145750D01*
X162144710Y-149987000D01*
X161196020Y-149987000D01*
X160942020Y-149987000D01*
X160922020Y-149987000D01*
X160922020Y-149733000D01*
X160942020Y-149733000D01*
X160942020Y-148784310D01*
X161196020Y-148784310D01*
X161196020Y-149733000D01*
X162144710Y-149733000D01*
X162303460Y-149574250D01*
X162303460Y-149134250D01*
X162206787Y-148900861D01*
X162028158Y-148722233D01*
X161794769Y-148625560D01*
X161354770Y-148625560D01*
X161196020Y-148784310D01*
X160942020Y-148784310D01*
X160805000Y-148647290D01*
X160805000Y-148532710D01*
X160942020Y-148395690D01*
X160942020Y-147447000D01*
X161196020Y-147447000D01*
X161196020Y-148395690D01*
X161354770Y-148554440D01*
X161794769Y-148554440D01*
X162028158Y-148457767D01*
X162206787Y-148279139D01*
X162303460Y-148045750D01*
X162303460Y-147605750D01*
X162144710Y-147447000D01*
X161196020Y-147447000D01*
X160942020Y-147447000D01*
X160922020Y-147447000D01*
X160922020Y-147193000D01*
X160942020Y-147193000D01*
X160942020Y-146244310D01*
X161196020Y-146244310D01*
X161196020Y-147193000D01*
X162144710Y-147193000D01*
X162303460Y-147034250D01*
X162303460Y-146594250D01*
X162206787Y-146360861D01*
X162028158Y-146182233D01*
X161794769Y-146085560D01*
X161354770Y-146085560D01*
X161196020Y-146244310D01*
X160942020Y-146244310D01*
X160805000Y-146107290D01*
X160805000Y-146050005D01*
X160805001Y-146050000D01*
X160745245Y-145749594D01*
X160575079Y-145494921D01*
X160170000Y-145089842D01*
X160170000Y-143200158D01*
X161210079Y-142160079D01*
X161380245Y-141905407D01*
X161440000Y-141605000D01*
X161440000Y-138755158D01*
X164974361Y-135220797D01*
X165280971Y-135679670D01*
X165595752Y-135890000D01*
X165280971Y-136100330D01*
X164956115Y-136586511D01*
X164842041Y-137160000D01*
X164956115Y-137733489D01*
X165280971Y-138219670D01*
X165595752Y-138430000D01*
X165280971Y-138640330D01*
X164956115Y-139126511D01*
X164842041Y-139700000D01*
X164956115Y-140273489D01*
X165280971Y-140759670D01*
X165595752Y-140970000D01*
X165280971Y-141180330D01*
X164956115Y-141666511D01*
X164842041Y-142240000D01*
X164956115Y-142813489D01*
X165280971Y-143299670D01*
X165595752Y-143510000D01*
X165280971Y-143720330D01*
X164956115Y-144206511D01*
X164842041Y-144780000D01*
X164956115Y-145353489D01*
X165280971Y-145839670D01*
X165595752Y-146050000D01*
X165280971Y-146260330D01*
X164956115Y-146746511D01*
X164842041Y-147320000D01*
X164956115Y-147893489D01*
X165280971Y-148379670D01*
X165604228Y-148595664D01*
X165481510Y-148653179D01*
X165087312Y-149085053D01*
X164915042Y-149500974D01*
X165036183Y-149733000D01*
X166243000Y-149733000D01*
X166243000Y-149713000D01*
X166497000Y-149713000D01*
X166497000Y-149733000D01*
X166517000Y-149733000D01*
X166517000Y-149987000D01*
X166497000Y-149987000D01*
X166497000Y-151194469D01*
X166729027Y-151314968D01*
X167258490Y-151066821D01*
X167640008Y-150648839D01*
X167820971Y-150919670D01*
X168307152Y-151244526D01*
X168880641Y-151358600D01*
X168939359Y-151358600D01*
X169512848Y-151244526D01*
X169999029Y-150919670D01*
X170323885Y-150433489D01*
X170437959Y-149860000D01*
X170323885Y-149286511D01*
X169999029Y-148800330D01*
X169684248Y-148590000D01*
X169999029Y-148379670D01*
X170323885Y-147893489D01*
X170437959Y-147320000D01*
X170323885Y-146746511D01*
X169999029Y-146260330D01*
X169684248Y-146050000D01*
X169999029Y-145839670D01*
X170323885Y-145353489D01*
X170437959Y-144780000D01*
X170323885Y-144206511D01*
X169999029Y-143720330D01*
X169675772Y-143504336D01*
X169798490Y-143446821D01*
X170192688Y-143014947D01*
X170364958Y-142599026D01*
X170243817Y-142367000D01*
X169037000Y-142367000D01*
X169037000Y-142387000D01*
X168783000Y-142387000D01*
X168783000Y-142367000D01*
X168763000Y-142367000D01*
X168763000Y-142113000D01*
X168783000Y-142113000D01*
X168783000Y-142093000D01*
X169037000Y-142093000D01*
X169037000Y-142113000D01*
X170243817Y-142113000D01*
X170364958Y-141880974D01*
X170192688Y-141465053D01*
X169798490Y-141033179D01*
X169675772Y-140975664D01*
X169999029Y-140759670D01*
X170323885Y-140273489D01*
X170437959Y-139700000D01*
X170323885Y-139126511D01*
X169999029Y-138640330D01*
X169675772Y-138424336D01*
X169798490Y-138366821D01*
X170192688Y-137934947D01*
X170364958Y-137519026D01*
X170243817Y-137287000D01*
X169037000Y-137287000D01*
X169037000Y-137307000D01*
X168783000Y-137307000D01*
X168783000Y-137287000D01*
X168763000Y-137287000D01*
X168763000Y-137033000D01*
X168783000Y-137033000D01*
X168783000Y-137013000D01*
X169037000Y-137013000D01*
X169037000Y-137033000D01*
X170243817Y-137033000D01*
X170364958Y-136800974D01*
X170192688Y-136385053D01*
X169798490Y-135953179D01*
X169675772Y-135895664D01*
X169999029Y-135679670D01*
X170323885Y-135193489D01*
X170437959Y-134620000D01*
X170323885Y-134046511D01*
X169999029Y-133560330D01*
X169684248Y-133350000D01*
X169999029Y-133139670D01*
X170323885Y-132653489D01*
X170437959Y-132080000D01*
X170368641Y-131731517D01*
X171722179Y-130377979D01*
X171751101Y-130334694D01*
X171892345Y-130123306D01*
X171952100Y-129822900D01*
X171952100Y-101317100D01*
X171892345Y-101016694D01*
X171722179Y-100762021D01*
X170100079Y-99139921D01*
X169845407Y-98969755D01*
X169545000Y-98910000D01*
X165100005Y-98910000D01*
X165100000Y-98909999D01*
X164799594Y-98969755D01*
X164544921Y-99139921D01*
X163909921Y-99774921D01*
X163739755Y-100029593D01*
X163739755Y-100029594D01*
X163680000Y-100330000D01*
X163680000Y-100639842D01*
X161599842Y-102720000D01*
X159075158Y-102720000D01*
X158335079Y-101979921D01*
X158087440Y-101814454D01*
X158087440Y-101160000D01*
X158043162Y-100924683D01*
X157904090Y-100708559D01*
X157691890Y-100563569D01*
X157440000Y-100512560D01*
X156440000Y-100512560D01*
X156204683Y-100556838D01*
X155988559Y-100695910D01*
X155843569Y-100908110D01*
X155792560Y-101160000D01*
X155792560Y-103910000D01*
X155836838Y-104145317D01*
X155975910Y-104361441D01*
X156155000Y-104483808D01*
X156155000Y-106338808D01*
X155988559Y-106445910D01*
X155843569Y-106658110D01*
X155792560Y-106910000D01*
X155792560Y-109660000D01*
X155836838Y-109895317D01*
X155975910Y-110111441D01*
X156188110Y-110256431D01*
X156204624Y-110259775D01*
X156214755Y-110310707D01*
X156384921Y-110565379D01*
X157306600Y-111487058D01*
X157306600Y-112357017D01*
X157121702Y-112280241D01*
X156570715Y-112279760D01*
X156061485Y-112490169D01*
X155671539Y-112879436D01*
X155575028Y-113111860D01*
X155479839Y-112881485D01*
X155090572Y-112491539D01*
X154581710Y-112280241D01*
X154030723Y-112279760D01*
X153521493Y-112490169D01*
X153131547Y-112879436D01*
X152920249Y-113388298D01*
X152919768Y-113939285D01*
X153130177Y-114448515D01*
X153519444Y-114838461D01*
X154028306Y-115049759D01*
X154579293Y-115050240D01*
X154579857Y-115050007D01*
X154681010Y-115151160D01*
X154279600Y-115151160D01*
X154134771Y-115178411D01*
X154000200Y-115151160D01*
X153492200Y-115151160D01*
X153334205Y-115180889D01*
X153187400Y-115151160D01*
X152679400Y-115151160D01*
X152553478Y-115174854D01*
X152526309Y-115163600D01*
X152431750Y-115163600D01*
X152320187Y-115275163D01*
X152227959Y-115334510D01*
X152082969Y-115546710D01*
X152031960Y-115798600D01*
X152031960Y-116682200D01*
X152019000Y-116682200D01*
X152019000Y-116662200D01*
X151415750Y-116662200D01*
X151257000Y-116820950D01*
X151257000Y-116954560D01*
X150088600Y-116954560D01*
X149853283Y-116998838D01*
X149637159Y-117137910D01*
X149492169Y-117350110D01*
X149441160Y-117602000D01*
X149441160Y-118110000D01*
X149468411Y-118254829D01*
X149441160Y-118389400D01*
X149441160Y-118897400D01*
X149470889Y-119055395D01*
X149441160Y-119202200D01*
X149441160Y-119710200D01*
X149468411Y-119855029D01*
X149441160Y-119989600D01*
X149441160Y-120497600D01*
X149470889Y-120655595D01*
X149441160Y-120802400D01*
X149441160Y-121310400D01*
X149468411Y-121455229D01*
X149441160Y-121589800D01*
X149441160Y-122097800D01*
X149470889Y-122255795D01*
X149441160Y-122402600D01*
X149441160Y-122910600D01*
X149468411Y-123055429D01*
X149441160Y-123190000D01*
X149441160Y-123698000D01*
X149485438Y-123933317D01*
X149624510Y-124149441D01*
X149836710Y-124294431D01*
X150088600Y-124345440D01*
X150345000Y-124345440D01*
X150345000Y-126674842D01*
X149304921Y-127714921D01*
X149134755Y-127969593D01*
X149079163Y-128249070D01*
X149075000Y-128270000D01*
X144220000Y-128270000D01*
X144220000Y-115672290D01*
X151257000Y-115672290D01*
X151257000Y-116249450D01*
X151415750Y-116408200D01*
X152019000Y-116408200D01*
X152019000Y-115322350D01*
X151860250Y-115163600D01*
X151765691Y-115163600D01*
X151532302Y-115260273D01*
X151353673Y-115438901D01*
X151257000Y-115672290D01*
X144220000Y-115672290D01*
X144220000Y-114063750D01*
X150045000Y-114063750D01*
X150045000Y-114156309D01*
X150141673Y-114389698D01*
X150320301Y-114568327D01*
X150553690Y-114665000D01*
X150844250Y-114665000D01*
X151003000Y-114506250D01*
X151003000Y-113905000D01*
X151257000Y-113905000D01*
X151257000Y-114506250D01*
X151415750Y-114665000D01*
X151706310Y-114665000D01*
X151939699Y-114568327D01*
X152118327Y-114389698D01*
X152215000Y-114156309D01*
X152215000Y-114063750D01*
X152056250Y-113905000D01*
X151257000Y-113905000D01*
X151003000Y-113905000D01*
X150203750Y-113905000D01*
X150045000Y-114063750D01*
X144220000Y-114063750D01*
X144220000Y-112030000D01*
X150032560Y-112030000D01*
X150032560Y-112530000D01*
X150076838Y-112765317D01*
X150215910Y-112981441D01*
X150284006Y-113027969D01*
X150141673Y-113170302D01*
X150045000Y-113403691D01*
X150045000Y-113496250D01*
X150203750Y-113655000D01*
X151003000Y-113655000D01*
X151003000Y-113633000D01*
X151257000Y-113633000D01*
X151257000Y-113655000D01*
X152056250Y-113655000D01*
X152215000Y-113496250D01*
X152215000Y-113403691D01*
X152118327Y-113170302D01*
X151977090Y-113029064D01*
X152031441Y-112994090D01*
X152176431Y-112781890D01*
X152227440Y-112530000D01*
X152227440Y-112030000D01*
X152196245Y-111864213D01*
X153495079Y-110565379D01*
X153665245Y-110310706D01*
X153674678Y-110263282D01*
X153675317Y-110263162D01*
X153891441Y-110124090D01*
X154036431Y-109911890D01*
X154087440Y-109660000D01*
X154087440Y-106910000D01*
X154043162Y-106674683D01*
X153904090Y-106458559D01*
X153725000Y-106336192D01*
X153725000Y-104481192D01*
X153891441Y-104374090D01*
X154036431Y-104161890D01*
X154087440Y-103910000D01*
X154087440Y-101160000D01*
X154043162Y-100924683D01*
X153904090Y-100708559D01*
X153691890Y-100563569D01*
X153440000Y-100512560D01*
X152440000Y-100512560D01*
X152204683Y-100556838D01*
X151988559Y-100695910D01*
X151843569Y-100908110D01*
X151792560Y-101160000D01*
X151792560Y-103910000D01*
X151836838Y-104145317D01*
X151975910Y-104361441D01*
X152155000Y-104483808D01*
X152155000Y-106338808D01*
X151988559Y-106445910D01*
X151843569Y-106658110D01*
X151792560Y-106910000D01*
X151792560Y-109660000D01*
X151836838Y-109895317D01*
X151879119Y-109961023D01*
X150574921Y-111265221D01*
X150470132Y-111422049D01*
X150444683Y-111426838D01*
X150228559Y-111565910D01*
X150083569Y-111778110D01*
X150032560Y-112030000D01*
X144220000Y-112030000D01*
X144220000Y-97004968D01*
X144612163Y-97397816D01*
X145543545Y-97784559D01*
X146552031Y-97785439D01*
X147484086Y-97400322D01*
X148197816Y-96687837D01*
X148584559Y-95756455D01*
X148585439Y-94747969D01*
X148200322Y-93815914D01*
X147805099Y-93420000D01*
X172870032Y-93420000D01*
X172477184Y-93812163D01*
X172477184Y-93812163D01*
G37*
X172477184Y-93812163D02*
X172090441Y-94743545D01*
X172089561Y-95752031D01*
X172474678Y-96684086D01*
X173187163Y-97397816D01*
X174118545Y-97784559D01*
X175127031Y-97785439D01*
X176059086Y-97400322D01*
X176455000Y-97005099D01*
X176455000Y-154455032D01*
X176062837Y-154062184D01*
X175131455Y-153675441D01*
X174122969Y-153674561D01*
X173190914Y-154059678D01*
X172477184Y-154772163D01*
X172090441Y-155703545D01*
X172089561Y-156712031D01*
X172474678Y-157644086D01*
X172869901Y-158040000D01*
X147804968Y-158040000D01*
X148197816Y-157647837D01*
X148584559Y-156716455D01*
X148585439Y-155707969D01*
X148200322Y-154775914D01*
X147487837Y-154062184D01*
X146556455Y-153675441D01*
X145547969Y-153674561D01*
X144615914Y-154059678D01*
X144220000Y-154454901D01*
X144220000Y-128270000D01*
X149075000Y-128270000D01*
X149075000Y-140970000D01*
X149134755Y-141270407D01*
X149304921Y-141525079D01*
X149710000Y-141930158D01*
X149710000Y-144145000D01*
X149769755Y-144445407D01*
X149939921Y-144700079D01*
X151844921Y-146605079D01*
X152099594Y-146775245D01*
X152400000Y-146835000D01*
X153344842Y-146835000D01*
X153520000Y-147010158D01*
X153520000Y-150495000D01*
X153579755Y-150795407D01*
X153749921Y-151050079D01*
X154384921Y-151685079D01*
X154639594Y-151855245D01*
X154940000Y-151915001D01*
X154940005Y-151915000D01*
X159529862Y-151915000D01*
X159830269Y-151855245D01*
X160084941Y-151685079D01*
X160575079Y-151194941D01*
X160642231Y-151094440D01*
X160783270Y-151094440D01*
X160942020Y-150935690D01*
X160942020Y-149987000D01*
X161196020Y-149987000D01*
X161196020Y-150935690D01*
X161354770Y-151094440D01*
X161794769Y-151094440D01*
X162028158Y-150997767D01*
X162206787Y-150819139D01*
X162303460Y-150585750D01*
X162303460Y-150219026D01*
X164915042Y-150219026D01*
X165087312Y-150634947D01*
X165481510Y-151066821D01*
X166010973Y-151314968D01*
X166243000Y-151194469D01*
X166243000Y-149987000D01*
X165036183Y-149987000D01*
X164915042Y-150219026D01*
X162303460Y-150219026D01*
X162303460Y-150145750D01*
X162144710Y-149987000D01*
X161196020Y-149987000D01*
X160942020Y-149987000D01*
X160922020Y-149987000D01*
X160922020Y-149733000D01*
X160942020Y-149733000D01*
X160942020Y-148784310D01*
X161196020Y-148784310D01*
X161196020Y-149733000D01*
X162144710Y-149733000D01*
X162303460Y-149574250D01*
X162303460Y-149134250D01*
X162206787Y-148900861D01*
X162028158Y-148722233D01*
X161794769Y-148625560D01*
X161354770Y-148625560D01*
X161196020Y-148784310D01*
X160942020Y-148784310D01*
X160805000Y-148647290D01*
X160805000Y-148532710D01*
X160942020Y-148395690D01*
X160942020Y-147447000D01*
X161196020Y-147447000D01*
X161196020Y-148395690D01*
X161354770Y-148554440D01*
X161794769Y-148554440D01*
X162028158Y-148457767D01*
X162206787Y-148279139D01*
X162303460Y-148045750D01*
X162303460Y-147605750D01*
X162144710Y-147447000D01*
X161196020Y-147447000D01*
X160942020Y-147447000D01*
X160922020Y-147447000D01*
X160922020Y-147193000D01*
X160942020Y-147193000D01*
X160942020Y-146244310D01*
X161196020Y-146244310D01*
X161196020Y-147193000D01*
X162144710Y-147193000D01*
X162303460Y-147034250D01*
X162303460Y-146594250D01*
X162206787Y-146360861D01*
X162028158Y-146182233D01*
X161794769Y-146085560D01*
X161354770Y-146085560D01*
X161196020Y-146244310D01*
X160942020Y-146244310D01*
X160805000Y-146107290D01*
X160805000Y-146050005D01*
X160805001Y-146050000D01*
X160745245Y-145749594D01*
X160575079Y-145494921D01*
X160170000Y-145089842D01*
X160170000Y-143200158D01*
X161210079Y-142160079D01*
X161380245Y-141905407D01*
X161440000Y-141605000D01*
X161440000Y-138755158D01*
X164974361Y-135220797D01*
X165280971Y-135679670D01*
X165595752Y-135890000D01*
X165280971Y-136100330D01*
X164956115Y-136586511D01*
X164842041Y-137160000D01*
X164956115Y-137733489D01*
X165280971Y-138219670D01*
X165595752Y-138430000D01*
X165280971Y-138640330D01*
X164956115Y-139126511D01*
X164842041Y-139700000D01*
X164956115Y-140273489D01*
X165280971Y-140759670D01*
X165595752Y-140970000D01*
X165280971Y-141180330D01*
X164956115Y-141666511D01*
X164842041Y-142240000D01*
X164956115Y-142813489D01*
X165280971Y-143299670D01*
X165595752Y-143510000D01*
X165280971Y-143720330D01*
X164956115Y-144206511D01*
X164842041Y-144780000D01*
X164956115Y-145353489D01*
X165280971Y-145839670D01*
X165595752Y-146050000D01*
X165280971Y-146260330D01*
X164956115Y-146746511D01*
X164842041Y-147320000D01*
X164956115Y-147893489D01*
X165280971Y-148379670D01*
X165604228Y-148595664D01*
X165481510Y-148653179D01*
X165087312Y-149085053D01*
X164915042Y-149500974D01*
X165036183Y-149733000D01*
X166243000Y-149733000D01*
X166243000Y-149713000D01*
X166497000Y-149713000D01*
X166497000Y-149733000D01*
X166517000Y-149733000D01*
X166517000Y-149987000D01*
X166497000Y-149987000D01*
X166497000Y-151194469D01*
X166729027Y-151314968D01*
X167258490Y-151066821D01*
X167640008Y-150648839D01*
X167820971Y-150919670D01*
X168307152Y-151244526D01*
X168880641Y-151358600D01*
X168939359Y-151358600D01*
X169512848Y-151244526D01*
X169999029Y-150919670D01*
X170323885Y-150433489D01*
X170437959Y-149860000D01*
X170323885Y-149286511D01*
X169999029Y-148800330D01*
X169684248Y-148590000D01*
X169999029Y-148379670D01*
X170323885Y-147893489D01*
X170437959Y-147320000D01*
X170323885Y-146746511D01*
X169999029Y-146260330D01*
X169684248Y-146050000D01*
X169999029Y-145839670D01*
X170323885Y-145353489D01*
X170437959Y-144780000D01*
X170323885Y-144206511D01*
X169999029Y-143720330D01*
X169675772Y-143504336D01*
X169798490Y-143446821D01*
X170192688Y-143014947D01*
X170364958Y-142599026D01*
X170243817Y-142367000D01*
X169037000Y-142367000D01*
X169037000Y-142387000D01*
X168783000Y-142387000D01*
X168783000Y-142367000D01*
X168763000Y-142367000D01*
X168763000Y-142113000D01*
X168783000Y-142113000D01*
X168783000Y-142093000D01*
X169037000Y-142093000D01*
X169037000Y-142113000D01*
X170243817Y-142113000D01*
X170364958Y-141880974D01*
X170192688Y-141465053D01*
X169798490Y-141033179D01*
X169675772Y-140975664D01*
X169999029Y-140759670D01*
X170323885Y-140273489D01*
X170437959Y-139700000D01*
X170323885Y-139126511D01*
X169999029Y-138640330D01*
X169675772Y-138424336D01*
X169798490Y-138366821D01*
X170192688Y-137934947D01*
X170364958Y-137519026D01*
X170243817Y-137287000D01*
X169037000Y-137287000D01*
X169037000Y-137307000D01*
X168783000Y-137307000D01*
X168783000Y-137287000D01*
X168763000Y-137287000D01*
X168763000Y-137033000D01*
X168783000Y-137033000D01*
X168783000Y-137013000D01*
X169037000Y-137013000D01*
X169037000Y-137033000D01*
X170243817Y-137033000D01*
X170364958Y-136800974D01*
X170192688Y-136385053D01*
X169798490Y-135953179D01*
X169675772Y-135895664D01*
X169999029Y-135679670D01*
X170323885Y-135193489D01*
X170437959Y-134620000D01*
X170323885Y-134046511D01*
X169999029Y-133560330D01*
X169684248Y-133350000D01*
X169999029Y-133139670D01*
X170323885Y-132653489D01*
X170437959Y-132080000D01*
X170368641Y-131731517D01*
X171722179Y-130377979D01*
X171751101Y-130334694D01*
X171892345Y-130123306D01*
X171952100Y-129822900D01*
X171952100Y-101317100D01*
X171892345Y-101016694D01*
X171722179Y-100762021D01*
X170100079Y-99139921D01*
X169845407Y-98969755D01*
X169545000Y-98910000D01*
X165100005Y-98910000D01*
X165100000Y-98909999D01*
X164799594Y-98969755D01*
X164544921Y-99139921D01*
X163909921Y-99774921D01*
X163739755Y-100029593D01*
X163739755Y-100029594D01*
X163680000Y-100330000D01*
X163680000Y-100639842D01*
X161599842Y-102720000D01*
X159075158Y-102720000D01*
X158335079Y-101979921D01*
X158087440Y-101814454D01*
X158087440Y-101160000D01*
X158043162Y-100924683D01*
X157904090Y-100708559D01*
X157691890Y-100563569D01*
X157440000Y-100512560D01*
X156440000Y-100512560D01*
X156204683Y-100556838D01*
X155988559Y-100695910D01*
X155843569Y-100908110D01*
X155792560Y-101160000D01*
X155792560Y-103910000D01*
X155836838Y-104145317D01*
X155975910Y-104361441D01*
X156155000Y-104483808D01*
X156155000Y-106338808D01*
X155988559Y-106445910D01*
X155843569Y-106658110D01*
X155792560Y-106910000D01*
X155792560Y-109660000D01*
X155836838Y-109895317D01*
X155975910Y-110111441D01*
X156188110Y-110256431D01*
X156204624Y-110259775D01*
X156214755Y-110310707D01*
X156384921Y-110565379D01*
X157306600Y-111487058D01*
X157306600Y-112357017D01*
X157121702Y-112280241D01*
X156570715Y-112279760D01*
X156061485Y-112490169D01*
X155671539Y-112879436D01*
X155575028Y-113111860D01*
X155479839Y-112881485D01*
X155090572Y-112491539D01*
X154581710Y-112280241D01*
X154030723Y-112279760D01*
X153521493Y-112490169D01*
X153131547Y-112879436D01*
X152920249Y-113388298D01*
X152919768Y-113939285D01*
X153130177Y-114448515D01*
X153519444Y-114838461D01*
X154028306Y-115049759D01*
X154579293Y-115050240D01*
X154579857Y-115050007D01*
X154681010Y-115151160D01*
X154279600Y-115151160D01*
X154134771Y-115178411D01*
X154000200Y-115151160D01*
X153492200Y-115151160D01*
X153334205Y-115180889D01*
X153187400Y-115151160D01*
X152679400Y-115151160D01*
X152553478Y-115174854D01*
X152526309Y-115163600D01*
X152431750Y-115163600D01*
X152320187Y-115275163D01*
X152227959Y-115334510D01*
X152082969Y-115546710D01*
X152031960Y-115798600D01*
X152031960Y-116682200D01*
X152019000Y-116682200D01*
X152019000Y-116662200D01*
X151415750Y-116662200D01*
X151257000Y-116820950D01*
X151257000Y-116954560D01*
X150088600Y-116954560D01*
X149853283Y-116998838D01*
X149637159Y-117137910D01*
X149492169Y-117350110D01*
X149441160Y-117602000D01*
X149441160Y-118110000D01*
X149468411Y-118254829D01*
X149441160Y-118389400D01*
X149441160Y-118897400D01*
X149470889Y-119055395D01*
X149441160Y-119202200D01*
X149441160Y-119710200D01*
X149468411Y-119855029D01*
X149441160Y-119989600D01*
X149441160Y-120497600D01*
X149470889Y-120655595D01*
X149441160Y-120802400D01*
X149441160Y-121310400D01*
X149468411Y-121455229D01*
X149441160Y-121589800D01*
X149441160Y-122097800D01*
X149470889Y-122255795D01*
X149441160Y-122402600D01*
X149441160Y-122910600D01*
X149468411Y-123055429D01*
X149441160Y-123190000D01*
X149441160Y-123698000D01*
X149485438Y-123933317D01*
X149624510Y-124149441D01*
X149836710Y-124294431D01*
X150088600Y-124345440D01*
X150345000Y-124345440D01*
X150345000Y-126674842D01*
X149304921Y-127714921D01*
X149134755Y-127969593D01*
X149079163Y-128249070D01*
X149075000Y-128270000D01*
X144220000Y-128270000D01*
X144220000Y-115672290D01*
X151257000Y-115672290D01*
X151257000Y-116249450D01*
X151415750Y-116408200D01*
X152019000Y-116408200D01*
X152019000Y-115322350D01*
X151860250Y-115163600D01*
X151765691Y-115163600D01*
X151532302Y-115260273D01*
X151353673Y-115438901D01*
X151257000Y-115672290D01*
X144220000Y-115672290D01*
X144220000Y-114063750D01*
X150045000Y-114063750D01*
X150045000Y-114156309D01*
X150141673Y-114389698D01*
X150320301Y-114568327D01*
X150553690Y-114665000D01*
X150844250Y-114665000D01*
X151003000Y-114506250D01*
X151003000Y-113905000D01*
X151257000Y-113905000D01*
X151257000Y-114506250D01*
X151415750Y-114665000D01*
X151706310Y-114665000D01*
X151939699Y-114568327D01*
X152118327Y-114389698D01*
X152215000Y-114156309D01*
X152215000Y-114063750D01*
X152056250Y-113905000D01*
X151257000Y-113905000D01*
X151003000Y-113905000D01*
X150203750Y-113905000D01*
X150045000Y-114063750D01*
X144220000Y-114063750D01*
X144220000Y-112030000D01*
X150032560Y-112030000D01*
X150032560Y-112530000D01*
X150076838Y-112765317D01*
X150215910Y-112981441D01*
X150284006Y-113027969D01*
X150141673Y-113170302D01*
X150045000Y-113403691D01*
X150045000Y-113496250D01*
X150203750Y-113655000D01*
X151003000Y-113655000D01*
X151003000Y-113633000D01*
X151257000Y-113633000D01*
X151257000Y-113655000D01*
X152056250Y-113655000D01*
X152215000Y-113496250D01*
X152215000Y-113403691D01*
X152118327Y-113170302D01*
X151977090Y-113029064D01*
X152031441Y-112994090D01*
X152176431Y-112781890D01*
X152227440Y-112530000D01*
X152227440Y-112030000D01*
X152196245Y-111864213D01*
X153495079Y-110565379D01*
X153665245Y-110310706D01*
X153674678Y-110263282D01*
X153675317Y-110263162D01*
X153891441Y-110124090D01*
X154036431Y-109911890D01*
X154087440Y-109660000D01*
X154087440Y-106910000D01*
X154043162Y-106674683D01*
X153904090Y-106458559D01*
X153725000Y-106336192D01*
X153725000Y-104481192D01*
X153891441Y-104374090D01*
X154036431Y-104161890D01*
X154087440Y-103910000D01*
X154087440Y-101160000D01*
X154043162Y-100924683D01*
X153904090Y-100708559D01*
X153691890Y-100563569D01*
X153440000Y-100512560D01*
X152440000Y-100512560D01*
X152204683Y-100556838D01*
X151988559Y-100695910D01*
X151843569Y-100908110D01*
X151792560Y-101160000D01*
X151792560Y-103910000D01*
X151836838Y-104145317D01*
X151975910Y-104361441D01*
X152155000Y-104483808D01*
X152155000Y-106338808D01*
X151988559Y-106445910D01*
X151843569Y-106658110D01*
X151792560Y-106910000D01*
X151792560Y-109660000D01*
X151836838Y-109895317D01*
X151879119Y-109961023D01*
X150574921Y-111265221D01*
X150470132Y-111422049D01*
X150444683Y-111426838D01*
X150228559Y-111565910D01*
X150083569Y-111778110D01*
X150032560Y-112030000D01*
X144220000Y-112030000D01*
X144220000Y-97004968D01*
X144612163Y-97397816D01*
X145543545Y-97784559D01*
X146552031Y-97785439D01*
X147484086Y-97400322D01*
X148197816Y-96687837D01*
X148584559Y-95756455D01*
X148585439Y-94747969D01*
X148200322Y-93815914D01*
X147805099Y-93420000D01*
X172870032Y-93420000D01*
X172477184Y-93812163D01*
G36*
X167820971Y-148379670D02*
X168135752Y-148590000D01*
X167820971Y-148800330D01*
X167640008Y-149071161D01*
X167258490Y-148653179D01*
X167135772Y-148595664D01*
X167459029Y-148379670D01*
X167640000Y-148108828D01*
X167820971Y-148379670D01*
X167820971Y-148379670D01*
G37*
X167820971Y-148379670D02*
X168135752Y-148590000D01*
X167820971Y-148800330D01*
X167640008Y-149071161D01*
X167258490Y-148653179D01*
X167135772Y-148595664D01*
X167459029Y-148379670D01*
X167640000Y-148108828D01*
X167820971Y-148379670D01*
G36*
X168021510Y-143446821D02*
X168144228Y-143504336D01*
X167820971Y-143720330D01*
X167640000Y-143991172D01*
X167459029Y-143720330D01*
X167144248Y-143510000D01*
X167459029Y-143299670D01*
X167639992Y-143028839D01*
X168021510Y-143446821D01*
X168021510Y-143446821D01*
G37*
X168021510Y-143446821D02*
X168144228Y-143504336D01*
X167820971Y-143720330D01*
X167640000Y-143991172D01*
X167459029Y-143720330D01*
X167144248Y-143510000D01*
X167459029Y-143299670D01*
X167639992Y-143028839D01*
X168021510Y-143446821D01*
G36*
X164842041Y-124460000D02*
X164956115Y-125033489D01*
X165280971Y-125519670D01*
X165595752Y-125730000D01*
X165280971Y-125940330D01*
X164956115Y-126426511D01*
X164842041Y-127000000D01*
X164956115Y-127573489D01*
X165280971Y-128059670D01*
X165595752Y-128270000D01*
X165280971Y-128480330D01*
X164956115Y-128966511D01*
X164842041Y-129540000D01*
X164956115Y-130113489D01*
X165280971Y-130599670D01*
X165604228Y-130815664D01*
X165481510Y-130873179D01*
X165087312Y-131305053D01*
X164915042Y-131720974D01*
X165036183Y-131953000D01*
X166243000Y-131953000D01*
X166243000Y-131933000D01*
X166497000Y-131933000D01*
X166497000Y-131953000D01*
X166517000Y-131953000D01*
X166517000Y-132207000D01*
X166497000Y-132207000D01*
X166497000Y-132227000D01*
X166243000Y-132227000D01*
X166243000Y-132207000D01*
X165036183Y-132207000D01*
X164915042Y-132439026D01*
X165087312Y-132854947D01*
X165102860Y-132871982D01*
X160108883Y-137865959D01*
X159956821Y-137541510D01*
X159524947Y-137147312D01*
X159109026Y-136975042D01*
X158877000Y-137096183D01*
X158877000Y-138303000D01*
X158897000Y-138303000D01*
X158897000Y-138557000D01*
X158877000Y-138557000D01*
X158877000Y-138577000D01*
X158623000Y-138577000D01*
X158623000Y-138557000D01*
X158603000Y-138557000D01*
X158603000Y-138303000D01*
X158623000Y-138303000D01*
X158623000Y-137096183D01*
X158390974Y-136975042D01*
X158240524Y-137037357D01*
X158205145Y-136859493D01*
X158034979Y-136604821D01*
X157400079Y-135969921D01*
X157145407Y-135799755D01*
X156845000Y-135740000D01*
X153185000Y-135740000D01*
X153185000Y-134797540D01*
X155709620Y-134797540D01*
X155944937Y-134753262D01*
X156161061Y-134614190D01*
X156207897Y-134545643D01*
X156350682Y-134688427D01*
X156584071Y-134785100D01*
X157725110Y-134785100D01*
X157883860Y-134626350D01*
X157883860Y-133477000D01*
X158137860Y-133477000D01*
X158137860Y-134626350D01*
X158296610Y-134785100D01*
X159437649Y-134785100D01*
X159671038Y-134688427D01*
X159849667Y-134509799D01*
X159946340Y-134276410D01*
X159946340Y-133635750D01*
X159787590Y-133477000D01*
X158137860Y-133477000D01*
X157883860Y-133477000D01*
X157863860Y-133477000D01*
X157863860Y-133223000D01*
X157883860Y-133223000D01*
X157883860Y-132073650D01*
X158137860Y-132073650D01*
X158137860Y-133223000D01*
X159787590Y-133223000D01*
X159946340Y-133064250D01*
X159946340Y-132423590D01*
X159849667Y-132190201D01*
X159671038Y-132011573D01*
X159437649Y-131914900D01*
X158296610Y-131914900D01*
X158137860Y-132073650D01*
X157883860Y-132073650D01*
X157725110Y-131914900D01*
X156584071Y-131914900D01*
X156350682Y-132011573D01*
X156208982Y-132153273D01*
X156173710Y-132098459D01*
X155961510Y-131953469D01*
X155709620Y-131902460D01*
X153185000Y-131902460D01*
X153185000Y-131135158D01*
X155088679Y-129231479D01*
X155258845Y-128976807D01*
X155318600Y-128676400D01*
X155318600Y-127424009D01*
X158271202Y-127424009D01*
X158275013Y-127444046D01*
X158272129Y-127464241D01*
X158276044Y-127536009D01*
X158282422Y-127560901D01*
X158280817Y-127586548D01*
X158295326Y-127694308D01*
X158312182Y-127743488D01*
X158317322Y-127795219D01*
X158342463Y-127877840D01*
X158380286Y-127948455D01*
X158407709Y-128023723D01*
X158444724Y-128084678D01*
X158513429Y-128159607D01*
X158576419Y-128239406D01*
X158626546Y-128282163D01*
X158658754Y-128300174D01*
X158643228Y-128428789D01*
X158643557Y-128433097D01*
X158642267Y-128437220D01*
X158626253Y-128586486D01*
X158626849Y-128593125D01*
X158624989Y-128599526D01*
X158614038Y-128725949D01*
X158615115Y-128735702D01*
X158612662Y-128745205D01*
X158606617Y-128852575D01*
X158608530Y-128866137D01*
X158605669Y-128879529D01*
X158605049Y-128923507D01*
X158605051Y-128923515D01*
X158605048Y-128923527D01*
X158604371Y-128971658D01*
X158607602Y-128989185D01*
X158604842Y-129006788D01*
X158608137Y-129087427D01*
X158613067Y-129107821D01*
X158611164Y-129128721D01*
X158618893Y-129201679D01*
X158625310Y-129222285D01*
X158624787Y-129243861D01*
X158636793Y-129312930D01*
X158645608Y-129335762D01*
X158646863Y-129360205D01*
X158676572Y-129477707D01*
X158690848Y-129507719D01*
X158695949Y-129540556D01*
X158753569Y-129698183D01*
X158773710Y-129731270D01*
X158784195Y-129768560D01*
X158857701Y-129913105D01*
X158883949Y-129946454D01*
X158900696Y-129985445D01*
X158986896Y-130110894D01*
X159023709Y-130146763D01*
X159051244Y-130190161D01*
X159146948Y-130290505D01*
X159191209Y-130321619D01*
X159227434Y-130361806D01*
X159291118Y-130409306D01*
X159329813Y-130427736D01*
X159362474Y-130455487D01*
X159477388Y-130519456D01*
X159511193Y-130530344D01*
X159540619Y-130550233D01*
X159681522Y-130609476D01*
X159707361Y-130614759D01*
X159730339Y-130627700D01*
X159893948Y-130681297D01*
X159914891Y-130683827D01*
X159933907Y-130692963D01*
X160116938Y-130739994D01*
X160134925Y-130740987D01*
X160151574Y-130747877D01*
X160350743Y-130787424D01*
X160367038Y-130787418D01*
X160382385Y-130792885D01*
X160594406Y-130824026D01*
X160609878Y-130823244D01*
X160624706Y-130827741D01*
X160846297Y-130849556D01*
X160862021Y-130848007D01*
X160877347Y-130851852D01*
X160915474Y-130853740D01*
X160925122Y-130852313D01*
X160934646Y-130854401D01*
X161010218Y-130855875D01*
X161015495Y-130854932D01*
X161020751Y-130855994D01*
X161117991Y-130856290D01*
X161121121Y-130855677D01*
X161124252Y-130856278D01*
X161237349Y-130855516D01*
X161239607Y-130855051D01*
X161241877Y-130855470D01*
X161365020Y-130853769D01*
X161366923Y-130853363D01*
X161368839Y-130853705D01*
X161496217Y-130851185D01*
X161498069Y-130850778D01*
X161499934Y-130851100D01*
X161625734Y-130847880D01*
X161627798Y-130847414D01*
X161629891Y-130847761D01*
X161748303Y-130843960D01*
X161750967Y-130843341D01*
X161753668Y-130843765D01*
X161858881Y-130839504D01*
X161862957Y-130838520D01*
X161867109Y-130839118D01*
X161953311Y-130834514D01*
X161961225Y-130832496D01*
X161969340Y-130833457D01*
X162030718Y-130828632D01*
X162043612Y-130824997D01*
X162056970Y-130826023D01*
X162182236Y-130810960D01*
X162195329Y-130806679D01*
X162209096Y-130807151D01*
X162398072Y-130776254D01*
X162415262Y-130769815D01*
X162433612Y-130769406D01*
X162607044Y-130730874D01*
X162626752Y-130722191D01*
X162648202Y-130720284D01*
X162802083Y-130675194D01*
X162826504Y-130662437D01*
X162853645Y-130657672D01*
X162983966Y-130607101D01*
X163016945Y-130586125D01*
X163054346Y-130574764D01*
X163157100Y-130519791D01*
X163191001Y-130491948D01*
X163230861Y-130473620D01*
X163294724Y-130427317D01*
X163321371Y-130398548D01*
X163354751Y-130377969D01*
X163460381Y-130279798D01*
X163486064Y-130244248D01*
X163519929Y-130216384D01*
X163612172Y-130103694D01*
X163634556Y-130061689D01*
X163666455Y-130026368D01*
X163736382Y-129909235D01*
X163749968Y-129871053D01*
X163773146Y-129837816D01*
X163819329Y-129732310D01*
X163825713Y-129703249D01*
X163840422Y-129677379D01*
X163876280Y-129569402D01*
X163880540Y-129535305D01*
X163894255Y-129503805D01*
X163918953Y-129390329D01*
X163919501Y-129359831D01*
X163928992Y-129330836D01*
X163944373Y-129203277D01*
X163942706Y-129181490D01*
X163948089Y-129160318D01*
X163956000Y-129010094D01*
X163954892Y-129002437D01*
X163956620Y-128994893D01*
X163956721Y-128991392D01*
X163956325Y-128989053D01*
X163956838Y-128986738D01*
X163958415Y-128913633D01*
X163957175Y-128906613D01*
X163958564Y-128899619D01*
X163958542Y-128832782D01*
X163956599Y-128823032D01*
X163958237Y-128813225D01*
X163956199Y-128747274D01*
X163953818Y-128736976D01*
X163955219Y-128726499D01*
X163950747Y-128656045D01*
X163948445Y-128647384D01*
X163949388Y-128638476D01*
X163942063Y-128558136D01*
X163940269Y-128552065D01*
X163940813Y-128545758D01*
X163930218Y-128450147D01*
X163929049Y-128446457D01*
X163929336Y-128442595D01*
X163915052Y-128326329D01*
X163914411Y-128324387D01*
X163914550Y-128322347D01*
X163912034Y-128302876D01*
X163923934Y-128293906D01*
X163940603Y-128275226D01*
X163956023Y-128265806D01*
X163973703Y-128241541D01*
X164013688Y-128211777D01*
X164051997Y-128169359D01*
X164081299Y-128120274D01*
X164120395Y-128078563D01*
X164152917Y-128026306D01*
X164165337Y-127993344D01*
X164186485Y-127965177D01*
X164193960Y-127949610D01*
X164198663Y-127931292D01*
X164209118Y-127915532D01*
X164221183Y-127886129D01*
X164229127Y-127845489D01*
X164247412Y-127808337D01*
X164255750Y-127777122D01*
X164258395Y-127736275D01*
X164271679Y-127697556D01*
X164276944Y-127658544D01*
X164275328Y-127632597D01*
X164281766Y-127607407D01*
X164284613Y-127554609D01*
X164282816Y-127542082D01*
X164285470Y-127529708D01*
X164286554Y-127457138D01*
X164285660Y-127452266D01*
X164286625Y-127447410D01*
X164286599Y-127349081D01*
X164285953Y-127345838D01*
X164286564Y-127342591D01*
X164285511Y-127241388D01*
X164283830Y-127233373D01*
X164285141Y-127225288D01*
X164281848Y-127132746D01*
X164278449Y-127118356D01*
X164280150Y-127103667D01*
X164273970Y-127027620D01*
X164268452Y-127008243D01*
X164269522Y-126988125D01*
X164259767Y-126920470D01*
X164253079Y-126901536D01*
X164252903Y-126881452D01*
X164238888Y-126814085D01*
X164235401Y-126805871D01*
X164235078Y-126796952D01*
X164231651Y-126782481D01*
X164226736Y-126771732D01*
X164225879Y-126759943D01*
X164184771Y-126610765D01*
X164170637Y-126582609D01*
X164165308Y-126551557D01*
X164118989Y-126430816D01*
X164093189Y-126389907D01*
X164077970Y-126344001D01*
X164023870Y-126248736D01*
X163980125Y-126198132D01*
X163946392Y-126140380D01*
X163881942Y-126067631D01*
X163819863Y-126020492D01*
X163765484Y-125964652D01*
X163688113Y-125911457D01*
X163621332Y-125882753D01*
X163560206Y-125843418D01*
X163467341Y-125806816D01*
X163413154Y-125797006D01*
X163362440Y-125775532D01*
X163251513Y-125752561D01*
X163215904Y-125752282D01*
X163181784Y-125742088D01*
X163054349Y-125730078D01*
X163020489Y-125733557D01*
X162987033Y-125727296D01*
X162854131Y-125728805D01*
X162814203Y-125737220D01*
X162773471Y-125734833D01*
X162654660Y-125751312D01*
X162607031Y-125767848D01*
X162556853Y-125772786D01*
X162456005Y-125803369D01*
X162396043Y-125835413D01*
X162331302Y-125856157D01*
X162252294Y-125899981D01*
X162231959Y-125917206D01*
X162167281Y-125912883D01*
X162167280Y-125912883D01*
X162062961Y-125905837D01*
X161960659Y-125898852D01*
X161959610Y-125898987D01*
X161958589Y-125898714D01*
X161928029Y-125896727D01*
X161923077Y-125897382D01*
X161918231Y-125896165D01*
X161775012Y-125889056D01*
X161769326Y-125889896D01*
X161763729Y-125888596D01*
X161599199Y-125883337D01*
X161595050Y-125884025D01*
X161590939Y-125883126D01*
X161411725Y-125879713D01*
X161408301Y-125880326D01*
X161404894Y-125879619D01*
X161217621Y-125878052D01*
X161214470Y-125878651D01*
X161211326Y-125878031D01*
X161022621Y-125878308D01*
X161019403Y-125878953D01*
X161016177Y-125878350D01*
X160832664Y-125880467D01*
X160828994Y-125881241D01*
X160825298Y-125880594D01*
X160653604Y-125884552D01*
X160648916Y-125885597D01*
X160644174Y-125884839D01*
X160490926Y-125890633D01*
X160484062Y-125892270D01*
X160477071Y-125891307D01*
X160348894Y-125898938D01*
X160343931Y-125900236D01*
X160338838Y-125899616D01*
X160313226Y-125901546D01*
X160264158Y-125871455D01*
X160190068Y-125844094D01*
X160120746Y-125806253D01*
X160021308Y-125775131D01*
X159964740Y-125769056D01*
X159910783Y-125751015D01*
X159786344Y-125735209D01*
X159764699Y-125736727D01*
X159743712Y-125731239D01*
X159735425Y-125730746D01*
X159717030Y-125733281D01*
X159698827Y-125729618D01*
X159547107Y-125729284D01*
X159508790Y-125736818D01*
X159469856Y-125733792D01*
X159333209Y-125750100D01*
X159288484Y-125764680D01*
X159241550Y-125767898D01*
X159123460Y-125799921D01*
X159069197Y-125826884D01*
X159010596Y-125842291D01*
X158914542Y-125889100D01*
X158849126Y-125938809D01*
X158777582Y-125979201D01*
X158707045Y-126039868D01*
X158664763Y-126093886D01*
X158613550Y-126139522D01*
X158586344Y-126175566D01*
X158566534Y-126216553D01*
X158537151Y-126251320D01*
X158480560Y-126353613D01*
X158466671Y-126397127D01*
X158442412Y-126435826D01*
X158394468Y-126561829D01*
X158388765Y-126595612D01*
X158373741Y-126626406D01*
X158335637Y-126771061D01*
X158333892Y-126799532D01*
X158323690Y-126826169D01*
X158296619Y-126984418D01*
X158297322Y-127010524D01*
X158289976Y-127035585D01*
X158275129Y-127202369D01*
X158277924Y-127228255D01*
X158272631Y-127253746D01*
X158271202Y-127424009D01*
X155318600Y-127424009D01*
X155318600Y-126636700D01*
X155346400Y-126636700D01*
X155646806Y-126576945D01*
X155901479Y-126406779D01*
X156071645Y-126152106D01*
X156131400Y-125851700D01*
X156131400Y-125849051D01*
X156147016Y-125826196D01*
X156228510Y-125952841D01*
X156260800Y-125974904D01*
X156260800Y-125977650D01*
X156419550Y-126136400D01*
X156514109Y-126136400D01*
X156552547Y-126120479D01*
X156692600Y-126148840D01*
X157200600Y-126148840D01*
X157345429Y-126121589D01*
X157480000Y-126148840D01*
X157988000Y-126148840D01*
X158223317Y-126104562D01*
X158439441Y-125965490D01*
X158584431Y-125753290D01*
X158625639Y-125549800D01*
X161965300Y-125549800D01*
X162265707Y-125490045D01*
X162520379Y-125319879D01*
X163921257Y-123919000D01*
X164949653Y-123919000D01*
X164842041Y-124460000D01*
X164842041Y-124460000D01*
G37*
X164842041Y-124460000D02*
X164956115Y-125033489D01*
X165280971Y-125519670D01*
X165595752Y-125730000D01*
X165280971Y-125940330D01*
X164956115Y-126426511D01*
X164842041Y-127000000D01*
X164956115Y-127573489D01*
X165280971Y-128059670D01*
X165595752Y-128270000D01*
X165280971Y-128480330D01*
X164956115Y-128966511D01*
X164842041Y-129540000D01*
X164956115Y-130113489D01*
X165280971Y-130599670D01*
X165604228Y-130815664D01*
X165481510Y-130873179D01*
X165087312Y-131305053D01*
X164915042Y-131720974D01*
X165036183Y-131953000D01*
X166243000Y-131953000D01*
X166243000Y-131933000D01*
X166497000Y-131933000D01*
X166497000Y-131953000D01*
X166517000Y-131953000D01*
X166517000Y-132207000D01*
X166497000Y-132207000D01*
X166497000Y-132227000D01*
X166243000Y-132227000D01*
X166243000Y-132207000D01*
X165036183Y-132207000D01*
X164915042Y-132439026D01*
X165087312Y-132854947D01*
X165102860Y-132871982D01*
X160108883Y-137865959D01*
X159956821Y-137541510D01*
X159524947Y-137147312D01*
X159109026Y-136975042D01*
X158877000Y-137096183D01*
X158877000Y-138303000D01*
X158897000Y-138303000D01*
X158897000Y-138557000D01*
X158877000Y-138557000D01*
X158877000Y-138577000D01*
X158623000Y-138577000D01*
X158623000Y-138557000D01*
X158603000Y-138557000D01*
X158603000Y-138303000D01*
X158623000Y-138303000D01*
X158623000Y-137096183D01*
X158390974Y-136975042D01*
X158240524Y-137037357D01*
X158205145Y-136859493D01*
X158034979Y-136604821D01*
X157400079Y-135969921D01*
X157145407Y-135799755D01*
X156845000Y-135740000D01*
X153185000Y-135740000D01*
X153185000Y-134797540D01*
X155709620Y-134797540D01*
X155944937Y-134753262D01*
X156161061Y-134614190D01*
X156207897Y-134545643D01*
X156350682Y-134688427D01*
X156584071Y-134785100D01*
X157725110Y-134785100D01*
X157883860Y-134626350D01*
X157883860Y-133477000D01*
X158137860Y-133477000D01*
X158137860Y-134626350D01*
X158296610Y-134785100D01*
X159437649Y-134785100D01*
X159671038Y-134688427D01*
X159849667Y-134509799D01*
X159946340Y-134276410D01*
X159946340Y-133635750D01*
X159787590Y-133477000D01*
X158137860Y-133477000D01*
X157883860Y-133477000D01*
X157863860Y-133477000D01*
X157863860Y-133223000D01*
X157883860Y-133223000D01*
X157883860Y-132073650D01*
X158137860Y-132073650D01*
X158137860Y-133223000D01*
X159787590Y-133223000D01*
X159946340Y-133064250D01*
X159946340Y-132423590D01*
X159849667Y-132190201D01*
X159671038Y-132011573D01*
X159437649Y-131914900D01*
X158296610Y-131914900D01*
X158137860Y-132073650D01*
X157883860Y-132073650D01*
X157725110Y-131914900D01*
X156584071Y-131914900D01*
X156350682Y-132011573D01*
X156208982Y-132153273D01*
X156173710Y-132098459D01*
X155961510Y-131953469D01*
X155709620Y-131902460D01*
X153185000Y-131902460D01*
X153185000Y-131135158D01*
X155088679Y-129231479D01*
X155258845Y-128976807D01*
X155318600Y-128676400D01*
X155318600Y-127424009D01*
X158271202Y-127424009D01*
X158275013Y-127444046D01*
X158272129Y-127464241D01*
X158276044Y-127536009D01*
X158282422Y-127560901D01*
X158280817Y-127586548D01*
X158295326Y-127694308D01*
X158312182Y-127743488D01*
X158317322Y-127795219D01*
X158342463Y-127877840D01*
X158380286Y-127948455D01*
X158407709Y-128023723D01*
X158444724Y-128084678D01*
X158513429Y-128159607D01*
X158576419Y-128239406D01*
X158626546Y-128282163D01*
X158658754Y-128300174D01*
X158643228Y-128428789D01*
X158643557Y-128433097D01*
X158642267Y-128437220D01*
X158626253Y-128586486D01*
X158626849Y-128593125D01*
X158624989Y-128599526D01*
X158614038Y-128725949D01*
X158615115Y-128735702D01*
X158612662Y-128745205D01*
X158606617Y-128852575D01*
X158608530Y-128866137D01*
X158605669Y-128879529D01*
X158605049Y-128923507D01*
X158605051Y-128923515D01*
X158605048Y-128923527D01*
X158604371Y-128971658D01*
X158607602Y-128989185D01*
X158604842Y-129006788D01*
X158608137Y-129087427D01*
X158613067Y-129107821D01*
X158611164Y-129128721D01*
X158618893Y-129201679D01*
X158625310Y-129222285D01*
X158624787Y-129243861D01*
X158636793Y-129312930D01*
X158645608Y-129335762D01*
X158646863Y-129360205D01*
X158676572Y-129477707D01*
X158690848Y-129507719D01*
X158695949Y-129540556D01*
X158753569Y-129698183D01*
X158773710Y-129731270D01*
X158784195Y-129768560D01*
X158857701Y-129913105D01*
X158883949Y-129946454D01*
X158900696Y-129985445D01*
X158986896Y-130110894D01*
X159023709Y-130146763D01*
X159051244Y-130190161D01*
X159146948Y-130290505D01*
X159191209Y-130321619D01*
X159227434Y-130361806D01*
X159291118Y-130409306D01*
X159329813Y-130427736D01*
X159362474Y-130455487D01*
X159477388Y-130519456D01*
X159511193Y-130530344D01*
X159540619Y-130550233D01*
X159681522Y-130609476D01*
X159707361Y-130614759D01*
X159730339Y-130627700D01*
X159893948Y-130681297D01*
X159914891Y-130683827D01*
X159933907Y-130692963D01*
X160116938Y-130739994D01*
X160134925Y-130740987D01*
X160151574Y-130747877D01*
X160350743Y-130787424D01*
X160367038Y-130787418D01*
X160382385Y-130792885D01*
X160594406Y-130824026D01*
X160609878Y-130823244D01*
X160624706Y-130827741D01*
X160846297Y-130849556D01*
X160862021Y-130848007D01*
X160877347Y-130851852D01*
X160915474Y-130853740D01*
X160925122Y-130852313D01*
X160934646Y-130854401D01*
X161010218Y-130855875D01*
X161015495Y-130854932D01*
X161020751Y-130855994D01*
X161117991Y-130856290D01*
X161121121Y-130855677D01*
X161124252Y-130856278D01*
X161237349Y-130855516D01*
X161239607Y-130855051D01*
X161241877Y-130855470D01*
X161365020Y-130853769D01*
X161366923Y-130853363D01*
X161368839Y-130853705D01*
X161496217Y-130851185D01*
X161498069Y-130850778D01*
X161499934Y-130851100D01*
X161625734Y-130847880D01*
X161627798Y-130847414D01*
X161629891Y-130847761D01*
X161748303Y-130843960D01*
X161750967Y-130843341D01*
X161753668Y-130843765D01*
X161858881Y-130839504D01*
X161862957Y-130838520D01*
X161867109Y-130839118D01*
X161953311Y-130834514D01*
X161961225Y-130832496D01*
X161969340Y-130833457D01*
X162030718Y-130828632D01*
X162043612Y-130824997D01*
X162056970Y-130826023D01*
X162182236Y-130810960D01*
X162195329Y-130806679D01*
X162209096Y-130807151D01*
X162398072Y-130776254D01*
X162415262Y-130769815D01*
X162433612Y-130769406D01*
X162607044Y-130730874D01*
X162626752Y-130722191D01*
X162648202Y-130720284D01*
X162802083Y-130675194D01*
X162826504Y-130662437D01*
X162853645Y-130657672D01*
X162983966Y-130607101D01*
X163016945Y-130586125D01*
X163054346Y-130574764D01*
X163157100Y-130519791D01*
X163191001Y-130491948D01*
X163230861Y-130473620D01*
X163294724Y-130427317D01*
X163321371Y-130398548D01*
X163354751Y-130377969D01*
X163460381Y-130279798D01*
X163486064Y-130244248D01*
X163519929Y-130216384D01*
X163612172Y-130103694D01*
X163634556Y-130061689D01*
X163666455Y-130026368D01*
X163736382Y-129909235D01*
X163749968Y-129871053D01*
X163773146Y-129837816D01*
X163819329Y-129732310D01*
X163825713Y-129703249D01*
X163840422Y-129677379D01*
X163876280Y-129569402D01*
X163880540Y-129535305D01*
X163894255Y-129503805D01*
X163918953Y-129390329D01*
X163919501Y-129359831D01*
X163928992Y-129330836D01*
X163944373Y-129203277D01*
X163942706Y-129181490D01*
X163948089Y-129160318D01*
X163956000Y-129010094D01*
X163954892Y-129002437D01*
X163956620Y-128994893D01*
X163956721Y-128991392D01*
X163956325Y-128989053D01*
X163956838Y-128986738D01*
X163958415Y-128913633D01*
X163957175Y-128906613D01*
X163958564Y-128899619D01*
X163958542Y-128832782D01*
X163956599Y-128823032D01*
X163958237Y-128813225D01*
X163956199Y-128747274D01*
X163953818Y-128736976D01*
X163955219Y-128726499D01*
X163950747Y-128656045D01*
X163948445Y-128647384D01*
X163949388Y-128638476D01*
X163942063Y-128558136D01*
X163940269Y-128552065D01*
X163940813Y-128545758D01*
X163930218Y-128450147D01*
X163929049Y-128446457D01*
X163929336Y-128442595D01*
X163915052Y-128326329D01*
X163914411Y-128324387D01*
X163914550Y-128322347D01*
X163912034Y-128302876D01*
X163923934Y-128293906D01*
X163940603Y-128275226D01*
X163956023Y-128265806D01*
X163973703Y-128241541D01*
X164013688Y-128211777D01*
X164051997Y-128169359D01*
X164081299Y-128120274D01*
X164120395Y-128078563D01*
X164152917Y-128026306D01*
X164165337Y-127993344D01*
X164186485Y-127965177D01*
X164193960Y-127949610D01*
X164198663Y-127931292D01*
X164209118Y-127915532D01*
X164221183Y-127886129D01*
X164229127Y-127845489D01*
X164247412Y-127808337D01*
X164255750Y-127777122D01*
X164258395Y-127736275D01*
X164271679Y-127697556D01*
X164276944Y-127658544D01*
X164275328Y-127632597D01*
X164281766Y-127607407D01*
X164284613Y-127554609D01*
X164282816Y-127542082D01*
X164285470Y-127529708D01*
X164286554Y-127457138D01*
X164285660Y-127452266D01*
X164286625Y-127447410D01*
X164286599Y-127349081D01*
X164285953Y-127345838D01*
X164286564Y-127342591D01*
X164285511Y-127241388D01*
X164283830Y-127233373D01*
X164285141Y-127225288D01*
X164281848Y-127132746D01*
X164278449Y-127118356D01*
X164280150Y-127103667D01*
X164273970Y-127027620D01*
X164268452Y-127008243D01*
X164269522Y-126988125D01*
X164259767Y-126920470D01*
X164253079Y-126901536D01*
X164252903Y-126881452D01*
X164238888Y-126814085D01*
X164235401Y-126805871D01*
X164235078Y-126796952D01*
X164231651Y-126782481D01*
X164226736Y-126771732D01*
X164225879Y-126759943D01*
X164184771Y-126610765D01*
X164170637Y-126582609D01*
X164165308Y-126551557D01*
X164118989Y-126430816D01*
X164093189Y-126389907D01*
X164077970Y-126344001D01*
X164023870Y-126248736D01*
X163980125Y-126198132D01*
X163946392Y-126140380D01*
X163881942Y-126067631D01*
X163819863Y-126020492D01*
X163765484Y-125964652D01*
X163688113Y-125911457D01*
X163621332Y-125882753D01*
X163560206Y-125843418D01*
X163467341Y-125806816D01*
X163413154Y-125797006D01*
X163362440Y-125775532D01*
X163251513Y-125752561D01*
X163215904Y-125752282D01*
X163181784Y-125742088D01*
X163054349Y-125730078D01*
X163020489Y-125733557D01*
X162987033Y-125727296D01*
X162854131Y-125728805D01*
X162814203Y-125737220D01*
X162773471Y-125734833D01*
X162654660Y-125751312D01*
X162607031Y-125767848D01*
X162556853Y-125772786D01*
X162456005Y-125803369D01*
X162396043Y-125835413D01*
X162331302Y-125856157D01*
X162252294Y-125899981D01*
X162231959Y-125917206D01*
X162167281Y-125912883D01*
X162167280Y-125912883D01*
X162062961Y-125905837D01*
X161960659Y-125898852D01*
X161959610Y-125898987D01*
X161958589Y-125898714D01*
X161928029Y-125896727D01*
X161923077Y-125897382D01*
X161918231Y-125896165D01*
X161775012Y-125889056D01*
X161769326Y-125889896D01*
X161763729Y-125888596D01*
X161599199Y-125883337D01*
X161595050Y-125884025D01*
X161590939Y-125883126D01*
X161411725Y-125879713D01*
X161408301Y-125880326D01*
X161404894Y-125879619D01*
X161217621Y-125878052D01*
X161214470Y-125878651D01*
X161211326Y-125878031D01*
X161022621Y-125878308D01*
X161019403Y-125878953D01*
X161016177Y-125878350D01*
X160832664Y-125880467D01*
X160828994Y-125881241D01*
X160825298Y-125880594D01*
X160653604Y-125884552D01*
X160648916Y-125885597D01*
X160644174Y-125884839D01*
X160490926Y-125890633D01*
X160484062Y-125892270D01*
X160477071Y-125891307D01*
X160348894Y-125898938D01*
X160343931Y-125900236D01*
X160338838Y-125899616D01*
X160313226Y-125901546D01*
X160264158Y-125871455D01*
X160190068Y-125844094D01*
X160120746Y-125806253D01*
X160021308Y-125775131D01*
X159964740Y-125769056D01*
X159910783Y-125751015D01*
X159786344Y-125735209D01*
X159764699Y-125736727D01*
X159743712Y-125731239D01*
X159735425Y-125730746D01*
X159717030Y-125733281D01*
X159698827Y-125729618D01*
X159547107Y-125729284D01*
X159508790Y-125736818D01*
X159469856Y-125733792D01*
X159333209Y-125750100D01*
X159288484Y-125764680D01*
X159241550Y-125767898D01*
X159123460Y-125799921D01*
X159069197Y-125826884D01*
X159010596Y-125842291D01*
X158914542Y-125889100D01*
X158849126Y-125938809D01*
X158777582Y-125979201D01*
X158707045Y-126039868D01*
X158664763Y-126093886D01*
X158613550Y-126139522D01*
X158586344Y-126175566D01*
X158566534Y-126216553D01*
X158537151Y-126251320D01*
X158480560Y-126353613D01*
X158466671Y-126397127D01*
X158442412Y-126435826D01*
X158394468Y-126561829D01*
X158388765Y-126595612D01*
X158373741Y-126626406D01*
X158335637Y-126771061D01*
X158333892Y-126799532D01*
X158323690Y-126826169D01*
X158296619Y-126984418D01*
X158297322Y-127010524D01*
X158289976Y-127035585D01*
X158275129Y-127202369D01*
X158277924Y-127228255D01*
X158272631Y-127253746D01*
X158271202Y-127424009D01*
X155318600Y-127424009D01*
X155318600Y-126636700D01*
X155346400Y-126636700D01*
X155646806Y-126576945D01*
X155901479Y-126406779D01*
X156071645Y-126152106D01*
X156131400Y-125851700D01*
X156131400Y-125849051D01*
X156147016Y-125826196D01*
X156228510Y-125952841D01*
X156260800Y-125974904D01*
X156260800Y-125977650D01*
X156419550Y-126136400D01*
X156514109Y-126136400D01*
X156552547Y-126120479D01*
X156692600Y-126148840D01*
X157200600Y-126148840D01*
X157345429Y-126121589D01*
X157480000Y-126148840D01*
X157988000Y-126148840D01*
X158223317Y-126104562D01*
X158439441Y-125965490D01*
X158584431Y-125753290D01*
X158625639Y-125549800D01*
X161965300Y-125549800D01*
X162265707Y-125490045D01*
X162520379Y-125319879D01*
X163921257Y-123919000D01*
X164949653Y-123919000D01*
X164842041Y-124460000D01*
G36*
X168021510Y-125666821D02*
X168144228Y-125724336D01*
X167820971Y-125940330D01*
X167640000Y-126211172D01*
X167459029Y-125940330D01*
X167144248Y-125730000D01*
X167459029Y-125519670D01*
X167639992Y-125248839D01*
X168021510Y-125666821D01*
X168021510Y-125666821D01*
G37*
X168021510Y-125666821D02*
X168144228Y-125724336D01*
X167820971Y-125940330D01*
X167640000Y-126211172D01*
X167459029Y-125940330D01*
X167144248Y-125730000D01*
X167459029Y-125519670D01*
X167639992Y-125248839D01*
X168021510Y-125666821D01*
G36*
X169037000Y-124333000D02*
X169057000Y-124333000D01*
X169057000Y-124587000D01*
X169037000Y-124587000D01*
X169037000Y-124607000D01*
X168783000Y-124607000D01*
X168783000Y-124587000D01*
X168763000Y-124587000D01*
X168763000Y-124333000D01*
X168783000Y-124333000D01*
X168783000Y-124313000D01*
X169037000Y-124313000D01*
X169037000Y-124333000D01*
X169037000Y-124333000D01*
G37*
X169037000Y-124333000D02*
X169057000Y-124333000D01*
X169057000Y-124587000D01*
X169037000Y-124587000D01*
X169037000Y-124607000D01*
X168783000Y-124607000D01*
X168783000Y-124587000D01*
X168763000Y-124587000D01*
X168763000Y-124333000D01*
X168783000Y-124333000D01*
X168783000Y-124313000D01*
X169037000Y-124313000D01*
X169037000Y-124333000D01*
G36*
X164842041Y-109220000D02*
X164956115Y-109793489D01*
X165280971Y-110279670D01*
X165604228Y-110495664D01*
X165481510Y-110553179D01*
X165087312Y-110985053D01*
X164915042Y-111400974D01*
X165036183Y-111633000D01*
X166243000Y-111633000D01*
X166243000Y-111613000D01*
X166497000Y-111613000D01*
X166497000Y-111633000D01*
X166517000Y-111633000D01*
X166517000Y-111887000D01*
X166497000Y-111887000D01*
X166497000Y-111907000D01*
X166243000Y-111907000D01*
X166243000Y-111887000D01*
X165036183Y-111887000D01*
X164915042Y-112119026D01*
X165087312Y-112534947D01*
X165481510Y-112966821D01*
X165604228Y-113024336D01*
X165280971Y-113240330D01*
X164956115Y-113726511D01*
X164842041Y-114300000D01*
X164911359Y-114648483D01*
X163909921Y-115649921D01*
X163739755Y-115904593D01*
X163711056Y-116048871D01*
X163680000Y-116205000D01*
X163680000Y-119689842D01*
X162072557Y-121297285D01*
X162075001Y-121285000D01*
X162075000Y-121284995D01*
X162075000Y-116840000D01*
X162015245Y-116539594D01*
X161845079Y-116284921D01*
X160170000Y-114609842D01*
X160170000Y-108910158D01*
X160345158Y-108735000D01*
X164938513Y-108735000D01*
X164842041Y-109220000D01*
X164842041Y-109220000D01*
G37*
X164842041Y-109220000D02*
X164956115Y-109793489D01*
X165280971Y-110279670D01*
X165604228Y-110495664D01*
X165481510Y-110553179D01*
X165087312Y-110985053D01*
X164915042Y-111400974D01*
X165036183Y-111633000D01*
X166243000Y-111633000D01*
X166243000Y-111613000D01*
X166497000Y-111613000D01*
X166497000Y-111633000D01*
X166517000Y-111633000D01*
X166517000Y-111887000D01*
X166497000Y-111887000D01*
X166497000Y-111907000D01*
X166243000Y-111907000D01*
X166243000Y-111887000D01*
X165036183Y-111887000D01*
X164915042Y-112119026D01*
X165087312Y-112534947D01*
X165481510Y-112966821D01*
X165604228Y-113024336D01*
X165280971Y-113240330D01*
X164956115Y-113726511D01*
X164842041Y-114300000D01*
X164911359Y-114648483D01*
X163909921Y-115649921D01*
X163739755Y-115904593D01*
X163711056Y-116048871D01*
X163680000Y-116205000D01*
X163680000Y-119689842D01*
X162072557Y-121297285D01*
X162075001Y-121285000D01*
X162075000Y-121284995D01*
X162075000Y-116840000D01*
X162015245Y-116539594D01*
X161845079Y-116284921D01*
X160170000Y-114609842D01*
X160170000Y-108910158D01*
X160345158Y-108735000D01*
X164938513Y-108735000D01*
X164842041Y-109220000D01*
G36*
X169037000Y-116713000D02*
X169057000Y-116713000D01*
X169057000Y-116967000D01*
X169037000Y-116967000D01*
X169037000Y-116987000D01*
X168783000Y-116987000D01*
X168783000Y-116967000D01*
X168763000Y-116967000D01*
X168763000Y-116713000D01*
X168783000Y-116713000D01*
X168783000Y-116693000D01*
X169037000Y-116693000D01*
X169037000Y-116713000D01*
X169037000Y-116713000D01*
G37*
X169037000Y-116713000D02*
X169057000Y-116713000D01*
X169057000Y-116967000D01*
X169037000Y-116967000D01*
X169037000Y-116987000D01*
X168783000Y-116987000D01*
X168783000Y-116967000D01*
X168763000Y-116967000D01*
X168763000Y-116713000D01*
X168783000Y-116713000D01*
X168783000Y-116693000D01*
X169037000Y-116693000D01*
X169037000Y-116713000D01*
G36*
X167820971Y-110279670D02*
X168135752Y-110490000D01*
X167820971Y-110700330D01*
X167640008Y-110971161D01*
X167258490Y-110553179D01*
X167135772Y-110495664D01*
X167459029Y-110279670D01*
X167640000Y-110008828D01*
X167820971Y-110279670D01*
X167820971Y-110279670D01*
G37*
X167820971Y-110279670D02*
X168135752Y-110490000D01*
X167820971Y-110700330D01*
X167640008Y-110971161D01*
X167258490Y-110553179D01*
X167135772Y-110495664D01*
X167459029Y-110279670D01*
X167640000Y-110008828D01*
X167820971Y-110279670D01*
G36*
X169037000Y-106553000D02*
X169057000Y-106553000D01*
X169057000Y-106807000D01*
X169037000Y-106807000D01*
X169037000Y-106827000D01*
X168783000Y-106827000D01*
X168783000Y-106807000D01*
X168763000Y-106807000D01*
X168763000Y-106553000D01*
X168783000Y-106553000D01*
X168783000Y-106533000D01*
X169037000Y-106533000D01*
X169037000Y-106553000D01*
X169037000Y-106553000D01*
G37*
X169037000Y-106553000D02*
X169057000Y-106553000D01*
X169057000Y-106807000D01*
X169037000Y-106807000D01*
X169037000Y-106827000D01*
X168783000Y-106827000D01*
X168783000Y-106807000D01*
X168763000Y-106807000D01*
X168763000Y-106553000D01*
X168783000Y-106553000D01*
X168783000Y-106533000D01*
X169037000Y-106533000D01*
X169037000Y-106553000D01*
M02*
