G04 #@! TF.FileFunction,Copper,L2,Bot,Signal*
%FSLAX46Y46*%
G04 Gerber Fmt 4.6, Leading zero omitted, Abs format (unit mm)*
G04 Created by KiCad (PCBNEW 4.0.7) date 04/17/18 20:06:53*
%MOMM*%
%LPD*%
G01*
G04 APERTURE LIST*
%ADD10C,0.100000*%
%ADD11C,0.150000*%
%ADD12C,0.300000*%
%ADD13C,0.400000*%
%ADD14R,1.727200X1.727200*%
%ADD15O,1.727200X1.727200*%
%ADD16C,1.500000*%
%ADD17C,0.254000*%
G04 APERTURE END LIST*
D10*
D11*
X177002200Y-166007200D02*
X177002200Y-198007200D01*
X285002200Y-198007200D01*
X285002200Y-166007200D01*
X177002200Y-166007200D01*
D10*
D11*
X10000000Y-10000000D02*
X10000000Y-200007200D01*
X287002200Y-200007200D01*
X287002200Y-10000000D01*
X10000000Y-10000000D01*
D10*
D11*
X12000000Y-12000000D02*
X12000000Y-198007200D01*
X285002200Y-198007200D01*
X285002200Y-12000000D01*
X12000000Y-12000000D01*
D10*
D11*
X60000000Y-12000000D02*
X60000000Y-10000000D01*
D10*
D11*
X110000000Y-12000000D02*
X110000000Y-10000000D01*
D10*
D11*
X160000000Y-12000000D02*
X160000000Y-10000000D01*
D10*
D11*
X210000000Y-12000000D02*
X210000000Y-10000000D01*
D10*
D11*
X260000000Y-12000000D02*
X260000000Y-10000000D01*
D10*
D11*
X35990476Y-11588095D02*
X35247619Y-11588095D01*
X35619048Y-11588095D02*
X35619048Y-10288095D01*
X35495238Y-10473810D01*
X35371429Y-10597619D01*
X35247619Y-10659524D01*
D10*
D11*
X85247619Y-10411905D02*
X85309524Y-10350000D01*
X85433333Y-10288095D01*
X85742857Y-10288095D01*
X85866667Y-10350000D01*
X85928571Y-10411905D01*
X85990476Y-10535714D01*
X85990476Y-10659524D01*
X85928571Y-10845238D01*
X85185714Y-11588095D01*
X85990476Y-11588095D01*
D10*
D11*
X135185714Y-10288095D02*
X135990476Y-10288095D01*
X135557143Y-10783333D01*
X135742857Y-10783333D01*
X135866667Y-10845238D01*
X135928571Y-10907143D01*
X135990476Y-11030952D01*
X135990476Y-11340476D01*
X135928571Y-11464286D01*
X135866667Y-11526190D01*
X135742857Y-11588095D01*
X135371429Y-11588095D01*
X135247619Y-11526190D01*
X135185714Y-11464286D01*
D10*
D11*
X185866667Y-10721429D02*
X185866667Y-11588095D01*
X185557143Y-10226190D02*
X185247619Y-11154762D01*
X186052381Y-11154762D01*
D10*
D11*
X235928571Y-10288095D02*
X235309524Y-10288095D01*
X235247619Y-10907143D01*
X235309524Y-10845238D01*
X235433333Y-10783333D01*
X235742857Y-10783333D01*
X235866667Y-10845238D01*
X235928571Y-10907143D01*
X235990476Y-11030952D01*
X235990476Y-11340476D01*
X235928571Y-11464286D01*
X235866667Y-11526190D01*
X235742857Y-11588095D01*
X235433333Y-11588095D01*
X235309524Y-11526190D01*
X235247619Y-11464286D01*
D10*
D11*
X285866667Y-10288095D02*
X285619048Y-10288095D01*
X285495238Y-10350000D01*
X285433333Y-10411905D01*
X285309524Y-10597619D01*
X285247619Y-10845238D01*
X285247619Y-11340476D01*
X285309524Y-11464286D01*
X285371429Y-11526190D01*
X285495238Y-11588095D01*
X285742857Y-11588095D01*
X285866667Y-11526190D01*
X285928571Y-11464286D01*
X285990476Y-11340476D01*
X285990476Y-11030952D01*
X285928571Y-10907143D01*
X285866667Y-10845238D01*
X285742857Y-10783333D01*
X285495238Y-10783333D01*
X285371429Y-10845238D01*
X285309524Y-10907143D01*
X285247619Y-11030952D01*
D10*
D11*
X60000000Y-198007200D02*
X60000000Y-200007200D01*
D10*
D11*
X110000000Y-198007200D02*
X110000000Y-200007200D01*
D10*
D11*
X160000000Y-198007200D02*
X160000000Y-200007200D01*
D10*
D11*
X210000000Y-198007200D02*
X210000000Y-200007200D01*
D10*
D11*
X260000000Y-198007200D02*
X260000000Y-200007200D01*
D10*
D11*
X35990476Y-199595295D02*
X35247619Y-199595295D01*
X35619048Y-199595295D02*
X35619048Y-198295295D01*
X35495238Y-198481010D01*
X35371429Y-198604819D01*
X35247619Y-198666724D01*
D10*
D11*
X85247619Y-198419105D02*
X85309524Y-198357200D01*
X85433333Y-198295295D01*
X85742857Y-198295295D01*
X85866667Y-198357200D01*
X85928571Y-198419105D01*
X85990476Y-198542914D01*
X85990476Y-198666724D01*
X85928571Y-198852438D01*
X85185714Y-199595295D01*
X85990476Y-199595295D01*
D10*
D11*
X135185714Y-198295295D02*
X135990476Y-198295295D01*
X135557143Y-198790533D01*
X135742857Y-198790533D01*
X135866667Y-198852438D01*
X135928571Y-198914343D01*
X135990476Y-199038152D01*
X135990476Y-199347676D01*
X135928571Y-199471486D01*
X135866667Y-199533390D01*
X135742857Y-199595295D01*
X135371429Y-199595295D01*
X135247619Y-199533390D01*
X135185714Y-199471486D01*
D10*
D11*
X185866667Y-198728629D02*
X185866667Y-199595295D01*
X185557143Y-198233390D02*
X185247619Y-199161962D01*
X186052381Y-199161962D01*
D10*
D11*
X235928571Y-198295295D02*
X235309524Y-198295295D01*
X235247619Y-198914343D01*
X235309524Y-198852438D01*
X235433333Y-198790533D01*
X235742857Y-198790533D01*
X235866667Y-198852438D01*
X235928571Y-198914343D01*
X235990476Y-199038152D01*
X235990476Y-199347676D01*
X235928571Y-199471486D01*
X235866667Y-199533390D01*
X235742857Y-199595295D01*
X235433333Y-199595295D01*
X235309524Y-199533390D01*
X235247619Y-199471486D01*
D10*
D11*
X285866667Y-198295295D02*
X285619048Y-198295295D01*
X285495238Y-198357200D01*
X285433333Y-198419105D01*
X285309524Y-198604819D01*
X285247619Y-198852438D01*
X285247619Y-199347676D01*
X285309524Y-199471486D01*
X285371429Y-199533390D01*
X285495238Y-199595295D01*
X285742857Y-199595295D01*
X285866667Y-199533390D01*
X285928571Y-199471486D01*
X285990476Y-199347676D01*
X285990476Y-199038152D01*
X285928571Y-198914343D01*
X285866667Y-198852438D01*
X285742857Y-198790533D01*
X285495238Y-198790533D01*
X285371429Y-198852438D01*
X285309524Y-198914343D01*
X285247619Y-199038152D01*
D10*
D11*
X10000000Y-60000000D02*
X12000000Y-60000000D01*
D10*
D11*
X10000000Y-110000000D02*
X12000000Y-110000000D01*
D10*
D11*
X10000000Y-160000000D02*
X12000000Y-160000000D01*
D10*
D11*
X10690476Y-35216667D02*
X11309524Y-35216667D01*
X10566667Y-35588095D02*
X11000000Y-34288095D01*
X11433333Y-35588095D01*
D10*
D11*
X11092857Y-84907143D02*
X11278571Y-84969048D01*
X11340476Y-85030952D01*
X11402381Y-85154762D01*
X11402381Y-85340476D01*
X11340476Y-85464286D01*
X11278571Y-85526190D01*
X11154762Y-85588095D01*
X10659524Y-85588095D01*
X10659524Y-84288095D01*
X11092857Y-84288095D01*
X11216667Y-84350000D01*
X11278571Y-84411905D01*
X11340476Y-84535714D01*
X11340476Y-84659524D01*
X11278571Y-84783333D01*
X11216667Y-84845238D01*
X11092857Y-84907143D01*
X10659524Y-84907143D01*
D10*
D11*
X11402381Y-135464286D02*
X11340476Y-135526190D01*
X11154762Y-135588095D01*
X11030952Y-135588095D01*
X10845238Y-135526190D01*
X10721429Y-135402381D01*
X10659524Y-135278571D01*
X10597619Y-135030952D01*
X10597619Y-134845238D01*
X10659524Y-134597619D01*
X10721429Y-134473810D01*
X10845238Y-134350000D01*
X11030952Y-134288095D01*
X11154762Y-134288095D01*
X11340476Y-134350000D01*
X11402381Y-134411905D01*
D10*
D11*
X10659524Y-185588095D02*
X10659524Y-184288095D01*
X10969048Y-184288095D01*
X11154762Y-184350000D01*
X11278571Y-184473810D01*
X11340476Y-184597619D01*
X11402381Y-184845238D01*
X11402381Y-185030952D01*
X11340476Y-185278571D01*
X11278571Y-185402381D01*
X11154762Y-185526190D01*
X10969048Y-185588095D01*
X10659524Y-185588095D01*
D10*
D11*
X287002200Y-60000000D02*
X285002200Y-60000000D01*
D10*
D11*
X287002200Y-110000000D02*
X285002200Y-110000000D01*
D10*
D11*
X287002200Y-160000000D02*
X285002200Y-160000000D01*
D10*
D11*
X285692676Y-35216667D02*
X286311724Y-35216667D01*
X285568867Y-35588095D02*
X286002200Y-34288095D01*
X286435533Y-35588095D01*
D10*
D11*
X286095057Y-84907143D02*
X286280771Y-84969048D01*
X286342676Y-85030952D01*
X286404581Y-85154762D01*
X286404581Y-85340476D01*
X286342676Y-85464286D01*
X286280771Y-85526190D01*
X286156962Y-85588095D01*
X285661724Y-85588095D01*
X285661724Y-84288095D01*
X286095057Y-84288095D01*
X286218867Y-84350000D01*
X286280771Y-84411905D01*
X286342676Y-84535714D01*
X286342676Y-84659524D01*
X286280771Y-84783333D01*
X286218867Y-84845238D01*
X286095057Y-84907143D01*
X285661724Y-84907143D01*
D10*
D11*
X286404581Y-135464286D02*
X286342676Y-135526190D01*
X286156962Y-135588095D01*
X286033152Y-135588095D01*
X285847438Y-135526190D01*
X285723629Y-135402381D01*
X285661724Y-135278571D01*
X285599819Y-135030952D01*
X285599819Y-134845238D01*
X285661724Y-134597619D01*
X285723629Y-134473810D01*
X285847438Y-134350000D01*
X286033152Y-134288095D01*
X286156962Y-134288095D01*
X286342676Y-134350000D01*
X286404581Y-134411905D01*
D10*
D11*
X285661724Y-185588095D02*
X285661724Y-184288095D01*
X285971248Y-184288095D01*
X286156962Y-184350000D01*
X286280771Y-184473810D01*
X286342676Y-184597619D01*
X286404581Y-184845238D01*
X286404581Y-185030952D01*
X286342676Y-185278571D01*
X286280771Y-185402381D01*
X286156962Y-185526190D01*
X285971248Y-185588095D01*
X285661724Y-185588095D01*
D10*
D11*
X200359343Y-193785771D02*
X200359343Y-192285771D01*
X200716486Y-192285771D01*
X200930771Y-192357200D01*
X201073629Y-192500057D01*
X201145057Y-192642914D01*
X201216486Y-192928629D01*
X201216486Y-193142914D01*
X201145057Y-193428629D01*
X201073629Y-193571486D01*
X200930771Y-193714343D01*
X200716486Y-193785771D01*
X200359343Y-193785771D01*
X202502200Y-193785771D02*
X202502200Y-193000057D01*
X202430771Y-192857200D01*
X202287914Y-192785771D01*
X202002200Y-192785771D01*
X201859343Y-192857200D01*
X202502200Y-193714343D02*
X202359343Y-193785771D01*
X202002200Y-193785771D01*
X201859343Y-193714343D01*
X201787914Y-193571486D01*
X201787914Y-193428629D01*
X201859343Y-193285771D01*
X202002200Y-193214343D01*
X202359343Y-193214343D01*
X202502200Y-193142914D01*
X203002200Y-192785771D02*
X203573629Y-192785771D01*
X203216486Y-192285771D02*
X203216486Y-193571486D01*
X203287914Y-193714343D01*
X203430772Y-193785771D01*
X203573629Y-193785771D01*
X204645057Y-193714343D02*
X204502200Y-193785771D01*
X204216486Y-193785771D01*
X204073629Y-193714343D01*
X204002200Y-193571486D01*
X204002200Y-193000057D01*
X204073629Y-192857200D01*
X204216486Y-192785771D01*
X204502200Y-192785771D01*
X204645057Y-192857200D01*
X204716486Y-193000057D01*
X204716486Y-193142914D01*
X204002200Y-193285771D01*
X205359343Y-193642914D02*
X205430771Y-193714343D01*
X205359343Y-193785771D01*
X205287914Y-193714343D01*
X205359343Y-193642914D01*
X205359343Y-193785771D01*
X205359343Y-192857200D02*
X205430771Y-192928629D01*
X205359343Y-193000057D01*
X205287914Y-192928629D01*
X205359343Y-192857200D01*
X205359343Y-193000057D01*
D10*
D11*
X177002200Y-194507200D02*
X285002200Y-194507200D01*
D10*
D11*
X178359343Y-196585771D02*
X178359343Y-195085771D01*
X179216486Y-196585771D02*
X178573629Y-195728629D01*
X179216486Y-195085771D02*
X178359343Y-195942914D01*
X179859343Y-196585771D02*
X179859343Y-195585771D01*
X179859343Y-195085771D02*
X179787914Y-195157200D01*
X179859343Y-195228629D01*
X179930771Y-195157200D01*
X179859343Y-195085771D01*
X179859343Y-195228629D01*
X181430772Y-196442914D02*
X181359343Y-196514343D01*
X181145057Y-196585771D01*
X181002200Y-196585771D01*
X180787915Y-196514343D01*
X180645057Y-196371486D01*
X180573629Y-196228629D01*
X180502200Y-195942914D01*
X180502200Y-195728629D01*
X180573629Y-195442914D01*
X180645057Y-195300057D01*
X180787915Y-195157200D01*
X181002200Y-195085771D01*
X181145057Y-195085771D01*
X181359343Y-195157200D01*
X181430772Y-195228629D01*
X182716486Y-196585771D02*
X182716486Y-195800057D01*
X182645057Y-195657200D01*
X182502200Y-195585771D01*
X182216486Y-195585771D01*
X182073629Y-195657200D01*
X182716486Y-196514343D02*
X182573629Y-196585771D01*
X182216486Y-196585771D01*
X182073629Y-196514343D01*
X182002200Y-196371486D01*
X182002200Y-196228629D01*
X182073629Y-196085771D01*
X182216486Y-196014343D01*
X182573629Y-196014343D01*
X182716486Y-195942914D01*
X184073629Y-196585771D02*
X184073629Y-195085771D01*
X184073629Y-196514343D02*
X183930772Y-196585771D01*
X183645058Y-196585771D01*
X183502200Y-196514343D01*
X183430772Y-196442914D01*
X183359343Y-196300057D01*
X183359343Y-195871486D01*
X183430772Y-195728629D01*
X183502200Y-195657200D01*
X183645058Y-195585771D01*
X183930772Y-195585771D01*
X184073629Y-195657200D01*
X185930772Y-195800057D02*
X186430772Y-195800057D01*
X186645058Y-196585771D02*
X185930772Y-196585771D01*
X185930772Y-195085771D01*
X186645058Y-195085771D01*
X187287915Y-196442914D02*
X187359343Y-196514343D01*
X187287915Y-196585771D01*
X187216486Y-196514343D01*
X187287915Y-196442914D01*
X187287915Y-196585771D01*
X188002201Y-196585771D02*
X188002201Y-195085771D01*
X188359344Y-195085771D01*
X188573629Y-195157200D01*
X188716487Y-195300057D01*
X188787915Y-195442914D01*
X188859344Y-195728629D01*
X188859344Y-195942914D01*
X188787915Y-196228629D01*
X188716487Y-196371486D01*
X188573629Y-196514343D01*
X188359344Y-196585771D01*
X188002201Y-196585771D01*
X189502201Y-196442914D02*
X189573629Y-196514343D01*
X189502201Y-196585771D01*
X189430772Y-196514343D01*
X189502201Y-196442914D01*
X189502201Y-196585771D01*
X190145058Y-196157200D02*
X190859344Y-196157200D01*
X190002201Y-196585771D02*
X190502201Y-195085771D01*
X191002201Y-196585771D01*
X191502201Y-196442914D02*
X191573629Y-196514343D01*
X191502201Y-196585771D01*
X191430772Y-196514343D01*
X191502201Y-196442914D01*
X191502201Y-196585771D01*
X194502201Y-196585771D02*
X194502201Y-195085771D01*
X194645058Y-196014343D02*
X195073629Y-196585771D01*
X195073629Y-195585771D02*
X194502201Y-196157200D01*
X195716487Y-196585771D02*
X195716487Y-195585771D01*
X195716487Y-195085771D02*
X195645058Y-195157200D01*
X195716487Y-195228629D01*
X195787915Y-195157200D01*
X195716487Y-195085771D01*
X195716487Y-195228629D01*
X197073630Y-196514343D02*
X196930773Y-196585771D01*
X196645059Y-196585771D01*
X196502201Y-196514343D01*
X196430773Y-196442914D01*
X196359344Y-196300057D01*
X196359344Y-195871486D01*
X196430773Y-195728629D01*
X196502201Y-195657200D01*
X196645059Y-195585771D01*
X196930773Y-195585771D01*
X197073630Y-195657200D01*
X198359344Y-196585771D02*
X198359344Y-195800057D01*
X198287915Y-195657200D01*
X198145058Y-195585771D01*
X197859344Y-195585771D01*
X197716487Y-195657200D01*
X198359344Y-196514343D02*
X198216487Y-196585771D01*
X197859344Y-196585771D01*
X197716487Y-196514343D01*
X197645058Y-196371486D01*
X197645058Y-196228629D01*
X197716487Y-196085771D01*
X197859344Y-196014343D01*
X198216487Y-196014343D01*
X198359344Y-195942914D01*
X199716487Y-196585771D02*
X199716487Y-195085771D01*
X199716487Y-196514343D02*
X199573630Y-196585771D01*
X199287916Y-196585771D01*
X199145058Y-196514343D01*
X199073630Y-196442914D01*
X199002201Y-196300057D01*
X199002201Y-195871486D01*
X199073630Y-195728629D01*
X199145058Y-195657200D01*
X199287916Y-195585771D01*
X199573630Y-195585771D01*
X199716487Y-195657200D01*
X202216487Y-195585771D02*
X202216487Y-196585771D01*
X201859344Y-195014343D02*
X201502201Y-196085771D01*
X202430773Y-196085771D01*
X203002201Y-196442914D02*
X203073629Y-196514343D01*
X203002201Y-196585771D01*
X202930772Y-196514343D01*
X203002201Y-196442914D01*
X203002201Y-196585771D01*
X204002201Y-195085771D02*
X204145058Y-195085771D01*
X204287915Y-195157200D01*
X204359344Y-195228629D01*
X204430773Y-195371486D01*
X204502201Y-195657200D01*
X204502201Y-196014343D01*
X204430773Y-196300057D01*
X204359344Y-196442914D01*
X204287915Y-196514343D01*
X204145058Y-196585771D01*
X204002201Y-196585771D01*
X203859344Y-196514343D01*
X203787915Y-196442914D01*
X203716487Y-196300057D01*
X203645058Y-196014343D01*
X203645058Y-195657200D01*
X203716487Y-195371486D01*
X203787915Y-195228629D01*
X203859344Y-195157200D01*
X204002201Y-195085771D01*
X205145058Y-196442914D02*
X205216486Y-196514343D01*
X205145058Y-196585771D01*
X205073629Y-196514343D01*
X205145058Y-196442914D01*
X205145058Y-196585771D01*
X205716487Y-195085771D02*
X206716487Y-195085771D01*
X206073630Y-196585771D01*
D10*
D11*
X177002200Y-191507200D02*
X285002200Y-191507200D01*
D10*
D12*
X264216486Y-193785771D02*
X263716486Y-193071486D01*
X263359343Y-193785771D02*
X263359343Y-192285771D01*
X263930771Y-192285771D01*
X264073629Y-192357200D01*
X264145057Y-192428629D01*
X264216486Y-192571486D01*
X264216486Y-192785771D01*
X264145057Y-192928629D01*
X264073629Y-193000057D01*
X263930771Y-193071486D01*
X263359343Y-193071486D01*
X265430771Y-193714343D02*
X265287914Y-193785771D01*
X265002200Y-193785771D01*
X264859343Y-193714343D01*
X264787914Y-193571486D01*
X264787914Y-193000057D01*
X264859343Y-192857200D01*
X265002200Y-192785771D01*
X265287914Y-192785771D01*
X265430771Y-192857200D01*
X265502200Y-193000057D01*
X265502200Y-193142914D01*
X264787914Y-193285771D01*
X266002200Y-192785771D02*
X266359343Y-193785771D01*
X266716485Y-192785771D01*
X267287914Y-193642914D02*
X267359342Y-193714343D01*
X267287914Y-193785771D01*
X267216485Y-193714343D01*
X267287914Y-193642914D01*
X267287914Y-193785771D01*
X267287914Y-192857200D02*
X267359342Y-192928629D01*
X267287914Y-193000057D01*
X267216485Y-192928629D01*
X267287914Y-192857200D01*
X267287914Y-193000057D01*
D10*
D11*
X178287914Y-193714343D02*
X178502200Y-193785771D01*
X178859343Y-193785771D01*
X179002200Y-193714343D01*
X179073629Y-193642914D01*
X179145057Y-193500057D01*
X179145057Y-193357200D01*
X179073629Y-193214343D01*
X179002200Y-193142914D01*
X178859343Y-193071486D01*
X178573629Y-193000057D01*
X178430771Y-192928629D01*
X178359343Y-192857200D01*
X178287914Y-192714343D01*
X178287914Y-192571486D01*
X178359343Y-192428629D01*
X178430771Y-192357200D01*
X178573629Y-192285771D01*
X178930771Y-192285771D01*
X179145057Y-192357200D01*
X179787914Y-193785771D02*
X179787914Y-192785771D01*
X179787914Y-192285771D02*
X179716485Y-192357200D01*
X179787914Y-192428629D01*
X179859342Y-192357200D01*
X179787914Y-192285771D01*
X179787914Y-192428629D01*
X180359343Y-192785771D02*
X181145057Y-192785771D01*
X180359343Y-193785771D01*
X181145057Y-193785771D01*
X182287914Y-193714343D02*
X182145057Y-193785771D01*
X181859343Y-193785771D01*
X181716486Y-193714343D01*
X181645057Y-193571486D01*
X181645057Y-193000057D01*
X181716486Y-192857200D01*
X181859343Y-192785771D01*
X182145057Y-192785771D01*
X182287914Y-192857200D01*
X182359343Y-193000057D01*
X182359343Y-193142914D01*
X181645057Y-193285771D01*
X183002200Y-193642914D02*
X183073628Y-193714343D01*
X183002200Y-193785771D01*
X182930771Y-193714343D01*
X183002200Y-193642914D01*
X183002200Y-193785771D01*
X183002200Y-192857200D02*
X183073628Y-192928629D01*
X183002200Y-193000057D01*
X182930771Y-192928629D01*
X183002200Y-192857200D01*
X183002200Y-193000057D01*
X184787914Y-193357200D02*
X185502200Y-193357200D01*
X184645057Y-193785771D02*
X185145057Y-192285771D01*
X185645057Y-193785771D01*
X186787914Y-192785771D02*
X186787914Y-193785771D01*
X186430771Y-192214343D02*
X186073628Y-193285771D01*
X187002200Y-193285771D01*
D10*
D11*
X263359343Y-196585771D02*
X263359343Y-195085771D01*
X264716486Y-196585771D02*
X264716486Y-195085771D01*
X264716486Y-196514343D02*
X264573629Y-196585771D01*
X264287915Y-196585771D01*
X264145057Y-196514343D01*
X264073629Y-196442914D01*
X264002200Y-196300057D01*
X264002200Y-195871486D01*
X264073629Y-195728629D01*
X264145057Y-195657200D01*
X264287915Y-195585771D01*
X264573629Y-195585771D01*
X264716486Y-195657200D01*
X265430772Y-196442914D02*
X265502200Y-196514343D01*
X265430772Y-196585771D01*
X265359343Y-196514343D01*
X265430772Y-196442914D01*
X265430772Y-196585771D01*
X265430772Y-195657200D02*
X265502200Y-195728629D01*
X265430772Y-195800057D01*
X265359343Y-195728629D01*
X265430772Y-195657200D01*
X265430772Y-195800057D01*
X268073629Y-196585771D02*
X267216486Y-196585771D01*
X267645058Y-196585771D02*
X267645058Y-195085771D01*
X267502201Y-195300057D01*
X267359343Y-195442914D01*
X267216486Y-195514343D01*
X269787914Y-195014343D02*
X268502200Y-196942914D01*
X271073629Y-196585771D02*
X270216486Y-196585771D01*
X270645058Y-196585771D02*
X270645058Y-195085771D01*
X270502201Y-195300057D01*
X270359343Y-195442914D01*
X270216486Y-195514343D01*
D10*
D11*
X177002200Y-187507200D02*
X285002200Y-187507200D01*
D10*
D13*
X178454581Y-188211962D02*
X179597438Y-188211962D01*
X178776010Y-190211962D02*
X179026010Y-188211962D01*
X180014105Y-190211962D02*
X180180771Y-188878629D01*
X180264105Y-188211962D02*
X180156962Y-188307200D01*
X180240295Y-188402438D01*
X180347439Y-188307200D01*
X180264105Y-188211962D01*
X180240295Y-188402438D01*
X180847438Y-188878629D02*
X181609343Y-188878629D01*
X181216486Y-188211962D02*
X181002200Y-189926248D01*
X181073630Y-190116724D01*
X181252201Y-190211962D01*
X181442677Y-190211962D01*
X182395058Y-190211962D02*
X182216487Y-190116724D01*
X182145057Y-189926248D01*
X182359343Y-188211962D01*
X183930772Y-190116724D02*
X183728391Y-190211962D01*
X183347439Y-190211962D01*
X183168867Y-190116724D01*
X183097438Y-189926248D01*
X183192676Y-189164343D01*
X183311724Y-188973867D01*
X183514105Y-188878629D01*
X183895057Y-188878629D01*
X184073629Y-188973867D01*
X184145057Y-189164343D01*
X184121248Y-189354819D01*
X183145057Y-189545295D01*
X184895057Y-190021486D02*
X184978392Y-190116724D01*
X184871248Y-190211962D01*
X184787915Y-190116724D01*
X184895057Y-190021486D01*
X184871248Y-190211962D01*
X185026010Y-188973867D02*
X185109344Y-189069105D01*
X185002200Y-189164343D01*
X184918867Y-189069105D01*
X185026010Y-188973867D01*
X185002200Y-189164343D01*
D10*
D11*
X178859343Y-185600057D02*
X178359343Y-185600057D01*
X178359343Y-186385771D02*
X178359343Y-184885771D01*
X179073629Y-184885771D01*
X179645057Y-186385771D02*
X179645057Y-185385771D01*
X179645057Y-184885771D02*
X179573628Y-184957200D01*
X179645057Y-185028629D01*
X179716485Y-184957200D01*
X179645057Y-184885771D01*
X179645057Y-185028629D01*
X180573629Y-186385771D02*
X180430771Y-186314343D01*
X180359343Y-186171486D01*
X180359343Y-184885771D01*
X181716485Y-186314343D02*
X181573628Y-186385771D01*
X181287914Y-186385771D01*
X181145057Y-186314343D01*
X181073628Y-186171486D01*
X181073628Y-185600057D01*
X181145057Y-185457200D01*
X181287914Y-185385771D01*
X181573628Y-185385771D01*
X181716485Y-185457200D01*
X181787914Y-185600057D01*
X181787914Y-185742914D01*
X181073628Y-185885771D01*
X182430771Y-186242914D02*
X182502199Y-186314343D01*
X182430771Y-186385771D01*
X182359342Y-186314343D01*
X182430771Y-186242914D01*
X182430771Y-186385771D01*
X182430771Y-185457200D02*
X182502199Y-185528629D01*
X182430771Y-185600057D01*
X182359342Y-185528629D01*
X182430771Y-185457200D01*
X182430771Y-185600057D01*
X184073628Y-185385771D02*
X184645057Y-185385771D01*
X184287914Y-184885771D02*
X184287914Y-186171486D01*
X184359342Y-186314343D01*
X184502200Y-186385771D01*
X184645057Y-186385771D01*
X185716485Y-186314343D02*
X185573628Y-186385771D01*
X185287914Y-186385771D01*
X185145057Y-186314343D01*
X185073628Y-186171486D01*
X185073628Y-185600057D01*
X185145057Y-185457200D01*
X185287914Y-185385771D01*
X185573628Y-185385771D01*
X185716485Y-185457200D01*
X185787914Y-185600057D01*
X185787914Y-185742914D01*
X185073628Y-185885771D01*
X186359342Y-186314343D02*
X186502199Y-186385771D01*
X186787914Y-186385771D01*
X186930771Y-186314343D01*
X187002199Y-186171486D01*
X187002199Y-186100057D01*
X186930771Y-185957200D01*
X186787914Y-185885771D01*
X186573628Y-185885771D01*
X186430771Y-185814343D01*
X186359342Y-185671486D01*
X186359342Y-185600057D01*
X186430771Y-185457200D01*
X186573628Y-185385771D01*
X186787914Y-185385771D01*
X186930771Y-185457200D01*
X187430771Y-185385771D02*
X188002200Y-185385771D01*
X187645057Y-184885771D02*
X187645057Y-186171486D01*
X187716485Y-186314343D01*
X187859343Y-186385771D01*
X188002200Y-186385771D01*
X188430771Y-186314343D02*
X188573628Y-186385771D01*
X188859343Y-186385771D01*
X189002200Y-186314343D01*
X189073628Y-186171486D01*
X189073628Y-186100057D01*
X189002200Y-185957200D01*
X188859343Y-185885771D01*
X188645057Y-185885771D01*
X188502200Y-185814343D01*
X188430771Y-185671486D01*
X188430771Y-185600057D01*
X188502200Y-185457200D01*
X188645057Y-185385771D01*
X188859343Y-185385771D01*
X189002200Y-185457200D01*
X189716486Y-186385771D02*
X189716486Y-184885771D01*
X190359343Y-186385771D02*
X190359343Y-185600057D01*
X190287914Y-185457200D01*
X190145057Y-185385771D01*
X189930772Y-185385771D01*
X189787914Y-185457200D01*
X189716486Y-185528629D01*
X191073629Y-186385771D02*
X191073629Y-185385771D01*
X191073629Y-184885771D02*
X191002200Y-184957200D01*
X191073629Y-185028629D01*
X191145057Y-184957200D01*
X191073629Y-184885771D01*
X191073629Y-185028629D01*
X192359343Y-186314343D02*
X192216486Y-186385771D01*
X191930772Y-186385771D01*
X191787915Y-186314343D01*
X191716486Y-186171486D01*
X191716486Y-185600057D01*
X191787915Y-185457200D01*
X191930772Y-185385771D01*
X192216486Y-185385771D01*
X192359343Y-185457200D01*
X192430772Y-185600057D01*
X192430772Y-185742914D01*
X191716486Y-185885771D01*
X193287915Y-186385771D02*
X193145057Y-186314343D01*
X193073629Y-186171486D01*
X193073629Y-184885771D01*
X194502200Y-186385771D02*
X194502200Y-184885771D01*
X194502200Y-186314343D02*
X194359343Y-186385771D01*
X194073629Y-186385771D01*
X193930771Y-186314343D01*
X193859343Y-186242914D01*
X193787914Y-186100057D01*
X193787914Y-185671486D01*
X193859343Y-185528629D01*
X193930771Y-185457200D01*
X194073629Y-185385771D01*
X194359343Y-185385771D01*
X194502200Y-185457200D01*
X195216486Y-186242914D02*
X195287914Y-186314343D01*
X195216486Y-186385771D01*
X195145057Y-186314343D01*
X195216486Y-186242914D01*
X195216486Y-186385771D01*
X195930772Y-186385771D02*
X195930772Y-184885771D01*
X196073629Y-185814343D02*
X196502200Y-186385771D01*
X196502200Y-185385771D02*
X195930772Y-185957200D01*
X197145058Y-186385771D02*
X197145058Y-185385771D01*
X197145058Y-184885771D02*
X197073629Y-184957200D01*
X197145058Y-185028629D01*
X197216486Y-184957200D01*
X197145058Y-184885771D01*
X197145058Y-185028629D01*
X198502201Y-186314343D02*
X198359344Y-186385771D01*
X198073630Y-186385771D01*
X197930772Y-186314343D01*
X197859344Y-186242914D01*
X197787915Y-186100057D01*
X197787915Y-185671486D01*
X197859344Y-185528629D01*
X197930772Y-185457200D01*
X198073630Y-185385771D01*
X198359344Y-185385771D01*
X198502201Y-185457200D01*
X199787915Y-186385771D02*
X199787915Y-185600057D01*
X199716486Y-185457200D01*
X199573629Y-185385771D01*
X199287915Y-185385771D01*
X199145058Y-185457200D01*
X199787915Y-186314343D02*
X199645058Y-186385771D01*
X199287915Y-186385771D01*
X199145058Y-186314343D01*
X199073629Y-186171486D01*
X199073629Y-186028629D01*
X199145058Y-185885771D01*
X199287915Y-185814343D01*
X199645058Y-185814343D01*
X199787915Y-185742914D01*
X201145058Y-186385771D02*
X201145058Y-184885771D01*
X201145058Y-186314343D02*
X201002201Y-186385771D01*
X200716487Y-186385771D01*
X200573629Y-186314343D01*
X200502201Y-186242914D01*
X200430772Y-186100057D01*
X200430772Y-185671486D01*
X200502201Y-185528629D01*
X200573629Y-185457200D01*
X200716487Y-185385771D01*
X201002201Y-185385771D01*
X201145058Y-185457200D01*
X201502201Y-186528629D02*
X202645058Y-186528629D01*
X203002201Y-185385771D02*
X203002201Y-186885771D01*
X203002201Y-185457200D02*
X203145058Y-185385771D01*
X203430772Y-185385771D01*
X203573629Y-185457200D01*
X203645058Y-185528629D01*
X203716487Y-185671486D01*
X203716487Y-186100057D01*
X203645058Y-186242914D01*
X203573629Y-186314343D01*
X203430772Y-186385771D01*
X203145058Y-186385771D01*
X203002201Y-186314343D01*
X205002201Y-186314343D02*
X204859344Y-186385771D01*
X204573630Y-186385771D01*
X204430772Y-186314343D01*
X204359344Y-186242914D01*
X204287915Y-186100057D01*
X204287915Y-185671486D01*
X204359344Y-185528629D01*
X204430772Y-185457200D01*
X204573630Y-185385771D01*
X204859344Y-185385771D01*
X205002201Y-185457200D01*
X205645058Y-186385771D02*
X205645058Y-184885771D01*
X205645058Y-185457200D02*
X205787915Y-185385771D01*
X206073629Y-185385771D01*
X206216486Y-185457200D01*
X206287915Y-185528629D01*
X206359344Y-185671486D01*
X206359344Y-186100057D01*
X206287915Y-186242914D01*
X206216486Y-186314343D01*
X206073629Y-186385771D01*
X205787915Y-186385771D01*
X205645058Y-186314343D01*
D10*
D11*
X177002200Y-181507200D02*
X285002200Y-181507200D01*
D10*
D11*
X178287914Y-183614343D02*
X178502200Y-183685771D01*
X178859343Y-183685771D01*
X179002200Y-183614343D01*
X179073629Y-183542914D01*
X179145057Y-183400057D01*
X179145057Y-183257200D01*
X179073629Y-183114343D01*
X179002200Y-183042914D01*
X178859343Y-182971486D01*
X178573629Y-182900057D01*
X178430771Y-182828629D01*
X178359343Y-182757200D01*
X178287914Y-182614343D01*
X178287914Y-182471486D01*
X178359343Y-182328629D01*
X178430771Y-182257200D01*
X178573629Y-182185771D01*
X178930771Y-182185771D01*
X179145057Y-182257200D01*
X179787914Y-183685771D02*
X179787914Y-182185771D01*
X180430771Y-183685771D02*
X180430771Y-182900057D01*
X180359342Y-182757200D01*
X180216485Y-182685771D01*
X180002200Y-182685771D01*
X179859342Y-182757200D01*
X179787914Y-182828629D01*
X181716485Y-183614343D02*
X181573628Y-183685771D01*
X181287914Y-183685771D01*
X181145057Y-183614343D01*
X181073628Y-183471486D01*
X181073628Y-182900057D01*
X181145057Y-182757200D01*
X181287914Y-182685771D01*
X181573628Y-182685771D01*
X181716485Y-182757200D01*
X181787914Y-182900057D01*
X181787914Y-183042914D01*
X181073628Y-183185771D01*
X183002199Y-183614343D02*
X182859342Y-183685771D01*
X182573628Y-183685771D01*
X182430771Y-183614343D01*
X182359342Y-183471486D01*
X182359342Y-182900057D01*
X182430771Y-182757200D01*
X182573628Y-182685771D01*
X182859342Y-182685771D01*
X183002199Y-182757200D01*
X183073628Y-182900057D01*
X183073628Y-183042914D01*
X182359342Y-183185771D01*
X183502199Y-182685771D02*
X184073628Y-182685771D01*
X183716485Y-182185771D02*
X183716485Y-183471486D01*
X183787913Y-183614343D01*
X183930771Y-183685771D01*
X184073628Y-183685771D01*
X184573628Y-183542914D02*
X184645056Y-183614343D01*
X184573628Y-183685771D01*
X184502199Y-183614343D01*
X184573628Y-183542914D01*
X184573628Y-183685771D01*
X184573628Y-182757200D02*
X184645056Y-182828629D01*
X184573628Y-182900057D01*
X184502199Y-182828629D01*
X184573628Y-182757200D01*
X184573628Y-182900057D01*
D10*
D11*
X197002200Y-191507200D02*
X197002200Y-194507200D01*
D10*
D11*
X261002200Y-191507200D02*
X261002200Y-198007200D01*
D14*
X166370000Y-101600000D03*
D15*
X168910000Y-101600000D03*
X166370000Y-104140000D03*
X168910000Y-104140000D03*
X166370000Y-106680000D03*
X168910000Y-106680000D03*
X166370000Y-109220000D03*
X168910000Y-109220000D03*
X166370000Y-111760000D03*
X168910000Y-111760000D03*
X166370000Y-114300000D03*
X168910000Y-114300000D03*
X166370000Y-116840000D03*
X168910000Y-116840000D03*
X166370000Y-119380000D03*
X168910000Y-119380000D03*
X166370000Y-121920000D03*
X168910000Y-121920000D03*
X166370000Y-124460000D03*
X168910000Y-124460000D03*
X166370000Y-127000000D03*
X168910000Y-127000000D03*
X166370000Y-129540000D03*
X168910000Y-129540000D03*
X166370000Y-132080000D03*
X168910000Y-132080000D03*
X166370000Y-134620000D03*
X168910000Y-134620000D03*
X166370000Y-137160000D03*
X168910000Y-137160000D03*
X166370000Y-139700000D03*
X168910000Y-139700000D03*
X166370000Y-142240000D03*
X168910000Y-142240000D03*
X166370000Y-144780000D03*
X168910000Y-144780000D03*
X166370000Y-147320000D03*
X168910000Y-147320000D03*
X166370000Y-149860000D03*
X168910000Y-149860000D03*
D14*
X150622000Y-142240000D03*
D15*
X150622000Y-139700000D03*
X153162000Y-142240000D03*
X153162000Y-139700000D03*
X155702000Y-142240000D03*
X155702000Y-139700000D03*
D16*
X159004000Y-114300000D03*
X150368000Y-128270000D03*
X160782000Y-114300000D03*
X160782000Y-116332000D03*
X148844000Y-121920000D03*
D12*
X174625000Y-92837000D02*
X174625000Y-97663000D01*
X177038000Y-95250000D02*
X172212000Y-95250000D01*
X148463000Y-95250000D02*
X143637000Y-95250000D01*
X145923000Y-97663000D02*
X145923000Y-92837000D01*
X148463000Y-156210000D02*
X143637000Y-156210000D01*
X146050000Y-153797000D02*
X146050000Y-158623000D01*
X172212000Y-156210000D02*
X177038000Y-156210000D01*
X174625000Y-153797000D02*
X174625000Y-158623000D01*
X147743999Y-136821999D02*
X147743999Y-121222601D01*
X148496500Y-120470100D02*
X156156400Y-120470100D01*
X150622000Y-139700000D02*
X147743999Y-136821999D01*
X147743999Y-121222601D02*
X148496500Y-120470100D01*
X156156400Y-120470100D02*
X164920100Y-120470100D01*
X164920100Y-120470100D02*
X166243000Y-121793000D01*
X166243000Y-121793000D02*
X166370000Y-121920000D01*
X166370000Y-101600000D02*
X165156100Y-101600000D01*
X156156400Y-110599700D02*
X165156100Y-101600000D01*
X156156400Y-120470100D02*
X156156400Y-110599700D01*
X166370000Y-149860000D02*
X167640000Y-148590000D01*
X167640000Y-142296100D02*
X167696100Y-142240000D01*
X167640000Y-148590000D02*
X167640000Y-142296100D01*
X168910000Y-137160000D02*
X168783000Y-137160000D01*
X168783000Y-137160000D02*
X167640000Y-138303000D01*
X167640000Y-138303000D02*
X167640000Y-140970000D01*
X167640000Y-140970000D02*
X167640000Y-141097000D01*
X155702000Y-139700000D02*
X156915900Y-139700000D01*
X156915900Y-139700000D02*
X158185900Y-140970000D01*
X158185900Y-140970000D02*
X167640000Y-140970000D01*
X167640000Y-140970000D02*
X167640000Y-142183900D01*
X167640000Y-142183900D02*
X167696100Y-142240000D01*
X168910000Y-142240000D02*
X167696100Y-142240000D01*
X166370000Y-111760000D02*
X166370000Y-111049100D01*
X166370000Y-111049100D02*
X167640000Y-109779100D01*
X167640000Y-109779100D02*
X167640000Y-108204000D01*
X167640000Y-108204000D02*
X168910000Y-106934000D01*
X168910000Y-106934000D02*
X168910000Y-106807000D01*
X168910000Y-106807000D02*
X168910000Y-106680000D01*
X168910000Y-124460000D02*
X167640000Y-123190000D01*
X167640000Y-123190000D02*
X167640000Y-118364000D01*
X167640000Y-118364000D02*
X168910000Y-117094000D01*
X168910000Y-117094000D02*
X168910000Y-116840000D01*
X159753999Y-113550001D02*
X159004000Y-114300000D01*
X161544000Y-111760000D02*
X159753999Y-113550001D01*
X166370000Y-111760000D02*
X161544000Y-111760000D01*
X153162000Y-142240000D02*
X151892000Y-140970000D01*
X151892000Y-140970000D02*
X151892000Y-129794000D01*
X151117999Y-129019999D02*
X150368000Y-128270000D01*
X151892000Y-129794000D02*
X151117999Y-129019999D01*
X155702000Y-142240000D02*
X155575000Y-142240000D01*
X155575000Y-142240000D02*
X155575000Y-142113000D01*
X155575000Y-142113000D02*
X154432000Y-140970000D01*
X154432000Y-140970000D02*
X154432000Y-138176000D01*
X154432000Y-138176000D02*
X159258000Y-133350000D01*
X159258000Y-133350000D02*
X167640000Y-133350000D01*
X167640000Y-133350000D02*
X168910000Y-132080000D01*
X168910000Y-109220000D02*
X168910000Y-109601000D01*
X167005000Y-113030000D02*
X162052000Y-113030000D01*
X168910000Y-109601000D02*
X167640000Y-110871000D01*
X167640000Y-110871000D02*
X167640000Y-112395000D01*
X167640000Y-112395000D02*
X167005000Y-113030000D01*
X162052000Y-113030000D02*
X161531999Y-113550001D01*
X161531999Y-113550001D02*
X160782000Y-114300000D01*
X168910000Y-111760000D02*
X168910000Y-112141000D01*
X165354000Y-115570000D02*
X163957000Y-114173000D01*
X168910000Y-112141000D02*
X167640000Y-113411000D01*
X167132000Y-115570000D02*
X165354000Y-115570000D01*
X167640000Y-113411000D02*
X167640000Y-115062000D01*
X167640000Y-115062000D02*
X167132000Y-115570000D01*
X163957000Y-114173000D02*
X162941000Y-114173000D01*
X162941000Y-114173000D02*
X161531999Y-115582001D01*
X161531999Y-115582001D02*
X160782000Y-116332000D01*
X168910000Y-129540000D02*
X167640000Y-128270000D01*
X167640000Y-128270000D02*
X167640000Y-126238000D01*
X167640000Y-126238000D02*
X167132000Y-125730000D01*
X167132000Y-125730000D02*
X165608000Y-125730000D01*
X165608000Y-125730000D02*
X164719000Y-124841000D01*
X164719000Y-124841000D02*
X164719000Y-121920000D01*
X163957000Y-121158000D02*
X149606000Y-121158000D01*
X164719000Y-121920000D02*
X163957000Y-121158000D01*
X149606000Y-121158000D02*
X148844000Y-121920000D01*
D17*
G36*
X172477184Y-93812163D02*
X172090441Y-94743545D01*
X172089561Y-95752031D01*
X172474678Y-96684086D01*
X173187163Y-97397816D01*
X174118545Y-97784559D01*
X175127031Y-97785439D01*
X176059086Y-97400322D01*
X176455000Y-97005099D01*
X176455000Y-154455032D01*
X176062837Y-154062184D01*
X175131455Y-153675441D01*
X174122969Y-153674561D01*
X173190914Y-154059678D01*
X172477184Y-154772163D01*
X172090441Y-155703545D01*
X172089561Y-156712031D01*
X172474678Y-157644086D01*
X172869901Y-158040000D01*
X147804968Y-158040000D01*
X148197816Y-157647837D01*
X148584559Y-156716455D01*
X148585439Y-155707969D01*
X148200322Y-154775914D01*
X147487837Y-154062184D01*
X146556455Y-153675441D01*
X145547969Y-153674561D01*
X144615914Y-154059678D01*
X144220000Y-154454901D01*
X144220000Y-150219026D01*
X164915042Y-150219026D01*
X165087312Y-150634947D01*
X165481510Y-151066821D01*
X166010973Y-151314968D01*
X166243000Y-151194469D01*
X166243000Y-149987000D01*
X165036183Y-149987000D01*
X164915042Y-150219026D01*
X144220000Y-150219026D01*
X144220000Y-121222601D01*
X146958999Y-121222601D01*
X146958999Y-136821999D01*
X147018754Y-137122406D01*
X147188920Y-137377078D01*
X149182976Y-139371134D01*
X149123400Y-139670641D01*
X149123400Y-139729359D01*
X149237474Y-140302848D01*
X149548574Y-140768442D01*
X149523083Y-140773238D01*
X149306959Y-140912310D01*
X149161969Y-141124510D01*
X149110960Y-141376400D01*
X149110960Y-143103600D01*
X149155238Y-143338917D01*
X149294310Y-143555041D01*
X149506510Y-143700031D01*
X149758400Y-143751040D01*
X151485600Y-143751040D01*
X151720917Y-143706762D01*
X151937041Y-143567690D01*
X152082031Y-143355490D01*
X152090864Y-143311869D01*
X152102330Y-143329029D01*
X152588511Y-143653885D01*
X153162000Y-143767959D01*
X153735489Y-143653885D01*
X154221670Y-143329029D01*
X154432000Y-143014248D01*
X154642330Y-143329029D01*
X155128511Y-143653885D01*
X155702000Y-143767959D01*
X156275489Y-143653885D01*
X156761670Y-143329029D01*
X157086526Y-142842848D01*
X157200600Y-142269359D01*
X157200600Y-142210641D01*
X157086526Y-141637152D01*
X156761670Y-141150971D01*
X156490839Y-140970008D01*
X156908821Y-140588490D01*
X157156968Y-140059027D01*
X157036469Y-139827000D01*
X155829000Y-139827000D01*
X155829000Y-139847000D01*
X155575000Y-139847000D01*
X155575000Y-139827000D01*
X155555000Y-139827000D01*
X155555000Y-139573000D01*
X155575000Y-139573000D01*
X155575000Y-138366183D01*
X155829000Y-138366183D01*
X155829000Y-139573000D01*
X157036469Y-139573000D01*
X157156968Y-139340973D01*
X156908821Y-138811510D01*
X156476947Y-138417312D01*
X156061026Y-138245042D01*
X155829000Y-138366183D01*
X155575000Y-138366183D01*
X155428476Y-138289682D01*
X159583158Y-134135000D01*
X164938513Y-134135000D01*
X164842041Y-134620000D01*
X164956115Y-135193489D01*
X165280971Y-135679670D01*
X165595752Y-135890000D01*
X165280971Y-136100330D01*
X164956115Y-136586511D01*
X164842041Y-137160000D01*
X164956115Y-137733489D01*
X165280971Y-138219670D01*
X165595752Y-138430000D01*
X165280971Y-138640330D01*
X164956115Y-139126511D01*
X164842041Y-139700000D01*
X164956115Y-140273489D01*
X165280971Y-140759670D01*
X165595752Y-140970000D01*
X165280971Y-141180330D01*
X164956115Y-141666511D01*
X164842041Y-142240000D01*
X164956115Y-142813489D01*
X165280971Y-143299670D01*
X165595752Y-143510000D01*
X165280971Y-143720330D01*
X164956115Y-144206511D01*
X164842041Y-144780000D01*
X164956115Y-145353489D01*
X165280971Y-145839670D01*
X165595752Y-146050000D01*
X165280971Y-146260330D01*
X164956115Y-146746511D01*
X164842041Y-147320000D01*
X164956115Y-147893489D01*
X165280971Y-148379670D01*
X165604228Y-148595664D01*
X165481510Y-148653179D01*
X165087312Y-149085053D01*
X164915042Y-149500974D01*
X165036183Y-149733000D01*
X166243000Y-149733000D01*
X166243000Y-149713000D01*
X166497000Y-149713000D01*
X166497000Y-149733000D01*
X166517000Y-149733000D01*
X166517000Y-149987000D01*
X166497000Y-149987000D01*
X166497000Y-151194469D01*
X166729027Y-151314968D01*
X167258490Y-151066821D01*
X167640008Y-150648839D01*
X167820971Y-150919670D01*
X168307152Y-151244526D01*
X168880641Y-151358600D01*
X168939359Y-151358600D01*
X169512848Y-151244526D01*
X169999029Y-150919670D01*
X170323885Y-150433489D01*
X170437959Y-149860000D01*
X170323885Y-149286511D01*
X169999029Y-148800330D01*
X169684248Y-148590000D01*
X169999029Y-148379670D01*
X170323885Y-147893489D01*
X170437959Y-147320000D01*
X170323885Y-146746511D01*
X169999029Y-146260330D01*
X169684248Y-146050000D01*
X169999029Y-145839670D01*
X170323885Y-145353489D01*
X170437959Y-144780000D01*
X170323885Y-144206511D01*
X169999029Y-143720330D01*
X169675772Y-143504336D01*
X169798490Y-143446821D01*
X170192688Y-143014947D01*
X170364958Y-142599026D01*
X170243817Y-142367000D01*
X169037000Y-142367000D01*
X169037000Y-142387000D01*
X168783000Y-142387000D01*
X168783000Y-142367000D01*
X168763000Y-142367000D01*
X168763000Y-142113000D01*
X168783000Y-142113000D01*
X168783000Y-142093000D01*
X169037000Y-142093000D01*
X169037000Y-142113000D01*
X170243817Y-142113000D01*
X170364958Y-141880974D01*
X170192688Y-141465053D01*
X169798490Y-141033179D01*
X169675772Y-140975664D01*
X169999029Y-140759670D01*
X170323885Y-140273489D01*
X170437959Y-139700000D01*
X170323885Y-139126511D01*
X169999029Y-138640330D01*
X169675772Y-138424336D01*
X169798490Y-138366821D01*
X170192688Y-137934947D01*
X170364958Y-137519026D01*
X170243817Y-137287000D01*
X169037000Y-137287000D01*
X169037000Y-137307000D01*
X168783000Y-137307000D01*
X168783000Y-137287000D01*
X168763000Y-137287000D01*
X168763000Y-137033000D01*
X168783000Y-137033000D01*
X168783000Y-137013000D01*
X169037000Y-137013000D01*
X169037000Y-137033000D01*
X170243817Y-137033000D01*
X170364958Y-136800974D01*
X170192688Y-136385053D01*
X169798490Y-135953179D01*
X169675772Y-135895664D01*
X169999029Y-135679670D01*
X170323885Y-135193489D01*
X170437959Y-134620000D01*
X170323885Y-134046511D01*
X169999029Y-133560330D01*
X169684248Y-133350000D01*
X169999029Y-133139670D01*
X170323885Y-132653489D01*
X170437959Y-132080000D01*
X170323885Y-131506511D01*
X169999029Y-131020330D01*
X169684248Y-130810000D01*
X169999029Y-130599670D01*
X170323885Y-130113489D01*
X170437959Y-129540000D01*
X170323885Y-128966511D01*
X169999029Y-128480330D01*
X169684248Y-128270000D01*
X169999029Y-128059670D01*
X170323885Y-127573489D01*
X170437959Y-127000000D01*
X170323885Y-126426511D01*
X169999029Y-125940330D01*
X169675772Y-125724336D01*
X169798490Y-125666821D01*
X170192688Y-125234947D01*
X170364958Y-124819026D01*
X170243817Y-124587000D01*
X169037000Y-124587000D01*
X169037000Y-124607000D01*
X168783000Y-124607000D01*
X168783000Y-124587000D01*
X168763000Y-124587000D01*
X168763000Y-124333000D01*
X168783000Y-124333000D01*
X168783000Y-124313000D01*
X169037000Y-124313000D01*
X169037000Y-124333000D01*
X170243817Y-124333000D01*
X170364958Y-124100974D01*
X170192688Y-123685053D01*
X169798490Y-123253179D01*
X169675772Y-123195664D01*
X169999029Y-122979670D01*
X170323885Y-122493489D01*
X170437959Y-121920000D01*
X170323885Y-121346511D01*
X169999029Y-120860330D01*
X169684248Y-120650000D01*
X169999029Y-120439670D01*
X170323885Y-119953489D01*
X170437959Y-119380000D01*
X170323885Y-118806511D01*
X169999029Y-118320330D01*
X169675772Y-118104336D01*
X169798490Y-118046821D01*
X170192688Y-117614947D01*
X170364958Y-117199026D01*
X170243817Y-116967000D01*
X169037000Y-116967000D01*
X169037000Y-116987000D01*
X168783000Y-116987000D01*
X168783000Y-116967000D01*
X168763000Y-116967000D01*
X168763000Y-116713000D01*
X168783000Y-116713000D01*
X168783000Y-116693000D01*
X169037000Y-116693000D01*
X169037000Y-116713000D01*
X170243817Y-116713000D01*
X170364958Y-116480974D01*
X170192688Y-116065053D01*
X169798490Y-115633179D01*
X169675772Y-115575664D01*
X169999029Y-115359670D01*
X170323885Y-114873489D01*
X170437959Y-114300000D01*
X170323885Y-113726511D01*
X169999029Y-113240330D01*
X169684248Y-113030000D01*
X169999029Y-112819670D01*
X170323885Y-112333489D01*
X170437959Y-111760000D01*
X170323885Y-111186511D01*
X169999029Y-110700330D01*
X169684248Y-110490000D01*
X169999029Y-110279670D01*
X170323885Y-109793489D01*
X170437959Y-109220000D01*
X170323885Y-108646511D01*
X169999029Y-108160330D01*
X169675772Y-107944336D01*
X169798490Y-107886821D01*
X170192688Y-107454947D01*
X170364958Y-107039026D01*
X170243817Y-106807000D01*
X169037000Y-106807000D01*
X169037000Y-106827000D01*
X168783000Y-106827000D01*
X168783000Y-106807000D01*
X168763000Y-106807000D01*
X168763000Y-106553000D01*
X168783000Y-106553000D01*
X168783000Y-106533000D01*
X169037000Y-106533000D01*
X169037000Y-106553000D01*
X170243817Y-106553000D01*
X170364958Y-106320974D01*
X170192688Y-105905053D01*
X169798490Y-105473179D01*
X169675772Y-105415664D01*
X169999029Y-105199670D01*
X170323885Y-104713489D01*
X170437959Y-104140000D01*
X170323885Y-103566511D01*
X169999029Y-103080330D01*
X169684248Y-102870000D01*
X169999029Y-102659670D01*
X170323885Y-102173489D01*
X170437959Y-101600000D01*
X170323885Y-101026511D01*
X169999029Y-100540330D01*
X169512848Y-100215474D01*
X168939359Y-100101400D01*
X168880641Y-100101400D01*
X168307152Y-100215474D01*
X167841558Y-100526574D01*
X167836762Y-100501083D01*
X167697690Y-100284959D01*
X167485490Y-100139969D01*
X167233600Y-100088960D01*
X165506400Y-100088960D01*
X165271083Y-100133238D01*
X165054959Y-100272310D01*
X164909969Y-100484510D01*
X164858960Y-100736400D01*
X164858960Y-100874105D01*
X164855694Y-100874755D01*
X164601021Y-101044921D01*
X155601321Y-110044621D01*
X155431155Y-110299293D01*
X155425794Y-110326245D01*
X155371400Y-110599700D01*
X155371400Y-119685100D01*
X148496500Y-119685100D01*
X148196093Y-119744855D01*
X147941421Y-119915021D01*
X147188920Y-120667522D01*
X147018754Y-120922194D01*
X147018754Y-120922195D01*
X146958999Y-121222601D01*
X144220000Y-121222601D01*
X144220000Y-97004968D01*
X144612163Y-97397816D01*
X145543545Y-97784559D01*
X146552031Y-97785439D01*
X147484086Y-97400322D01*
X148197816Y-96687837D01*
X148584559Y-95756455D01*
X148585439Y-94747969D01*
X148200322Y-93815914D01*
X147805099Y-93420000D01*
X172870032Y-93420000D01*
X172477184Y-93812163D01*
X172477184Y-93812163D01*
G37*
X172477184Y-93812163D02*
X172090441Y-94743545D01*
X172089561Y-95752031D01*
X172474678Y-96684086D01*
X173187163Y-97397816D01*
X174118545Y-97784559D01*
X175127031Y-97785439D01*
X176059086Y-97400322D01*
X176455000Y-97005099D01*
X176455000Y-154455032D01*
X176062837Y-154062184D01*
X175131455Y-153675441D01*
X174122969Y-153674561D01*
X173190914Y-154059678D01*
X172477184Y-154772163D01*
X172090441Y-155703545D01*
X172089561Y-156712031D01*
X172474678Y-157644086D01*
X172869901Y-158040000D01*
X147804968Y-158040000D01*
X148197816Y-157647837D01*
X148584559Y-156716455D01*
X148585439Y-155707969D01*
X148200322Y-154775914D01*
X147487837Y-154062184D01*
X146556455Y-153675441D01*
X145547969Y-153674561D01*
X144615914Y-154059678D01*
X144220000Y-154454901D01*
X144220000Y-150219026D01*
X164915042Y-150219026D01*
X165087312Y-150634947D01*
X165481510Y-151066821D01*
X166010973Y-151314968D01*
X166243000Y-151194469D01*
X166243000Y-149987000D01*
X165036183Y-149987000D01*
X164915042Y-150219026D01*
X144220000Y-150219026D01*
X144220000Y-121222601D01*
X146958999Y-121222601D01*
X146958999Y-136821999D01*
X147018754Y-137122406D01*
X147188920Y-137377078D01*
X149182976Y-139371134D01*
X149123400Y-139670641D01*
X149123400Y-139729359D01*
X149237474Y-140302848D01*
X149548574Y-140768442D01*
X149523083Y-140773238D01*
X149306959Y-140912310D01*
X149161969Y-141124510D01*
X149110960Y-141376400D01*
X149110960Y-143103600D01*
X149155238Y-143338917D01*
X149294310Y-143555041D01*
X149506510Y-143700031D01*
X149758400Y-143751040D01*
X151485600Y-143751040D01*
X151720917Y-143706762D01*
X151937041Y-143567690D01*
X152082031Y-143355490D01*
X152090864Y-143311869D01*
X152102330Y-143329029D01*
X152588511Y-143653885D01*
X153162000Y-143767959D01*
X153735489Y-143653885D01*
X154221670Y-143329029D01*
X154432000Y-143014248D01*
X154642330Y-143329029D01*
X155128511Y-143653885D01*
X155702000Y-143767959D01*
X156275489Y-143653885D01*
X156761670Y-143329029D01*
X157086526Y-142842848D01*
X157200600Y-142269359D01*
X157200600Y-142210641D01*
X157086526Y-141637152D01*
X156761670Y-141150971D01*
X156490839Y-140970008D01*
X156908821Y-140588490D01*
X157156968Y-140059027D01*
X157036469Y-139827000D01*
X155829000Y-139827000D01*
X155829000Y-139847000D01*
X155575000Y-139847000D01*
X155575000Y-139827000D01*
X155555000Y-139827000D01*
X155555000Y-139573000D01*
X155575000Y-139573000D01*
X155575000Y-138366183D01*
X155829000Y-138366183D01*
X155829000Y-139573000D01*
X157036469Y-139573000D01*
X157156968Y-139340973D01*
X156908821Y-138811510D01*
X156476947Y-138417312D01*
X156061026Y-138245042D01*
X155829000Y-138366183D01*
X155575000Y-138366183D01*
X155428476Y-138289682D01*
X159583158Y-134135000D01*
X164938513Y-134135000D01*
X164842041Y-134620000D01*
X164956115Y-135193489D01*
X165280971Y-135679670D01*
X165595752Y-135890000D01*
X165280971Y-136100330D01*
X164956115Y-136586511D01*
X164842041Y-137160000D01*
X164956115Y-137733489D01*
X165280971Y-138219670D01*
X165595752Y-138430000D01*
X165280971Y-138640330D01*
X164956115Y-139126511D01*
X164842041Y-139700000D01*
X164956115Y-140273489D01*
X165280971Y-140759670D01*
X165595752Y-140970000D01*
X165280971Y-141180330D01*
X164956115Y-141666511D01*
X164842041Y-142240000D01*
X164956115Y-142813489D01*
X165280971Y-143299670D01*
X165595752Y-143510000D01*
X165280971Y-143720330D01*
X164956115Y-144206511D01*
X164842041Y-144780000D01*
X164956115Y-145353489D01*
X165280971Y-145839670D01*
X165595752Y-146050000D01*
X165280971Y-146260330D01*
X164956115Y-146746511D01*
X164842041Y-147320000D01*
X164956115Y-147893489D01*
X165280971Y-148379670D01*
X165604228Y-148595664D01*
X165481510Y-148653179D01*
X165087312Y-149085053D01*
X164915042Y-149500974D01*
X165036183Y-149733000D01*
X166243000Y-149733000D01*
X166243000Y-149713000D01*
X166497000Y-149713000D01*
X166497000Y-149733000D01*
X166517000Y-149733000D01*
X166517000Y-149987000D01*
X166497000Y-149987000D01*
X166497000Y-151194469D01*
X166729027Y-151314968D01*
X167258490Y-151066821D01*
X167640008Y-150648839D01*
X167820971Y-150919670D01*
X168307152Y-151244526D01*
X168880641Y-151358600D01*
X168939359Y-151358600D01*
X169512848Y-151244526D01*
X169999029Y-150919670D01*
X170323885Y-150433489D01*
X170437959Y-149860000D01*
X170323885Y-149286511D01*
X169999029Y-148800330D01*
X169684248Y-148590000D01*
X169999029Y-148379670D01*
X170323885Y-147893489D01*
X170437959Y-147320000D01*
X170323885Y-146746511D01*
X169999029Y-146260330D01*
X169684248Y-146050000D01*
X169999029Y-145839670D01*
X170323885Y-145353489D01*
X170437959Y-144780000D01*
X170323885Y-144206511D01*
X169999029Y-143720330D01*
X169675772Y-143504336D01*
X169798490Y-143446821D01*
X170192688Y-143014947D01*
X170364958Y-142599026D01*
X170243817Y-142367000D01*
X169037000Y-142367000D01*
X169037000Y-142387000D01*
X168783000Y-142387000D01*
X168783000Y-142367000D01*
X168763000Y-142367000D01*
X168763000Y-142113000D01*
X168783000Y-142113000D01*
X168783000Y-142093000D01*
X169037000Y-142093000D01*
X169037000Y-142113000D01*
X170243817Y-142113000D01*
X170364958Y-141880974D01*
X170192688Y-141465053D01*
X169798490Y-141033179D01*
X169675772Y-140975664D01*
X169999029Y-140759670D01*
X170323885Y-140273489D01*
X170437959Y-139700000D01*
X170323885Y-139126511D01*
X169999029Y-138640330D01*
X169675772Y-138424336D01*
X169798490Y-138366821D01*
X170192688Y-137934947D01*
X170364958Y-137519026D01*
X170243817Y-137287000D01*
X169037000Y-137287000D01*
X169037000Y-137307000D01*
X168783000Y-137307000D01*
X168783000Y-137287000D01*
X168763000Y-137287000D01*
X168763000Y-137033000D01*
X168783000Y-137033000D01*
X168783000Y-137013000D01*
X169037000Y-137013000D01*
X169037000Y-137033000D01*
X170243817Y-137033000D01*
X170364958Y-136800974D01*
X170192688Y-136385053D01*
X169798490Y-135953179D01*
X169675772Y-135895664D01*
X169999029Y-135679670D01*
X170323885Y-135193489D01*
X170437959Y-134620000D01*
X170323885Y-134046511D01*
X169999029Y-133560330D01*
X169684248Y-133350000D01*
X169999029Y-133139670D01*
X170323885Y-132653489D01*
X170437959Y-132080000D01*
X170323885Y-131506511D01*
X169999029Y-131020330D01*
X169684248Y-130810000D01*
X169999029Y-130599670D01*
X170323885Y-130113489D01*
X170437959Y-129540000D01*
X170323885Y-128966511D01*
X169999029Y-128480330D01*
X169684248Y-128270000D01*
X169999029Y-128059670D01*
X170323885Y-127573489D01*
X170437959Y-127000000D01*
X170323885Y-126426511D01*
X169999029Y-125940330D01*
X169675772Y-125724336D01*
X169798490Y-125666821D01*
X170192688Y-125234947D01*
X170364958Y-124819026D01*
X170243817Y-124587000D01*
X169037000Y-124587000D01*
X169037000Y-124607000D01*
X168783000Y-124607000D01*
X168783000Y-124587000D01*
X168763000Y-124587000D01*
X168763000Y-124333000D01*
X168783000Y-124333000D01*
X168783000Y-124313000D01*
X169037000Y-124313000D01*
X169037000Y-124333000D01*
X170243817Y-124333000D01*
X170364958Y-124100974D01*
X170192688Y-123685053D01*
X169798490Y-123253179D01*
X169675772Y-123195664D01*
X169999029Y-122979670D01*
X170323885Y-122493489D01*
X170437959Y-121920000D01*
X170323885Y-121346511D01*
X169999029Y-120860330D01*
X169684248Y-120650000D01*
X169999029Y-120439670D01*
X170323885Y-119953489D01*
X170437959Y-119380000D01*
X170323885Y-118806511D01*
X169999029Y-118320330D01*
X169675772Y-118104336D01*
X169798490Y-118046821D01*
X170192688Y-117614947D01*
X170364958Y-117199026D01*
X170243817Y-116967000D01*
X169037000Y-116967000D01*
X169037000Y-116987000D01*
X168783000Y-116987000D01*
X168783000Y-116967000D01*
X168763000Y-116967000D01*
X168763000Y-116713000D01*
X168783000Y-116713000D01*
X168783000Y-116693000D01*
X169037000Y-116693000D01*
X169037000Y-116713000D01*
X170243817Y-116713000D01*
X170364958Y-116480974D01*
X170192688Y-116065053D01*
X169798490Y-115633179D01*
X169675772Y-115575664D01*
X169999029Y-115359670D01*
X170323885Y-114873489D01*
X170437959Y-114300000D01*
X170323885Y-113726511D01*
X169999029Y-113240330D01*
X169684248Y-113030000D01*
X169999029Y-112819670D01*
X170323885Y-112333489D01*
X170437959Y-111760000D01*
X170323885Y-111186511D01*
X169999029Y-110700330D01*
X169684248Y-110490000D01*
X169999029Y-110279670D01*
X170323885Y-109793489D01*
X170437959Y-109220000D01*
X170323885Y-108646511D01*
X169999029Y-108160330D01*
X169675772Y-107944336D01*
X169798490Y-107886821D01*
X170192688Y-107454947D01*
X170364958Y-107039026D01*
X170243817Y-106807000D01*
X169037000Y-106807000D01*
X169037000Y-106827000D01*
X168783000Y-106827000D01*
X168783000Y-106807000D01*
X168763000Y-106807000D01*
X168763000Y-106553000D01*
X168783000Y-106553000D01*
X168783000Y-106533000D01*
X169037000Y-106533000D01*
X169037000Y-106553000D01*
X170243817Y-106553000D01*
X170364958Y-106320974D01*
X170192688Y-105905053D01*
X169798490Y-105473179D01*
X169675772Y-105415664D01*
X169999029Y-105199670D01*
X170323885Y-104713489D01*
X170437959Y-104140000D01*
X170323885Y-103566511D01*
X169999029Y-103080330D01*
X169684248Y-102870000D01*
X169999029Y-102659670D01*
X170323885Y-102173489D01*
X170437959Y-101600000D01*
X170323885Y-101026511D01*
X169999029Y-100540330D01*
X169512848Y-100215474D01*
X168939359Y-100101400D01*
X168880641Y-100101400D01*
X168307152Y-100215474D01*
X167841558Y-100526574D01*
X167836762Y-100501083D01*
X167697690Y-100284959D01*
X167485490Y-100139969D01*
X167233600Y-100088960D01*
X165506400Y-100088960D01*
X165271083Y-100133238D01*
X165054959Y-100272310D01*
X164909969Y-100484510D01*
X164858960Y-100736400D01*
X164858960Y-100874105D01*
X164855694Y-100874755D01*
X164601021Y-101044921D01*
X155601321Y-110044621D01*
X155431155Y-110299293D01*
X155425794Y-110326245D01*
X155371400Y-110599700D01*
X155371400Y-119685100D01*
X148496500Y-119685100D01*
X148196093Y-119744855D01*
X147941421Y-119915021D01*
X147188920Y-120667522D01*
X147018754Y-120922194D01*
X147018754Y-120922195D01*
X146958999Y-121222601D01*
X144220000Y-121222601D01*
X144220000Y-97004968D01*
X144612163Y-97397816D01*
X145543545Y-97784559D01*
X146552031Y-97785439D01*
X147484086Y-97400322D01*
X148197816Y-96687837D01*
X148584559Y-95756455D01*
X148585439Y-94747969D01*
X148200322Y-93815914D01*
X147805099Y-93420000D01*
X172870032Y-93420000D01*
X172477184Y-93812163D01*
G36*
X167820971Y-148379670D02*
X168135752Y-148590000D01*
X167820971Y-148800330D01*
X167640008Y-149071161D01*
X167258490Y-148653179D01*
X167135772Y-148595664D01*
X167459029Y-148379670D01*
X167640000Y-148108828D01*
X167820971Y-148379670D01*
X167820971Y-148379670D01*
G37*
X167820971Y-148379670D02*
X168135752Y-148590000D01*
X167820971Y-148800330D01*
X167640008Y-149071161D01*
X167258490Y-148653179D01*
X167135772Y-148595664D01*
X167459029Y-148379670D01*
X167640000Y-148108828D01*
X167820971Y-148379670D01*
G36*
X167820971Y-140759670D02*
X168144228Y-140975664D01*
X168021510Y-141033179D01*
X167639992Y-141451161D01*
X167459029Y-141180330D01*
X167144248Y-140970000D01*
X167459029Y-140759670D01*
X167640000Y-140488828D01*
X167820971Y-140759670D01*
X167820971Y-140759670D01*
G37*
X167820971Y-140759670D02*
X168144228Y-140975664D01*
X168021510Y-141033179D01*
X167639992Y-141451161D01*
X167459029Y-141180330D01*
X167144248Y-140970000D01*
X167459029Y-140759670D01*
X167640000Y-140488828D01*
X167820971Y-140759670D01*
G36*
X168021510Y-138366821D02*
X168144228Y-138424336D01*
X167820971Y-138640330D01*
X167640000Y-138911172D01*
X167459029Y-138640330D01*
X167144248Y-138430000D01*
X167459029Y-138219670D01*
X167639992Y-137948839D01*
X168021510Y-138366821D01*
X168021510Y-138366821D01*
G37*
X168021510Y-138366821D02*
X168144228Y-138424336D01*
X167820971Y-138640330D01*
X167640000Y-138911172D01*
X167459029Y-138640330D01*
X167144248Y-138430000D01*
X167459029Y-138219670D01*
X167639992Y-137948839D01*
X168021510Y-138366821D01*
G36*
X163934000Y-122245158D02*
X163934000Y-124841000D01*
X163993755Y-125141407D01*
X164163921Y-125396079D01*
X165051540Y-126283698D01*
X164956115Y-126426511D01*
X164842041Y-127000000D01*
X164956115Y-127573489D01*
X165280971Y-128059670D01*
X165595752Y-128270000D01*
X165280971Y-128480330D01*
X164956115Y-128966511D01*
X164842041Y-129540000D01*
X164956115Y-130113489D01*
X165280971Y-130599670D01*
X165604228Y-130815664D01*
X165481510Y-130873179D01*
X165087312Y-131305053D01*
X164915042Y-131720974D01*
X165036183Y-131953000D01*
X166243000Y-131953000D01*
X166243000Y-131933000D01*
X166497000Y-131933000D01*
X166497000Y-131953000D01*
X166517000Y-131953000D01*
X166517000Y-132207000D01*
X166497000Y-132207000D01*
X166497000Y-132227000D01*
X166243000Y-132227000D01*
X166243000Y-132207000D01*
X165036183Y-132207000D01*
X164915042Y-132439026D01*
X164967219Y-132565000D01*
X159258000Y-132565000D01*
X158957594Y-132624755D01*
X158702921Y-132794921D01*
X153876921Y-137620921D01*
X153706755Y-137875593D01*
X153647000Y-138176000D01*
X153647000Y-138268513D01*
X153162000Y-138172041D01*
X152677000Y-138268513D01*
X152677000Y-129794000D01*
X152617245Y-129493594D01*
X152447079Y-129238921D01*
X151752761Y-128544603D01*
X151753240Y-127995715D01*
X151542831Y-127486485D01*
X151153564Y-127096539D01*
X150644702Y-126885241D01*
X150093715Y-126884760D01*
X149584485Y-127095169D01*
X149194539Y-127484436D01*
X148983241Y-127993298D01*
X148982760Y-128544285D01*
X149193169Y-129053515D01*
X149582436Y-129443461D01*
X150091298Y-129654759D01*
X150642285Y-129655240D01*
X150642849Y-129655007D01*
X151107000Y-130119158D01*
X151107000Y-138268513D01*
X150622000Y-138172041D01*
X150273517Y-138241359D01*
X148528999Y-136496841D01*
X148528999Y-123288856D01*
X148567298Y-123304759D01*
X149118285Y-123305240D01*
X149627515Y-123094831D01*
X150017461Y-122705564D01*
X150228759Y-122196702D01*
X150228980Y-121943000D01*
X163631842Y-121943000D01*
X163934000Y-122245158D01*
X163934000Y-122245158D01*
G37*
X163934000Y-122245158D02*
X163934000Y-124841000D01*
X163993755Y-125141407D01*
X164163921Y-125396079D01*
X165051540Y-126283698D01*
X164956115Y-126426511D01*
X164842041Y-127000000D01*
X164956115Y-127573489D01*
X165280971Y-128059670D01*
X165595752Y-128270000D01*
X165280971Y-128480330D01*
X164956115Y-128966511D01*
X164842041Y-129540000D01*
X164956115Y-130113489D01*
X165280971Y-130599670D01*
X165604228Y-130815664D01*
X165481510Y-130873179D01*
X165087312Y-131305053D01*
X164915042Y-131720974D01*
X165036183Y-131953000D01*
X166243000Y-131953000D01*
X166243000Y-131933000D01*
X166497000Y-131933000D01*
X166497000Y-131953000D01*
X166517000Y-131953000D01*
X166517000Y-132207000D01*
X166497000Y-132207000D01*
X166497000Y-132227000D01*
X166243000Y-132227000D01*
X166243000Y-132207000D01*
X165036183Y-132207000D01*
X164915042Y-132439026D01*
X164967219Y-132565000D01*
X159258000Y-132565000D01*
X158957594Y-132624755D01*
X158702921Y-132794921D01*
X153876921Y-137620921D01*
X153706755Y-137875593D01*
X153647000Y-138176000D01*
X153647000Y-138268513D01*
X153162000Y-138172041D01*
X152677000Y-138268513D01*
X152677000Y-129794000D01*
X152617245Y-129493594D01*
X152447079Y-129238921D01*
X151752761Y-128544603D01*
X151753240Y-127995715D01*
X151542831Y-127486485D01*
X151153564Y-127096539D01*
X150644702Y-126885241D01*
X150093715Y-126884760D01*
X149584485Y-127095169D01*
X149194539Y-127484436D01*
X148983241Y-127993298D01*
X148982760Y-128544285D01*
X149193169Y-129053515D01*
X149582436Y-129443461D01*
X150091298Y-129654759D01*
X150642285Y-129655240D01*
X150642849Y-129655007D01*
X151107000Y-130119158D01*
X151107000Y-138268513D01*
X150622000Y-138172041D01*
X150273517Y-138241359D01*
X148528999Y-136496841D01*
X148528999Y-123288856D01*
X148567298Y-123304759D01*
X149118285Y-123305240D01*
X149627515Y-123094831D01*
X150017461Y-122705564D01*
X150228759Y-122196702D01*
X150228980Y-121943000D01*
X163631842Y-121943000D01*
X163934000Y-122245158D01*
G36*
X167820971Y-122979670D02*
X168144228Y-123195664D01*
X168021510Y-123253179D01*
X167639992Y-123671161D01*
X167459029Y-123400330D01*
X167144248Y-123190000D01*
X167459029Y-122979670D01*
X167640000Y-122708828D01*
X167820971Y-122979670D01*
X167820971Y-122979670D01*
G37*
X167820971Y-122979670D02*
X168144228Y-123195664D01*
X168021510Y-123253179D01*
X167639992Y-123671161D01*
X167459029Y-123400330D01*
X167144248Y-123190000D01*
X167459029Y-122979670D01*
X167640000Y-122708828D01*
X167820971Y-122979670D01*
G36*
X165042310Y-102915041D02*
X165254510Y-103060031D01*
X165298131Y-103068864D01*
X165280971Y-103080330D01*
X164956115Y-103566511D01*
X164842041Y-104140000D01*
X164956115Y-104713489D01*
X165280971Y-105199670D01*
X165595752Y-105410000D01*
X165280971Y-105620330D01*
X164956115Y-106106511D01*
X164842041Y-106680000D01*
X164956115Y-107253489D01*
X165280971Y-107739670D01*
X165595752Y-107950000D01*
X165280971Y-108160330D01*
X164956115Y-108646511D01*
X164842041Y-109220000D01*
X164956115Y-109793489D01*
X165280971Y-110279670D01*
X165604228Y-110495664D01*
X165481510Y-110553179D01*
X165087312Y-110985053D01*
X164915042Y-111400974D01*
X165036183Y-111633000D01*
X166243000Y-111633000D01*
X166243000Y-111613000D01*
X166497000Y-111613000D01*
X166497000Y-111633000D01*
X166517000Y-111633000D01*
X166517000Y-111887000D01*
X166497000Y-111887000D01*
X166497000Y-111907000D01*
X166243000Y-111907000D01*
X166243000Y-111887000D01*
X165036183Y-111887000D01*
X164915042Y-112119026D01*
X164967219Y-112245000D01*
X162052000Y-112245000D01*
X161751594Y-112304755D01*
X161496921Y-112474921D01*
X161496919Y-112474924D01*
X161056603Y-112915239D01*
X160507715Y-112914760D01*
X159998485Y-113125169D01*
X159608539Y-113514436D01*
X159397241Y-114023298D01*
X159396760Y-114574285D01*
X159607169Y-115083515D01*
X159839313Y-115316064D01*
X159608539Y-115546436D01*
X159397241Y-116055298D01*
X159396760Y-116606285D01*
X159607169Y-117115515D01*
X159996436Y-117505461D01*
X160505298Y-117716759D01*
X161056285Y-117717240D01*
X161565515Y-117506831D01*
X161955461Y-117117564D01*
X162166759Y-116608702D01*
X162167240Y-116057715D01*
X162167007Y-116057151D01*
X163266158Y-114958000D01*
X163631842Y-114958000D01*
X164798921Y-116125079D01*
X164972929Y-116241347D01*
X164956115Y-116266511D01*
X164842041Y-116840000D01*
X164956115Y-117413489D01*
X165280971Y-117899670D01*
X165595752Y-118110000D01*
X165280971Y-118320330D01*
X164956115Y-118806511D01*
X164842041Y-119380000D01*
X164902729Y-119685100D01*
X156941400Y-119685100D01*
X156941400Y-110924858D01*
X165006644Y-102859614D01*
X165042310Y-102915041D01*
X165042310Y-102915041D01*
G37*
X165042310Y-102915041D02*
X165254510Y-103060031D01*
X165298131Y-103068864D01*
X165280971Y-103080330D01*
X164956115Y-103566511D01*
X164842041Y-104140000D01*
X164956115Y-104713489D01*
X165280971Y-105199670D01*
X165595752Y-105410000D01*
X165280971Y-105620330D01*
X164956115Y-106106511D01*
X164842041Y-106680000D01*
X164956115Y-107253489D01*
X165280971Y-107739670D01*
X165595752Y-107950000D01*
X165280971Y-108160330D01*
X164956115Y-108646511D01*
X164842041Y-109220000D01*
X164956115Y-109793489D01*
X165280971Y-110279670D01*
X165604228Y-110495664D01*
X165481510Y-110553179D01*
X165087312Y-110985053D01*
X164915042Y-111400974D01*
X165036183Y-111633000D01*
X166243000Y-111633000D01*
X166243000Y-111613000D01*
X166497000Y-111613000D01*
X166497000Y-111633000D01*
X166517000Y-111633000D01*
X166517000Y-111887000D01*
X166497000Y-111887000D01*
X166497000Y-111907000D01*
X166243000Y-111907000D01*
X166243000Y-111887000D01*
X165036183Y-111887000D01*
X164915042Y-112119026D01*
X164967219Y-112245000D01*
X162052000Y-112245000D01*
X161751594Y-112304755D01*
X161496921Y-112474921D01*
X161496919Y-112474924D01*
X161056603Y-112915239D01*
X160507715Y-112914760D01*
X159998485Y-113125169D01*
X159608539Y-113514436D01*
X159397241Y-114023298D01*
X159396760Y-114574285D01*
X159607169Y-115083515D01*
X159839313Y-115316064D01*
X159608539Y-115546436D01*
X159397241Y-116055298D01*
X159396760Y-116606285D01*
X159607169Y-117115515D01*
X159996436Y-117505461D01*
X160505298Y-117716759D01*
X161056285Y-117717240D01*
X161565515Y-117506831D01*
X161955461Y-117117564D01*
X162166759Y-116608702D01*
X162167240Y-116057715D01*
X162167007Y-116057151D01*
X163266158Y-114958000D01*
X163631842Y-114958000D01*
X164798921Y-116125079D01*
X164972929Y-116241347D01*
X164956115Y-116266511D01*
X164842041Y-116840000D01*
X164956115Y-117413489D01*
X165280971Y-117899670D01*
X165595752Y-118110000D01*
X165280971Y-118320330D01*
X164956115Y-118806511D01*
X164842041Y-119380000D01*
X164902729Y-119685100D01*
X156941400Y-119685100D01*
X156941400Y-110924858D01*
X165006644Y-102859614D01*
X165042310Y-102915041D01*
G36*
X168021510Y-118046821D02*
X168144228Y-118104336D01*
X167820971Y-118320330D01*
X167640000Y-118591172D01*
X167459029Y-118320330D01*
X167144248Y-118110000D01*
X167459029Y-117899670D01*
X167639992Y-117628839D01*
X168021510Y-118046821D01*
X168021510Y-118046821D01*
G37*
X168021510Y-118046821D02*
X168144228Y-118104336D01*
X167820971Y-118320330D01*
X167640000Y-118591172D01*
X167459029Y-118320330D01*
X167144248Y-118110000D01*
X167459029Y-117899670D01*
X167639992Y-117628839D01*
X168021510Y-118046821D01*
G36*
X168021510Y-107886821D02*
X168144228Y-107944336D01*
X167820971Y-108160330D01*
X167640000Y-108431172D01*
X167459029Y-108160330D01*
X167144248Y-107950000D01*
X167459029Y-107739670D01*
X167639992Y-107468839D01*
X168021510Y-107886821D01*
X168021510Y-107886821D01*
G37*
X168021510Y-107886821D02*
X168144228Y-107944336D01*
X167820971Y-108160330D01*
X167640000Y-108431172D01*
X167459029Y-108160330D01*
X167144248Y-107950000D01*
X167459029Y-107739670D01*
X167639992Y-107468839D01*
X168021510Y-107886821D01*
M02*
