G04 #@! TF.FileFunction,Copper,L2,Bot,Signal*
%FSLAX46Y46*%
G04 Gerber Fmt 4.6, Leading zero omitted, Abs format (unit mm)*
G04 Created by KiCad (PCBNEW 4.0.7) date 04/13/18 12:15:04*
%MOMM*%
%LPD*%
G01*
G04 APERTURE LIST*
%ADD10C,0.100000*%
%ADD11R,1.727200X1.727200*%
%ADD12O,1.727200X1.727200*%
%ADD13C,3.800000*%
%ADD14C,1.500000*%
%ADD15C,0.300000*%
%ADD16C,0.254000*%
G04 APERTURE END LIST*
D10*
D11*
X166370000Y-101600000D03*
D12*
X168910000Y-101600000D03*
X166370000Y-104140000D03*
X168910000Y-104140000D03*
X166370000Y-106680000D03*
X168910000Y-106680000D03*
X166370000Y-109220000D03*
X168910000Y-109220000D03*
X166370000Y-111760000D03*
X168910000Y-111760000D03*
X166370000Y-114300000D03*
X168910000Y-114300000D03*
X166370000Y-116840000D03*
X168910000Y-116840000D03*
X166370000Y-119380000D03*
X168910000Y-119380000D03*
X166370000Y-121920000D03*
X168910000Y-121920000D03*
X166370000Y-124460000D03*
X168910000Y-124460000D03*
X166370000Y-127000000D03*
X168910000Y-127000000D03*
X166370000Y-129540000D03*
X168910000Y-129540000D03*
X166370000Y-132080000D03*
X168910000Y-132080000D03*
X166370000Y-134620000D03*
X168910000Y-134620000D03*
X166370000Y-137160000D03*
X168910000Y-137160000D03*
X166370000Y-139700000D03*
X168910000Y-139700000D03*
X166370000Y-142240000D03*
X168910000Y-142240000D03*
X166370000Y-144780000D03*
X168910000Y-144780000D03*
X166370000Y-147320000D03*
X168910000Y-147320000D03*
X166370000Y-149860000D03*
X168910000Y-149860000D03*
D11*
X153670000Y-140970000D03*
D12*
X153670000Y-138430000D03*
X156210000Y-140970000D03*
X156210000Y-138430000D03*
X158750000Y-140970000D03*
X158750000Y-138430000D03*
D13*
X174625000Y-95250000D03*
X146050000Y-95250000D03*
X174625000Y-156210000D03*
X146050000Y-156210000D03*
D14*
X153670000Y-144780000D03*
X156845000Y-113665000D03*
X154305008Y-113665000D03*
D15*
X153670000Y-138430000D02*
X153670000Y-137160000D01*
X153670000Y-137160000D02*
X164465000Y-126365000D01*
X164465000Y-126365000D02*
X164465000Y-123825000D01*
X164465000Y-123825000D02*
X166370000Y-121920000D01*
X166370000Y-111760000D02*
X167640000Y-113030000D01*
X167640000Y-113030000D02*
X167640000Y-116158500D01*
X167640000Y-116158500D02*
X168910000Y-117428500D01*
X168910000Y-117428500D02*
X168910000Y-116840000D01*
X168910000Y-124460000D02*
X167640000Y-123190000D01*
X167640000Y-123190000D02*
X167640000Y-118110000D01*
X167640000Y-118110000D02*
X168910000Y-116840000D01*
X166370000Y-132080000D02*
X167640000Y-133350000D01*
X167640000Y-133350000D02*
X167640000Y-135255000D01*
X167640000Y-135255000D02*
X168910000Y-136525000D01*
X168910000Y-136525000D02*
X168910000Y-137160000D01*
X168910000Y-142240000D02*
X167640000Y-140970000D01*
X167640000Y-140970000D02*
X167640000Y-138430000D01*
X167640000Y-138430000D02*
X168910000Y-137160000D01*
X153670000Y-140970000D02*
X153670000Y-140335000D01*
X153670000Y-140335000D02*
X154940000Y-139065000D01*
X154940000Y-139065000D02*
X154940000Y-137216100D01*
X154940000Y-137216100D02*
X165156100Y-127000000D01*
X165156100Y-127000000D02*
X166370000Y-127000000D01*
X156210000Y-140970000D02*
X156210000Y-140335000D01*
X156210000Y-140335000D02*
X157480000Y-139065000D01*
X165156100Y-129540000D02*
X166370000Y-129540000D01*
X157480000Y-139065000D02*
X157480000Y-137216100D01*
X157480000Y-137216100D02*
X165156100Y-129540000D01*
X153670000Y-144780000D02*
X154940000Y-143510000D01*
X156210000Y-139065000D02*
X156210000Y-138430000D01*
X154940000Y-143510000D02*
X154940000Y-140335000D01*
X154940000Y-140335000D02*
X156210000Y-139065000D01*
X156210000Y-138430000D02*
X156210000Y-137216100D01*
X156210000Y-137216100D02*
X165156100Y-128270000D01*
X165156100Y-128270000D02*
X167005000Y-128270000D01*
X167005000Y-128270000D02*
X167640000Y-127635000D01*
X167640000Y-127635000D02*
X167640000Y-125730000D01*
X167640000Y-125730000D02*
X166370000Y-124460000D01*
X168910000Y-132080000D02*
X167640000Y-130810000D01*
X167640000Y-130810000D02*
X165100000Y-130810000D01*
X165100000Y-130810000D02*
X160076000Y-135834000D01*
X160076000Y-135834000D02*
X160076000Y-139644000D01*
X160076000Y-139644000D02*
X158750000Y-140970000D01*
X168910000Y-109220000D02*
X167640000Y-110490000D01*
X167640000Y-110490000D02*
X165100000Y-110490000D01*
X164465000Y-109855000D02*
X164465000Y-109220000D01*
X165100000Y-110490000D02*
X164465000Y-109855000D01*
X164465000Y-109220000D02*
X163830000Y-108585000D01*
X163830000Y-108585000D02*
X160655000Y-108585000D01*
X160655000Y-108585000D02*
X156845000Y-112395000D01*
X156845000Y-112395000D02*
X156845000Y-113665000D01*
X160020008Y-107950000D02*
X155055007Y-112915001D01*
X169545000Y-107950000D02*
X160020008Y-107950000D01*
X170180000Y-108585000D02*
X169545000Y-107950000D01*
X170180000Y-110490000D02*
X170180000Y-108585000D01*
X168910000Y-111760000D02*
X170180000Y-110490000D01*
X155055007Y-112915001D02*
X154305008Y-113665000D01*
D16*
G36*
X172477184Y-93812163D02*
X172090441Y-94743545D01*
X172089561Y-95752031D01*
X172474678Y-96684086D01*
X173187163Y-97397816D01*
X174118545Y-97784559D01*
X175127031Y-97785439D01*
X176059086Y-97400322D01*
X176455000Y-97005099D01*
X176455000Y-154455032D01*
X176062837Y-154062184D01*
X175131455Y-153675441D01*
X174122969Y-153674561D01*
X173190914Y-154059678D01*
X172477184Y-154772163D01*
X172090441Y-155703545D01*
X172089561Y-156712031D01*
X172474678Y-157644086D01*
X172869901Y-158040000D01*
X147804968Y-158040000D01*
X148197816Y-157647837D01*
X148584559Y-156716455D01*
X148585439Y-155707969D01*
X148200322Y-154775914D01*
X147487837Y-154062184D01*
X146556455Y-153675441D01*
X145547969Y-153674561D01*
X144615914Y-154059678D01*
X144220000Y-154454901D01*
X144220000Y-150219026D01*
X164915042Y-150219026D01*
X165087312Y-150634947D01*
X165481510Y-151066821D01*
X166010973Y-151314968D01*
X166243000Y-151194469D01*
X166243000Y-149987000D01*
X165036183Y-149987000D01*
X164915042Y-150219026D01*
X144220000Y-150219026D01*
X144220000Y-140106400D01*
X152158960Y-140106400D01*
X152158960Y-141833600D01*
X152203238Y-142068917D01*
X152342310Y-142285041D01*
X152554510Y-142430031D01*
X152806400Y-142481040D01*
X154155000Y-142481040D01*
X154155000Y-143184842D01*
X153944603Y-143395239D01*
X153395715Y-143394760D01*
X152886485Y-143605169D01*
X152496539Y-143994436D01*
X152285241Y-144503298D01*
X152284760Y-145054285D01*
X152495169Y-145563515D01*
X152884436Y-145953461D01*
X153393298Y-146164759D01*
X153944285Y-146165240D01*
X154453515Y-145954831D01*
X154843461Y-145565564D01*
X155054759Y-145056702D01*
X155055240Y-144505715D01*
X155055007Y-144505151D01*
X155495079Y-144065079D01*
X155665245Y-143810407D01*
X155725000Y-143510000D01*
X155725000Y-142401487D01*
X156210000Y-142497959D01*
X156783489Y-142383885D01*
X157269670Y-142059029D01*
X157480000Y-141744248D01*
X157690330Y-142059029D01*
X158176511Y-142383885D01*
X158750000Y-142497959D01*
X159323489Y-142383885D01*
X159809670Y-142059029D01*
X160134526Y-141572848D01*
X160248600Y-140999359D01*
X160248600Y-140940641D01*
X160189024Y-140641134D01*
X160631079Y-140199079D01*
X160801245Y-139944407D01*
X160861000Y-139644000D01*
X160861000Y-136159158D01*
X164871400Y-132148758D01*
X164871400Y-132207002D01*
X165036182Y-132207002D01*
X164915042Y-132439026D01*
X165087312Y-132854947D01*
X165481510Y-133286821D01*
X165604228Y-133344336D01*
X165280971Y-133560330D01*
X164956115Y-134046511D01*
X164842041Y-134620000D01*
X164956115Y-135193489D01*
X165280971Y-135679670D01*
X165595752Y-135890000D01*
X165280971Y-136100330D01*
X164956115Y-136586511D01*
X164842041Y-137160000D01*
X164956115Y-137733489D01*
X165280971Y-138219670D01*
X165595752Y-138430000D01*
X165280971Y-138640330D01*
X164956115Y-139126511D01*
X164842041Y-139700000D01*
X164956115Y-140273489D01*
X165280971Y-140759670D01*
X165595752Y-140970000D01*
X165280971Y-141180330D01*
X164956115Y-141666511D01*
X164842041Y-142240000D01*
X164956115Y-142813489D01*
X165280971Y-143299670D01*
X165595752Y-143510000D01*
X165280971Y-143720330D01*
X164956115Y-144206511D01*
X164842041Y-144780000D01*
X164956115Y-145353489D01*
X165280971Y-145839670D01*
X165595752Y-146050000D01*
X165280971Y-146260330D01*
X164956115Y-146746511D01*
X164842041Y-147320000D01*
X164956115Y-147893489D01*
X165280971Y-148379670D01*
X165604228Y-148595664D01*
X165481510Y-148653179D01*
X165087312Y-149085053D01*
X164915042Y-149500974D01*
X165036183Y-149733000D01*
X166243000Y-149733000D01*
X166243000Y-149713000D01*
X166497000Y-149713000D01*
X166497000Y-149733000D01*
X166517000Y-149733000D01*
X166517000Y-149987000D01*
X166497000Y-149987000D01*
X166497000Y-151194469D01*
X166729027Y-151314968D01*
X167258490Y-151066821D01*
X167640008Y-150648839D01*
X167820971Y-150919670D01*
X168307152Y-151244526D01*
X168880641Y-151358600D01*
X168939359Y-151358600D01*
X169512848Y-151244526D01*
X169999029Y-150919670D01*
X170323885Y-150433489D01*
X170437959Y-149860000D01*
X170323885Y-149286511D01*
X169999029Y-148800330D01*
X169684248Y-148590000D01*
X169999029Y-148379670D01*
X170323885Y-147893489D01*
X170437959Y-147320000D01*
X170323885Y-146746511D01*
X169999029Y-146260330D01*
X169684248Y-146050000D01*
X169999029Y-145839670D01*
X170323885Y-145353489D01*
X170437959Y-144780000D01*
X170323885Y-144206511D01*
X169999029Y-143720330D01*
X169675772Y-143504336D01*
X169798490Y-143446821D01*
X170192688Y-143014947D01*
X170364958Y-142599026D01*
X170243817Y-142367000D01*
X169037000Y-142367000D01*
X169037000Y-142387000D01*
X168783000Y-142387000D01*
X168783000Y-142367000D01*
X168763000Y-142367000D01*
X168763000Y-142113000D01*
X168783000Y-142113000D01*
X168783000Y-142093000D01*
X169037000Y-142093000D01*
X169037000Y-142113000D01*
X170243817Y-142113000D01*
X170364958Y-141880974D01*
X170192688Y-141465053D01*
X169798490Y-141033179D01*
X169675772Y-140975664D01*
X169999029Y-140759670D01*
X170323885Y-140273489D01*
X170437959Y-139700000D01*
X170323885Y-139126511D01*
X169999029Y-138640330D01*
X169675772Y-138424336D01*
X169798490Y-138366821D01*
X170192688Y-137934947D01*
X170364958Y-137519026D01*
X170243817Y-137287000D01*
X169037000Y-137287000D01*
X169037000Y-137307000D01*
X168783000Y-137307000D01*
X168783000Y-137287000D01*
X168763000Y-137287000D01*
X168763000Y-137033000D01*
X168783000Y-137033000D01*
X168783000Y-137013000D01*
X169037000Y-137013000D01*
X169037000Y-137033000D01*
X170243817Y-137033000D01*
X170364958Y-136800974D01*
X170192688Y-136385053D01*
X169798490Y-135953179D01*
X169675772Y-135895664D01*
X169999029Y-135679670D01*
X170323885Y-135193489D01*
X170437959Y-134620000D01*
X170323885Y-134046511D01*
X169999029Y-133560330D01*
X169684248Y-133350000D01*
X169999029Y-133139670D01*
X170323885Y-132653489D01*
X170437959Y-132080000D01*
X170323885Y-131506511D01*
X169999029Y-131020330D01*
X169684248Y-130810000D01*
X169999029Y-130599670D01*
X170323885Y-130113489D01*
X170437959Y-129540000D01*
X170323885Y-128966511D01*
X169999029Y-128480330D01*
X169684248Y-128270000D01*
X169999029Y-128059670D01*
X170323885Y-127573489D01*
X170437959Y-127000000D01*
X170323885Y-126426511D01*
X169999029Y-125940330D01*
X169675772Y-125724336D01*
X169798490Y-125666821D01*
X170192688Y-125234947D01*
X170364958Y-124819026D01*
X170243817Y-124587000D01*
X169037000Y-124587000D01*
X169037000Y-124607000D01*
X168783000Y-124607000D01*
X168783000Y-124587000D01*
X168763000Y-124587000D01*
X168763000Y-124333000D01*
X168783000Y-124333000D01*
X168783000Y-124313000D01*
X169037000Y-124313000D01*
X169037000Y-124333000D01*
X170243817Y-124333000D01*
X170364958Y-124100974D01*
X170192688Y-123685053D01*
X169798490Y-123253179D01*
X169675772Y-123195664D01*
X169999029Y-122979670D01*
X170323885Y-122493489D01*
X170437959Y-121920000D01*
X170323885Y-121346511D01*
X169999029Y-120860330D01*
X169684248Y-120650000D01*
X169999029Y-120439670D01*
X170323885Y-119953489D01*
X170437959Y-119380000D01*
X170323885Y-118806511D01*
X169999029Y-118320330D01*
X169675772Y-118104336D01*
X169798490Y-118046821D01*
X170192688Y-117614947D01*
X170364958Y-117199026D01*
X170243817Y-116967000D01*
X169037000Y-116967000D01*
X169037000Y-116987000D01*
X168783000Y-116987000D01*
X168783000Y-116967000D01*
X168763000Y-116967000D01*
X168763000Y-116713000D01*
X168783000Y-116713000D01*
X168783000Y-116693000D01*
X169037000Y-116693000D01*
X169037000Y-116713000D01*
X170243817Y-116713000D01*
X170364958Y-116480974D01*
X170192688Y-116065053D01*
X169798490Y-115633179D01*
X169675772Y-115575664D01*
X169999029Y-115359670D01*
X170323885Y-114873489D01*
X170437959Y-114300000D01*
X170323885Y-113726511D01*
X169999029Y-113240330D01*
X169684248Y-113030000D01*
X169999029Y-112819670D01*
X170323885Y-112333489D01*
X170437959Y-111760000D01*
X170368641Y-111411517D01*
X170735079Y-111045079D01*
X170905245Y-110790407D01*
X170965000Y-110490000D01*
X170965000Y-108585005D01*
X170965001Y-108585000D01*
X170905245Y-108284594D01*
X170735079Y-108029921D01*
X170177140Y-107471982D01*
X170192688Y-107454947D01*
X170364958Y-107039026D01*
X170243817Y-106807000D01*
X169037000Y-106807000D01*
X169037000Y-106827000D01*
X168783000Y-106827000D01*
X168783000Y-106807000D01*
X168763000Y-106807000D01*
X168763000Y-106553000D01*
X168783000Y-106553000D01*
X168783000Y-106533000D01*
X169037000Y-106533000D01*
X169037000Y-106553000D01*
X170243817Y-106553000D01*
X170364958Y-106320974D01*
X170192688Y-105905053D01*
X169798490Y-105473179D01*
X169675772Y-105415664D01*
X169999029Y-105199670D01*
X170323885Y-104713489D01*
X170437959Y-104140000D01*
X170323885Y-103566511D01*
X169999029Y-103080330D01*
X169684248Y-102870000D01*
X169999029Y-102659670D01*
X170323885Y-102173489D01*
X170437959Y-101600000D01*
X170323885Y-101026511D01*
X169999029Y-100540330D01*
X169512848Y-100215474D01*
X168939359Y-100101400D01*
X168880641Y-100101400D01*
X168307152Y-100215474D01*
X167841558Y-100526574D01*
X167836762Y-100501083D01*
X167697690Y-100284959D01*
X167485490Y-100139969D01*
X167233600Y-100088960D01*
X165506400Y-100088960D01*
X165271083Y-100133238D01*
X165054959Y-100272310D01*
X164909969Y-100484510D01*
X164858960Y-100736400D01*
X164858960Y-102463600D01*
X164903238Y-102698917D01*
X165042310Y-102915041D01*
X165254510Y-103060031D01*
X165298131Y-103068864D01*
X165280971Y-103080330D01*
X164956115Y-103566511D01*
X164842041Y-104140000D01*
X164956115Y-104713489D01*
X165280971Y-105199670D01*
X165595752Y-105410000D01*
X165280971Y-105620330D01*
X164956115Y-106106511D01*
X164842041Y-106680000D01*
X164938513Y-107165000D01*
X160020008Y-107165000D01*
X159719602Y-107224755D01*
X159464929Y-107394921D01*
X154579611Y-112280239D01*
X154030723Y-112279760D01*
X153521493Y-112490169D01*
X153131547Y-112879436D01*
X152920249Y-113388298D01*
X152919768Y-113939285D01*
X153130177Y-114448515D01*
X153519444Y-114838461D01*
X154028306Y-115049759D01*
X154579293Y-115050240D01*
X155088523Y-114839831D01*
X155478469Y-114450564D01*
X155574980Y-114218140D01*
X155670169Y-114448515D01*
X156059436Y-114838461D01*
X156568298Y-115049759D01*
X157119285Y-115050240D01*
X157628515Y-114839831D01*
X158018461Y-114450564D01*
X158229759Y-113941702D01*
X158230240Y-113390715D01*
X158019831Y-112881485D01*
X157744492Y-112605666D01*
X160980158Y-109370000D01*
X163504842Y-109370000D01*
X163680000Y-109545158D01*
X163680000Y-109855000D01*
X163739755Y-110155407D01*
X163909921Y-110410079D01*
X164544921Y-111045079D01*
X164799594Y-111215245D01*
X164977326Y-111250599D01*
X164915042Y-111400974D01*
X165036183Y-111633000D01*
X166243000Y-111633000D01*
X166243000Y-111613000D01*
X166497000Y-111613000D01*
X166497000Y-111633000D01*
X166517000Y-111633000D01*
X166517000Y-111887000D01*
X166497000Y-111887000D01*
X166497000Y-111907000D01*
X166243000Y-111907000D01*
X166243000Y-111887000D01*
X165036183Y-111887000D01*
X164915042Y-112119026D01*
X165087312Y-112534947D01*
X165481510Y-112966821D01*
X165604228Y-113024336D01*
X165280971Y-113240330D01*
X164956115Y-113726511D01*
X164842041Y-114300000D01*
X164956115Y-114873489D01*
X165280971Y-115359670D01*
X165595752Y-115570000D01*
X165280971Y-115780330D01*
X164956115Y-116266511D01*
X164842041Y-116840000D01*
X164956115Y-117413489D01*
X165280971Y-117899670D01*
X165595752Y-118110000D01*
X165280971Y-118320330D01*
X164956115Y-118806511D01*
X164842041Y-119380000D01*
X164956115Y-119953489D01*
X165280971Y-120439670D01*
X165595752Y-120650000D01*
X165280971Y-120860330D01*
X164956115Y-121346511D01*
X164842041Y-121920000D01*
X164911359Y-122268483D01*
X163909921Y-123269921D01*
X163739755Y-123524593D01*
X163739755Y-123524594D01*
X163680000Y-123825000D01*
X163680000Y-126039842D01*
X153114921Y-136604921D01*
X152944755Y-136859593D01*
X152944755Y-136859594D01*
X152885587Y-137157050D01*
X152610330Y-137340971D01*
X152285474Y-137827152D01*
X152171400Y-138400641D01*
X152171400Y-138459359D01*
X152285474Y-139032848D01*
X152596574Y-139498442D01*
X152571083Y-139503238D01*
X152354959Y-139642310D01*
X152209969Y-139854510D01*
X152158960Y-140106400D01*
X144220000Y-140106400D01*
X144220000Y-97004968D01*
X144612163Y-97397816D01*
X145543545Y-97784559D01*
X146552031Y-97785439D01*
X147484086Y-97400322D01*
X148197816Y-96687837D01*
X148584559Y-95756455D01*
X148585439Y-94747969D01*
X148200322Y-93815914D01*
X147805099Y-93420000D01*
X172870032Y-93420000D01*
X172477184Y-93812163D01*
X172477184Y-93812163D01*
G37*
X172477184Y-93812163D02*
X172090441Y-94743545D01*
X172089561Y-95752031D01*
X172474678Y-96684086D01*
X173187163Y-97397816D01*
X174118545Y-97784559D01*
X175127031Y-97785439D01*
X176059086Y-97400322D01*
X176455000Y-97005099D01*
X176455000Y-154455032D01*
X176062837Y-154062184D01*
X175131455Y-153675441D01*
X174122969Y-153674561D01*
X173190914Y-154059678D01*
X172477184Y-154772163D01*
X172090441Y-155703545D01*
X172089561Y-156712031D01*
X172474678Y-157644086D01*
X172869901Y-158040000D01*
X147804968Y-158040000D01*
X148197816Y-157647837D01*
X148584559Y-156716455D01*
X148585439Y-155707969D01*
X148200322Y-154775914D01*
X147487837Y-154062184D01*
X146556455Y-153675441D01*
X145547969Y-153674561D01*
X144615914Y-154059678D01*
X144220000Y-154454901D01*
X144220000Y-150219026D01*
X164915042Y-150219026D01*
X165087312Y-150634947D01*
X165481510Y-151066821D01*
X166010973Y-151314968D01*
X166243000Y-151194469D01*
X166243000Y-149987000D01*
X165036183Y-149987000D01*
X164915042Y-150219026D01*
X144220000Y-150219026D01*
X144220000Y-140106400D01*
X152158960Y-140106400D01*
X152158960Y-141833600D01*
X152203238Y-142068917D01*
X152342310Y-142285041D01*
X152554510Y-142430031D01*
X152806400Y-142481040D01*
X154155000Y-142481040D01*
X154155000Y-143184842D01*
X153944603Y-143395239D01*
X153395715Y-143394760D01*
X152886485Y-143605169D01*
X152496539Y-143994436D01*
X152285241Y-144503298D01*
X152284760Y-145054285D01*
X152495169Y-145563515D01*
X152884436Y-145953461D01*
X153393298Y-146164759D01*
X153944285Y-146165240D01*
X154453515Y-145954831D01*
X154843461Y-145565564D01*
X155054759Y-145056702D01*
X155055240Y-144505715D01*
X155055007Y-144505151D01*
X155495079Y-144065079D01*
X155665245Y-143810407D01*
X155725000Y-143510000D01*
X155725000Y-142401487D01*
X156210000Y-142497959D01*
X156783489Y-142383885D01*
X157269670Y-142059029D01*
X157480000Y-141744248D01*
X157690330Y-142059029D01*
X158176511Y-142383885D01*
X158750000Y-142497959D01*
X159323489Y-142383885D01*
X159809670Y-142059029D01*
X160134526Y-141572848D01*
X160248600Y-140999359D01*
X160248600Y-140940641D01*
X160189024Y-140641134D01*
X160631079Y-140199079D01*
X160801245Y-139944407D01*
X160861000Y-139644000D01*
X160861000Y-136159158D01*
X164871400Y-132148758D01*
X164871400Y-132207002D01*
X165036182Y-132207002D01*
X164915042Y-132439026D01*
X165087312Y-132854947D01*
X165481510Y-133286821D01*
X165604228Y-133344336D01*
X165280971Y-133560330D01*
X164956115Y-134046511D01*
X164842041Y-134620000D01*
X164956115Y-135193489D01*
X165280971Y-135679670D01*
X165595752Y-135890000D01*
X165280971Y-136100330D01*
X164956115Y-136586511D01*
X164842041Y-137160000D01*
X164956115Y-137733489D01*
X165280971Y-138219670D01*
X165595752Y-138430000D01*
X165280971Y-138640330D01*
X164956115Y-139126511D01*
X164842041Y-139700000D01*
X164956115Y-140273489D01*
X165280971Y-140759670D01*
X165595752Y-140970000D01*
X165280971Y-141180330D01*
X164956115Y-141666511D01*
X164842041Y-142240000D01*
X164956115Y-142813489D01*
X165280971Y-143299670D01*
X165595752Y-143510000D01*
X165280971Y-143720330D01*
X164956115Y-144206511D01*
X164842041Y-144780000D01*
X164956115Y-145353489D01*
X165280971Y-145839670D01*
X165595752Y-146050000D01*
X165280971Y-146260330D01*
X164956115Y-146746511D01*
X164842041Y-147320000D01*
X164956115Y-147893489D01*
X165280971Y-148379670D01*
X165604228Y-148595664D01*
X165481510Y-148653179D01*
X165087312Y-149085053D01*
X164915042Y-149500974D01*
X165036183Y-149733000D01*
X166243000Y-149733000D01*
X166243000Y-149713000D01*
X166497000Y-149713000D01*
X166497000Y-149733000D01*
X166517000Y-149733000D01*
X166517000Y-149987000D01*
X166497000Y-149987000D01*
X166497000Y-151194469D01*
X166729027Y-151314968D01*
X167258490Y-151066821D01*
X167640008Y-150648839D01*
X167820971Y-150919670D01*
X168307152Y-151244526D01*
X168880641Y-151358600D01*
X168939359Y-151358600D01*
X169512848Y-151244526D01*
X169999029Y-150919670D01*
X170323885Y-150433489D01*
X170437959Y-149860000D01*
X170323885Y-149286511D01*
X169999029Y-148800330D01*
X169684248Y-148590000D01*
X169999029Y-148379670D01*
X170323885Y-147893489D01*
X170437959Y-147320000D01*
X170323885Y-146746511D01*
X169999029Y-146260330D01*
X169684248Y-146050000D01*
X169999029Y-145839670D01*
X170323885Y-145353489D01*
X170437959Y-144780000D01*
X170323885Y-144206511D01*
X169999029Y-143720330D01*
X169675772Y-143504336D01*
X169798490Y-143446821D01*
X170192688Y-143014947D01*
X170364958Y-142599026D01*
X170243817Y-142367000D01*
X169037000Y-142367000D01*
X169037000Y-142387000D01*
X168783000Y-142387000D01*
X168783000Y-142367000D01*
X168763000Y-142367000D01*
X168763000Y-142113000D01*
X168783000Y-142113000D01*
X168783000Y-142093000D01*
X169037000Y-142093000D01*
X169037000Y-142113000D01*
X170243817Y-142113000D01*
X170364958Y-141880974D01*
X170192688Y-141465053D01*
X169798490Y-141033179D01*
X169675772Y-140975664D01*
X169999029Y-140759670D01*
X170323885Y-140273489D01*
X170437959Y-139700000D01*
X170323885Y-139126511D01*
X169999029Y-138640330D01*
X169675772Y-138424336D01*
X169798490Y-138366821D01*
X170192688Y-137934947D01*
X170364958Y-137519026D01*
X170243817Y-137287000D01*
X169037000Y-137287000D01*
X169037000Y-137307000D01*
X168783000Y-137307000D01*
X168783000Y-137287000D01*
X168763000Y-137287000D01*
X168763000Y-137033000D01*
X168783000Y-137033000D01*
X168783000Y-137013000D01*
X169037000Y-137013000D01*
X169037000Y-137033000D01*
X170243817Y-137033000D01*
X170364958Y-136800974D01*
X170192688Y-136385053D01*
X169798490Y-135953179D01*
X169675772Y-135895664D01*
X169999029Y-135679670D01*
X170323885Y-135193489D01*
X170437959Y-134620000D01*
X170323885Y-134046511D01*
X169999029Y-133560330D01*
X169684248Y-133350000D01*
X169999029Y-133139670D01*
X170323885Y-132653489D01*
X170437959Y-132080000D01*
X170323885Y-131506511D01*
X169999029Y-131020330D01*
X169684248Y-130810000D01*
X169999029Y-130599670D01*
X170323885Y-130113489D01*
X170437959Y-129540000D01*
X170323885Y-128966511D01*
X169999029Y-128480330D01*
X169684248Y-128270000D01*
X169999029Y-128059670D01*
X170323885Y-127573489D01*
X170437959Y-127000000D01*
X170323885Y-126426511D01*
X169999029Y-125940330D01*
X169675772Y-125724336D01*
X169798490Y-125666821D01*
X170192688Y-125234947D01*
X170364958Y-124819026D01*
X170243817Y-124587000D01*
X169037000Y-124587000D01*
X169037000Y-124607000D01*
X168783000Y-124607000D01*
X168783000Y-124587000D01*
X168763000Y-124587000D01*
X168763000Y-124333000D01*
X168783000Y-124333000D01*
X168783000Y-124313000D01*
X169037000Y-124313000D01*
X169037000Y-124333000D01*
X170243817Y-124333000D01*
X170364958Y-124100974D01*
X170192688Y-123685053D01*
X169798490Y-123253179D01*
X169675772Y-123195664D01*
X169999029Y-122979670D01*
X170323885Y-122493489D01*
X170437959Y-121920000D01*
X170323885Y-121346511D01*
X169999029Y-120860330D01*
X169684248Y-120650000D01*
X169999029Y-120439670D01*
X170323885Y-119953489D01*
X170437959Y-119380000D01*
X170323885Y-118806511D01*
X169999029Y-118320330D01*
X169675772Y-118104336D01*
X169798490Y-118046821D01*
X170192688Y-117614947D01*
X170364958Y-117199026D01*
X170243817Y-116967000D01*
X169037000Y-116967000D01*
X169037000Y-116987000D01*
X168783000Y-116987000D01*
X168783000Y-116967000D01*
X168763000Y-116967000D01*
X168763000Y-116713000D01*
X168783000Y-116713000D01*
X168783000Y-116693000D01*
X169037000Y-116693000D01*
X169037000Y-116713000D01*
X170243817Y-116713000D01*
X170364958Y-116480974D01*
X170192688Y-116065053D01*
X169798490Y-115633179D01*
X169675772Y-115575664D01*
X169999029Y-115359670D01*
X170323885Y-114873489D01*
X170437959Y-114300000D01*
X170323885Y-113726511D01*
X169999029Y-113240330D01*
X169684248Y-113030000D01*
X169999029Y-112819670D01*
X170323885Y-112333489D01*
X170437959Y-111760000D01*
X170368641Y-111411517D01*
X170735079Y-111045079D01*
X170905245Y-110790407D01*
X170965000Y-110490000D01*
X170965000Y-108585005D01*
X170965001Y-108585000D01*
X170905245Y-108284594D01*
X170735079Y-108029921D01*
X170177140Y-107471982D01*
X170192688Y-107454947D01*
X170364958Y-107039026D01*
X170243817Y-106807000D01*
X169037000Y-106807000D01*
X169037000Y-106827000D01*
X168783000Y-106827000D01*
X168783000Y-106807000D01*
X168763000Y-106807000D01*
X168763000Y-106553000D01*
X168783000Y-106553000D01*
X168783000Y-106533000D01*
X169037000Y-106533000D01*
X169037000Y-106553000D01*
X170243817Y-106553000D01*
X170364958Y-106320974D01*
X170192688Y-105905053D01*
X169798490Y-105473179D01*
X169675772Y-105415664D01*
X169999029Y-105199670D01*
X170323885Y-104713489D01*
X170437959Y-104140000D01*
X170323885Y-103566511D01*
X169999029Y-103080330D01*
X169684248Y-102870000D01*
X169999029Y-102659670D01*
X170323885Y-102173489D01*
X170437959Y-101600000D01*
X170323885Y-101026511D01*
X169999029Y-100540330D01*
X169512848Y-100215474D01*
X168939359Y-100101400D01*
X168880641Y-100101400D01*
X168307152Y-100215474D01*
X167841558Y-100526574D01*
X167836762Y-100501083D01*
X167697690Y-100284959D01*
X167485490Y-100139969D01*
X167233600Y-100088960D01*
X165506400Y-100088960D01*
X165271083Y-100133238D01*
X165054959Y-100272310D01*
X164909969Y-100484510D01*
X164858960Y-100736400D01*
X164858960Y-102463600D01*
X164903238Y-102698917D01*
X165042310Y-102915041D01*
X165254510Y-103060031D01*
X165298131Y-103068864D01*
X165280971Y-103080330D01*
X164956115Y-103566511D01*
X164842041Y-104140000D01*
X164956115Y-104713489D01*
X165280971Y-105199670D01*
X165595752Y-105410000D01*
X165280971Y-105620330D01*
X164956115Y-106106511D01*
X164842041Y-106680000D01*
X164938513Y-107165000D01*
X160020008Y-107165000D01*
X159719602Y-107224755D01*
X159464929Y-107394921D01*
X154579611Y-112280239D01*
X154030723Y-112279760D01*
X153521493Y-112490169D01*
X153131547Y-112879436D01*
X152920249Y-113388298D01*
X152919768Y-113939285D01*
X153130177Y-114448515D01*
X153519444Y-114838461D01*
X154028306Y-115049759D01*
X154579293Y-115050240D01*
X155088523Y-114839831D01*
X155478469Y-114450564D01*
X155574980Y-114218140D01*
X155670169Y-114448515D01*
X156059436Y-114838461D01*
X156568298Y-115049759D01*
X157119285Y-115050240D01*
X157628515Y-114839831D01*
X158018461Y-114450564D01*
X158229759Y-113941702D01*
X158230240Y-113390715D01*
X158019831Y-112881485D01*
X157744492Y-112605666D01*
X160980158Y-109370000D01*
X163504842Y-109370000D01*
X163680000Y-109545158D01*
X163680000Y-109855000D01*
X163739755Y-110155407D01*
X163909921Y-110410079D01*
X164544921Y-111045079D01*
X164799594Y-111215245D01*
X164977326Y-111250599D01*
X164915042Y-111400974D01*
X165036183Y-111633000D01*
X166243000Y-111633000D01*
X166243000Y-111613000D01*
X166497000Y-111613000D01*
X166497000Y-111633000D01*
X166517000Y-111633000D01*
X166517000Y-111887000D01*
X166497000Y-111887000D01*
X166497000Y-111907000D01*
X166243000Y-111907000D01*
X166243000Y-111887000D01*
X165036183Y-111887000D01*
X164915042Y-112119026D01*
X165087312Y-112534947D01*
X165481510Y-112966821D01*
X165604228Y-113024336D01*
X165280971Y-113240330D01*
X164956115Y-113726511D01*
X164842041Y-114300000D01*
X164956115Y-114873489D01*
X165280971Y-115359670D01*
X165595752Y-115570000D01*
X165280971Y-115780330D01*
X164956115Y-116266511D01*
X164842041Y-116840000D01*
X164956115Y-117413489D01*
X165280971Y-117899670D01*
X165595752Y-118110000D01*
X165280971Y-118320330D01*
X164956115Y-118806511D01*
X164842041Y-119380000D01*
X164956115Y-119953489D01*
X165280971Y-120439670D01*
X165595752Y-120650000D01*
X165280971Y-120860330D01*
X164956115Y-121346511D01*
X164842041Y-121920000D01*
X164911359Y-122268483D01*
X163909921Y-123269921D01*
X163739755Y-123524593D01*
X163739755Y-123524594D01*
X163680000Y-123825000D01*
X163680000Y-126039842D01*
X153114921Y-136604921D01*
X152944755Y-136859593D01*
X152944755Y-136859594D01*
X152885587Y-137157050D01*
X152610330Y-137340971D01*
X152285474Y-137827152D01*
X152171400Y-138400641D01*
X152171400Y-138459359D01*
X152285474Y-139032848D01*
X152596574Y-139498442D01*
X152571083Y-139503238D01*
X152354959Y-139642310D01*
X152209969Y-139854510D01*
X152158960Y-140106400D01*
X144220000Y-140106400D01*
X144220000Y-97004968D01*
X144612163Y-97397816D01*
X145543545Y-97784559D01*
X146552031Y-97785439D01*
X147484086Y-97400322D01*
X148197816Y-96687837D01*
X148584559Y-95756455D01*
X148585439Y-94747969D01*
X148200322Y-93815914D01*
X147805099Y-93420000D01*
X172870032Y-93420000D01*
X172477184Y-93812163D01*
G36*
X167820971Y-140759670D02*
X168144228Y-140975664D01*
X168021510Y-141033179D01*
X167639992Y-141451161D01*
X167459029Y-141180330D01*
X167144248Y-140970000D01*
X167459029Y-140759670D01*
X167640000Y-140488828D01*
X167820971Y-140759670D01*
X167820971Y-140759670D01*
G37*
X167820971Y-140759670D02*
X168144228Y-140975664D01*
X168021510Y-141033179D01*
X167639992Y-141451161D01*
X167459029Y-141180330D01*
X167144248Y-140970000D01*
X167459029Y-140759670D01*
X167640000Y-140488828D01*
X167820971Y-140759670D01*
G36*
X168021510Y-138366821D02*
X168144228Y-138424336D01*
X167820971Y-138640330D01*
X167640000Y-138911172D01*
X167459029Y-138640330D01*
X167144248Y-138430000D01*
X167459029Y-138219670D01*
X167639992Y-137948839D01*
X168021510Y-138366821D01*
X168021510Y-138366821D01*
G37*
X168021510Y-138366821D02*
X168144228Y-138424336D01*
X167820971Y-138640330D01*
X167640000Y-138911172D01*
X167459029Y-138640330D01*
X167144248Y-138430000D01*
X167459029Y-138219670D01*
X167639992Y-137948839D01*
X168021510Y-138366821D01*
G36*
X158877000Y-138303000D02*
X158897000Y-138303000D01*
X158897000Y-138557000D01*
X158877000Y-138557000D01*
X158877000Y-138577000D01*
X158623000Y-138577000D01*
X158623000Y-138557000D01*
X158603000Y-138557000D01*
X158603000Y-138303000D01*
X158623000Y-138303000D01*
X158623000Y-138283000D01*
X158877000Y-138283000D01*
X158877000Y-138303000D01*
X158877000Y-138303000D01*
G37*
X158877000Y-138303000D02*
X158897000Y-138303000D01*
X158897000Y-138557000D01*
X158877000Y-138557000D01*
X158877000Y-138577000D01*
X158623000Y-138577000D01*
X158623000Y-138557000D01*
X158603000Y-138557000D01*
X158603000Y-138303000D01*
X158623000Y-138303000D01*
X158623000Y-138283000D01*
X158877000Y-138283000D01*
X158877000Y-138303000D01*
G36*
X167820971Y-133139670D02*
X168135752Y-133350000D01*
X167820971Y-133560330D01*
X167640000Y-133831172D01*
X167459029Y-133560330D01*
X167135772Y-133344336D01*
X167258490Y-133286821D01*
X167640008Y-132868839D01*
X167820971Y-133139670D01*
X167820971Y-133139670D01*
G37*
X167820971Y-133139670D02*
X168135752Y-133350000D01*
X167820971Y-133560330D01*
X167640000Y-133831172D01*
X167459029Y-133560330D01*
X167135772Y-133344336D01*
X167258490Y-133286821D01*
X167640008Y-132868839D01*
X167820971Y-133139670D01*
G36*
X166497000Y-131953000D02*
X166517000Y-131953000D01*
X166517000Y-132207000D01*
X166497000Y-132207000D01*
X166497000Y-132227000D01*
X166243000Y-132227000D01*
X166243000Y-132207000D01*
X166223000Y-132207000D01*
X166223000Y-131953000D01*
X166243000Y-131953000D01*
X166243000Y-131933000D01*
X166497000Y-131933000D01*
X166497000Y-131953000D01*
X166497000Y-131953000D01*
G37*
X166497000Y-131953000D02*
X166517000Y-131953000D01*
X166517000Y-132207000D01*
X166497000Y-132207000D01*
X166497000Y-132227000D01*
X166243000Y-132227000D01*
X166243000Y-132207000D01*
X166223000Y-132207000D01*
X166223000Y-131953000D01*
X166243000Y-131953000D01*
X166243000Y-131933000D01*
X166497000Y-131933000D01*
X166497000Y-131953000D01*
G36*
X167820971Y-122979670D02*
X168144228Y-123195664D01*
X168021510Y-123253179D01*
X167639992Y-123671161D01*
X167459029Y-123400330D01*
X167144248Y-123190000D01*
X167459029Y-122979670D01*
X167640000Y-122708828D01*
X167820971Y-122979670D01*
X167820971Y-122979670D01*
G37*
X167820971Y-122979670D02*
X168144228Y-123195664D01*
X168021510Y-123253179D01*
X167639992Y-123671161D01*
X167459029Y-123400330D01*
X167144248Y-123190000D01*
X167459029Y-122979670D01*
X167640000Y-122708828D01*
X167820971Y-122979670D01*
G36*
X168021510Y-118046821D02*
X168144228Y-118104336D01*
X167820971Y-118320330D01*
X167640000Y-118591172D01*
X167459029Y-118320330D01*
X167144248Y-118110000D01*
X167459029Y-117899670D01*
X167639992Y-117628839D01*
X168021510Y-118046821D01*
X168021510Y-118046821D01*
G37*
X168021510Y-118046821D02*
X168144228Y-118104336D01*
X167820971Y-118320330D01*
X167640000Y-118591172D01*
X167459029Y-118320330D01*
X167144248Y-118110000D01*
X167459029Y-117899670D01*
X167639992Y-117628839D01*
X168021510Y-118046821D01*
G36*
X167820971Y-112819670D02*
X168135752Y-113030000D01*
X167820971Y-113240330D01*
X167640000Y-113511172D01*
X167459029Y-113240330D01*
X167135772Y-113024336D01*
X167258490Y-112966821D01*
X167640008Y-112548839D01*
X167820971Y-112819670D01*
X167820971Y-112819670D01*
G37*
X167820971Y-112819670D02*
X168135752Y-113030000D01*
X167820971Y-113240330D01*
X167640000Y-113511172D01*
X167459029Y-113240330D01*
X167135772Y-113024336D01*
X167258490Y-112966821D01*
X167640008Y-112548839D01*
X167820971Y-112819670D01*
M02*
